<?xml version="1.0" encoding="UTF-8"?>
<!--Generator: Apple Native CoreSVG 123-->
<!DOCTYPE svg
PUBLIC "-//W3C//DTD SVG 1.1//EN"
       "http://www.w3.org/Graphics/SVG/1.1/DTD/svg11.dtd">
<svg version="1.1" xmlns="http://www.w3.org/2000/svg" xmlns:xlink="http://www.w3.org/1999/xlink" width="3300" height="2200">
 <!--glyph: "uni100615.medium", point size: 100.000000, font version: "Version 15.0d7e11", template writer version: "5"-->
 <g id="Notes">
  <rect height="2200" id="artboard" style="fill:white;opacity:1" width="3300" x="0" y="0"/>
  <line id="" style="fill:none;stroke:black;opacity:1;stroke-width:0.5;" x1="263" x2="3036" y1="292" y2="292"/>
  <text style="stroke:none;fill:black;font-family:-apple-system,&quot;SF Pro Display&quot;,&quot;SF Pro Text&quot;,Helvetica,sans-serif;font-weight:bold;" transform="matrix(1 0 0 1 263 322)">Weight/Scale Variations</text>
  <text style="stroke:none;fill:black;font-family:-apple-system,&quot;SF Pro Display&quot;,&quot;SF Pro Text&quot;,Helvetica,sans-serif;text-anchor:middle;" transform="matrix(1 0 0 1 559.711 322)">Ultralight</text>
  <text style="stroke:none;fill:black;font-family:-apple-system,&quot;SF Pro Display&quot;,&quot;SF Pro Text&quot;,Helvetica,sans-serif;text-anchor:middle;" transform="matrix(1 0 0 1 856.422 322)">Thin</text>
  <text style="stroke:none;fill:black;font-family:-apple-system,&quot;SF Pro Display&quot;,&quot;SF Pro Text&quot;,Helvetica,sans-serif;text-anchor:middle;" transform="matrix(1 0 0 1 1153.13 322)">Light</text>
  <text style="stroke:none;fill:black;font-family:-apple-system,&quot;SF Pro Display&quot;,&quot;SF Pro Text&quot;,Helvetica,sans-serif;text-anchor:middle;" transform="matrix(1 0 0 1 1449.84 322)">Regular</text>
  <text style="stroke:none;fill:black;font-family:-apple-system,&quot;SF Pro Display&quot;,&quot;SF Pro Text&quot;,Helvetica,sans-serif;text-anchor:middle;" transform="matrix(1 0 0 1 1746.56 322)">Medium</text>
  <text style="stroke:none;fill:black;font-family:-apple-system,&quot;SF Pro Display&quot;,&quot;SF Pro Text&quot;,Helvetica,sans-serif;text-anchor:middle;" transform="matrix(1 0 0 1 2043.27 322)">Semibold</text>
  <text style="stroke:none;fill:black;font-family:-apple-system,&quot;SF Pro Display&quot;,&quot;SF Pro Text&quot;,Helvetica,sans-serif;text-anchor:middle;" transform="matrix(1 0 0 1 2339.98 322)">Bold</text>
  <text style="stroke:none;fill:black;font-family:-apple-system,&quot;SF Pro Display&quot;,&quot;SF Pro Text&quot;,Helvetica,sans-serif;text-anchor:middle;" transform="matrix(1 0 0 1 2636.69 322)">Heavy</text>
  <text style="stroke:none;fill:black;font-family:-apple-system,&quot;SF Pro Display&quot;,&quot;SF Pro Text&quot;,Helvetica,sans-serif;text-anchor:middle;" transform="matrix(1 0 0 1 2933.4 322)">Black</text>
  <line id="" style="fill:none;stroke:black;opacity:1;stroke-width:0.5;" x1="263" x2="3036" y1="1903" y2="1903"/>
  <g id="" transform="matrix(1 0 0 1 263 1933)">
   <path d="M 9.24805 0.830078 C 13.5547 0.830078 17.1387 -2.74414 17.1387 -7.05078 C 17.1387 -11.3574 13.5449 -14.9316 9.23828 -14.9316 C 4.94141 -14.9316 1.36719 -11.3574 1.36719 -7.05078 C 1.36719 -2.74414 4.95117 0.830078 9.24805 0.830078 Z M 9.24805 -0.654297 C 5.70312 -0.654297 2.87109 -3.49609 2.87109 -7.05078 C 2.87109 -10.6055 5.69336 -13.4473 9.23828 -13.4473 C 12.793 -13.4473 15.6348 -10.6055 15.6445 -7.05078 C 15.6543 -3.49609 12.8027 -0.654297 9.24805 -0.654297 Z M 9.22852 -3.42773 C 9.69727 -3.42773 9.9707 -3.74023 9.9707 -4.25781 L 9.9707 -6.31836 L 12.1973 -6.31836 C 12.6953 -6.31836 13.0371 -6.57227 13.0371 -7.04102 C 13.0371 -7.51953 12.7148 -7.7832 12.1973 -7.7832 L 9.9707 -7.7832 L 9.9707 -10.0098 C 9.9707 -10.5273 9.69727 -10.8496 9.22852 -10.8496 C 8.75977 -10.8496 8.50586 -10.5078 8.50586 -10.0098 L 8.50586 -7.7832 L 6.29883 -7.7832 C 5.78125 -7.7832 5.44922 -7.51953 5.44922 -7.04102 C 5.44922 -6.57227 5.80078 -6.31836 6.29883 -6.31836 L 8.50586 -6.31836 L 8.50586 -4.25781 C 8.50586 -3.75977 8.75977 -3.42773 9.22852 -3.42773 Z"/>
  </g>
  <g id="" transform="matrix(1 0 0 1 281.506 1933)">
   <path d="M 11.709 2.91016 C 17.1582 2.91016 21.6699 -1.60156 21.6699 -7.05078 C 21.6699 -12.4902 17.1484 -17.0117 11.6992 -17.0117 C 6.25977 -17.0117 1.74805 -12.4902 1.74805 -7.05078 C 1.74805 -1.60156 6.26953 2.91016 11.709 2.91016 Z M 11.709 1.25 C 7.09961 1.25 3.41797 -2.44141 3.41797 -7.05078 C 3.41797 -11.6504 7.08984 -15.3516 11.6992 -15.3516 C 16.3086 -15.3516 20 -11.6504 20.0098 -7.05078 C 20.0195 -2.44141 16.3184 1.25 11.709 1.25 Z M 11.6895 -2.41211 C 12.207 -2.41211 12.5195 -2.77344 12.5195 -3.33984 L 12.5195 -6.23047 L 15.5762 -6.23047 C 16.123 -6.23047 16.5039 -6.51367 16.5039 -7.03125 C 16.5039 -7.55859 16.1426 -7.86133 15.5762 -7.86133 L 12.5195 -7.86133 L 12.5195 -10.9277 C 12.5195 -11.5039 12.207 -11.8555 11.6895 -11.8555 C 11.1719 -11.8555 10.8789 -11.4844 10.8789 -10.9277 L 10.8789 -7.86133 L 7.83203 -7.86133 C 7.26562 -7.86133 6.89453 -7.55859 6.89453 -7.03125 C 6.89453 -6.51367 7.28516 -6.23047 7.83203 -6.23047 L 10.8789 -6.23047 L 10.8789 -3.33984 C 10.8789 -2.79297 11.1719 -2.41211 11.6895 -2.41211 Z"/>
  </g>
  <g id="" transform="matrix(1 0 0 1 304.924 1933)">
   <path d="M 14.9707 5.67383 C 21.9336 5.67383 27.6953 -0.078125 27.6953 -7.04102 C 27.6953 -14.0039 21.9238 -19.7559 14.9609 -19.7559 C 8.00781 -19.7559 2.25586 -14.0039 2.25586 -7.04102 C 2.25586 -0.078125 8.01758 5.67383 14.9707 5.67383 Z M 14.9707 3.85742 C 8.93555 3.85742 4.08203 -1.00586 4.08203 -7.04102 C 4.08203 -13.0762 8.92578 -17.9395 14.9609 -17.9395 C 21.0059 -17.9395 25.8594 -13.0762 25.8691 -7.04102 C 25.8789 -1.00586 21.0156 3.85742 14.9707 3.85742 Z M 14.9512 -1.06445 C 15.5176 -1.06445 15.8691 -1.45508 15.8691 -2.06055 L 15.8691 -6.13281 L 20.1074 -6.13281 C 20.6934 -6.13281 21.1133 -6.46484 21.1133 -7.02148 C 21.1133 -7.59766 20.7227 -7.93945 20.1074 -7.93945 L 15.8691 -7.93945 L 15.8691 -12.1875 C 15.8691 -12.8027 15.5176 -13.1934 14.9512 -13.1934 C 14.3848 -13.1934 14.0625 -12.7832 14.0625 -12.1875 L 14.0625 -7.93945 L 9.83398 -7.93945 C 9.21875 -7.93945 8.80859 -7.59766 8.80859 -7.02148 C 8.80859 -6.46484 9.23828 -6.13281 9.83398 -6.13281 L 14.0625 -6.13281 L 14.0625 -2.06055 C 14.0625 -1.47461 14.3848 -1.06445 14.9512 -1.06445 Z"/>
  </g>
  <text style="stroke:none;fill:black;font-family:-apple-system,&quot;SF Pro Display&quot;,&quot;SF Pro Text&quot;,Helvetica,sans-serif;font-weight:bold;" transform="matrix(1 0 0 1 263 1953)">Design Variations</text>
  <text style="stroke:none;fill:black;font-family:-apple-system,&quot;SF Pro Display&quot;,&quot;SF Pro Text&quot;,Helvetica,sans-serif;" transform="matrix(1 0 0 1 263 1971)">Symbols are supported in up to nine weights and three scales.</text>
  <text style="stroke:none;fill:black;font-family:-apple-system,&quot;SF Pro Display&quot;,&quot;SF Pro Text&quot;,Helvetica,sans-serif;" transform="matrix(1 0 0 1 263 1989)">For optimal layout with text and other symbols, vertically align</text>
  <text style="stroke:none;fill:black;font-family:-apple-system,&quot;SF Pro Display&quot;,&quot;SF Pro Text&quot;,Helvetica,sans-serif;" transform="matrix(1 0 0 1 263 2007)">symbols with the adjacent text.</text>
  <rect height="14" id="" style="fill:#00AEEF;stroke:none;opacity:0.4;" width="3" x="776" y="1919"/>
  <g id="" transform="matrix(1 0 0 1 779 1933)">
   <path d="M 10.5273 0 L 12.373 0 L 7.17773 -14.0918 L 5.43945 -14.0918 L 0.244141 0 L 2.08984 0 L 3.50586 -4.0332 L 9.11133 -4.0332 Z M 6.2793 -11.9531 L 6.33789 -11.9531 L 8.59375 -5.52734 L 4.02344 -5.52734 Z"/>
  </g>
  <rect height="14" id="" style="fill:#00AEEF;stroke:none;opacity:0.4;" width="3" x="791.617" y="1919"/>
  <text style="stroke:none;fill:black;font-family:-apple-system,&quot;SF Pro Display&quot;,&quot;SF Pro Text&quot;,Helvetica,sans-serif;font-weight:bold;" transform="matrix(1 0 0 1 776 1953)">Margins</text>
  <text style="stroke:none;fill:black;font-family:-apple-system,&quot;SF Pro Display&quot;,&quot;SF Pro Text&quot;,Helvetica,sans-serif;" transform="matrix(1 0 0 1 776 1971)">Leading and trailing margins on the left and right side of each symbol</text>
  <text style="stroke:none;fill:black;font-family:-apple-system,&quot;SF Pro Display&quot;,&quot;SF Pro Text&quot;,Helvetica,sans-serif;" transform="matrix(1 0 0 1 776 1989)">can be adjusted by modifying the width of the blue rectangles.</text>
  <text style="stroke:none;fill:black;font-family:-apple-system,&quot;SF Pro Display&quot;,&quot;SF Pro Text&quot;,Helvetica,sans-serif;" transform="matrix(1 0 0 1 776 2007)">Modifications are automatically applied proportionally to all</text>
  <text style="stroke:none;fill:black;font-family:-apple-system,&quot;SF Pro Display&quot;,&quot;SF Pro Text&quot;,Helvetica,sans-serif;" transform="matrix(1 0 0 1 776 2025)">scales and weights.</text>
  <g id="" transform="matrix(1 0 0 1 1289 1933)">
   <path d="M 2.83203 3.11523 L 4.375 4.6582 C 5.22461 5.48828 6.19141 5.41992 7.06055 4.46289 L 17.2754 -6.66016 C 17.7051 -6.36719 18.0957 -6.37695 18.5645 -6.47461 L 19.6094 -6.68945 L 20.3027 -5.99609 L 20.2539 -5.47852 C 20.1855 -4.95117 20.3516 -4.53125 20.8496 -4.0332 L 21.6602 -3.22266 C 22.168 -2.71484 22.8223 -2.68555 23.3008 -3.16406 L 26.5527 -6.41602 C 27.0312 -6.89453 27.0117 -7.54883 26.5039 -8.05664 L 25.6836 -8.87695 C 25.1855 -9.375 24.7754 -9.55078 24.2383 -9.47266 L 23.7109 -9.41406 L 23.0566 -10.0781 L 23.3398 -11.2207 C 23.4863 -11.7871 23.3398 -12.2559 22.7148 -12.8613 L 20.3027 -15.2539 C 16.7578 -18.7793 12.2266 -18.6719 9.11133 -15.5371 C 8.69141 -15.1074 8.64258 -14.5215 8.91602 -14.0918 C 9.15039 -13.7207 9.62891 -13.4961 10.2734 -13.6621 C 11.7871 -14.043 13.3008 -13.9258 14.7852 -12.9199 L 14.1602 -11.3379 C 13.9258 -10.752 13.9453 -10.2734 14.1797 -9.83398 L 3.01758 0.439453 C 2.08008 1.30859 1.97266 2.25586 2.83203 3.11523 Z M 10.6738 -15.1465 C 13.3398 -17.1387 16.6504 -16.8262 19.0527 -14.4141 L 21.6797 -11.8066 C 21.9141 -11.5723 21.9434 -11.3867 21.8848 -11.0938 L 21.5039 -9.53125 L 23.0762 -7.95898 L 24.043 -8.04688 C 24.3262 -8.07617 24.4141 -8.05664 24.6387 -7.83203 L 25.2637 -7.20703 L 22.5098 -4.46289 L 21.8848 -5.07812 C 21.6602 -5.30273 21.6406 -5.40039 21.6699 -5.68359 L 21.7578 -6.64062 L 20.1953 -8.20312 L 18.5742 -7.89062 C 18.291 -7.83203 18.1445 -7.83203 17.9102 -8.07617 L 15.7324 -10.2539 C 15.5078 -10.4883 15.4785 -10.625 15.6055 -10.9473 L 16.5527 -13.2227 C 14.9512 -14.7559 12.8418 -15.6055 10.8008 -14.9512 C 10.7129 -14.9219 10.6445 -14.9414 10.6152 -14.9805 C 10.5859 -15.0293 10.5859 -15.0781 10.6738 -15.1465 Z M 4.10156 2.41211 C 3.61328 1.91406 3.78906 1.61133 4.12109 1.30859 L 15.0781 -8.80859 L 16.3086 -7.57812 L 6.15234 3.34961 C 5.84961 3.68164 5.46875 3.7793 5.06836 3.37891 Z"/>
  </g>
  <text style="stroke:none;fill:black;font-family:-apple-system,&quot;SF Pro Display&quot;,&quot;SF Pro Text&quot;,Helvetica,sans-serif;font-weight:bold;" transform="matrix(1 0 0 1 1289 1953)">Exporting</text>
  <text style="stroke:none;fill:black;font-family:-apple-system,&quot;SF Pro Display&quot;,&quot;SF Pro Text&quot;,Helvetica,sans-serif;" transform="matrix(1 0 0 1 1289 1971)">Symbols should be outlined when exporting to ensure the</text>
  <text style="stroke:none;fill:black;font-family:-apple-system,&quot;SF Pro Display&quot;,&quot;SF Pro Text&quot;,Helvetica,sans-serif;" transform="matrix(1 0 0 1 1289 1989)">design is preserved when submitting to Xcode.</text>
  <text id="template-version" style="stroke:none;fill:black;font-family:-apple-system,&quot;SF Pro Display&quot;,&quot;SF Pro Text&quot;,Helvetica,sans-serif;text-anchor:end;" transform="matrix(1 0 0 1 3036 1933)">Template v.1.0</text>
  <text style="stroke:none;fill:black;font-family:-apple-system,&quot;SF Pro Display&quot;,&quot;SF Pro Text&quot;,Helvetica,sans-serif;text-anchor:end;" transform="matrix(1 0 0 1 3036 1951)">Generated from bitcoinsign.square</text>
  <text style="stroke:none;fill:black;font-family:-apple-system,&quot;SF Pro Display&quot;,&quot;SF Pro Text&quot;,Helvetica,sans-serif;text-anchor:end;" transform="matrix(1 0 0 1 3036 1969)">Typeset at 100 points</text>
  <text style="stroke:none;fill:black;font-family:-apple-system,&quot;SF Pro Display&quot;,&quot;SF Pro Text&quot;,Helvetica,sans-serif;" transform="matrix(1 0 0 1 263 726)">Small</text>
  <text style="stroke:none;fill:black;font-family:-apple-system,&quot;SF Pro Display&quot;,&quot;SF Pro Text&quot;,Helvetica,sans-serif;" transform="matrix(1 0 0 1 263 1156)">Medium</text>
  <text style="stroke:none;fill:black;font-family:-apple-system,&quot;SF Pro Display&quot;,&quot;SF Pro Text&quot;,Helvetica,sans-serif;" transform="matrix(1 0 0 1 263 1586)">Large</text>
 </g>
 <g id="Guides">
  <g id="H-reference" style="fill:#27AAE1;stroke:none;" transform="matrix(1 0 0 1 339 696)">
   <path d="M 54.9316 0 L 57.666 0 L 30.5664 -70.459 L 28.0762 -70.459 L 0.976562 0 L 3.66211 0 L 12.9395 -24.4629 L 45.7031 -24.4629 Z M 29.1992 -67.0898 L 29.4434 -67.0898 L 44.8242 -26.709 L 13.8184 -26.709 Z"/>
  </g>
  <line id="Baseline-S" style="fill:none;stroke:#27AAE1;opacity:1;stroke-width:0.577;" x1="263" x2="3036" y1="696" y2="696"/>
  <line id="Capline-S" style="fill:none;stroke:#27AAE1;opacity:1;stroke-width:0.577;" x1="263" x2="3036" y1="625.541" y2="625.541"/>
  <g id="H-reference" style="fill:#27AAE1;stroke:none;" transform="matrix(1 0 0 1 339 1126)">
   <path d="M 54.9316 0 L 57.666 0 L 30.5664 -70.459 L 28.0762 -70.459 L 0.976562 0 L 3.66211 0 L 12.9395 -24.4629 L 45.7031 -24.4629 Z M 29.1992 -67.0898 L 29.4434 -67.0898 L 44.8242 -26.709 L 13.8184 -26.709 Z"/>
  </g>
  <line id="Baseline-M" style="fill:none;stroke:#27AAE1;opacity:1;stroke-width:0.577;" x1="263" x2="3036" y1="1126" y2="1126"/>
  <line id="Capline-M" style="fill:none;stroke:#27AAE1;opacity:1;stroke-width:0.577;" x1="263" x2="3036" y1="1055.54" y2="1055.54"/>
  <g id="H-reference" style="fill:#27AAE1;stroke:none;" transform="matrix(1 0 0 1 339 1556)">
   <path d="M 54.9316 0 L 57.666 0 L 30.5664 -70.459 L 28.0762 -70.459 L 0.976562 0 L 3.66211 0 L 12.9395 -24.4629 L 45.7031 -24.4629 Z M 29.1992 -67.0898 L 29.4434 -67.0898 L 44.8242 -26.709 L 13.8184 -26.709 Z"/>
  </g>
  <line id="Baseline-L" style="fill:none;stroke:#27AAE1;opacity:1;stroke-width:0.577;" x1="263" x2="3036" y1="1556" y2="1556"/>
  <line id="Capline-L" style="fill:none;stroke:#27AAE1;opacity:1;stroke-width:0.577;" x1="263" x2="3036" y1="1485.54" y2="1485.54"/>
  <rect height="119.336" id="left-margin" style="fill:#00AEEF;stroke:none;opacity:0.4;" width="12.4512" x="1392.45" y="1030.79"/>
  <rect height="119.336" id="right-margin" style="fill:#00AEEF;stroke:none;opacity:0.4;" width="12.4512" x="1494.79" y="1030.79"/>
 </g>
 <g id="Symbols">
  <g id="Black-L" transform="matrix(1 0 0 1 2855.62 1556)">
   <path d="M 39.9902 26.5137 L 115.576 26.5137 C 130.811 26.5137 139.502 17.8711 139.502 2.68555 L 139.502 -73.0957 C 139.502 -88.2812 130.811 -96.875 115.576 -96.875 L 39.9902 -96.875 C 24.7559 -96.875 16.0645 -88.2812 16.0645 -73.0957 L 16.0645 2.68555 C 16.0645 17.8711 24.7559 26.5137 39.9902 26.5137 Z M 42.6758 6.29883 C 38.4766 6.29883 36.3281 4.39453 36.3281 -0.146484 L 36.3281 -70.2148 C 36.3281 -74.7559 38.4766 -76.6602 42.6758 -76.6602 L 112.842 -76.6602 C 117.09 -76.6602 119.238 -74.7559 119.238 -70.2148 L 119.238 -0.146484 C 119.238 4.39453 117.09 6.29883 112.842 6.29883 Z M 57.5195 -15.625 C 57.5195 -10.7422 60.3027 -7.91016 65.0391 -7.91016 L 68.6523 -7.91016 L 68.6523 -3.125 C 68.6523 -1.61133 69.7266 -0.488281 71.2891 -0.488281 C 72.8027 -0.488281 73.9258 -1.61133 73.9258 -3.125 L 73.9258 -7.91016 L 77.9297 -7.91016 L 77.9297 -3.125 C 77.9297 -1.61133 79.0039 -0.488281 80.5664 -0.488281 C 82.0801 -0.488281 83.2031 -1.61133 83.2031 -3.125 L 83.2031 -8.00781 C 94.4824 -8.34961 101.562 -14.4043 101.562 -23.877 C 101.562 -29.834 97.4121 -35.0098 91.5527 -36.8164 C 96.0938 -38.7695 99.2188 -43.2617 99.2188 -48.1445 C 99.2188 -56.25 93.3594 -61.5234 83.2031 -61.9629 L 83.2031 -67.0898 C 83.2031 -68.6035 82.0312 -69.7266 80.5664 -69.7266 C 79.0039 -69.7266 77.9297 -68.6035 77.9297 -67.0898 L 77.9297 -62.0605 L 73.9258 -62.0605 L 73.9258 -67.0898 C 73.9258 -68.6035 72.7539 -69.7266 71.2891 -69.7266 C 69.7266 -69.7266 68.6523 -68.6035 68.6523 -67.0898 L 68.6523 -62.0605 L 65.0879 -62.0605 C 60.3516 -62.0605 57.5195 -59.1309 57.5195 -54.1992 Z M 72.0703 -40.7227 L 72.0703 -51.2695 L 78.418 -51.2695 C 82.4707 -51.2695 84.8633 -49.4141 84.8633 -46.1426 C 84.8633 -42.6758 82.2266 -40.6738 77.6855 -40.7227 Z M 72.0703 -18.8477 L 72.0703 -30.9082 L 79.0527 -30.9082 C 84.2285 -30.9082 86.8164 -28.9062 86.8164 -25 C 86.8164 -20.9473 84.2773 -18.8965 79.1992 -18.8477 Z"/>
  </g>
  <g id="Heavy-L" transform="matrix(1 0 0 1 2559.93 1556)">
   <path d="M 38.8184 25.4883 L 114.697 25.4883 C 129.346 25.4883 137.451 17.4316 137.451 2.88086 L 137.451 -73.2422 C 137.451 -87.793 129.346 -95.8496 114.697 -95.8496 L 38.8184 -95.8496 C 24.2188 -95.8496 16.0645 -87.793 16.0645 -73.2422 L 16.0645 2.88086 C 16.0645 17.4316 24.2188 25.4883 38.8184 25.4883 Z M 40.918 8.00781 C 36.084 8.00781 33.5938 5.71289 33.5938 0.585938 L 33.5938 -70.9473 C 33.5938 -76.0742 36.084 -78.3691 40.918 -78.3691 L 112.549 -78.3691 C 117.383 -78.3691 119.922 -76.0742 119.922 -70.9473 L 119.922 0.585938 C 119.922 5.71289 117.383 8.00781 112.549 8.00781 Z M 57.2754 -14.3066 C 57.2754 -9.96094 59.7656 -7.42188 64.0137 -7.42188 L 67.5781 -7.42188 L 67.5781 -2.53906 C 67.5781 -0.976562 68.7012 0.146484 70.2148 0.146484 C 71.7773 0.146484 72.9004 -0.976562 72.9004 -2.53906 L 72.9004 -7.42188 L 76.9043 -7.42188 L 76.9043 -2.53906 C 76.9043 -0.976562 78.0273 0.146484 79.5898 0.146484 C 81.1523 0.146484 82.2266 -0.976562 82.2266 -2.53906 L 82.2266 -7.51953 C 93.3594 -8.00781 100.195 -14.0137 100.195 -23.4375 C 100.195 -29.5898 96.0449 -34.7656 90.0391 -36.5723 C 94.5801 -38.623 97.7539 -43.2129 97.7539 -48.1934 C 97.7539 -56.2012 91.9922 -61.5723 82.2266 -62.1582 L 82.2266 -67.2852 C 82.2266 -68.8477 81.1035 -69.9707 79.5898 -69.9707 C 78.0273 -69.9707 76.9043 -68.8477 76.9043 -67.2852 L 76.9043 -62.3047 L 72.9004 -62.3047 L 72.9004 -67.2852 C 72.9004 -68.8477 71.7285 -69.9707 70.2148 -69.9707 C 68.7012 -69.9707 67.5781 -68.8477 67.5781 -67.2852 L 67.5781 -62.3047 L 64.0625 -62.3047 C 59.8633 -62.3047 57.2754 -59.6191 57.2754 -55.2734 Z M 70.0195 -40.1855 L 70.0195 -52.5391 L 77.5391 -52.5391 C 82.3242 -52.5391 85.1074 -50.3418 85.1074 -46.5332 C 85.1074 -42.4805 82.0312 -40.1367 76.6602 -40.1855 Z M 70.0195 -17.2852 L 70.0195 -31.2012 L 78.0273 -31.2012 C 84.1309 -31.2012 87.2559 -28.8086 87.2559 -24.3164 C 87.2559 -19.7266 84.1797 -17.334 78.3203 -17.2852 Z"/>
  </g>
  <g id="Bold-L" transform="matrix(1 0 0 1 2264.37 1556)">
   <path d="M 37.5 24.3652 L 113.721 24.3652 C 127.637 24.3652 135.156 16.8945 135.156 3.07617 L 135.156 -73.3887 C 135.156 -87.207 127.637 -94.7266 113.721 -94.7266 L 37.5 -94.7266 C 23.6328 -94.7266 16.0645 -87.2559 16.0645 -73.3887 L 16.0645 3.07617 C 16.0645 16.8945 23.6328 24.3652 37.5 24.3652 Z M 38.9648 9.91211 C 33.4473 9.91211 30.5176 7.17773 30.5176 1.41602 L 30.5176 -71.7285 C 30.5176 -77.5391 33.4473 -80.2734 38.9648 -80.2734 L 112.256 -80.2734 C 117.725 -80.2734 120.703 -77.5391 120.703 -71.7285 L 120.703 1.41602 C 120.703 7.17773 117.725 9.91211 112.256 9.91211 Z M 56.9824 -12.8418 C 56.9824 -9.08203 59.2285 -6.83594 62.8906 -6.83594 L 66.3574 -6.83594 L 66.3574 -1.80664 C 66.3574 -0.244141 67.5293 0.878906 69.043 0.878906 C 70.6055 0.878906 71.7285 -0.244141 71.7285 -1.80664 L 71.7285 -6.83594 L 75.8301 -6.83594 L 75.8301 -1.80664 C 75.8301 -0.244141 76.9531 0.878906 78.5156 0.878906 C 80.0781 0.878906 81.2012 -0.244141 81.2012 -1.80664 L 81.2012 -6.93359 C 92.041 -7.61719 98.6328 -13.623 98.6328 -22.9004 C 98.6328 -29.3457 94.4824 -34.5215 88.3301 -36.377 C 92.9199 -38.4766 96.0938 -43.1641 96.0938 -48.291 C 96.0938 -56.2012 90.4785 -61.5723 81.2012 -62.3535 L 81.2012 -67.5293 C 81.2012 -69.0918 80.0293 -70.2148 78.5156 -70.2148 C 76.9531 -70.2148 75.8301 -69.0918 75.8301 -67.5293 L 75.8301 -62.5488 L 71.7285 -62.5488 L 71.7285 -67.5293 C 71.7285 -69.0918 70.5566 -70.2148 69.043 -70.2148 C 67.5293 -70.2148 66.3574 -69.0918 66.3574 -67.5293 L 66.3574 -62.5488 L 62.8906 -62.5488 C 59.2773 -62.5488 56.9824 -60.2051 56.9824 -56.4453 Z M 67.7246 -39.5996 L 67.7246 -53.9551 L 76.6113 -53.9551 C 82.1289 -53.9551 85.3516 -51.416 85.3516 -47.0215 C 85.3516 -42.2852 81.7871 -39.5508 75.4883 -39.5996 Z M 67.7246 -15.5273 L 67.7246 -31.4941 L 76.8555 -31.4941 C 83.9844 -31.4941 87.793 -28.7109 87.793 -23.5352 C 87.793 -18.3594 84.1309 -15.625 77.2949 -15.5762 Z"/>
  </g>
  <g id="Semibold-L" transform="matrix(1 0 0 1 1968.44 1556)">
   <path d="M 36.6211 23.584 L 113.037 23.584 C 126.514 23.584 133.594 16.5039 133.594 3.17383 L 133.594 -73.5352 C 133.594 -86.8164 126.514 -93.9453 113.037 -93.9453 L 36.6211 -93.9453 C 23.1934 -93.9453 16.0645 -86.8652 16.0645 -73.5352 L 16.0645 3.17383 C 16.0645 16.5527 23.1934 23.584 36.6211 23.584 Z M 37.5977 11.2793 C 31.6406 11.2793 28.418 8.20312 28.418 1.95312 L 28.418 -72.3145 C 28.418 -78.5156 31.6406 -81.5918 37.5977 -81.5918 L 112.061 -81.5918 C 117.969 -81.5918 121.24 -78.5156 121.24 -72.3145 L 121.24 1.95312 C 121.24 8.20312 117.969 11.2793 112.061 11.2793 Z M 56.7871 -11.8164 C 56.7871 -8.49609 58.8379 -6.44531 62.0605 -6.44531 L 65.5273 -6.44531 L 65.5273 -1.36719 C 65.5273 0.244141 66.6992 1.36719 68.2617 1.36719 C 69.8242 1.36719 70.9473 0.244141 70.9473 -1.36719 L 70.9473 -6.44531 L 75.0488 -6.44531 L 75.0488 -1.36719 C 75.0488 0.244141 76.2207 1.36719 77.7832 1.36719 C 79.2969 1.36719 80.4688 0.244141 80.4688 -1.36719 L 80.4688 -6.5918 C 91.1621 -7.37305 97.6074 -13.3301 97.6074 -22.5098 C 97.6074 -29.1504 93.4082 -34.3262 87.1582 -36.2305 C 91.7969 -38.3301 94.9707 -43.1641 94.9707 -48.3398 C 94.9707 -56.1523 89.4043 -61.6211 80.4688 -62.5 L 80.4688 -67.6758 C 80.4688 -69.2871 79.2969 -70.4102 77.7832 -70.4102 C 76.2207 -70.4102 75.0488 -69.2871 75.0488 -67.6758 L 75.0488 -62.6953 L 70.9473 -62.6953 L 70.9473 -67.6758 C 70.9473 -69.2871 69.7754 -70.4102 68.2617 -70.4102 C 66.6992 -70.4102 65.5273 -69.2871 65.5273 -67.6758 L 65.5273 -62.6953 L 62.1094 -62.6953 C 58.8867 -62.6953 56.7871 -60.5469 56.7871 -57.2754 Z M 66.1621 -39.209 L 66.1621 -54.9316 L 75.9766 -54.9316 C 81.9824 -54.9316 85.5469 -52.1484 85.5469 -47.3633 C 85.5469 -42.1387 81.5918 -39.1113 74.707 -39.1602 Z M 66.1621 -14.3066 L 66.1621 -31.6895 L 76.0742 -31.6895 C 83.9355 -31.6895 88.1348 -28.6621 88.1348 -23.0469 C 88.1348 -17.3828 84.082 -14.4043 76.6113 -14.3555 Z"/>
  </g>
  <g id="Medium-L" transform="matrix(1 0 0 1 1672.31 1556)">
   <path d="M 35.9375 22.998 L 112.5 22.998 C 125.635 22.998 132.422 16.2109 132.422 3.27148 L 132.422 -73.6328 C 132.422 -86.5234 125.635 -93.3105 112.5 -93.3105 L 35.9375 -93.3105 C 22.9004 -93.3105 16.0645 -86.5723 16.0645 -73.6328 L 16.0645 3.27148 C 16.0645 16.2598 22.9004 22.998 35.9375 22.998 Z M 36.5723 12.2559 C 30.2246 12.2559 26.8066 8.98438 26.8066 2.39258 L 26.8066 -72.7051 C 26.8066 -79.2969 30.2246 -82.6172 36.5723 -82.6172 L 111.865 -82.6172 C 118.115 -82.6172 121.68 -79.2969 121.68 -72.7051 L 121.68 2.39258 C 121.68 8.98438 118.115 12.2559 111.865 12.2559 Z M 56.5918 -11.0352 C 56.5918 -8.05664 58.5449 -6.15234 61.4746 -6.15234 L 64.9414 -6.15234 L 64.9414 -0.976562 C 64.9414 0.634766 66.1133 1.75781 67.627 1.75781 C 69.1895 1.75781 70.3613 0.634766 70.3613 -0.976562 L 70.3613 -6.15234 L 74.4629 -6.15234 L 74.4629 -0.976562 C 74.4629 0.634766 75.6836 1.75781 77.1973 1.75781 C 78.7598 1.75781 79.8828 0.634766 79.8828 -0.976562 L 79.8828 -6.29883 C 90.4785 -7.17773 96.8262 -13.0859 96.8262 -22.2168 C 96.8262 -29.0039 92.5781 -34.1797 86.2793 -36.084 C 90.918 -38.2812 94.1406 -43.1152 94.1406 -48.3398 C 94.1406 -56.1035 88.623 -61.6211 79.8828 -62.6465 L 79.8828 -67.7734 C 79.8828 -69.4336 78.7598 -70.5566 77.1973 -70.5566 C 75.6836 -70.5566 74.4629 -69.4336 74.4629 -67.7734 L 74.4629 -62.8418 L 70.3613 -62.8418 L 70.3613 -67.7734 C 70.3613 -69.4336 69.1895 -70.5566 67.627 -70.5566 C 66.1133 -70.5566 64.9414 -69.4336 64.9414 -67.7734 L 64.9414 -62.8418 L 61.4746 -62.8418 C 58.5938 -62.8418 56.5918 -60.8398 56.5918 -57.8613 Z M 64.9902 -38.916 L 64.9902 -55.6641 L 75.4395 -55.6641 C 81.8848 -55.6641 85.6934 -52.6855 85.6934 -47.6074 C 85.6934 -42.041 81.4453 -38.8184 74.1211 -38.8672 Z M 64.9902 -13.4277 L 64.9902 -31.8359 L 75.4395 -31.8359 C 83.8379 -31.8359 88.3789 -28.6133 88.3789 -22.6562 C 88.3789 -16.6992 84.0332 -13.4766 76.0742 -13.4766 Z"/>
  </g>
  <g id="Regular-L" transform="matrix(1 0 0 1 1376.38 1556)">
   <path d="M 35.0586 22.2168 L 111.816 22.2168 C 124.463 22.2168 130.859 15.8691 130.859 3.41797 L 130.859 -73.7305 C 130.859 -86.1816 124.463 -92.5293 111.816 -92.5293 L 35.0586 -92.5293 C 22.4609 -92.5293 16.0645 -86.2305 16.0645 -73.7305 L 16.0645 3.41797 C 16.0645 15.918 22.4609 22.2168 35.0586 22.2168 Z M 35.2539 13.5742 C 28.418 13.5742 24.707 9.96094 24.707 2.97852 L 24.707 -73.291 C 24.707 -80.2734 28.418 -83.8867 35.2539 -83.8867 L 111.67 -83.8867 C 118.359 -83.8867 122.217 -80.2734 122.217 -73.291 L 122.217 2.97852 C 122.217 9.96094 118.359 13.5742 111.67 13.5742 Z M 56.3965 -10.0586 C 56.3965 -7.4707 58.1543 -5.76172 60.6934 -5.76172 L 64.1113 -5.76172 L 64.1113 -0.537109 C 64.1113 1.12305 65.2832 2.24609 66.8457 2.24609 C 68.4082 2.24609 69.5801 1.12305 69.5801 -0.537109 L 69.5801 -5.76172 L 73.7305 -5.76172 L 73.7305 -0.537109 C 73.7305 1.12305 74.9023 2.24609 76.4648 2.24609 C 78.0273 2.24609 79.1992 1.12305 79.1992 -0.537109 L 79.1992 -5.9082 C 89.5996 -6.88477 95.752 -12.793 95.752 -21.875 C 95.752 -28.8086 91.5039 -33.9844 85.1074 -35.9375 C 89.7949 -38.1348 93.0176 -43.0664 93.0176 -48.4375 C 93.0176 -56.1035 87.5977 -61.6211 79.1992 -62.793 L 79.1992 -67.9688 C 79.1992 -69.5801 78.0273 -70.7031 76.4648 -70.7031 C 74.9023 -70.7031 73.7305 -69.5801 73.7305 -67.9688 L 73.7305 -62.9883 L 69.5801 -62.9883 L 69.5801 -67.9688 C 69.5801 -69.5801 68.4082 -70.7031 66.8457 -70.7031 C 65.2832 -70.7031 64.1113 -69.5801 64.1113 -67.9688 L 64.1113 -62.9883 L 60.6934 -62.9883 C 58.2031 -62.9883 56.3965 -61.2305 56.3965 -58.6914 Z M 63.4277 -38.4766 L 63.4277 -56.6406 L 74.8047 -56.6406 C 81.7383 -56.6406 85.8887 -53.418 85.8887 -47.9492 C 85.8887 -41.8945 81.2988 -38.3789 73.3398 -38.4277 Z M 63.4277 -12.207 L 63.4277 -32.0312 L 74.6582 -32.0312 C 83.7891 -32.0312 88.7695 -28.5645 88.7695 -22.1191 C 88.7695 -15.7715 83.9844 -12.3047 75.3906 -12.2559 Z"/>
  </g>
  <g id="Light-L" transform="matrix(1 0 0 1 1080.5 1556)">
   <path d="M 34.0332 21.4355 L 111.23 21.4355 C 123.096 21.4355 129.199 15.2344 129.199 3.56445 L 129.199 -73.8281 C 129.199 -85.5469 123.096 -91.6992 111.23 -91.6992 L 34.0332 -91.6992 C 22.168 -91.6992 16.0645 -85.6445 16.0645 -73.8281 L 16.0645 3.56445 C 16.0645 15.3809 22.168 21.4355 34.0332 21.4355 Z M 34.1797 14.7949 C 26.709 14.7949 22.7051 10.8398 22.7051 3.22266 L 22.7051 -73.4863 C 22.7051 -81.1523 26.709 -85.0586 34.1797 -85.0586 L 111.035 -85.0586 C 118.359 -85.0586 122.559 -81.1523 122.559 -73.4863 L 122.559 3.22266 C 122.559 10.8398 118.359 14.7949 111.035 14.7949 Z M 56.543 -10.1562 C 56.543 -8.1543 57.9102 -6.78711 59.9609 -6.78711 L 64.3555 -6.78711 L 64.3555 -1.17188 C 64.3555 0.244141 65.4297 1.17188 66.6992 1.17188 C 67.9688 1.17188 68.9453 0.244141 68.9453 -1.17188 L 68.9453 -6.78711 L 73.2422 -6.78711 L 73.2422 -1.17188 C 73.2422 0.244141 74.3164 1.17188 75.5859 1.17188 C 76.8066 1.17188 77.832 0.244141 77.832 -1.17188 L 77.832 -6.88477 C 88.2324 -7.66602 94.3848 -13.4277 94.3848 -22.1191 C 94.3848 -28.8574 90.0879 -33.8867 83.8379 -35.791 C 88.623 -37.9883 91.6992 -42.8223 91.6992 -48.0957 C 91.6992 -55.6152 86.2305 -60.9863 77.832 -61.9629 L 77.832 -67.2363 C 77.832 -68.6523 76.8066 -69.6289 75.5859 -69.6289 C 74.3164 -69.6289 73.2422 -68.6523 73.2422 -67.2363 L 73.2422 -62.1582 L 68.9453 -62.1582 L 68.9453 -67.2363 C 68.9453 -68.6523 67.9688 -69.6289 66.6992 -69.6289 C 65.4297 -69.6289 64.3555 -68.6523 64.3555 -67.2363 L 64.3555 -62.1582 L 59.9609 -62.1582 C 57.959 -62.1582 56.543 -60.7422 56.543 -58.7402 Z M 62.0605 -37.9395 L 62.0605 -57.0312 L 74.3164 -57.0312 C 81.4453 -57.0312 85.9375 -53.5645 85.9375 -47.8516 C 85.9375 -41.6016 81.1035 -37.8418 73.291 -37.8906 Z M 62.0605 -12.0117 L 62.0605 -32.7148 L 74.1699 -32.7148 C 83.4473 -32.7148 88.7695 -28.9551 88.7695 -22.2656 C 88.7695 -15.7715 83.6426 -12.0605 74.9023 -12.0117 Z"/>
  </g>
  <g id="Thin-L" transform="matrix(1 0 0 1 784.889 1556)">
   <path d="M 32.666 20.3613 L 110.352 20.3613 C 121.24 20.3613 127.002 14.4531 127.002 3.75977 L 127.002 -73.9746 C 127.002 -84.7168 121.24 -90.5762 110.352 -90.5762 L 32.666 -90.5762 C 21.7773 -90.5762 16.0645 -84.8633 16.0645 -73.9746 L 16.0645 3.75977 C 16.0645 14.6484 21.7773 20.3613 32.666 20.3613 Z M 32.8125 16.4062 C 24.4141 16.4062 19.9707 12.0117 19.9707 3.56445 L 19.9707 -73.7793 C 19.9707 -82.2754 24.4141 -86.6699 32.8125 -86.6699 L 110.205 -86.6699 C 118.359 -86.6699 123.047 -82.2754 123.047 -73.7793 L 123.047 3.56445 C 123.047 12.0117 118.359 16.4062 110.205 16.4062 Z M 56.6895 -10.3027 C 56.6895 -8.98438 57.6172 -8.1543 58.9355 -8.1543 L 64.6973 -8.1543 L 64.6973 -2.05078 C 64.6973 -0.927734 65.5762 -0.244141 66.4551 -0.244141 C 67.3828 -0.244141 68.1641 -0.927734 68.1641 -2.05078 L 68.1641 -8.1543 L 72.6074 -8.1543 L 72.6074 -2.05078 C 72.6074 -0.927734 73.4863 -0.244141 74.3652 -0.244141 C 75.2441 -0.244141 76.0254 -0.927734 76.0254 -2.05078 L 76.0254 -8.1543 C 86.377 -8.69141 92.5293 -14.209 92.5293 -22.4609 C 92.5293 -28.9551 88.2324 -33.7891 82.1289 -35.6445 C 87.0117 -37.793 89.9414 -42.4316 89.9414 -47.7051 C 89.9414 -54.9805 84.4238 -60.1562 76.0254 -60.8887 L 76.0254 -66.3086 C 76.0254 -67.4316 75.2441 -68.1641 74.3652 -68.1641 C 73.4863 -68.1641 72.6074 -67.4316 72.6074 -66.3086 L 72.6074 -60.9863 L 68.1641 -60.9863 L 68.1641 -66.3086 C 68.1641 -67.4316 67.3828 -68.1641 66.4551 -68.1641 C 65.5762 -68.1641 64.6973 -67.4316 64.6973 -66.3086 L 64.6973 -60.9863 L 58.9355 -60.9863 C 57.666 -60.9863 56.6895 -60.1074 56.6895 -58.7891 Z M 60.3027 -37.1582 L 60.3027 -57.5684 L 73.6816 -57.5684 C 81.0547 -57.5684 85.9863 -53.7109 85.9863 -47.7539 C 85.9863 -41.2598 80.8594 -37.1582 73.2422 -37.1582 Z M 60.3027 -11.7188 L 60.3027 -33.5938 L 73.4863 -33.5938 C 83.0078 -33.5938 88.8184 -29.4434 88.8184 -22.5098 C 88.8184 -15.8203 83.252 -11.7188 74.2188 -11.7188 Z"/>
  </g>
  <g id="Ultralight-L" transform="matrix(1 0 0 1 488.739 1556)">
   <path d="M 31.9824 19.7754 L 109.961 19.7754 C 120.312 19.7754 125.879 14.0625 125.879 3.85742 L 125.879 -74.0723 C 125.879 -84.2773 120.312 -89.9902 109.961 -89.9902 L 31.9824 -89.9902 C 21.582 -89.9902 16.0645 -84.4727 16.0645 -74.0723 L 16.0645 3.85742 C 16.0645 14.2578 21.582 19.7754 31.9824 19.7754 Z M 32.1289 17.2363 C 23.1934 17.2363 18.6035 12.6465 18.6035 3.75977 L 18.6035 -73.9258 C 18.6035 -82.8125 23.1934 -87.4512 32.1289 -87.4512 L 109.766 -87.4512 C 118.359 -87.4512 123.291 -82.8125 123.291 -73.9258 L 123.291 3.75977 C 123.291 12.6465 118.359 17.2363 109.766 17.2363 Z M 56.7871 -10.3516 C 56.7871 -9.42383 57.4707 -8.83789 58.4473 -8.83789 L 64.8926 -8.83789 L 64.8926 -2.53906 C 64.8926 -1.5625 65.625 -0.976562 66.3574 -0.976562 C 67.0898 -0.976562 67.7246 -1.5625 67.7246 -2.53906 L 67.7246 -8.83789 L 72.2656 -8.83789 L 72.2656 -2.53906 C 72.2656 -1.5625 73.0469 -0.976562 73.7305 -0.976562 C 74.4629 -0.976562 75.1465 -1.5625 75.1465 -2.53906 L 75.1465 -8.78906 C 85.4004 -9.22852 91.6016 -14.6484 91.6016 -22.6562 C 91.6016 -29.0039 87.2559 -33.6914 81.25 -35.5469 C 86.1816 -37.6953 89.0625 -42.2363 89.0625 -47.4609 C 89.0625 -54.6387 83.4961 -59.7656 75.1465 -60.3516 L 75.1465 -65.8203 C 75.1465 -66.7969 74.4629 -67.3828 73.7305 -67.3828 C 73.0469 -67.3828 72.2656 -66.7969 72.2656 -65.8203 L 72.2656 -60.4004 L 67.7246 -60.4004 L 67.7246 -65.8203 C 67.7246 -66.7969 67.0898 -67.3828 66.3574 -67.3828 C 65.625 -67.3828 64.8926 -66.7969 64.8926 -65.8203 L 64.8926 -60.4004 L 58.4473 -60.4004 C 57.4707 -60.4004 56.7871 -59.8145 56.7871 -58.8379 Z M 59.375 -36.7676 L 59.375 -57.8613 L 73.3398 -57.8613 C 80.8594 -57.8613 86.0352 -53.8086 86.0352 -47.7051 C 86.0352 -41.0645 80.7617 -36.7676 73.2422 -36.7676 Z M 59.375 -11.5723 L 59.375 -34.0332 L 73.1445 -34.0332 C 82.7637 -34.0332 88.8672 -29.6875 88.8672 -22.6074 C 88.8672 -15.8203 83.0078 -11.5234 73.877 -11.5234 Z"/>
  </g>
  <g id="Black-M" transform="matrix(1 0 0 1 2872.19 1126)">
   <path d="M 31.9824 13.5742 L 90.4297 13.5742 C 102.686 13.5742 109.961 6.29883 109.961 -5.95703 L 109.961 -64.4043 C 109.961 -76.6602 102.686 -83.9355 90.4297 -83.9355 L 31.9824 -83.9355 C 19.7266 -83.9355 12.4512 -76.6602 12.4512 -64.4043 L 12.4512 -5.95703 C 12.4512 6.29883 19.7266 13.5742 31.9824 13.5742 Z M 34.9121 -4.73633 C 32.0801 -4.73633 30.7617 -5.81055 30.7617 -8.88672 L 30.7617 -61.4746 C 30.7617 -64.5508 32.0801 -65.6738 34.9121 -65.6738 L 87.5 -65.6738 C 90.332 -65.6738 91.6504 -64.5508 91.6504 -61.4746 L 91.6504 -8.88672 C 91.6504 -5.81055 90.332 -4.73633 87.5 -4.73633 Z M 45.0195 -21.875 C 45.0195 -17.627 47.2656 -15.2832 51.3672 -15.2832 L 54.7852 -15.2832 L 54.7852 -11.5723 C 54.7852 -10.498 55.5176 -9.76562 56.543 -9.76562 C 57.6172 -9.76562 58.3496 -10.498 58.3496 -11.5723 L 58.3496 -15.2832 L 61.4746 -15.2832 L 61.4746 -11.5723 C 61.4746 -10.498 62.207 -9.76562 63.2324 -9.76562 C 64.3066 -9.76562 65.0391 -10.498 65.0391 -11.5723 L 65.0391 -15.2832 C 74.0234 -15.2832 79.7852 -19.9219 79.7852 -27.2461 C 79.7852 -31.4453 76.6113 -35.3516 72.3145 -36.6699 C 75.8301 -38.0859 78.1738 -41.3574 78.1738 -44.9707 C 78.1738 -51.3184 73.4375 -55.2246 65.0391 -55.2734 L 65.0391 -59.2773 C 65.0391 -60.3027 64.2578 -61.0352 63.2324 -61.0352 C 62.207 -61.0352 61.4746 -60.3027 61.4746 -59.2773 L 61.4746 -55.2734 L 58.3496 -55.2734 L 58.3496 -59.2773 C 58.3496 -60.3027 57.5195 -61.0352 56.543 -61.0352 C 55.5176 -61.0352 54.7852 -60.3027 54.7852 -59.2773 L 54.7852 -55.2734 L 51.416 -55.2734 C 47.3145 -55.2734 45.0195 -52.832 45.0195 -48.5352 Z M 57.8613 -39.8926 L 57.8613 -46.1914 L 61.6211 -46.1914 C 64.0137 -46.1914 65.4785 -45.0195 65.4785 -43.0664 C 65.4785 -41.1133 63.9648 -39.8926 61.5723 -39.8926 Z M 57.8613 -24.5117 L 57.8613 -31.8848 L 62.4023 -31.8848 C 65.2344 -31.8848 66.6992 -30.6152 66.6992 -28.3203 C 66.6992 -25.7812 65.2344 -24.5117 62.3047 -24.5117 Z"/>
  </g>
  <g id="Heavy-M" transform="matrix(1 0 0 1 2576.39 1126)">
   <path d="M 31.0059 12.6465 L 89.6484 12.6465 C 101.416 12.6465 108.154 5.9082 108.154 -5.81055 L 108.154 -64.5508 C 108.154 -76.2695 101.416 -83.0566 89.6484 -83.0566 L 31.0059 -83.0566 C 19.2383 -83.0566 12.4512 -76.3184 12.4512 -64.5508 L 12.4512 -5.81055 C 12.4512 5.9082 19.2383 12.6465 31.0059 12.6465 Z M 33.252 -3.17383 C 29.9316 -3.17383 28.2715 -4.63867 28.2715 -8.1543 L 28.2715 -62.207 C 28.2715 -65.7715 29.9316 -67.2363 33.252 -67.2363 L 87.3535 -67.2363 C 90.6738 -67.2363 92.334 -65.7715 92.334 -62.207 L 92.334 -8.1543 C 92.334 -4.63867 90.6738 -3.17383 87.3535 -3.17383 Z M 44.6777 -20.4102 C 44.6777 -16.6016 46.7773 -14.4531 50.4395 -14.4531 L 53.5156 -14.4531 L 53.5156 -10.6934 C 53.5156 -9.57031 54.3457 -8.78906 55.4688 -8.78906 C 56.5918 -8.78906 57.373 -9.57031 57.373 -10.6934 L 57.373 -14.4531 L 60.498 -14.4531 L 60.498 -10.6934 C 60.498 -9.57031 61.3281 -8.78906 62.4512 -8.78906 C 63.5742 -8.78906 64.3555 -9.57031 64.3555 -10.6934 L 64.3555 -14.502 C 73.1445 -14.6973 78.6621 -19.3848 78.6621 -26.6113 C 78.6621 -31.1523 75.4395 -35.1074 70.9961 -36.4746 C 74.5117 -37.9395 76.9043 -41.4062 76.9043 -45.1172 C 76.9043 -51.416 72.3145 -55.4199 64.3555 -55.7129 L 64.3555 -59.668 C 64.3555 -60.791 63.5254 -61.6211 62.4512 -61.6211 C 61.3281 -61.6211 60.498 -60.791 60.498 -59.668 L 60.498 -55.7129 L 57.373 -55.7129 L 57.373 -59.668 C 57.373 -60.791 56.543 -61.6211 55.4688 -61.6211 C 54.3457 -61.6211 53.5156 -60.791 53.5156 -59.668 L 53.5156 -55.7129 L 50.4883 -55.7129 C 46.8262 -55.7129 44.6777 -53.5156 44.6777 -49.707 Z M 56.0059 -39.4531 L 56.0059 -47.4609 L 60.8398 -47.4609 C 63.8672 -47.4609 65.7227 -45.9961 65.7227 -43.5547 C 65.7227 -40.9668 63.7695 -39.4531 60.4492 -39.4531 Z M 56.0059 -22.8516 L 56.0059 -32.0312 L 61.377 -32.0312 C 65.1855 -32.0312 67.1875 -30.4199 67.1875 -27.5391 C 67.1875 -24.4629 65.2344 -22.9004 61.4746 -22.9004 Z"/>
  </g>
  <g id="Bold-M" transform="matrix(1 0 0 1 2280.68 1126)">
   <path d="M 29.8828 11.6699 L 88.7207 11.6699 C 99.9512 11.6699 106.152 5.46875 106.152 -5.66406 L 106.152 -64.6973 C 106.152 -75.8789 99.9512 -82.0312 88.7207 -82.0312 L 29.8828 -82.0312 C 18.6523 -82.0312 12.4512 -75.8789 12.4512 -64.6973 L 12.4512 -5.66406 C 12.4512 5.51758 18.6523 11.6699 29.8828 11.6699 Z M 31.3965 -1.41602 C 27.5391 -1.41602 25.5371 -3.27148 25.5371 -7.32422 L 25.5371 -63.0371 C 25.5371 -67.1387 27.5391 -68.9453 31.3965 -68.9453 L 87.207 -68.9453 C 91.0156 -68.9453 93.0664 -67.1387 93.0664 -63.0371 L 93.0664 -7.32422 C 93.0664 -3.27148 91.0156 -1.41602 87.207 -1.41602 Z M 44.3359 -18.75 C 44.3359 -15.4785 46.2402 -13.5742 49.4141 -13.5742 L 52.1484 -13.5742 L 52.1484 -9.76562 C 52.1484 -8.54492 53.0273 -7.66602 54.248 -7.66602 C 55.4199 -7.66602 56.2988 -8.54492 56.2988 -9.76562 L 56.2988 -13.5742 L 59.4238 -13.5742 L 59.4238 -9.76562 C 59.4238 -8.54492 60.3027 -7.66602 61.5234 -7.66602 C 62.6953 -7.66602 63.5742 -8.54492 63.5742 -9.76562 L 63.5742 -13.623 C 72.168 -14.0625 77.3926 -18.7012 77.3926 -25.9766 C 77.3926 -30.8105 74.1699 -34.8145 69.4824 -36.2305 C 73.0469 -37.8418 75.4883 -41.4062 75.4883 -45.3125 C 75.4883 -51.5137 71.0449 -55.6641 63.5742 -56.1523 L 63.5742 -60.1074 C 63.5742 -61.3281 62.6953 -62.207 61.5234 -62.207 C 60.3027 -62.207 59.4238 -61.3281 59.4238 -60.1074 L 59.4238 -56.25 L 56.2988 -56.25 L 56.2988 -60.1074 C 56.2988 -61.3281 55.4199 -62.207 54.248 -62.207 C 53.0273 -62.207 52.1484 -61.3281 52.1484 -60.1074 L 52.1484 -56.25 L 49.4629 -56.25 C 46.2891 -56.25 44.3359 -54.248 44.3359 -50.9766 Z M 53.9062 -39.0137 L 53.9062 -48.877 L 59.9609 -48.877 C 63.7695 -48.877 66.0156 -47.1191 66.0156 -44.0918 C 66.0156 -40.8203 63.5254 -38.9648 59.2285 -38.9648 Z M 53.9062 -20.9961 L 53.9062 -32.1289 L 60.2539 -32.1289 C 65.1855 -32.1289 67.7246 -30.2246 67.7246 -26.6602 C 67.7246 -22.9492 65.2344 -21.0449 60.498 -21.0449 Z"/>
  </g>
  <g id="Semibold-M" transform="matrix(1 0 0 1 1984.65 1126)">
   <path d="M 29.1016 10.9863 L 88.0859 10.9863 C 98.9746 10.9863 104.785 5.17578 104.785 -5.56641 L 104.785 -64.8438 C 104.785 -75.5859 98.9746 -81.3477 88.0859 -81.3477 L 29.1016 -81.3477 C 18.2617 -81.3477 12.4512 -75.5859 12.4512 -64.8438 L 12.4512 -5.56641 C 12.4512 5.22461 18.2617 10.9863 29.1016 10.9863 Z M 30.127 -0.195312 C 25.8789 -0.195312 23.6328 -2.34375 23.6328 -6.78711 L 23.6328 -63.623 C 23.6328 -68.0664 25.8789 -70.166 30.127 -70.166 L 87.1094 -70.166 C 91.2598 -70.166 93.6035 -68.0664 93.6035 -63.623 L 93.6035 -6.78711 C 93.6035 -2.34375 91.2598 -0.195312 87.1094 -0.195312 Z M 44.0918 -17.627 C 44.0918 -14.6973 45.8496 -12.9395 48.7305 -12.9395 L 51.2207 -12.9395 L 51.2207 -9.08203 C 51.2207 -7.8125 52.1484 -6.88477 53.3691 -6.88477 C 54.6387 -6.88477 55.5664 -7.8125 55.5664 -9.08203 L 55.5664 -12.9395 L 58.6914 -12.9395 L 58.6914 -9.08203 C 58.6914 -7.8125 59.6191 -6.88477 60.8887 -6.88477 C 62.1582 -6.88477 63.0371 -7.8125 63.0371 -9.08203 L 63.0371 -13.0371 C 71.4355 -13.623 76.5137 -18.2617 76.5137 -25.5371 C 76.5137 -30.6152 73.291 -34.668 68.457 -36.084 C 72.0215 -37.7441 74.5117 -41.4551 74.5117 -45.4102 C 74.5117 -51.5625 70.166 -55.8105 63.0371 -56.4941 L 63.0371 -60.4492 C 63.0371 -61.7188 62.1094 -62.6465 60.8887 -62.6465 C 59.6191 -62.6465 58.6914 -61.7188 58.6914 -60.4492 L 58.6914 -56.6406 L 55.5664 -56.6406 L 55.5664 -60.4492 C 55.5664 -61.7188 54.6387 -62.6465 53.3691 -62.6465 C 52.1484 -62.6465 51.2207 -61.7188 51.2207 -60.4492 L 51.2207 -56.6406 L 48.7305 -56.6406 C 45.8984 -56.6406 44.0918 -54.7363 44.0918 -51.8555 Z M 52.4414 -38.6719 L 52.4414 -49.8535 L 59.3262 -49.8535 C 63.6719 -49.8535 66.2109 -47.9004 66.2109 -44.4824 C 66.2109 -40.7227 63.3789 -38.5742 58.3496 -38.623 Z M 52.4414 -19.7266 L 52.4414 -32.2266 L 59.5215 -32.2266 C 65.1367 -32.2266 68.1152 -30.0781 68.1152 -26.0254 C 68.1152 -21.9238 65.2344 -19.8242 59.8633 -19.7754 Z"/>
  </g>
  <g id="Medium-M" transform="matrix(1 0 0 1 1688.47 1126)">
   <path d="M 28.5156 10.4492 L 87.6465 10.4492 C 98.2422 10.4492 103.711 4.98047 103.711 -5.46875 L 103.711 -64.8926 C 103.711 -75.3418 98.2422 -80.8105 87.6465 -80.8105 L 28.5156 -80.8105 C 17.9688 -80.8105 12.4512 -75.3906 12.4512 -64.8926 L 12.4512 -5.46875 C 12.4512 4.98047 17.9688 10.4492 28.5156 10.4492 Z M 29.1504 0.732422 C 24.6582 0.732422 22.168 -1.61133 22.168 -6.34766 L 22.168 -64.0137 C 22.168 -68.75 24.6582 -71.0938 29.1504 -71.0938 L 87.0117 -71.0938 C 91.4551 -71.0938 93.9941 -68.75 93.9941 -64.0137 L 93.9941 -6.34766 C 93.9941 -1.61133 91.4551 0.732422 87.0117 0.732422 Z M 43.8965 -16.748 C 43.8965 -14.1113 45.5566 -12.4512 48.1934 -12.4512 L 50.4883 -12.4512 L 50.4883 -8.59375 C 50.4883 -7.27539 51.4648 -6.34766 52.7344 -6.34766 C 54.0527 -6.34766 54.9805 -7.27539 54.9805 -8.59375 L 54.9805 -12.4512 L 58.1543 -12.4512 L 58.1543 -8.59375 C 58.1543 -7.27539 59.082 -6.34766 60.4004 -6.34766 C 61.7188 -6.34766 62.6465 -7.27539 62.6465 -8.59375 L 62.6465 -12.5488 C 70.9473 -13.2812 75.8789 -17.9688 75.8789 -25.1953 C 75.8789 -30.4199 72.6074 -34.5215 67.6758 -35.9863 C 71.2891 -37.6953 73.7793 -41.4551 73.7793 -45.5078 C 73.7793 -51.6113 69.5312 -55.9082 62.6465 -56.7383 L 62.6465 -60.6934 C 62.6465 -62.0117 61.6699 -62.9395 60.4004 -62.9395 C 59.082 -62.9395 58.1543 -62.0117 58.1543 -60.6934 L 58.1543 -56.8848 L 54.9805 -56.8848 L 54.9805 -60.6934 C 54.9805 -62.0117 54.0527 -62.9395 52.7344 -62.9395 C 51.4648 -62.9395 50.4883 -62.0117 50.4883 -60.6934 L 50.4883 -56.8848 L 48.1934 -56.8848 C 45.6055 -56.8848 43.8965 -55.1758 43.8965 -52.4902 Z M 51.3672 -38.4277 L 51.3672 -50.5859 L 58.8867 -50.5859 C 63.623 -50.5859 66.3574 -48.4863 66.3574 -44.7266 C 66.3574 -40.625 63.2812 -38.3301 57.7148 -38.3789 Z M 51.3672 -18.7988 L 51.3672 -32.2754 L 58.8867 -32.2754 C 65.1367 -32.2754 68.4082 -29.9805 68.4082 -25.5859 C 68.4082 -21.1426 65.2344 -18.8477 59.375 -18.7988 Z"/>
  </g>
  <g id="Regular-M" transform="matrix(1 0 0 1 1392.45 1126)">
   <path d="M 27.7832 9.76562 L 87.0117 9.76562 C 97.2656 9.76562 102.344 4.6875 102.344 -5.37109 L 102.344 -64.9902 C 102.344 -75.0488 97.2656 -80.127 87.0117 -80.127 L 27.7832 -80.127 C 17.5781 -80.127 12.4512 -75.0977 12.4512 -64.9902 L 12.4512 -5.37109 C 12.4512 4.73633 17.5781 9.76562 27.7832 9.76562 Z M 27.8809 1.9043 C 22.998 1.9043 20.3125 -0.683594 20.3125 -5.76172 L 20.3125 -64.5996 C 20.3125 -69.6777 22.998 -72.2656 27.8809 -72.2656 L 86.9141 -72.2656 C 91.748 -72.2656 94.4824 -69.6777 94.4824 -64.5996 L 94.4824 -5.76172 C 94.4824 -0.683594 91.748 1.9043 86.9141 1.9043 Z M 43.6523 -15.625 C 43.6523 -13.3789 45.2148 -11.8164 47.4609 -11.8164 L 49.5605 -11.8164 L 49.5605 -7.95898 C 49.5605 -6.54297 50.5371 -5.56641 51.9043 -5.56641 C 53.2715 -5.56641 54.248 -6.54297 54.248 -7.95898 L 54.248 -11.8164 L 57.4219 -11.8164 L 57.4219 -7.95898 C 57.4219 -6.54297 58.4473 -5.56641 59.7656 -5.56641 C 61.1328 -5.56641 62.1094 -6.54297 62.1094 -7.95898 L 62.1094 -11.9629 C 70.2637 -12.8418 75 -17.5293 75 -24.707 C 75 -30.2246 71.7285 -34.3262 66.6992 -35.8398 C 70.2637 -37.5977 72.8027 -41.4551 72.8027 -45.6055 C 72.8027 -51.6602 68.6523 -56.0547 62.1094 -57.0312 L 62.1094 -60.9863 C 62.1094 -62.4023 61.1328 -63.3789 59.7656 -63.3789 C 58.4473 -63.3789 57.4219 -62.4023 57.4219 -60.9863 L 57.4219 -57.2266 L 54.248 -57.2266 L 54.248 -60.9863 C 54.248 -62.4023 53.2715 -63.3789 51.9043 -63.3789 C 50.5371 -63.3789 49.5605 -62.4023 49.5605 -60.9863 L 49.5605 -57.2266 L 47.4609 -57.2266 C 45.2637 -57.2266 43.6523 -55.6641 43.6523 -53.3691 Z M 49.9023 -38.0859 L 49.9023 -51.5625 L 58.252 -51.5625 C 63.5254 -51.5625 66.5039 -49.2676 66.5039 -45.1172 C 66.5039 -40.5273 63.0859 -37.9883 56.8848 -38.0371 Z M 49.9023 -17.5293 L 49.9023 -32.373 L 58.1543 -32.373 C 65.1367 -32.373 68.75 -29.8828 68.75 -24.9512 C 68.75 -20.1172 65.2832 -17.627 58.6914 -17.5781 Z"/>
  </g>
  <g id="Light-M" transform="matrix(1 0 0 1 1096.47 1126)">
   <path d="M 26.8555 9.0332 L 86.4746 9.0332 C 95.9961 9.0332 100.879 4.15039 100.879 -5.22461 L 100.879 -65.0879 C 100.879 -74.5117 95.9961 -79.3945 86.4746 -79.3945 L 26.8555 -79.3945 C 17.334 -79.3945 12.4512 -74.5605 12.4512 -65.0879 L 12.4512 -5.22461 C 12.4512 4.19922 17.334 9.0332 26.8555 9.0332 Z M 26.9531 2.97852 C 21.4844 2.97852 18.5059 0.0976562 18.5059 -5.56641 L 18.5059 -64.7949 C 18.5059 -70.4102 21.4844 -73.3398 26.9531 -73.3398 L 86.3281 -73.3398 C 91.748 -73.3398 94.8242 -70.4102 94.8242 -64.7949 L 94.8242 -5.56641 C 94.8242 0.0976562 91.748 2.97852 86.3281 2.97852 Z M 43.75 -15.7227 C 43.75 -13.916 45.0195 -12.7441 46.8262 -12.7441 L 49.7559 -12.7441 L 49.7559 -8.54492 C 49.7559 -7.37305 50.6348 -6.54297 51.7578 -6.54297 C 52.8809 -6.54297 53.7109 -7.37305 53.7109 -8.54492 L 53.7109 -12.7441 L 56.9824 -12.7441 L 56.9824 -8.54492 C 56.9824 -7.37305 57.8613 -6.54297 58.9844 -6.54297 C 60.0586 -6.54297 60.9375 -7.37305 60.9375 -8.54492 L 60.9375 -12.8418 C 68.9941 -13.5254 73.7793 -18.0664 73.7793 -24.9512 C 73.7793 -30.2734 70.459 -34.2285 65.5273 -35.7422 C 69.1895 -37.4512 71.6309 -41.2109 71.6309 -45.3613 C 71.6309 -51.2207 67.4316 -55.4688 60.9375 -56.2988 L 60.9375 -60.3516 C 60.9375 -61.5723 60.0586 -62.3535 58.9844 -62.3535 C 57.8613 -62.3535 56.9824 -61.5723 56.9824 -60.3516 L 56.9824 -56.4941 L 53.7109 -56.4941 L 53.7109 -60.3516 C 53.7109 -61.5723 52.8809 -62.3535 51.7578 -62.3535 C 50.6348 -62.3535 49.7559 -61.5723 49.7559 -60.3516 L 49.7559 -56.4941 L 46.8262 -56.4941 C 45.0195 -56.4941 43.75 -55.2246 43.75 -53.418 Z M 48.7305 -37.5488 L 48.7305 -51.9531 L 57.8125 -51.9531 C 63.2812 -51.9531 66.5527 -49.3652 66.5527 -45.0684 C 66.5527 -40.2832 62.9395 -37.5 56.8359 -37.5488 Z M 48.7305 -17.334 L 48.7305 -32.959 L 57.7148 -32.959 C 64.8438 -32.959 68.7988 -30.1758 68.7988 -25.1465 C 68.7988 -20.166 64.9902 -17.3828 58.252 -17.334 Z"/>
  </g>
  <g id="Thin-M" transform="matrix(1 0 0 1 800.758 1126)">
   <path d="M 25.6348 8.05664 L 85.7422 8.05664 C 94.3848 8.05664 98.877 3.4668 98.877 -5.0293 L 98.877 -65.2344 C 98.877 -73.7305 94.3848 -78.3691 85.7422 -78.3691 L 25.6348 -78.3691 C 16.9922 -78.3691 12.4512 -73.877 12.4512 -65.2344 L 12.4512 -5.0293 C 12.4512 3.56445 16.9922 8.05664 25.6348 8.05664 Z M 25.7324 4.44336 C 19.3848 4.44336 16.0645 1.12305 16.0645 -5.22461 L 16.0645 -65.0391 C 16.0645 -71.4355 19.3848 -74.7559 25.7324 -74.7559 L 85.5957 -74.7559 C 91.748 -74.7559 95.2637 -71.4355 95.2637 -65.0391 L 95.2637 -5.22461 C 95.2637 1.12305 91.748 4.44336 85.5957 4.44336 Z M 43.8965 -15.8691 C 43.8965 -14.6973 44.7266 -13.916 45.8984 -13.916 L 50.0977 -13.916 L 50.0977 -9.32617 C 50.0977 -8.39844 50.7812 -7.8125 51.5625 -7.8125 C 52.3438 -7.8125 52.9785 -8.39844 52.9785 -9.32617 L 52.9785 -13.916 L 56.3965 -13.916 L 56.3965 -9.32617 C 56.3965 -8.39844 57.1289 -7.8125 57.9102 -7.8125 C 58.6914 -7.8125 59.3262 -8.39844 59.3262 -9.32617 L 59.3262 -13.9648 C 67.334 -14.4531 72.1191 -18.7988 72.1191 -25.293 C 72.1191 -30.3711 68.7988 -34.1309 64.0137 -35.5957 C 67.7734 -37.2559 70.0684 -40.918 70.0684 -44.9707 C 70.0684 -50.6836 65.8203 -54.7363 59.3262 -55.3223 L 59.3262 -59.5215 C 59.3262 -60.4492 58.6914 -61.0352 57.9102 -61.0352 C 57.1289 -61.0352 56.3965 -60.4492 56.3965 -59.5215 L 56.3965 -55.4199 L 52.9785 -55.4199 L 52.9785 -59.5215 C 52.9785 -60.4492 52.3438 -61.0352 51.5625 -61.0352 C 50.7812 -61.0352 50.0977 -60.4492 50.0977 -59.5215 L 50.0977 -55.4199 L 45.8984 -55.4199 C 44.7266 -55.4199 43.8965 -54.6387 43.8965 -53.4668 Z M 47.1191 -36.8652 L 47.1191 -52.4414 L 57.2266 -52.4414 C 62.8906 -52.4414 66.6504 -49.5117 66.6504 -44.9707 C 66.6504 -39.9414 62.7441 -36.8652 56.7871 -36.8652 Z M 47.1191 -17.041 L 47.1191 -33.7891 L 57.0801 -33.7891 C 64.4043 -33.7891 68.8477 -30.6152 68.8477 -25.3418 C 68.8477 -20.166 64.5996 -17.0898 57.666 -17.0898 Z"/>
  </g>
  <g id="Ultralight-M" transform="matrix(1 0 0 1 504.535 1126)">
   <path d="M 25 7.56836 L 85.3516 7.56836 C 93.5059 7.56836 97.9004 3.125 97.9004 -4.98047 L 97.9004 -65.2832 C 97.9004 -73.3887 93.5059 -77.832 85.3516 -77.832 L 25 -77.832 C 16.7969 -77.832 12.4512 -73.4863 12.4512 -65.2832 L 12.4512 -4.98047 C 12.4512 3.22266 16.7969 7.56836 25 7.56836 Z M 25.0977 5.17578 C 18.3594 5.17578 14.8438 1.66016 14.8438 -5.07812 L 14.8438 -65.1855 C 14.8438 -71.9727 18.3594 -75.4395 25.0977 -75.4395 L 85.2051 -75.4395 C 91.748 -75.4395 95.5078 -71.9727 95.5078 -65.1855 L 95.5078 -5.07812 C 95.5078 1.66016 91.748 5.17578 85.2051 5.17578 Z M 43.9941 -15.9668 C 43.9941 -15.0879 44.5801 -14.5508 45.459 -14.5508 L 50.2441 -14.5508 L 50.2441 -9.7168 C 50.2441 -8.93555 50.8301 -8.44727 51.4648 -8.44727 C 52.0508 -8.44727 52.6367 -8.93555 52.6367 -9.7168 L 52.6367 -14.5508 L 56.1035 -14.5508 L 56.1035 -9.7168 C 56.1035 -8.93555 56.7383 -8.44727 57.3242 -8.44727 C 57.959 -8.44727 58.4961 -8.93555 58.4961 -9.7168 L 58.4961 -14.5508 C 66.4551 -14.9414 71.2891 -19.1406 71.2891 -25.4395 C 71.2891 -30.4199 67.9199 -34.082 63.2324 -35.498 C 67.041 -37.207 69.2871 -40.7227 69.2871 -44.7754 C 69.2871 -50.3906 64.9902 -54.3457 58.4961 -54.834 L 58.4961 -59.082 C 58.4961 -59.9121 57.959 -60.4004 57.3242 -60.4004 C 56.7383 -60.4004 56.1035 -59.9121 56.1035 -59.082 L 56.1035 -54.9316 L 52.6367 -54.9316 L 52.6367 -59.082 C 52.6367 -59.9121 52.0508 -60.4004 51.4648 -60.4004 C 50.8301 -60.4004 50.2441 -59.9121 50.2441 -59.082 L 50.2441 -54.9316 L 45.459 -54.9316 C 44.5801 -54.9316 43.9941 -54.3945 43.9941 -53.5156 Z M 46.2891 -36.5234 L 46.2891 -52.6855 L 56.9336 -52.6855 C 62.7441 -52.6855 66.6992 -49.6094 66.6992 -44.9219 C 66.6992 -39.7949 62.5977 -36.5234 56.7383 -36.5234 Z M 46.2891 -16.9434 L 46.2891 -34.1797 L 56.7871 -34.1797 C 64.209 -34.1797 68.8477 -30.8594 68.8477 -25.4395 C 68.8477 -20.166 64.4043 -16.9434 57.373 -16.9434 Z"/>
  </g>
  <g id="Black-S" transform="matrix(1 0 0 1 2885.5 696)">
   <path d="M 25 2.92969 L 70.8008 2.92969 C 80.3711 2.92969 86.0352 -2.73438 86.0352 -12.3047 L 86.0352 -58.1055 C 86.0352 -67.6758 80.3711 -73.3398 70.8008 -73.3398 L 25 -73.3398 C 15.4297 -73.3398 9.76562 -67.6758 9.76562 -58.1055 L 9.76562 -12.3047 C 9.76562 -2.73438 15.4297 2.92969 25 2.92969 Z M 27.2461 -11.2305 C 25 -11.2305 23.9258 -12.1094 23.9258 -14.5508 L 23.9258 -55.8594 C 23.9258 -58.3008 25 -59.1797 27.2461 -59.1797 L 68.5547 -59.1797 C 70.8008 -59.1797 71.875 -58.3008 71.875 -55.8594 L 71.875 -14.5508 C 71.875 -12.1094 70.8008 -11.2305 68.5547 -11.2305 Z M 35.2539 -24.6582 C 35.2539 -21.3379 37.0117 -19.5312 40.1855 -19.5312 L 42.8223 -19.5312 L 42.8223 -16.6016 C 42.8223 -15.7715 43.4082 -15.1855 44.2383 -15.1855 C 45.0684 -15.1855 45.6543 -15.7715 45.6543 -16.6016 L 45.6543 -19.5312 L 48.0957 -19.5312 L 48.0957 -16.6016 C 48.0957 -15.7715 48.6816 -15.1855 49.5117 -15.1855 C 50.3418 -15.1855 50.9277 -15.7715 50.9277 -16.6016 L 50.9277 -19.5312 C 57.959 -19.5312 62.4512 -23.1934 62.4512 -28.9062 C 62.4512 -32.2266 59.9609 -35.3027 56.5918 -36.3281 C 59.3262 -37.4512 61.1816 -40.0391 61.1816 -42.8711 C 61.1816 -47.8516 57.4707 -50.9277 50.9277 -50.9766 L 50.9277 -54.1016 C 50.9277 -54.9316 50.293 -55.5176 49.5117 -55.5176 C 48.6816 -55.5176 48.0957 -54.9316 48.0957 -54.1016 L 48.0957 -50.9766 L 45.6543 -50.9766 L 45.6543 -54.1016 C 45.6543 -54.9316 45.0195 -55.5176 44.2383 -55.5176 C 43.4082 -55.5176 42.8223 -54.9316 42.8223 -54.1016 L 42.8223 -50.9766 L 40.2344 -50.9766 C 37.0605 -50.9766 35.2539 -49.0723 35.2539 -45.752 Z M 45.2148 -38.8672 L 45.2148 -43.8965 L 48.2422 -43.8965 C 50.1465 -43.8965 51.3184 -42.9688 51.3184 -41.4062 C 51.3184 -39.8438 50.0977 -38.8672 48.1445 -38.8672 Z M 45.2148 -26.709 L 45.2148 -32.6172 L 48.8281 -32.6172 C 51.123 -32.6172 52.2949 -31.5918 52.2949 -29.7363 C 52.2949 -27.7344 51.123 -26.709 48.7793 -26.709 Z"/>
  </g>
  <g id="Heavy-S" transform="matrix(1 0 0 1 2589.4 696)">
   <path d="M 24.3652 2.34375 L 70.2637 2.34375 C 79.541 2.34375 84.8145 -2.97852 84.8145 -12.207 L 84.8145 -58.2031 C 84.8145 -67.4316 79.541 -72.7539 70.2637 -72.7539 L 24.3652 -72.7539 C 15.0879 -72.7539 9.76562 -67.4316 9.76562 -58.2031 L 9.76562 -12.207 C 9.76562 -2.97852 15.0879 2.34375 24.3652 2.34375 Z M 26.0742 -10.1562 C 23.5352 -10.1562 22.2656 -11.2793 22.2656 -14.0137 L 22.2656 -56.3965 C 22.2656 -59.1309 23.5352 -60.2539 26.0742 -60.2539 L 68.5059 -60.2539 C 71.0449 -60.2539 72.3633 -59.1309 72.3633 -56.3965 L 72.3633 -14.0137 C 72.3633 -11.2793 71.0449 -10.1562 68.5059 -10.1562 Z M 35.0098 -23.5352 C 35.0098 -20.5078 36.6699 -18.7988 39.5508 -18.7988 L 41.8457 -18.7988 L 41.8457 -15.8691 C 41.8457 -14.9902 42.4805 -14.3066 43.4082 -14.3066 C 44.3359 -14.3066 44.9707 -14.9902 44.9707 -15.8691 L 44.9707 -18.7988 L 47.4121 -18.7988 L 47.4121 -15.8691 C 47.4121 -14.9902 48.0469 -14.3066 48.9746 -14.3066 C 49.9023 -14.3066 50.5371 -14.9902 50.5371 -15.8691 L 50.5371 -18.8477 C 57.4219 -18.9941 61.7188 -22.7051 61.7188 -28.418 C 61.7188 -31.9824 59.2285 -35.1074 55.7129 -36.1816 C 58.4473 -37.3535 60.3516 -40.0879 60.3516 -43.0176 C 60.3516 -47.9492 56.7383 -51.123 50.5371 -51.3672 L 50.5371 -54.4922 C 50.5371 -55.4199 49.8535 -56.0547 48.9746 -56.0547 C 48.0469 -56.0547 47.4121 -55.4199 47.4121 -54.4922 L 47.4121 -51.416 L 44.9707 -51.416 L 44.9707 -54.4922 C 44.9707 -55.4199 44.2871 -56.0547 43.4082 -56.0547 C 42.4805 -56.0547 41.8457 -55.4199 41.8457 -54.4922 L 41.8457 -51.416 L 39.5996 -51.416 C 36.7188 -51.416 35.0098 -49.6094 35.0098 -46.6309 Z M 43.8965 -38.5742 L 43.8965 -44.8242 L 47.7051 -44.8242 C 50.0977 -44.8242 51.5137 -43.7012 51.5137 -41.7969 C 51.5137 -39.7461 49.9512 -38.5742 47.3145 -38.5742 Z M 43.8965 -25.4883 L 43.8965 -32.6172 L 48.0957 -32.6172 C 51.123 -32.6172 52.6855 -31.3965 52.6855 -29.1016 C 52.6855 -26.709 51.1719 -25.4883 48.1934 -25.4883 Z"/>
  </g>
  <g id="Bold-S" transform="matrix(1 0 0 1 2293.35 696)">
   <path d="M 23.6328 1.66016 L 69.6289 1.66016 C 78.6133 1.66016 83.4961 -3.22266 83.4961 -12.1094 L 83.4961 -58.3008 C 83.4961 -67.1875 78.6133 -72.0703 69.6289 -72.0703 L 23.6328 -72.0703 C 14.6973 -72.0703 9.76562 -67.1875 9.76562 -58.3008 L 9.76562 -12.1094 C 9.76562 -3.22266 14.6973 1.66016 23.6328 1.66016 Z M 24.8047 -8.93555 C 21.9238 -8.93555 20.3613 -10.3516 20.3613 -13.4277 L 20.3613 -56.9824 C 20.3613 -60.0586 21.9238 -61.4746 24.8047 -61.4746 L 68.457 -61.4746 C 71.3379 -61.4746 72.9004 -60.0586 72.9004 -56.9824 L 72.9004 -13.4277 C 72.9004 -10.3516 71.3379 -8.93555 68.457 -8.93555 Z M 34.7168 -22.2656 C 34.7168 -19.5801 36.2793 -17.9688 38.8672 -17.9688 L 40.7715 -17.9688 L 40.7715 -15.0879 C 40.7715 -14.0625 41.5039 -13.3789 42.4805 -13.3789 C 43.5059 -13.3789 44.2383 -14.0625 44.2383 -15.0879 L 44.2383 -17.9688 L 46.6309 -17.9688 L 46.6309 -15.0879 C 46.6309 -14.0625 47.3633 -13.3789 48.3887 -13.3789 C 49.3652 -13.3789 50.0977 -14.0625 50.0977 -15.0879 L 50.0977 -18.0664 C 56.8359 -18.457 60.9375 -22.1191 60.9375 -27.8809 C 60.9375 -31.7383 58.3984 -34.9121 54.6875 -36.0352 C 57.4707 -37.3047 59.4238 -40.1367 59.4238 -43.2129 C 59.4238 -48.0957 55.957 -51.3672 50.0977 -51.8066 L 50.0977 -54.9316 C 50.0977 -55.9082 49.3652 -56.6406 48.3887 -56.6406 C 47.3633 -56.6406 46.6309 -55.9082 46.6309 -54.9316 L 46.6309 -51.9043 L 44.2383 -51.9043 L 44.2383 -54.9316 C 44.2383 -55.9082 43.457 -56.6406 42.4805 -56.6406 C 41.5039 -56.6406 40.7715 -55.9082 40.7715 -54.9316 L 40.7715 -51.9043 L 38.8672 -51.9043 C 36.3281 -51.9043 34.7168 -50.2441 34.7168 -47.6074 Z M 42.4805 -38.2812 L 42.4805 -45.8984 L 47.0703 -45.8984 C 50.0488 -45.8984 51.709 -44.5801 51.709 -42.1875 C 51.709 -39.6973 49.8047 -38.2324 46.3379 -38.2812 Z M 42.4805 -24.0723 L 42.4805 -32.666 L 47.3145 -32.666 C 51.1719 -32.666 53.0762 -31.25 53.0762 -28.418 C 53.0762 -25.5859 51.2207 -24.1211 47.5098 -24.1211 Z"/>
  </g>
  <g id="Semibold-S" transform="matrix(1 0 0 1 1997.1 696)">
   <path d="M 23.0957 1.17188 L 69.1895 1.17188 C 77.9297 1.17188 82.5684 -3.36914 82.5684 -12.0117 L 82.5684 -58.3984 C 82.5684 -67.041 77.9297 -71.582 69.1895 -71.582 L 23.0957 -71.582 C 14.4043 -71.582 9.76562 -67.041 9.76562 -58.3984 L 9.76562 -12.0117 C 9.76562 -3.36914 14.4043 1.17188 23.0957 1.17188 Z M 23.877 -8.10547 C 20.752 -8.10547 19.0918 -9.7168 19.0918 -12.9883 L 19.0918 -57.4219 C 19.0918 -60.6934 20.752 -62.3047 23.877 -62.3047 L 68.4082 -62.3047 C 71.5332 -62.3047 73.2422 -60.6934 73.2422 -57.4219 L 73.2422 -12.9883 C 73.2422 -9.7168 71.5332 -8.10547 68.4082 -8.10547 Z M 34.5215 -21.3867 C 34.5215 -18.9453 35.9863 -17.4316 38.3789 -17.4316 L 40.0391 -17.4316 L 40.0391 -14.5508 C 40.0391 -13.4766 40.7715 -12.6953 41.8457 -12.6953 C 42.9199 -12.6953 43.7012 -13.4766 43.7012 -14.5508 L 43.7012 -17.4316 L 46.1426 -17.4316 L 46.1426 -14.5508 C 46.1426 -13.4766 46.875 -12.6953 47.9492 -12.6953 C 49.0234 -12.6953 49.8047 -13.4766 49.8047 -14.5508 L 49.8047 -17.5293 C 56.3965 -18.0176 60.3516 -21.7285 60.3516 -27.5391 C 60.3516 -31.5918 57.8125 -34.8145 54.0039 -35.9375 C 56.7871 -37.2559 58.7402 -40.1855 58.7402 -43.3105 C 58.7402 -48.1934 55.3711 -51.5137 49.8047 -52.1484 L 49.8047 -55.2246 C 49.8047 -56.2988 49.0234 -57.0312 47.9492 -57.0312 C 46.875 -57.0312 46.1426 -56.2988 46.1426 -55.2246 L 46.1426 -52.2461 L 43.7012 -52.2461 L 43.7012 -55.2246 C 43.7012 -56.2988 42.9199 -57.0312 41.8457 -57.0312 C 40.7715 -57.0312 40.0391 -56.2988 40.0391 -55.2246 L 40.0391 -52.2461 L 38.3789 -52.2461 C 36.0352 -52.2461 34.5215 -50.6836 34.5215 -48.2422 Z M 41.4551 -38.0859 L 41.4551 -46.582 L 46.6309 -46.582 C 50 -46.582 51.8555 -45.166 51.8555 -42.4805 C 51.8555 -39.5996 49.707 -38.0371 45.7031 -38.0371 Z M 41.4551 -23.1445 L 41.4551 -32.666 L 46.7285 -32.666 C 51.1719 -32.666 53.3691 -31.1035 53.3691 -27.9297 C 53.3691 -24.7559 51.2207 -23.1934 47.0215 -23.1445 Z"/>
  </g>
  <g id="Medium-S" transform="matrix(1 0 0 1 1700.75 696)">
   <path d="M 22.7051 0.830078 L 68.8965 0.830078 C 77.4414 0.830078 81.8359 -3.51562 81.8359 -11.9629 L 81.8359 -58.4473 C 81.8359 -66.8945 77.4414 -71.2402 68.8965 -71.2402 L 22.7051 -71.2402 C 14.209 -71.2402 9.76562 -66.8945 9.76562 -58.4473 L 9.76562 -11.9629 C 9.76562 -3.51562 14.209 0.830078 22.7051 0.830078 Z M 23.1934 -7.4707 C 19.9219 -7.4707 18.0664 -9.22852 18.0664 -12.6953 L 18.0664 -57.7148 C 18.0664 -61.1816 19.9219 -62.9395 23.1934 -62.9395 L 68.4082 -62.9395 C 71.6797 -62.9395 73.5352 -61.1816 73.5352 -57.7148 L 73.5352 -12.6953 C 73.5352 -9.22852 71.6797 -7.4707 68.4082 -7.4707 Z M 34.3262 -20.7031 C 34.3262 -18.457 35.791 -16.9922 38.0371 -16.9922 L 39.4531 -16.9922 L 39.4531 -14.1113 C 39.4531 -12.9883 40.2344 -12.207 41.3574 -12.207 C 42.4805 -12.207 43.3105 -12.9883 43.3105 -14.1113 L 43.3105 -16.9922 L 45.7031 -16.9922 L 45.7031 -14.1113 C 45.7031 -12.9883 46.5332 -12.207 47.6562 -12.207 C 48.7793 -12.207 49.5605 -12.9883 49.5605 -14.1113 L 49.5605 -17.1387 C 56.0547 -17.7246 59.9121 -21.4844 59.9121 -27.2461 C 59.9121 -31.4453 57.373 -34.668 53.4668 -35.8887 C 56.25 -37.207 58.252 -40.1855 58.252 -43.4082 C 58.252 -48.2422 54.9316 -51.6602 49.5605 -52.3438 L 49.5605 -55.4199 C 49.5605 -56.543 48.7793 -57.373 47.6562 -57.373 C 46.5332 -57.373 45.7031 -56.543 45.7031 -55.4199 L 45.7031 -52.5391 L 43.3105 -52.5391 L 43.3105 -55.4199 C 43.3105 -56.543 42.4805 -57.373 41.3574 -57.373 C 40.2344 -57.373 39.4531 -56.543 39.4531 -55.4199 L 39.4531 -52.5391 L 38.0371 -52.5391 C 35.8398 -52.5391 34.3262 -51.0254 34.3262 -48.7793 Z M 40.6738 -37.9395 L 40.6738 -47.168 L 46.2891 -47.168 C 49.9512 -47.168 51.9531 -45.6055 51.9531 -42.7246 C 51.9531 -39.5508 49.6582 -37.8418 45.2148 -37.8906 Z M 40.6738 -22.4121 L 40.6738 -32.7148 L 46.3379 -32.7148 C 51.1719 -32.7148 53.5645 -31.0059 53.5645 -27.5879 C 53.5645 -24.1699 51.2695 -22.4609 46.6797 -22.4609 Z"/>
  </g>
  <g id="Regular-S" transform="matrix(1 0 0 1 1404.51 696)">
   <path d="M 22.2168 0.390625 L 68.457 0.390625 C 76.8066 0.390625 80.9082 -3.71094 80.9082 -11.9141 L 80.9082 -58.4961 C 80.9082 -66.6992 76.8066 -70.8008 68.457 -70.8008 L 22.2168 -70.8008 C 13.916 -70.8008 9.76562 -66.6992 9.76562 -58.4961 L 9.76562 -11.9141 C 9.76562 -3.71094 13.916 0.390625 22.2168 0.390625 Z M 22.3145 -6.68945 C 18.7988 -6.68945 16.7969 -8.54492 16.7969 -12.2559 L 16.7969 -58.1543 C 16.7969 -61.8164 18.7988 -63.7207 22.3145 -63.7207 L 68.3594 -63.7207 C 71.875 -63.7207 73.877 -61.8164 73.877 -58.1543 L 73.877 -12.2559 C 73.877 -8.54492 71.875 -6.68945 68.3594 -6.68945 Z M 34.1309 -19.8242 C 34.1309 -17.8223 35.498 -16.4551 37.5488 -16.4551 L 38.7207 -16.4551 L 38.7207 -13.5742 C 38.7207 -12.4023 39.5508 -11.5234 40.7715 -11.5234 C 41.9434 -11.5234 42.7734 -12.4023 42.7734 -13.5742 L 42.7734 -16.4551 L 45.2148 -16.4551 L 45.2148 -13.5742 C 45.2148 -12.4023 46.0449 -11.5234 47.2168 -11.5234 C 48.4375 -11.5234 49.2676 -12.4023 49.2676 -13.5742 L 49.2676 -16.6016 C 55.6641 -17.334 59.375 -21.0938 59.375 -26.9043 C 59.375 -31.25 56.8359 -34.5703 52.7832 -35.791 C 55.6152 -37.1582 57.6172 -40.2344 57.6172 -43.5059 C 57.6172 -48.3398 54.3945 -51.8066 49.2676 -52.6855 L 49.2676 -55.7129 C 49.2676 -56.8848 48.4375 -57.7637 47.2168 -57.7637 C 46.0449 -57.7637 45.2148 -56.8848 45.2148 -55.7129 L 45.2148 -52.8809 L 42.7734 -52.8809 L 42.7734 -55.7129 C 42.7734 -56.8848 41.9434 -57.7637 40.7715 -57.7637 C 39.5508 -57.7637 38.7207 -56.8848 38.7207 -55.7129 L 38.7207 -52.8809 L 37.5488 -52.8809 C 35.5469 -52.8809 34.1309 -51.4648 34.1309 -49.4141 Z M 39.6973 -37.6953 L 39.6973 -47.8516 L 45.8984 -47.8516 C 49.9023 -47.8516 52.0996 -46.1426 52.0996 -43.0176 C 52.0996 -39.502 49.5117 -37.5977 44.5801 -37.6465 Z M 39.6973 -21.4355 L 39.6973 -32.7148 L 45.8008 -32.7148 C 51.1719 -32.7148 53.8574 -30.8594 53.8574 -27.0996 C 53.8574 -23.3887 51.2695 -21.5332 46.2402 -21.4844 Z"/>
  </g>
  <g id="Light-S" transform="matrix(1 0 0 1 1108.46 696)">
   <path d="M 21.3867 -0.292969 L 67.9688 -0.292969 C 75.7324 -0.292969 79.5898 -4.15039 79.5898 -11.7676 L 79.5898 -58.5938 C 79.5898 -66.2109 75.7324 -70.1172 67.9688 -70.1172 L 21.3867 -70.1172 C 13.6719 -70.1172 9.76562 -66.2598 9.76562 -58.5938 L 9.76562 -11.7676 C 9.76562 -4.15039 13.6719 -0.292969 21.3867 -0.292969 Z M 21.4844 -5.71289 C 17.4316 -5.71289 15.1855 -7.86133 15.1855 -12.0605 L 15.1855 -58.3008 C 15.1855 -62.5 17.4316 -64.6973 21.4844 -64.6973 L 67.8711 -64.6973 C 71.875 -64.6973 74.1699 -62.5 74.1699 -58.3008 L 74.1699 -12.0605 C 74.1699 -7.86133 71.875 -5.71289 67.8711 -5.71289 Z M 34.2285 -19.9219 C 34.2285 -18.3105 35.3516 -17.2363 36.9629 -17.2363 L 38.916 -17.2363 L 38.916 -14.1113 C 38.916 -13.0859 39.6484 -12.3535 40.625 -12.3535 C 41.6016 -12.3535 42.2852 -13.0859 42.2852 -14.1113 L 42.2852 -17.2363 L 44.8242 -17.2363 L 44.8242 -14.1113 C 44.8242 -13.0859 45.5566 -12.3535 46.5332 -12.3535 C 47.4609 -12.3535 48.1934 -13.0859 48.1934 -14.1113 L 48.1934 -17.334 C 54.541 -17.9688 58.3008 -21.582 58.3008 -27.0996 C 58.3008 -31.2988 55.7129 -34.4727 51.8066 -35.6934 C 54.6387 -37.0117 56.5918 -40.0391 56.5918 -43.2617 C 56.5918 -47.9492 53.3203 -51.3184 48.1934 -52.002 L 48.1934 -55.1758 C 48.1934 -56.1523 47.4609 -56.8848 46.5332 -56.8848 C 45.5566 -56.8848 44.8242 -56.1523 44.8242 -55.1758 L 44.8242 -52.1484 L 42.2852 -52.1484 L 42.2852 -55.1758 C 42.2852 -56.1523 41.6016 -56.8848 40.625 -56.8848 C 39.6484 -56.8848 38.916 -56.1523 38.916 -55.1758 L 38.916 -52.1484 L 36.9629 -52.1484 C 35.3516 -52.1484 34.2285 -51.0742 34.2285 -49.4629 Z M 38.623 -37.2559 L 38.623 -48.1934 L 45.459 -48.1934 C 49.6582 -48.1934 52.1484 -46.2402 52.1484 -42.9688 C 52.1484 -39.3066 49.3652 -37.207 44.5312 -37.207 Z M 38.623 -21.2891 L 38.623 -33.252 L 45.3613 -33.252 C 50.9277 -33.252 53.9062 -31.1523 53.9062 -27.2461 C 53.9062 -23.3887 51.0254 -21.3379 45.8008 -21.2891 Z"/>
  </g>
  <g id="Thin-S" transform="matrix(1 0 0 1 812.599 696)">
   <path d="M 20.3125 -1.12305 L 67.334 -1.12305 C 74.2676 -1.12305 77.8809 -4.78516 77.8809 -11.6211 L 77.8809 -58.6914 C 77.8809 -65.5762 74.2676 -69.2383 67.334 -69.2383 L 20.3125 -69.2383 C 13.3789 -69.2383 9.76562 -65.625 9.76562 -58.6914 L 9.76562 -11.6211 C 9.76562 -4.6875 13.3789 -1.12305 20.3125 -1.12305 Z M 20.4102 -4.44336 C 15.625 -4.44336 13.0859 -6.93359 13.0859 -11.8164 L 13.0859 -58.5449 C 13.0859 -63.3789 15.625 -65.918 20.4102 -65.918 L 67.2363 -65.918 C 71.875 -65.918 74.5605 -63.3789 74.5605 -58.5449 L 74.5605 -11.8164 C 74.5605 -6.93359 71.875 -4.44336 67.2363 -4.44336 Z M 34.375 -20.0195 C 34.375 -18.9941 35.1074 -18.3105 36.1328 -18.3105 L 39.1602 -18.3105 L 39.1602 -14.7949 C 39.1602 -14.0137 39.7461 -13.4766 40.4297 -13.4766 C 41.1133 -13.4766 41.6504 -14.0137 41.6504 -14.7949 L 41.6504 -18.3105 L 44.3359 -18.3105 L 44.3359 -14.7949 C 44.3359 -14.0137 44.9219 -13.4766 45.5566 -13.4766 C 46.2402 -13.4766 46.7773 -14.0137 46.7773 -14.7949 L 46.7773 -18.3594 C 53.0762 -18.75 56.8359 -22.2168 56.8359 -27.3438 C 56.8359 -31.3965 54.1992 -34.375 50.4395 -35.5469 C 53.3691 -36.8652 55.2246 -39.7461 55.2246 -42.9199 C 55.2246 -47.4609 51.9043 -50.6836 46.7773 -51.1719 L 46.7773 -54.4434 C 46.7773 -55.2246 46.2402 -55.7129 45.5566 -55.7129 C 44.9219 -55.7129 44.3359 -55.2246 44.3359 -54.4434 L 44.3359 -51.2695 L 41.6504 -51.2695 L 41.6504 -54.4434 C 41.6504 -55.2246 41.1133 -55.7129 40.4297 -55.7129 C 39.7461 -55.7129 39.1602 -55.2246 39.1602 -54.4434 L 39.1602 -51.2695 L 36.1328 -51.2695 C 35.1074 -51.2695 34.375 -50.5859 34.375 -49.5117 Z M 37.207 -36.6699 L 37.207 -48.584 L 44.9707 -48.584 C 49.3652 -48.584 52.1973 -46.3867 52.1973 -42.8711 C 52.1973 -39.0137 49.2188 -36.6211 44.5312 -36.6699 Z M 37.207 -21.0449 L 37.207 -33.9355 L 44.873 -33.9355 C 50.5859 -33.9355 53.9062 -31.543 53.9062 -27.4414 C 53.9062 -23.4375 50.6836 -21.0938 45.3125 -21.0449 Z"/>
  </g>
  <g id="Ultralight-S" transform="matrix(1 0 0 1 516.352 696)">
   <path d="M 19.7754 -1.5625 L 66.9922 -1.5625 C 73.5352 -1.5625 76.9531 -5.12695 76.9531 -11.5234 L 76.9531 -58.7891 C 76.9531 -65.2344 73.5352 -68.75 66.9922 -68.75 L 19.7754 -68.75 C 13.2324 -68.75 9.76562 -65.2832 9.76562 -58.7891 L 9.76562 -11.5234 C 9.76562 -5.0293 13.2324 -1.5625 19.7754 -1.5625 Z M 19.873 -3.75977 C 14.6484 -3.75977 11.9629 -6.44531 11.9629 -11.6699 L 11.9629 -58.6426 C 11.9629 -63.8672 14.6484 -66.5527 19.873 -66.5527 L 66.8945 -66.5527 C 71.875 -66.5527 74.7559 -63.8672 74.7559 -58.6426 L 74.7559 -11.6699 C 74.7559 -6.44531 71.875 -3.75977 66.8945 -3.75977 Z M 34.4727 -20.1172 C 34.4727 -19.3359 35.0098 -18.8477 35.7422 -18.8477 L 39.3066 -18.8477 L 39.3066 -15.1367 C 39.3066 -14.502 39.8438 -14.0625 40.332 -14.0625 C 40.8691 -14.0625 41.3574 -14.502 41.3574 -15.1367 L 41.3574 -18.8477 L 44.043 -18.8477 L 44.043 -15.1367 C 44.043 -14.502 44.5801 -14.0625 45.0684 -14.0625 C 45.6055 -14.0625 46.0449 -14.502 46.0449 -15.1367 L 46.0449 -18.8965 C 52.3438 -19.1895 56.1035 -22.5098 56.1035 -27.4902 C 56.1035 -31.4453 53.4668 -34.3262 49.7559 -35.4492 C 52.7344 -36.7676 54.4922 -39.5996 54.4922 -42.7734 C 54.4922 -47.168 51.123 -50.3418 46.0449 -50.7324 L 46.0449 -54.0527 C 46.0449 -54.6875 45.6055 -55.127 45.0684 -55.127 C 44.5801 -55.127 44.043 -54.6875 44.043 -54.0527 L 44.043 -50.7812 L 41.3574 -50.7812 L 41.3574 -54.0527 C 41.3574 -54.6875 40.8691 -55.127 40.332 -55.127 C 39.8438 -55.127 39.3066 -54.6875 39.3066 -54.0527 L 39.3066 -50.7812 L 35.7422 -50.7812 C 35.0098 -50.7812 34.4727 -50.293 34.4727 -49.5605 Z M 36.4746 -36.3281 L 36.4746 -48.8281 L 44.6777 -48.8281 C 49.2188 -48.8281 52.2461 -46.4844 52.2461 -42.8223 C 52.2461 -38.8672 49.0723 -36.3281 44.4824 -36.3281 Z M 36.4746 -20.9473 L 36.4746 -34.2773 L 44.5801 -34.2773 C 50.3906 -34.2773 53.9551 -31.7383 53.9551 -27.5391 C 53.9551 -23.4375 50.5371 -20.9473 45.0195 -20.9473 Z"/>
  </g>
 </g>
</svg>
