<?xml version="1.0" encoding="UTF-8"?>
<!--Generator: Apple Native CoreSVG 123-->
<!DOCTYPE svg
PUBLIC "-//W3C//DTD SVG 1.1//EN"
       "http://www.w3.org/Graphics/SVG/1.1/DTD/svg11.dtd">
<svg version="1.1" xmlns="http://www.w3.org/2000/svg" xmlns:xlink="http://www.w3.org/1999/xlink" width="3300" height="2200">
 <!--glyph: "uni100667.medium", point size: 100.000000, font version: "Version 15.0d7e11", template writer version: "5"-->
 <g id="Notes">
  <rect height="2200" id="artboard" style="fill:white;opacity:1" width="3300" x="0" y="0"/>
  <line id="" style="fill:none;stroke:black;opacity:1;stroke-width:0.5;" x1="263" x2="3036" y1="292" y2="292"/>
  <text style="stroke:none;fill:black;font-family:-apple-system,&quot;SF Pro Display&quot;,&quot;SF Pro Text&quot;,Helvetica,sans-serif;font-weight:bold;" transform="matrix(1 0 0 1 263 322)">Weight/Scale Variations</text>
  <text style="stroke:none;fill:black;font-family:-apple-system,&quot;SF Pro Display&quot;,&quot;SF Pro Text&quot;,Helvetica,sans-serif;text-anchor:middle;" transform="matrix(1 0 0 1 559.711 322)">Ultralight</text>
  <text style="stroke:none;fill:black;font-family:-apple-system,&quot;SF Pro Display&quot;,&quot;SF Pro Text&quot;,Helvetica,sans-serif;text-anchor:middle;" transform="matrix(1 0 0 1 856.422 322)">Thin</text>
  <text style="stroke:none;fill:black;font-family:-apple-system,&quot;SF Pro Display&quot;,&quot;SF Pro Text&quot;,Helvetica,sans-serif;text-anchor:middle;" transform="matrix(1 0 0 1 1153.13 322)">Light</text>
  <text style="stroke:none;fill:black;font-family:-apple-system,&quot;SF Pro Display&quot;,&quot;SF Pro Text&quot;,Helvetica,sans-serif;text-anchor:middle;" transform="matrix(1 0 0 1 1449.84 322)">Regular</text>
  <text style="stroke:none;fill:black;font-family:-apple-system,&quot;SF Pro Display&quot;,&quot;SF Pro Text&quot;,Helvetica,sans-serif;text-anchor:middle;" transform="matrix(1 0 0 1 1746.56 322)">Medium</text>
  <text style="stroke:none;fill:black;font-family:-apple-system,&quot;SF Pro Display&quot;,&quot;SF Pro Text&quot;,Helvetica,sans-serif;text-anchor:middle;" transform="matrix(1 0 0 1 2043.27 322)">Semibold</text>
  <text style="stroke:none;fill:black;font-family:-apple-system,&quot;SF Pro Display&quot;,&quot;SF Pro Text&quot;,Helvetica,sans-serif;text-anchor:middle;" transform="matrix(1 0 0 1 2339.98 322)">Bold</text>
  <text style="stroke:none;fill:black;font-family:-apple-system,&quot;SF Pro Display&quot;,&quot;SF Pro Text&quot;,Helvetica,sans-serif;text-anchor:middle;" transform="matrix(1 0 0 1 2636.69 322)">Heavy</text>
  <text style="stroke:none;fill:black;font-family:-apple-system,&quot;SF Pro Display&quot;,&quot;SF Pro Text&quot;,Helvetica,sans-serif;text-anchor:middle;" transform="matrix(1 0 0 1 2933.4 322)">Black</text>
  <line id="" style="fill:none;stroke:black;opacity:1;stroke-width:0.5;" x1="263" x2="3036" y1="1903" y2="1903"/>
  <g id="" transform="matrix(1 0 0 1 263 1933)">
   <path d="M 9.24805 0.830078 C 13.5547 0.830078 17.1387 -2.74414 17.1387 -7.05078 C 17.1387 -11.3574 13.5449 -14.9316 9.23828 -14.9316 C 4.94141 -14.9316 1.36719 -11.3574 1.36719 -7.05078 C 1.36719 -2.74414 4.95117 0.830078 9.24805 0.830078 Z M 9.24805 -0.654297 C 5.70312 -0.654297 2.87109 -3.49609 2.87109 -7.05078 C 2.87109 -10.6055 5.69336 -13.4473 9.23828 -13.4473 C 12.793 -13.4473 15.6348 -10.6055 15.6445 -7.05078 C 15.6543 -3.49609 12.8027 -0.654297 9.24805 -0.654297 Z M 9.22852 -3.42773 C 9.69727 -3.42773 9.9707 -3.74023 9.9707 -4.25781 L 9.9707 -6.31836 L 12.1973 -6.31836 C 12.6953 -6.31836 13.0371 -6.57227 13.0371 -7.04102 C 13.0371 -7.51953 12.7148 -7.7832 12.1973 -7.7832 L 9.9707 -7.7832 L 9.9707 -10.0098 C 9.9707 -10.5273 9.69727 -10.8496 9.22852 -10.8496 C 8.75977 -10.8496 8.50586 -10.5078 8.50586 -10.0098 L 8.50586 -7.7832 L 6.29883 -7.7832 C 5.78125 -7.7832 5.44922 -7.51953 5.44922 -7.04102 C 5.44922 -6.57227 5.80078 -6.31836 6.29883 -6.31836 L 8.50586 -6.31836 L 8.50586 -4.25781 C 8.50586 -3.75977 8.75977 -3.42773 9.22852 -3.42773 Z"/>
  </g>
  <g id="" transform="matrix(1 0 0 1 281.506 1933)">
   <path d="M 11.709 2.91016 C 17.1582 2.91016 21.6699 -1.60156 21.6699 -7.05078 C 21.6699 -12.4902 17.1484 -17.0117 11.6992 -17.0117 C 6.25977 -17.0117 1.74805 -12.4902 1.74805 -7.05078 C 1.74805 -1.60156 6.26953 2.91016 11.709 2.91016 Z M 11.709 1.25 C 7.09961 1.25 3.41797 -2.44141 3.41797 -7.05078 C 3.41797 -11.6504 7.08984 -15.3516 11.6992 -15.3516 C 16.3086 -15.3516 20 -11.6504 20.0098 -7.05078 C 20.0195 -2.44141 16.3184 1.25 11.709 1.25 Z M 11.6895 -2.41211 C 12.207 -2.41211 12.5195 -2.77344 12.5195 -3.33984 L 12.5195 -6.23047 L 15.5762 -6.23047 C 16.123 -6.23047 16.5039 -6.51367 16.5039 -7.03125 C 16.5039 -7.55859 16.1426 -7.86133 15.5762 -7.86133 L 12.5195 -7.86133 L 12.5195 -10.9277 C 12.5195 -11.5039 12.207 -11.8555 11.6895 -11.8555 C 11.1719 -11.8555 10.8789 -11.4844 10.8789 -10.9277 L 10.8789 -7.86133 L 7.83203 -7.86133 C 7.26562 -7.86133 6.89453 -7.55859 6.89453 -7.03125 C 6.89453 -6.51367 7.28516 -6.23047 7.83203 -6.23047 L 10.8789 -6.23047 L 10.8789 -3.33984 C 10.8789 -2.79297 11.1719 -2.41211 11.6895 -2.41211 Z"/>
  </g>
  <g id="" transform="matrix(1 0 0 1 304.924 1933)">
   <path d="M 14.9707 5.67383 C 21.9336 5.67383 27.6953 -0.078125 27.6953 -7.04102 C 27.6953 -14.0039 21.9238 -19.7559 14.9609 -19.7559 C 8.00781 -19.7559 2.25586 -14.0039 2.25586 -7.04102 C 2.25586 -0.078125 8.01758 5.67383 14.9707 5.67383 Z M 14.9707 3.85742 C 8.93555 3.85742 4.08203 -1.00586 4.08203 -7.04102 C 4.08203 -13.0762 8.92578 -17.9395 14.9609 -17.9395 C 21.0059 -17.9395 25.8594 -13.0762 25.8691 -7.04102 C 25.8789 -1.00586 21.0156 3.85742 14.9707 3.85742 Z M 14.9512 -1.06445 C 15.5176 -1.06445 15.8691 -1.45508 15.8691 -2.06055 L 15.8691 -6.13281 L 20.1074 -6.13281 C 20.6934 -6.13281 21.1133 -6.46484 21.1133 -7.02148 C 21.1133 -7.59766 20.7227 -7.93945 20.1074 -7.93945 L 15.8691 -7.93945 L 15.8691 -12.1875 C 15.8691 -12.8027 15.5176 -13.1934 14.9512 -13.1934 C 14.3848 -13.1934 14.0625 -12.7832 14.0625 -12.1875 L 14.0625 -7.93945 L 9.83398 -7.93945 C 9.21875 -7.93945 8.80859 -7.59766 8.80859 -7.02148 C 8.80859 -6.46484 9.23828 -6.13281 9.83398 -6.13281 L 14.0625 -6.13281 L 14.0625 -2.06055 C 14.0625 -1.47461 14.3848 -1.06445 14.9512 -1.06445 Z"/>
  </g>
  <text style="stroke:none;fill:black;font-family:-apple-system,&quot;SF Pro Display&quot;,&quot;SF Pro Text&quot;,Helvetica,sans-serif;font-weight:bold;" transform="matrix(1 0 0 1 263 1953)">Design Variations</text>
  <text style="stroke:none;fill:black;font-family:-apple-system,&quot;SF Pro Display&quot;,&quot;SF Pro Text&quot;,Helvetica,sans-serif;" transform="matrix(1 0 0 1 263 1971)">Symbols are supported in up to nine weights and three scales.</text>
  <text style="stroke:none;fill:black;font-family:-apple-system,&quot;SF Pro Display&quot;,&quot;SF Pro Text&quot;,Helvetica,sans-serif;" transform="matrix(1 0 0 1 263 1989)">For optimal layout with text and other symbols, vertically align</text>
  <text style="stroke:none;fill:black;font-family:-apple-system,&quot;SF Pro Display&quot;,&quot;SF Pro Text&quot;,Helvetica,sans-serif;" transform="matrix(1 0 0 1 263 2007)">symbols with the adjacent text.</text>
  <rect height="14" id="" style="fill:#00AEEF;stroke:none;opacity:0.4;" width="3" x="776" y="1919"/>
  <g id="" transform="matrix(1 0 0 1 779 1933)">
   <path d="M 10.5273 0 L 12.373 0 L 7.17773 -14.0918 L 5.43945 -14.0918 L 0.244141 0 L 2.08984 0 L 3.50586 -4.0332 L 9.11133 -4.0332 Z M 6.2793 -11.9531 L 6.33789 -11.9531 L 8.59375 -5.52734 L 4.02344 -5.52734 Z"/>
  </g>
  <rect height="14" id="" style="fill:#00AEEF;stroke:none;opacity:0.4;" width="3" x="791.617" y="1919"/>
  <text style="stroke:none;fill:black;font-family:-apple-system,&quot;SF Pro Display&quot;,&quot;SF Pro Text&quot;,Helvetica,sans-serif;font-weight:bold;" transform="matrix(1 0 0 1 776 1953)">Margins</text>
  <text style="stroke:none;fill:black;font-family:-apple-system,&quot;SF Pro Display&quot;,&quot;SF Pro Text&quot;,Helvetica,sans-serif;" transform="matrix(1 0 0 1 776 1971)">Leading and trailing margins on the left and right side of each symbol</text>
  <text style="stroke:none;fill:black;font-family:-apple-system,&quot;SF Pro Display&quot;,&quot;SF Pro Text&quot;,Helvetica,sans-serif;" transform="matrix(1 0 0 1 776 1989)">can be adjusted by modifying the width of the blue rectangles.</text>
  <text style="stroke:none;fill:black;font-family:-apple-system,&quot;SF Pro Display&quot;,&quot;SF Pro Text&quot;,Helvetica,sans-serif;" transform="matrix(1 0 0 1 776 2007)">Modifications are automatically applied proportionally to all</text>
  <text style="stroke:none;fill:black;font-family:-apple-system,&quot;SF Pro Display&quot;,&quot;SF Pro Text&quot;,Helvetica,sans-serif;" transform="matrix(1 0 0 1 776 2025)">scales and weights.</text>
  <g id="" transform="matrix(1 0 0 1 1289 1933)">
   <path d="M 2.83203 3.11523 L 4.375 4.6582 C 5.22461 5.48828 6.19141 5.41992 7.06055 4.46289 L 17.2754 -6.66016 C 17.7051 -6.36719 18.0957 -6.37695 18.5645 -6.47461 L 19.6094 -6.68945 L 20.3027 -5.99609 L 20.2539 -5.47852 C 20.1855 -4.95117 20.3516 -4.53125 20.8496 -4.0332 L 21.6602 -3.22266 C 22.168 -2.71484 22.8223 -2.68555 23.3008 -3.16406 L 26.5527 -6.41602 C 27.0312 -6.89453 27.0117 -7.54883 26.5039 -8.05664 L 25.6836 -8.87695 C 25.1855 -9.375 24.7754 -9.55078 24.2383 -9.47266 L 23.7109 -9.41406 L 23.0566 -10.0781 L 23.3398 -11.2207 C 23.4863 -11.7871 23.3398 -12.2559 22.7148 -12.8613 L 20.3027 -15.2539 C 16.7578 -18.7793 12.2266 -18.6719 9.11133 -15.5371 C 8.69141 -15.1074 8.64258 -14.5215 8.91602 -14.0918 C 9.15039 -13.7207 9.62891 -13.4961 10.2734 -13.6621 C 11.7871 -14.043 13.3008 -13.9258 14.7852 -12.9199 L 14.1602 -11.3379 C 13.9258 -10.752 13.9453 -10.2734 14.1797 -9.83398 L 3.01758 0.439453 C 2.08008 1.30859 1.97266 2.25586 2.83203 3.11523 Z M 10.6738 -15.1465 C 13.3398 -17.1387 16.6504 -16.8262 19.0527 -14.4141 L 21.6797 -11.8066 C 21.9141 -11.5723 21.9434 -11.3867 21.8848 -11.0938 L 21.5039 -9.53125 L 23.0762 -7.95898 L 24.043 -8.04688 C 24.3262 -8.07617 24.4141 -8.05664 24.6387 -7.83203 L 25.2637 -7.20703 L 22.5098 -4.46289 L 21.8848 -5.07812 C 21.6602 -5.30273 21.6406 -5.40039 21.6699 -5.68359 L 21.7578 -6.64062 L 20.1953 -8.20312 L 18.5742 -7.89062 C 18.291 -7.83203 18.1445 -7.83203 17.9102 -8.07617 L 15.7324 -10.2539 C 15.5078 -10.4883 15.4785 -10.625 15.6055 -10.9473 L 16.5527 -13.2227 C 14.9512 -14.7559 12.8418 -15.6055 10.8008 -14.9512 C 10.7129 -14.9219 10.6445 -14.9414 10.6152 -14.9805 C 10.5859 -15.0293 10.5859 -15.0781 10.6738 -15.1465 Z M 4.10156 2.41211 C 3.61328 1.91406 3.78906 1.61133 4.12109 1.30859 L 15.0781 -8.80859 L 16.3086 -7.57812 L 6.15234 3.34961 C 5.84961 3.68164 5.46875 3.7793 5.06836 3.37891 Z"/>
  </g>
  <text style="stroke:none;fill:black;font-family:-apple-system,&quot;SF Pro Display&quot;,&quot;SF Pro Text&quot;,Helvetica,sans-serif;font-weight:bold;" transform="matrix(1 0 0 1 1289 1953)">Exporting</text>
  <text style="stroke:none;fill:black;font-family:-apple-system,&quot;SF Pro Display&quot;,&quot;SF Pro Text&quot;,Helvetica,sans-serif;" transform="matrix(1 0 0 1 1289 1971)">Symbols should be outlined when exporting to ensure the</text>
  <text style="stroke:none;fill:black;font-family:-apple-system,&quot;SF Pro Display&quot;,&quot;SF Pro Text&quot;,Helvetica,sans-serif;" transform="matrix(1 0 0 1 1289 1989)">design is preserved when submitting to Xcode.</text>
  <text id="template-version" style="stroke:none;fill:black;font-family:-apple-system,&quot;SF Pro Display&quot;,&quot;SF Pro Text&quot;,Helvetica,sans-serif;text-anchor:end;" transform="matrix(1 0 0 1 3036 1933)">Template v.1.0</text>
  <text style="stroke:none;fill:black;font-family:-apple-system,&quot;SF Pro Display&quot;,&quot;SF Pro Text&quot;,Helvetica,sans-serif;text-anchor:end;" transform="matrix(1 0 0 1 3036 1951)">Generated from shield.fill</text>
  <text style="stroke:none;fill:black;font-family:-apple-system,&quot;SF Pro Display&quot;,&quot;SF Pro Text&quot;,Helvetica,sans-serif;text-anchor:end;" transform="matrix(1 0 0 1 3036 1969)">Typeset at 100 points</text>
  <text style="stroke:none;fill:black;font-family:-apple-system,&quot;SF Pro Display&quot;,&quot;SF Pro Text&quot;,Helvetica,sans-serif;" transform="matrix(1 0 0 1 263 726)">Small</text>
  <text style="stroke:none;fill:black;font-family:-apple-system,&quot;SF Pro Display&quot;,&quot;SF Pro Text&quot;,Helvetica,sans-serif;" transform="matrix(1 0 0 1 263 1156)">Medium</text>
  <text style="stroke:none;fill:black;font-family:-apple-system,&quot;SF Pro Display&quot;,&quot;SF Pro Text&quot;,Helvetica,sans-serif;" transform="matrix(1 0 0 1 263 1586)">Large</text>
 </g>
 <g id="Guides">
  <g id="H-reference" style="fill:#27AAE1;stroke:none;" transform="matrix(1 0 0 1 339 696)">
   <path d="M 54.9316 0 L 57.666 0 L 30.5664 -70.459 L 28.0762 -70.459 L 0.976562 0 L 3.66211 0 L 12.9395 -24.4629 L 45.7031 -24.4629 Z M 29.1992 -67.0898 L 29.4434 -67.0898 L 44.8242 -26.709 L 13.8184 -26.709 Z"/>
  </g>
  <line id="Baseline-S" style="fill:none;stroke:#27AAE1;opacity:1;stroke-width:0.577;" x1="263" x2="3036" y1="696" y2="696"/>
  <line id="Capline-S" style="fill:none;stroke:#27AAE1;opacity:1;stroke-width:0.577;" x1="263" x2="3036" y1="625.541" y2="625.541"/>
  <g id="H-reference" style="fill:#27AAE1;stroke:none;" transform="matrix(1 0 0 1 339 1126)">
   <path d="M 54.9316 0 L 57.666 0 L 30.5664 -70.459 L 28.0762 -70.459 L 0.976562 0 L 3.66211 0 L 12.9395 -24.4629 L 45.7031 -24.4629 Z M 29.1992 -67.0898 L 29.4434 -67.0898 L 44.8242 -26.709 L 13.8184 -26.709 Z"/>
  </g>
  <line id="Baseline-M" style="fill:none;stroke:#27AAE1;opacity:1;stroke-width:0.577;" x1="263" x2="3036" y1="1126" y2="1126"/>
  <line id="Capline-M" style="fill:none;stroke:#27AAE1;opacity:1;stroke-width:0.577;" x1="263" x2="3036" y1="1055.54" y2="1055.54"/>
  <g id="H-reference" style="fill:#27AAE1;stroke:none;" transform="matrix(1 0 0 1 339 1556)">
   <path d="M 54.9316 0 L 57.666 0 L 30.5664 -70.459 L 28.0762 -70.459 L 0.976562 0 L 3.66211 0 L 12.9395 -24.4629 L 45.7031 -24.4629 Z M 29.1992 -67.0898 L 29.4434 -67.0898 L 44.8242 -26.709 L 13.8184 -26.709 Z"/>
  </g>
  <line id="Baseline-L" style="fill:none;stroke:#27AAE1;opacity:1;stroke-width:0.577;" x1="263" x2="3036" y1="1556" y2="1556"/>
  <line id="Capline-L" style="fill:none;stroke:#27AAE1;opacity:1;stroke-width:0.577;" x1="263" x2="3036" y1="1485.54" y2="1485.54"/>
  <rect height="119.336" id="left-margin" style="fill:#00AEEF;stroke:none;opacity:0.4;" width="19.4336" x="1390.47" y="1030.79"/>
  <rect height="119.336" id="right-margin" style="fill:#00AEEF;stroke:none;opacity:0.4;" width="19.4336" x="1489.79" y="1030.79"/>
 </g>
 <g id="Symbols">
  <g id="Black-L" transform="matrix(1 0 0 1 2856.84 1556)">
   <path d="M 76.5625 30.1758 C 77.9785 30.1758 79.834 29.5898 81.543 28.7598 C 118.604 10.8887 131.787 -0.341797 131.787 -23.0469 L 131.787 -67.8711 C 131.787 -78.0273 128.711 -82.5684 119.58 -86.377 C 114.502 -88.5742 91.9434 -95.8496 87.3535 -97.2168 C 84.0332 -98.1934 79.7852 -98.877 76.5625 -98.877 C 73.291 -98.877 69.043 -98.1934 65.7227 -97.2168 C 61.1328 -95.9473 38.623 -88.5742 33.4961 -86.377 C 24.4141 -82.5684 21.3379 -78.0273 21.3379 -67.8711 L 21.3379 -23.0469 C 21.3379 -0.341797 34.7168 10.5469 71.5332 28.7598 C 73.2422 29.5898 75.1465 30.1758 76.5625 30.1758 Z"/>
  </g>
  <g id="Heavy-L" transform="matrix(1 0 0 1 2560.44 1556)">
   <path d="M 76.2207 29.6875 C 77.5879 29.6875 79.3945 29.1504 81.0547 28.3203 C 117.725 10.1074 130.469 -0.488281 130.469 -23.0469 L 130.469 -68.457 C 130.469 -77.7832 127.49 -81.7383 119.238 -85.2051 C 113.33 -87.6953 91.1621 -95.0684 85.6934 -96.8262 C 82.7637 -97.6562 79.1504 -98.291 76.2207 -98.291 C 73.3398 -98.291 69.7266 -97.6562 66.7969 -96.8262 C 61.3281 -95.166 39.1602 -87.6465 33.252 -85.2051 C 25 -81.7871 22.0215 -77.7832 22.0215 -68.457 L 22.0215 -23.0469 C 22.0215 -0.488281 35.0586 9.61914 71.4355 28.3203 C 73.0957 29.1504 74.9023 29.6875 76.2207 29.6875 Z"/>
  </g>
  <g id="Bold-L" transform="matrix(1 0 0 1 2264.07 1556)">
   <path d="M 75.8789 29.1504 C 77.1484 29.1504 78.8574 28.6133 80.4688 27.832 C 116.748 9.27734 128.955 -0.683594 128.955 -22.998 L 128.955 -69.1406 C 128.955 -77.5391 126.123 -80.8594 118.799 -83.8867 C 112.061 -86.6699 90.2832 -94.2383 83.8379 -96.3379 C 81.3477 -97.0703 78.3691 -97.6074 75.8789 -97.6074 C 73.3887 -97.6074 70.459 -97.0703 67.9688 -96.3379 C 61.4746 -94.2383 39.6973 -86.6699 33.0078 -83.8867 C 25.6348 -80.9082 22.8516 -77.5391 22.8516 -69.1406 L 22.8516 -22.998 C 22.8516 -0.683594 35.4492 8.59375 71.3379 27.832 C 72.9004 28.6621 74.6582 29.1504 75.8789 29.1504 Z"/>
  </g>
  <g id="Semibold-L" transform="matrix(1 0 0 1 1967.61 1556)">
   <path d="M 75.6836 28.7598 C 76.8555 28.7598 78.5156 28.2715 80.0781 27.4414 C 116.064 8.64258 127.93 -0.830078 127.93 -22.9492 L 127.93 -69.5801 C 127.93 -77.3438 125.195 -80.2246 118.506 -83.0078 C 111.182 -85.9863 89.6973 -93.6035 82.5195 -95.9961 C 80.3711 -96.6797 77.8809 -97.1191 75.6836 -97.1191 C 73.4375 -97.1191 70.9473 -96.6309 68.7988 -95.9961 C 61.6211 -93.6523 40.1367 -85.9375 32.8125 -83.0078 C 26.123 -80.2734 23.3887 -77.3438 23.3887 -69.5801 L 23.3887 -22.9492 C 23.3887 -0.830078 35.6934 7.86133 71.2402 27.4414 C 72.8027 28.3203 74.4629 28.7598 75.6836 28.7598 Z"/>
  </g>
  <g id="Medium-L" transform="matrix(1 0 0 1 1671.07 1556)">
   <path d="M 75.4883 28.4668 C 76.6602 28.4668 78.2715 27.9785 79.7852 27.1973 C 115.576 8.20312 127.197 -0.927734 127.197 -22.9492 L 127.197 -69.9707 C 127.197 -77.1973 124.512 -79.7363 118.311 -82.3242 C 110.547 -85.4492 89.209 -93.1641 81.543 -95.752 C 79.5898 -96.3867 77.4902 -96.7773 75.4883 -96.7773 C 73.4863 -96.7773 71.3379 -96.3379 69.3848 -95.752 C 61.7188 -93.1641 40.4297 -85.4492 32.666 -82.3242 C 26.4648 -79.834 23.7793 -77.1973 23.7793 -69.9707 L 23.7793 -22.9492 C 23.7793 -0.927734 35.8887 7.32422 71.1914 27.1973 C 72.7051 28.0273 74.3164 28.4668 75.4883 28.4668 Z"/>
  </g>
  <g id="Regular-L" transform="matrix(1 0 0 1 1374.6 1556)">
   <path d="M 75.2441 28.125 C 76.3672 28.125 77.8809 27.6367 79.3945 26.8555 C 114.893 7.61719 126.172 -1.07422 126.172 -22.9004 L 126.172 -70.4102 C 126.172 -77.002 123.584 -79.1504 118.018 -81.4453 C 109.668 -84.7656 88.623 -92.5781 80.2734 -95.4102 C 78.6133 -95.9473 76.9531 -96.3379 75.2441 -96.3379 C 73.5352 -96.3379 71.875 -95.8984 70.2148 -95.4102 C 61.8652 -92.5781 40.8203 -84.7168 32.4707 -81.4453 C 26.9043 -79.248 24.3164 -77.002 24.3164 -70.4102 L 24.3164 -22.9004 C 24.3164 -1.07422 36.1816 6.64062 71.0938 26.8555 C 72.5586 27.6855 74.1211 28.125 75.2441 28.125 Z"/>
  </g>
  <g id="Light-L" transform="matrix(1 0 0 1 1079.72 1556)">
   <path d="M 73.4375 27.7832 C 74.6582 27.7832 76.2207 27.1973 77.5391 26.4648 C 112.598 6.54297 123.486 -1.2207 123.486 -22.0215 L 123.486 -69.4336 C 123.486 -76.2207 121.24 -78.418 115.234 -80.8105 C 105.566 -84.5703 87.9395 -91.3086 78.2715 -94.6289 C 76.6113 -95.2148 75.0977 -95.5566 73.4375 -95.5566 C 71.7773 -95.5566 70.2148 -95.166 68.6035 -94.6289 C 58.8867 -91.1621 41.2598 -84.5703 31.5918 -80.8105 C 25.5859 -78.4668 23.3398 -76.2207 23.3398 -69.4336 L 23.3398 -22.0215 C 23.3398 -1.2207 34.7168 5.71289 69.2871 26.4648 C 70.6055 27.1973 72.2168 27.7832 73.4375 27.7832 Z"/>
  </g>
  <g id="Thin-L" transform="matrix(1 0 0 1 785.402 1556)">
   <path d="M 70.9961 27.3438 C 72.4121 27.3438 74.0234 26.5625 75.1465 25.9277 C 109.57 5.07812 119.971 -1.36719 119.971 -20.8496 L 119.971 -68.1641 C 119.971 -75.0977 118.164 -77.4414 111.572 -79.9805 C 100.146 -84.3262 87.1094 -89.5996 75.5859 -93.6035 C 73.9746 -94.1895 72.5586 -94.5801 70.9961 -94.5801 C 69.4824 -94.5801 68.0664 -94.1406 66.4551 -93.6035 C 55.0293 -89.3066 41.8945 -84.3262 30.4688 -79.9805 C 23.877 -77.4902 22.0703 -75.0977 22.0703 -68.1641 L 22.0703 -20.8496 C 22.0703 -1.36719 32.8613 4.54102 66.8945 25.9277 C 68.0176 26.5625 69.6289 27.3438 70.9961 27.3438 Z"/>
  </g>
  <g id="Ultralight-L" transform="matrix(1 0 0 1 489.936 1556)">
   <path d="M 69.7754 27.0996 C 71.2891 27.0996 72.9004 26.2695 73.877 25.6348 C 108.008 4.3457 118.164 -1.46484 118.164 -20.2637 L 118.164 -67.5293 C 118.164 -74.5605 116.602 -76.9043 109.668 -79.541 C 97.3633 -84.1797 86.6699 -88.7207 74.2188 -93.0664 C 72.6074 -93.6523 71.2891 -94.043 69.7754 -94.043 C 68.2617 -94.043 66.9434 -93.6523 65.332 -93.0664 C 53.0273 -88.3789 42.2363 -84.1797 29.8828 -79.541 C 22.998 -77.002 21.3867 -74.5605 21.3867 -67.5293 L 21.3867 -20.2637 C 21.3867 -1.46484 31.8848 3.90625 65.6738 25.6348 C 66.6992 26.2695 68.3105 27.0996 69.7754 27.0996 Z"/>
  </g>
  <g id="Black-M" transform="matrix(1 0 0 1 2874.61 1126)">
   <path d="M 58.7891 15.9668 C 60.0586 15.9668 61.6211 15.3809 62.9395 14.7461 C 91.8457 0.976562 102.49 -8.00781 102.49 -25.3906 L 102.49 -59.2285 C 102.49 -68.2617 100.146 -72.6074 91.748 -76.123 C 88.0859 -77.6855 71.9727 -82.6172 68.8965 -83.4473 C 65.8203 -84.3262 61.7676 -84.9609 58.7891 -84.9609 C 55.8105 -84.9609 51.7578 -84.3262 48.6816 -83.4473 C 45.6055 -82.5684 29.4922 -77.6855 25.8789 -76.123 C 17.4316 -72.6074 15.0879 -68.2617 15.0879 -59.2285 L 15.0879 -25.3906 C 15.0879 -8.00781 25.6836 1.02539 54.6387 14.7461 C 55.957 15.3809 57.5195 15.9668 58.7891 15.9668 Z"/>
  </g>
  <g id="Heavy-M" transform="matrix(1 0 0 1 2577.75 1126)">
   <path d="M 58.9355 15.4785 C 60.0586 15.4785 61.5723 14.9902 62.8418 14.3555 C 91.5039 0.439453 101.758 -8.1543 101.758 -25.5859 L 101.758 -60.1074 C 101.758 -68.2129 99.4141 -71.9238 92.041 -75 C 87.8906 -76.7578 71.2891 -82.0801 67.627 -83.2031 C 64.9414 -83.9355 61.5234 -84.5215 58.9355 -84.5215 C 56.3477 -84.5215 52.9297 -83.9355 50.2441 -83.2031 C 46.5332 -82.0801 29.9316 -76.7578 25.8301 -75 C 18.457 -71.9238 16.1133 -68.2129 16.1133 -60.1074 L 16.1133 -25.5859 C 16.1133 -8.1543 26.4648 0.244141 55.0293 14.3555 C 56.2988 14.9902 57.7637 15.4785 58.9355 15.4785 Z"/>
  </g>
  <g id="Bold-M" transform="matrix(1 0 0 1 2280.9 1126)">
   <path d="M 59.082 14.9902 C 60.1074 14.9902 61.4746 14.5508 62.7441 13.916 C 91.1133 -0.195312 100.928 -8.34961 100.928 -25.7812 L 100.928 -61.1328 C 100.928 -68.1641 98.6328 -71.1426 92.3828 -73.7305 C 87.7441 -75.7324 70.5566 -81.4941 66.1621 -82.8613 C 63.9648 -83.5449 61.2793 -83.9844 59.082 -83.9844 C 56.9336 -83.9844 54.1992 -83.4961 52.002 -82.8613 C 47.6074 -81.543 30.4688 -75.6836 25.7812 -73.7305 C 19.5312 -71.1426 17.2852 -68.1641 17.2852 -61.1328 L 17.2852 -25.7812 C 17.2852 -8.34961 27.2949 -0.634766 55.4199 13.916 C 56.6895 14.5996 58.0566 14.9902 59.082 14.9902 Z"/>
  </g>
  <g id="Semibold-M" transform="matrix(1 0 0 1 1984.06 1126)">
   <path d="M 59.1797 14.6484 C 60.1074 14.6484 61.4258 14.2578 62.6953 13.623 C 90.8691 -0.634766 100.342 -8.44727 100.342 -25.9277 L 100.342 -61.8164 C 100.342 -68.1152 98.0957 -70.6055 92.6758 -72.9004 C 87.5977 -75 70.0195 -81.1035 65.1367 -82.666 C 63.2812 -83.252 61.084 -83.6426 59.1797 -83.6426 C 57.3242 -83.6426 55.0781 -83.2031 53.2227 -82.666 C 48.3398 -81.1523 30.8105 -74.9512 25.7324 -72.9004 C 20.3125 -70.6543 18.0664 -68.1152 18.0664 -61.8164 L 18.0664 -25.9277 C 18.0664 -8.44727 27.8809 -1.2207 55.6641 13.623 C 56.9336 14.3066 58.252 14.6484 59.1797 14.6484 Z"/>
  </g>
  <g id="Medium-M" transform="matrix(1 0 0 1 1687.28 1126)">
   <path d="M 59.2773 14.4043 C 60.1562 14.4043 61.4258 14.0625 62.6465 13.4277 C 90.625 -0.976562 99.9023 -8.54492 99.9023 -26.0742 L 99.9023 -62.3535 C 99.9023 -68.1152 97.7051 -70.2148 92.8223 -72.2168 C 87.5 -74.4629 69.6289 -80.7617 64.4043 -82.5195 C 62.793 -83.0078 60.9375 -83.3496 59.2773 -83.3496 C 57.6172 -83.3496 55.7617 -83.0078 54.1504 -82.5195 C 48.9258 -80.8594 31.0547 -74.4141 25.7324 -72.2168 C 20.8496 -70.2637 18.6523 -68.1152 18.6523 -62.3535 L 18.6523 -26.0742 C 18.6523 -8.54492 28.3203 -1.66016 55.9082 13.4277 C 57.1289 14.1113 58.3984 14.4043 59.2773 14.4043 Z"/>
  </g>
  <g id="Regular-M" transform="matrix(1 0 0 1 1390.47 1126)">
   <path d="M 59.375 14.0625 C 60.1562 14.0625 61.377 13.7695 62.5977 13.1348 C 90.3809 -1.41602 99.3164 -8.69141 99.3164 -26.2207 L 99.3164 -63.0371 C 99.3164 -68.0664 97.168 -69.6777 93.0664 -71.3867 C 87.3535 -73.7305 69.0918 -80.3711 63.4277 -82.3242 C 62.1094 -82.7637 60.7422 -83.0078 59.375 -83.0078 C 58.0078 -83.0078 56.6406 -82.7148 55.3711 -82.3242 C 49.6582 -80.4688 31.3965 -73.6816 25.6836 -71.3867 C 21.6309 -69.7266 19.4336 -68.0664 19.4336 -63.0371 L 19.4336 -26.2207 C 19.4336 -8.69141 28.8574 -2.24609 56.1523 13.1348 C 57.4219 13.8184 58.5938 14.0625 59.375 14.0625 Z"/>
  </g>
  <g id="Light-M" transform="matrix(1 0 0 1 1095.39 1126)">
   <path d="M 57.7637 13.7695 C 58.6426 13.7695 59.8633 13.3301 60.9375 12.7441 C 88.3301 -2.39258 96.9238 -8.78906 96.9238 -25.3906 L 96.9238 -62.1582 C 96.9238 -67.334 95.0684 -69.043 90.5762 -70.8008 C 83.6914 -73.584 68.5059 -79.248 61.5723 -81.5918 C 60.3027 -82.0312 59.0332 -82.3242 57.7637 -82.3242 C 56.4453 -82.3242 55.1758 -82.0312 53.9062 -81.5918 C 46.9727 -79.1992 31.7871 -73.5352 24.9023 -70.8008 C 20.459 -69.0918 18.5547 -67.334 18.5547 -62.1582 L 18.5547 -25.3906 C 18.5547 -8.78906 27.5879 -3.07617 54.541 12.7441 C 55.6152 13.3789 56.8359 13.7695 57.7637 13.7695 Z"/>
  </g>
  <g id="Thin-M" transform="matrix(1 0 0 1 800.856 1126)">
   <path d="M 55.5664 13.3301 C 56.6406 13.3301 57.8613 12.793 58.7402 12.2559 C 85.5957 -3.66211 93.75 -8.93555 93.75 -24.3652 L 93.75 -61.0352 C 93.75 -66.3574 92.2852 -68.1641 87.2559 -70.0684 C 78.8086 -73.3398 67.7246 -77.7344 59.1797 -80.7129 C 57.9102 -81.1523 56.7871 -81.4453 55.5664 -81.4453 C 54.3457 -81.4453 53.2227 -81.1035 51.9531 -80.7129 C 43.5059 -77.5391 32.373 -73.3398 23.877 -70.0684 C 18.8965 -68.2129 17.3828 -66.3574 17.3828 -61.0352 L 17.3828 -24.3652 C 17.3828 -8.93555 25.8789 -4.15039 52.3926 12.2559 C 53.2715 12.793 54.541 13.3301 55.5664 13.3301 Z"/>
  </g>
  <g id="Ultralight-M" transform="matrix(1 0 0 1 505.243 1126)">
   <path d="M 54.4434 13.1348 C 55.6152 13.1348 56.8359 12.5 57.6172 12.0117 C 84.1797 -4.3457 92.1387 -9.0332 92.1387 -23.8281 L 92.1387 -60.4492 C 92.1387 -65.8691 90.8203 -67.6758 85.5957 -69.6777 C 76.2695 -73.1934 67.2852 -76.9531 57.959 -80.2246 C 56.6895 -80.6641 55.6641 -80.957 54.4434 -80.957 C 53.2715 -80.957 52.2461 -80.6641 50.9766 -80.2246 C 41.6992 -76.709 32.6172 -73.1934 23.3398 -69.6777 C 18.1152 -67.7734 16.7969 -65.8691 16.7969 -60.4492 L 16.7969 -23.8281 C 16.7969 -9.0332 25 -4.6875 51.2695 12.0117 C 52.0996 12.5 53.3203 13.1348 54.4434 13.1348 Z"/>
  </g>
  <g id="Black-S" transform="matrix(1 0 0 1 2887.31 696)">
   <path d="M 46.0938 4.83398 C 47.0703 4.83398 48.291 4.39453 49.3164 3.90625 C 71.9727 -6.88477 80.2734 -13.916 80.2734 -27.5391 L 80.2734 -54.1016 C 80.2734 -61.1328 78.418 -64.4531 71.9238 -67.1875 C 69.043 -68.4082 56.3477 -72.3145 53.9062 -72.998 C 51.5137 -73.6816 48.3887 -74.1699 46.0938 -74.1699 C 43.7988 -74.1699 40.6738 -73.6816 38.2812 -72.998 C 35.8398 -72.3145 23.1445 -68.4082 20.2637 -67.1875 C 13.7695 -64.4531 11.9141 -61.1328 11.9141 -54.1016 L 11.9141 -27.5391 C 11.9141 -13.916 20.2148 -6.88477 42.8711 3.90625 C 43.8965 4.39453 45.1172 4.83398 46.0938 4.83398 Z"/>
  </g>
  <g id="Heavy-S" transform="matrix(1 0 0 1 2590.3 696)">
   <path d="M 46.3867 4.54102 C 47.2656 4.54102 48.3887 4.15039 49.4141 3.66211 C 71.9238 -7.22656 79.9805 -14.0137 79.9805 -27.7832 L 79.9805 -54.8828 C 79.9805 -61.1816 78.125 -64.0137 72.4609 -66.4062 C 69.3359 -67.7246 55.9082 -72.0215 53.125 -72.8516 C 51.0254 -73.4863 48.3887 -73.877 46.3867 -73.877 C 44.3848 -73.877 41.6992 -73.4375 39.6484 -72.8516 C 36.8652 -72.0703 23.4375 -67.7246 20.3125 -66.4062 C 14.6484 -64.0137 12.793 -61.1816 12.793 -54.8828 L 12.793 -27.7832 C 12.793 -14.0137 20.9473 -7.37305 43.3105 3.66211 C 44.3359 4.15039 45.5078 4.54102 46.3867 4.54102 Z"/>
  </g>
  <g id="Bold-S" transform="matrix(1 0 0 1 2293.27 696)">
   <path d="M 46.6797 4.19922 C 47.4609 4.19922 48.5352 3.85742 49.5605 3.36914 C 71.875 -7.56836 79.6387 -14.1602 79.6387 -28.0273 L 79.6387 -55.7617 C 79.6387 -61.2305 77.7832 -63.4766 72.998 -65.5273 C 69.6289 -66.9434 55.3711 -71.7285 52.2461 -72.7051 C 50.5371 -73.2422 48.3887 -73.584 46.6797 -73.584 C 44.9707 -73.584 42.8711 -73.1934 41.1621 -72.7051 C 37.9883 -71.8262 23.7793 -66.9434 20.3613 -65.5273 C 15.625 -63.5254 13.7695 -61.2305 13.7695 -55.7617 L 13.7695 -28.0273 C 13.7695 -14.1602 21.7285 -7.95898 43.7988 3.36914 C 44.873 3.90625 45.9473 4.19922 46.6797 4.19922 Z"/>
  </g>
  <g id="Semibold-S" transform="matrix(1 0 0 1 1996.34 696)">
   <path d="M 46.9238 3.95508 C 47.6074 3.95508 48.6328 3.66211 49.6582 3.17383 C 71.8262 -7.8125 79.3945 -14.209 79.3945 -28.2227 L 79.3945 -56.3965 C 79.3945 -61.2793 77.5391 -63.1348 73.4375 -64.8926 C 69.8242 -66.4062 55.0293 -71.5332 51.6113 -72.6074 C 50.1465 -73.0957 48.3887 -73.3887 46.9238 -73.3887 C 45.4102 -73.3887 43.6523 -73.0469 42.2363 -72.6074 C 38.7695 -71.6309 23.9746 -66.4062 20.4102 -64.8926 C 16.3086 -63.1836 14.4531 -61.2793 14.4531 -56.3965 L 14.4531 -28.2227 C 14.4531 -14.209 22.2656 -8.34961 44.1406 3.17383 C 45.2148 3.71094 46.2402 3.95508 46.9238 3.95508 Z"/>
  </g>
  <g id="Medium-S" transform="matrix(1 0 0 1 1699.49 696)">
   <path d="M 47.0703 3.75977 C 47.7051 3.75977 48.6816 3.56445 49.7559 3.02734 C 71.8262 -8.00781 79.1992 -14.3066 79.1992 -28.3691 L 79.1992 -56.8359 C 79.1992 -61.2793 77.3438 -62.8906 73.7305 -64.4531 C 70.0195 -66.0156 54.7363 -71.3867 51.123 -72.5586 C 49.8535 -72.9492 48.3887 -73.1934 47.0703 -73.1934 C 45.752 -73.1934 44.2871 -72.9004 43.0176 -72.5586 C 39.3555 -71.4844 24.1699 -65.9668 20.459 -64.4531 C 16.7969 -62.9395 14.9414 -61.2793 14.9414 -56.8359 L 14.9414 -28.3691 C 14.9414 -14.3066 22.7051 -8.64258 44.4336 3.02734 C 45.459 3.56445 46.4355 3.75977 47.0703 3.75977 Z"/>
  </g>
  <g id="Regular-S" transform="matrix(1 0 0 1 1402.55 696)">
   <path d="M 47.3145 3.51562 C 47.8516 3.51562 48.7793 3.36914 49.8535 2.83203 C 71.7773 -8.25195 78.9551 -14.3555 78.9551 -28.5156 L 78.9551 -57.4219 C 78.9551 -61.3281 77.0996 -62.5488 74.1211 -63.8184 C 70.2148 -65.4785 54.3945 -71.1426 50.5371 -72.4609 C 49.5117 -72.8027 48.3887 -72.998 47.3145 -72.998 C 46.1914 -72.998 45.0684 -72.7539 44.043 -72.4609 C 40.1367 -71.2891 24.3652 -65.4297 20.459 -63.8184 C 17.4805 -62.5977 15.625 -61.3281 15.625 -57.4219 L 15.625 -28.5156 C 15.625 -14.3555 23.2422 -9.0332 44.7754 2.83203 C 45.8008 3.41797 46.7285 3.51562 47.3145 3.51562 Z"/>
  </g>
  <g id="Light-S" transform="matrix(1 0 0 1 1107.28 696)">
   <path d="M 45.8496 3.27148 C 46.4844 3.27148 47.4609 2.97852 48.3887 2.49023 C 69.9707 -9.13086 76.8555 -14.4531 76.8555 -27.832 L 76.8555 -56.6895 C 76.8555 -60.6445 75.2441 -61.9629 71.9238 -63.3301 C 66.9434 -65.332 53.8574 -70.166 48.9258 -71.8262 C 47.9004 -72.168 46.9238 -72.4121 45.8496 -72.4121 C 44.7754 -72.4121 43.75 -72.168 42.7734 -71.8262 C 37.793 -70.166 24.7559 -65.2832 19.7754 -63.3301 C 16.4551 -62.0117 14.8438 -60.6445 14.8438 -56.6895 L 14.8438 -27.832 C 14.8438 -14.4531 22.0703 -9.7168 43.3105 2.49023 C 44.2383 3.02734 45.166 3.27148 45.8496 3.27148 Z"/>
  </g>
  <g id="Thin-S" transform="matrix(1 0 0 1 812.477 696)">
   <path d="M 43.9453 2.92969 C 44.7266 2.92969 45.7031 2.49023 46.4355 2.09961 C 67.5293 -10.2539 74.0234 -14.5996 74.0234 -26.9043 L 74.0234 -55.6641 C 74.0234 -59.8145 72.8027 -61.1816 68.9941 -62.6953 C 62.6465 -65.1367 53.1738 -68.7988 46.8262 -71.0449 C 45.8008 -71.3867 44.9219 -71.582 43.9453 -71.582 C 42.9688 -71.582 42.041 -71.3379 41.0645 -71.0449 C 34.7168 -68.7012 25.2441 -65.1367 18.8965 -62.6953 C 15.0879 -61.2305 13.8184 -59.8145 13.8184 -55.6641 L 13.8184 -26.9043 C 13.8184 -14.5996 20.6055 -10.6934 41.4551 2.09961 C 42.1875 2.53906 43.1641 2.92969 43.9453 2.92969 Z"/>
  </g>
  <g id="Ultralight-S" transform="matrix(1 0 0 1 516.767 696)">
   <path d="M 42.9688 2.73438 C 43.7988 2.73438 44.7754 2.24609 45.459 1.85547 C 66.3086 -10.8398 72.6074 -14.6973 72.6074 -26.416 L 72.6074 -55.127 C 72.6074 -59.375 71.5332 -60.791 67.4805 -62.3535 C 60.4492 -65.0391 52.832 -68.1152 45.7031 -70.6055 C 44.7266 -70.9473 43.8965 -71.1914 42.9688 -71.1914 C 42.041 -71.1914 41.1621 -70.9473 40.1855 -70.6055 C 33.1543 -67.9688 25.4883 -64.9902 18.4082 -62.3535 C 14.3555 -60.8398 13.3301 -59.375 13.3301 -55.127 L 13.3301 -26.416 C 13.3301 -14.6973 19.8242 -11.1816 40.4785 1.85547 C 41.1133 2.24609 42.0898 2.73438 42.9688 2.73438 Z"/>
  </g>
 </g>
</svg>
