<?xml version="1.0" encoding="UTF-8"?>
<!--Generator: Apple Native CoreSVG 123-->
<!DOCTYPE svg
PUBLIC "-//W3C//DTD SVG 1.1//EN"
       "http://www.w3.org/Graphics/SVG/1.1/DTD/svg11.dtd">
<svg version="1.1" xmlns="http://www.w3.org/2000/svg" xmlns:xlink="http://www.w3.org/1999/xlink" width="3300" height="2200">
 <!--glyph: "uni1003A5.medium", point size: 100.000000, font version: "Version 15.0d7e11", template writer version: "5"-->
 <g id="Notes">
  <rect height="2200" id="artboard" style="fill:white;opacity:1" width="3300" x="0" y="0"/>
  <line id="" style="fill:none;stroke:black;opacity:1;stroke-width:0.5;" x1="263" x2="3036" y1="292" y2="292"/>
  <text style="stroke:none;fill:black;font-family:-apple-system,&quot;SF Pro Display&quot;,&quot;SF Pro Text&quot;,Helvetica,sans-serif;font-weight:bold;" transform="matrix(1 0 0 1 263 322)">Weight/Scale Variations</text>
  <text style="stroke:none;fill:black;font-family:-apple-system,&quot;SF Pro Display&quot;,&quot;SF Pro Text&quot;,Helvetica,sans-serif;text-anchor:middle;" transform="matrix(1 0 0 1 559.711 322)">Ultralight</text>
  <text style="stroke:none;fill:black;font-family:-apple-system,&quot;SF Pro Display&quot;,&quot;SF Pro Text&quot;,Helvetica,sans-serif;text-anchor:middle;" transform="matrix(1 0 0 1 856.422 322)">Thin</text>
  <text style="stroke:none;fill:black;font-family:-apple-system,&quot;SF Pro Display&quot;,&quot;SF Pro Text&quot;,Helvetica,sans-serif;text-anchor:middle;" transform="matrix(1 0 0 1 1153.13 322)">Light</text>
  <text style="stroke:none;fill:black;font-family:-apple-system,&quot;SF Pro Display&quot;,&quot;SF Pro Text&quot;,Helvetica,sans-serif;text-anchor:middle;" transform="matrix(1 0 0 1 1449.84 322)">Regular</text>
  <text style="stroke:none;fill:black;font-family:-apple-system,&quot;SF Pro Display&quot;,&quot;SF Pro Text&quot;,Helvetica,sans-serif;text-anchor:middle;" transform="matrix(1 0 0 1 1746.56 322)">Medium</text>
  <text style="stroke:none;fill:black;font-family:-apple-system,&quot;SF Pro Display&quot;,&quot;SF Pro Text&quot;,Helvetica,sans-serif;text-anchor:middle;" transform="matrix(1 0 0 1 2043.27 322)">Semibold</text>
  <text style="stroke:none;fill:black;font-family:-apple-system,&quot;SF Pro Display&quot;,&quot;SF Pro Text&quot;,Helvetica,sans-serif;text-anchor:middle;" transform="matrix(1 0 0 1 2339.98 322)">Bold</text>
  <text style="stroke:none;fill:black;font-family:-apple-system,&quot;SF Pro Display&quot;,&quot;SF Pro Text&quot;,Helvetica,sans-serif;text-anchor:middle;" transform="matrix(1 0 0 1 2636.69 322)">Heavy</text>
  <text style="stroke:none;fill:black;font-family:-apple-system,&quot;SF Pro Display&quot;,&quot;SF Pro Text&quot;,Helvetica,sans-serif;text-anchor:middle;" transform="matrix(1 0 0 1 2933.4 322)">Black</text>
  <line id="" style="fill:none;stroke:black;opacity:1;stroke-width:0.5;" x1="263" x2="3036" y1="1903" y2="1903"/>
  <g id="" transform="matrix(1 0 0 1 263 1933)">
   <path d="M 9.24805 0.830078 C 13.5547 0.830078 17.1387 -2.74414 17.1387 -7.05078 C 17.1387 -11.3574 13.5449 -14.9316 9.23828 -14.9316 C 4.94141 -14.9316 1.36719 -11.3574 1.36719 -7.05078 C 1.36719 -2.74414 4.95117 0.830078 9.24805 0.830078 Z M 9.24805 -0.654297 C 5.70312 -0.654297 2.87109 -3.49609 2.87109 -7.05078 C 2.87109 -10.6055 5.69336 -13.4473 9.23828 -13.4473 C 12.793 -13.4473 15.6348 -10.6055 15.6445 -7.05078 C 15.6543 -3.49609 12.8027 -0.654297 9.24805 -0.654297 Z M 9.22852 -3.42773 C 9.69727 -3.42773 9.9707 -3.74023 9.9707 -4.25781 L 9.9707 -6.31836 L 12.1973 -6.31836 C 12.6953 -6.31836 13.0371 -6.57227 13.0371 -7.04102 C 13.0371 -7.51953 12.7148 -7.7832 12.1973 -7.7832 L 9.9707 -7.7832 L 9.9707 -10.0098 C 9.9707 -10.5273 9.69727 -10.8496 9.22852 -10.8496 C 8.75977 -10.8496 8.50586 -10.5078 8.50586 -10.0098 L 8.50586 -7.7832 L 6.29883 -7.7832 C 5.78125 -7.7832 5.44922 -7.51953 5.44922 -7.04102 C 5.44922 -6.57227 5.80078 -6.31836 6.29883 -6.31836 L 8.50586 -6.31836 L 8.50586 -4.25781 C 8.50586 -3.75977 8.75977 -3.42773 9.22852 -3.42773 Z"/>
  </g>
  <g id="" transform="matrix(1 0 0 1 281.506 1933)">
   <path d="M 11.709 2.91016 C 17.1582 2.91016 21.6699 -1.60156 21.6699 -7.05078 C 21.6699 -12.4902 17.1484 -17.0117 11.6992 -17.0117 C 6.25977 -17.0117 1.74805 -12.4902 1.74805 -7.05078 C 1.74805 -1.60156 6.26953 2.91016 11.709 2.91016 Z M 11.709 1.25 C 7.09961 1.25 3.41797 -2.44141 3.41797 -7.05078 C 3.41797 -11.6504 7.08984 -15.3516 11.6992 -15.3516 C 16.3086 -15.3516 20 -11.6504 20.0098 -7.05078 C 20.0195 -2.44141 16.3184 1.25 11.709 1.25 Z M 11.6895 -2.41211 C 12.207 -2.41211 12.5195 -2.77344 12.5195 -3.33984 L 12.5195 -6.23047 L 15.5762 -6.23047 C 16.123 -6.23047 16.5039 -6.51367 16.5039 -7.03125 C 16.5039 -7.55859 16.1426 -7.86133 15.5762 -7.86133 L 12.5195 -7.86133 L 12.5195 -10.9277 C 12.5195 -11.5039 12.207 -11.8555 11.6895 -11.8555 C 11.1719 -11.8555 10.8789 -11.4844 10.8789 -10.9277 L 10.8789 -7.86133 L 7.83203 -7.86133 C 7.26562 -7.86133 6.89453 -7.55859 6.89453 -7.03125 C 6.89453 -6.51367 7.28516 -6.23047 7.83203 -6.23047 L 10.8789 -6.23047 L 10.8789 -3.33984 C 10.8789 -2.79297 11.1719 -2.41211 11.6895 -2.41211 Z"/>
  </g>
  <g id="" transform="matrix(1 0 0 1 304.924 1933)">
   <path d="M 14.9707 5.67383 C 21.9336 5.67383 27.6953 -0.078125 27.6953 -7.04102 C 27.6953 -14.0039 21.9238 -19.7559 14.9609 -19.7559 C 8.00781 -19.7559 2.25586 -14.0039 2.25586 -7.04102 C 2.25586 -0.078125 8.01758 5.67383 14.9707 5.67383 Z M 14.9707 3.85742 C 8.93555 3.85742 4.08203 -1.00586 4.08203 -7.04102 C 4.08203 -13.0762 8.92578 -17.9395 14.9609 -17.9395 C 21.0059 -17.9395 25.8594 -13.0762 25.8691 -7.04102 C 25.8789 -1.00586 21.0156 3.85742 14.9707 3.85742 Z M 14.9512 -1.06445 C 15.5176 -1.06445 15.8691 -1.45508 15.8691 -2.06055 L 15.8691 -6.13281 L 20.1074 -6.13281 C 20.6934 -6.13281 21.1133 -6.46484 21.1133 -7.02148 C 21.1133 -7.59766 20.7227 -7.93945 20.1074 -7.93945 L 15.8691 -7.93945 L 15.8691 -12.1875 C 15.8691 -12.8027 15.5176 -13.1934 14.9512 -13.1934 C 14.3848 -13.1934 14.0625 -12.7832 14.0625 -12.1875 L 14.0625 -7.93945 L 9.83398 -7.93945 C 9.21875 -7.93945 8.80859 -7.59766 8.80859 -7.02148 C 8.80859 -6.46484 9.23828 -6.13281 9.83398 -6.13281 L 14.0625 -6.13281 L 14.0625 -2.06055 C 14.0625 -1.47461 14.3848 -1.06445 14.9512 -1.06445 Z"/>
  </g>
  <text style="stroke:none;fill:black;font-family:-apple-system,&quot;SF Pro Display&quot;,&quot;SF Pro Text&quot;,Helvetica,sans-serif;font-weight:bold;" transform="matrix(1 0 0 1 263 1953)">Design Variations</text>
  <text style="stroke:none;fill:black;font-family:-apple-system,&quot;SF Pro Display&quot;,&quot;SF Pro Text&quot;,Helvetica,sans-serif;" transform="matrix(1 0 0 1 263 1971)">Symbols are supported in up to nine weights and three scales.</text>
  <text style="stroke:none;fill:black;font-family:-apple-system,&quot;SF Pro Display&quot;,&quot;SF Pro Text&quot;,Helvetica,sans-serif;" transform="matrix(1 0 0 1 263 1989)">For optimal layout with text and other symbols, vertically align</text>
  <text style="stroke:none;fill:black;font-family:-apple-system,&quot;SF Pro Display&quot;,&quot;SF Pro Text&quot;,Helvetica,sans-serif;" transform="matrix(1 0 0 1 263 2007)">symbols with the adjacent text.</text>
  <rect height="14" id="" style="fill:#00AEEF;stroke:none;opacity:0.4;" width="3" x="776" y="1919"/>
  <g id="" transform="matrix(1 0 0 1 779 1933)">
   <path d="M 10.5273 0 L 12.373 0 L 7.17773 -14.0918 L 5.43945 -14.0918 L 0.244141 0 L 2.08984 0 L 3.50586 -4.0332 L 9.11133 -4.0332 Z M 6.2793 -11.9531 L 6.33789 -11.9531 L 8.59375 -5.52734 L 4.02344 -5.52734 Z"/>
  </g>
  <rect height="14" id="" style="fill:#00AEEF;stroke:none;opacity:0.4;" width="3" x="791.617" y="1919"/>
  <text style="stroke:none;fill:black;font-family:-apple-system,&quot;SF Pro Display&quot;,&quot;SF Pro Text&quot;,Helvetica,sans-serif;font-weight:bold;" transform="matrix(1 0 0 1 776 1953)">Margins</text>
  <text style="stroke:none;fill:black;font-family:-apple-system,&quot;SF Pro Display&quot;,&quot;SF Pro Text&quot;,Helvetica,sans-serif;" transform="matrix(1 0 0 1 776 1971)">Leading and trailing margins on the left and right side of each symbol</text>
  <text style="stroke:none;fill:black;font-family:-apple-system,&quot;SF Pro Display&quot;,&quot;SF Pro Text&quot;,Helvetica,sans-serif;" transform="matrix(1 0 0 1 776 1989)">can be adjusted by modifying the width of the blue rectangles.</text>
  <text style="stroke:none;fill:black;font-family:-apple-system,&quot;SF Pro Display&quot;,&quot;SF Pro Text&quot;,Helvetica,sans-serif;" transform="matrix(1 0 0 1 776 2007)">Modifications are automatically applied proportionally to all</text>
  <text style="stroke:none;fill:black;font-family:-apple-system,&quot;SF Pro Display&quot;,&quot;SF Pro Text&quot;,Helvetica,sans-serif;" transform="matrix(1 0 0 1 776 2025)">scales and weights.</text>
  <g id="" transform="matrix(1 0 0 1 1289 1933)">
   <path d="M 2.83203 3.11523 L 4.375 4.6582 C 5.22461 5.48828 6.19141 5.41992 7.06055 4.46289 L 17.2754 -6.66016 C 17.7051 -6.36719 18.0957 -6.37695 18.5645 -6.47461 L 19.6094 -6.68945 L 20.3027 -5.99609 L 20.2539 -5.47852 C 20.1855 -4.95117 20.3516 -4.53125 20.8496 -4.0332 L 21.6602 -3.22266 C 22.168 -2.71484 22.8223 -2.68555 23.3008 -3.16406 L 26.5527 -6.41602 C 27.0312 -6.89453 27.0117 -7.54883 26.5039 -8.05664 L 25.6836 -8.87695 C 25.1855 -9.375 24.7754 -9.55078 24.2383 -9.47266 L 23.7109 -9.41406 L 23.0566 -10.0781 L 23.3398 -11.2207 C 23.4863 -11.7871 23.3398 -12.2559 22.7148 -12.8613 L 20.3027 -15.2539 C 16.7578 -18.7793 12.2266 -18.6719 9.11133 -15.5371 C 8.69141 -15.1074 8.64258 -14.5215 8.91602 -14.0918 C 9.15039 -13.7207 9.62891 -13.4961 10.2734 -13.6621 C 11.7871 -14.043 13.3008 -13.9258 14.7852 -12.9199 L 14.1602 -11.3379 C 13.9258 -10.752 13.9453 -10.2734 14.1797 -9.83398 L 3.01758 0.439453 C 2.08008 1.30859 1.97266 2.25586 2.83203 3.11523 Z M 10.6738 -15.1465 C 13.3398 -17.1387 16.6504 -16.8262 19.0527 -14.4141 L 21.6797 -11.8066 C 21.9141 -11.5723 21.9434 -11.3867 21.8848 -11.0938 L 21.5039 -9.53125 L 23.0762 -7.95898 L 24.043 -8.04688 C 24.3262 -8.07617 24.4141 -8.05664 24.6387 -7.83203 L 25.2637 -7.20703 L 22.5098 -4.46289 L 21.8848 -5.07812 C 21.6602 -5.30273 21.6406 -5.40039 21.6699 -5.68359 L 21.7578 -6.64062 L 20.1953 -8.20312 L 18.5742 -7.89062 C 18.291 -7.83203 18.1445 -7.83203 17.9102 -8.07617 L 15.7324 -10.2539 C 15.5078 -10.4883 15.4785 -10.625 15.6055 -10.9473 L 16.5527 -13.2227 C 14.9512 -14.7559 12.8418 -15.6055 10.8008 -14.9512 C 10.7129 -14.9219 10.6445 -14.9414 10.6152 -14.9805 C 10.5859 -15.0293 10.5859 -15.0781 10.6738 -15.1465 Z M 4.10156 2.41211 C 3.61328 1.91406 3.78906 1.61133 4.12109 1.30859 L 15.0781 -8.80859 L 16.3086 -7.57812 L 6.15234 3.34961 C 5.84961 3.68164 5.46875 3.7793 5.06836 3.37891 Z"/>
  </g>
  <text style="stroke:none;fill:black;font-family:-apple-system,&quot;SF Pro Display&quot;,&quot;SF Pro Text&quot;,Helvetica,sans-serif;font-weight:bold;" transform="matrix(1 0 0 1 1289 1953)">Exporting</text>
  <text style="stroke:none;fill:black;font-family:-apple-system,&quot;SF Pro Display&quot;,&quot;SF Pro Text&quot;,Helvetica,sans-serif;" transform="matrix(1 0 0 1 1289 1971)">Symbols should be outlined when exporting to ensure the</text>
  <text style="stroke:none;fill:black;font-family:-apple-system,&quot;SF Pro Display&quot;,&quot;SF Pro Text&quot;,Helvetica,sans-serif;" transform="matrix(1 0 0 1 1289 1989)">design is preserved when submitting to Xcode.</text>
  <text id="template-version" style="stroke:none;fill:black;font-family:-apple-system,&quot;SF Pro Display&quot;,&quot;SF Pro Text&quot;,Helvetica,sans-serif;text-anchor:end;" transform="matrix(1 0 0 1 3036 1933)">Template v.1.0</text>
  <text style="stroke:none;fill:black;font-family:-apple-system,&quot;SF Pro Display&quot;,&quot;SF Pro Text&quot;,Helvetica,sans-serif;text-anchor:end;" transform="matrix(1 0 0 1 3036 1951)">Generated from lock.open.fill</text>
  <text style="stroke:none;fill:black;font-family:-apple-system,&quot;SF Pro Display&quot;,&quot;SF Pro Text&quot;,Helvetica,sans-serif;text-anchor:end;" transform="matrix(1 0 0 1 3036 1969)">Typeset at 100 points</text>
  <text style="stroke:none;fill:black;font-family:-apple-system,&quot;SF Pro Display&quot;,&quot;SF Pro Text&quot;,Helvetica,sans-serif;" transform="matrix(1 0 0 1 263 726)">Small</text>
  <text style="stroke:none;fill:black;font-family:-apple-system,&quot;SF Pro Display&quot;,&quot;SF Pro Text&quot;,Helvetica,sans-serif;" transform="matrix(1 0 0 1 263 1156)">Medium</text>
  <text style="stroke:none;fill:black;font-family:-apple-system,&quot;SF Pro Display&quot;,&quot;SF Pro Text&quot;,Helvetica,sans-serif;" transform="matrix(1 0 0 1 263 1586)">Large</text>
 </g>
 <g id="Guides">
  <g id="H-reference" style="fill:#27AAE1;stroke:none;" transform="matrix(1 0 0 1 339 696)">
   <path d="M 54.9316 0 L 57.666 0 L 30.5664 -70.459 L 28.0762 -70.459 L 0.976562 0 L 3.66211 0 L 12.9395 -24.4629 L 45.7031 -24.4629 Z M 29.1992 -67.0898 L 29.4434 -67.0898 L 44.8242 -26.709 L 13.8184 -26.709 Z"/>
  </g>
  <line id="Baseline-S" style="fill:none;stroke:#27AAE1;opacity:1;stroke-width:0.577;" x1="263" x2="3036" y1="696" y2="696"/>
  <line id="Capline-S" style="fill:none;stroke:#27AAE1;opacity:1;stroke-width:0.577;" x1="263" x2="3036" y1="625.541" y2="625.541"/>
  <g id="H-reference" style="fill:#27AAE1;stroke:none;" transform="matrix(1 0 0 1 339 1126)">
   <path d="M 54.9316 0 L 57.666 0 L 30.5664 -70.459 L 28.0762 -70.459 L 0.976562 0 L 3.66211 0 L 12.9395 -24.4629 L 45.7031 -24.4629 Z M 29.1992 -67.0898 L 29.4434 -67.0898 L 44.8242 -26.709 L 13.8184 -26.709 Z"/>
  </g>
  <line id="Baseline-M" style="fill:none;stroke:#27AAE1;opacity:1;stroke-width:0.577;" x1="263" x2="3036" y1="1126" y2="1126"/>
  <line id="Capline-M" style="fill:none;stroke:#27AAE1;opacity:1;stroke-width:0.577;" x1="263" x2="3036" y1="1055.54" y2="1055.54"/>
  <g id="H-reference" style="fill:#27AAE1;stroke:none;" transform="matrix(1 0 0 1 339 1556)">
   <path d="M 54.9316 0 L 57.666 0 L 30.5664 -70.459 L 28.0762 -70.459 L 0.976562 0 L 3.66211 0 L 12.9395 -24.4629 L 45.7031 -24.4629 Z M 29.1992 -67.0898 L 29.4434 -67.0898 L 44.8242 -26.709 L 13.8184 -26.709 Z"/>
  </g>
  <line id="Baseline-L" style="fill:none;stroke:#27AAE1;opacity:1;stroke-width:0.577;" x1="263" x2="3036" y1="1556" y2="1556"/>
  <line id="Capline-L" style="fill:none;stroke:#27AAE1;opacity:1;stroke-width:0.577;" x1="263" x2="3036" y1="1485.54" y2="1485.54"/>
  <rect height="119.336" id="left-margin" style="fill:#00AEEF;stroke:none;opacity:0.4;" width="12.4512" x="1388.71" y="1030.79"/>
  <rect height="119.336" id="right-margin" style="fill:#00AEEF;stroke:none;opacity:0.4;" width="9.96094" x="1501.02" y="1030.79"/>
 </g>
 <g id="Symbols">
  <g id="Black-L" transform="matrix(1 0 0 1 2852.86 1556)">
   <path d="M 30.2734 28.418 L 94.5312 28.418 C 104.053 28.418 108.74 23.6816 108.74 13.3301 L 108.74 -36.2793 C 108.74 -45.5078 104.932 -50.293 97.168 -51.123 L 97.168 -66.6016 C 97.168 -77.832 104.15 -84.5215 113.477 -84.5215 C 122.754 -84.5215 129.736 -77.832 129.736 -66.6016 L 129.736 -55.3711 C 129.736 -48.6328 133.691 -44.873 139.014 -44.873 C 144.287 -44.873 148.242 -48.584 148.242 -55.3711 L 148.242 -65.7715 C 148.242 -90.625 130.811 -102.441 113.477 -102.441 C 96.0938 -102.441 78.7109 -90.625 78.7109 -65.7715 L 78.7109 -51.2695 L 30.7129 -51.2207 C 21.2402 -51.2207 16.0645 -46.4844 16.0645 -36.2793 L 16.0645 13.3301 C 16.0645 23.6816 20.8008 28.418 30.2734 28.418 Z"/>
  </g>
  <g id="Heavy-L" transform="matrix(1 0 0 1 2556.42 1556)">
   <path d="M 29.7852 27.4902 L 93.0664 27.4902 C 102.246 27.4902 106.738 22.9492 106.738 12.9395 L 106.738 -35.9863 C 106.738 -44.8242 103.125 -49.4141 95.752 -50.293 L 95.752 -66.0156 C 95.752 -78.418 103.516 -85.6934 113.623 -85.6934 C 123.779 -85.6934 131.494 -78.418 131.494 -66.0156 L 131.494 -54.1504 C 131.494 -48.2422 134.961 -44.9707 139.648 -44.9707 C 144.238 -44.9707 147.705 -48.1445 147.705 -54.1504 L 147.705 -65.1367 C 147.705 -89.502 130.859 -101.318 113.623 -101.318 C 96.3867 -101.318 79.5898 -89.502 79.5898 -65.1367 L 79.5898 -50.4395 L 30.3711 -50.3906 C 21.1914 -50.3906 16.0645 -45.8496 16.0645 -35.9863 L 16.0645 12.9395 C 16.0645 22.9492 20.6055 27.4902 29.7852 27.4902 Z"/>
  </g>
  <g id="Bold-L" transform="matrix(1 0 0 1 2260 1556)">
   <path d="M 29.1992 26.416 L 91.4062 26.416 C 100.195 26.416 104.541 22.0703 104.541 12.5 L 104.541 -35.6445 C 104.541 -44.0918 101.123 -48.4863 94.1895 -49.3164 L 94.1895 -65.3809 C 94.1895 -79.0527 102.832 -87.0117 113.818 -87.0117 C 124.854 -87.0117 133.496 -79.0527 133.496 -65.3809 L 133.496 -52.7832 C 133.496 -47.8516 136.426 -45.1172 140.332 -45.1172 C 144.141 -45.1172 147.07 -47.7051 147.07 -52.7832 L 147.07 -64.4531 C 147.07 -88.2324 130.957 -100.098 113.818 -100.098 C 96.7285 -100.098 80.6152 -88.2324 80.6152 -64.4531 L 80.6152 -49.5117 L 29.9316 -49.4141 C 21.1426 -49.4141 16.0645 -45.0684 16.0645 -35.6445 L 16.0645 12.5 C 16.0645 22.0703 20.4102 26.416 29.1992 26.416 Z"/>
  </g>
  <g id="Semibold-L" transform="matrix(1 0 0 1 1963.51 1556)">
   <path d="M 28.8086 25.6836 L 90.2832 25.6836 C 98.8281 25.6836 102.979 21.4844 102.979 12.207 L 102.979 -35.4004 C 102.979 -43.5547 99.7559 -47.8027 93.0664 -48.6816 L 93.0664 -64.8926 C 93.0664 -79.541 102.344 -87.9395 113.965 -87.9395 C 125.635 -87.9395 134.863 -79.541 134.863 -64.8926 L 134.863 -51.8555 C 134.863 -47.5586 137.451 -45.2148 140.82 -45.2148 C 144.092 -45.2148 146.68 -47.4121 146.68 -51.8555 L 146.68 -63.9648 C 146.68 -87.4023 131.006 -99.2676 113.965 -99.2676 C 96.9727 -99.2676 81.2988 -87.4023 81.2988 -63.9648 L 81.2988 -48.8281 L 29.6387 -48.7793 C 21.0938 -48.7793 16.0645 -44.5801 16.0645 -35.4004 L 16.0645 12.207 C 16.0645 21.4844 20.2637 25.6836 28.8086 25.6836 Z"/>
  </g>
  <g id="Medium-L" transform="matrix(1 0 0 1 1666.94 1556)">
   <path d="M 28.5156 25.1465 L 89.4043 25.1465 C 97.7539 25.1465 101.855 21.0449 101.855 11.9629 L 101.855 -35.2051 C 101.855 -43.1152 98.6816 -47.3145 92.2363 -48.1934 L 92.2363 -64.5508 C 92.2363 -79.8828 101.953 -88.623 114.062 -88.623 C 126.221 -88.623 135.938 -79.8828 135.938 -64.5508 L 135.938 -51.123 C 135.938 -47.3145 138.232 -45.3125 141.162 -45.3125 C 144.043 -45.3125 146.338 -47.168 146.338 -51.123 L 146.338 -63.623 C 146.338 -86.7676 131.055 -98.584 114.062 -98.584 C 97.1191 -98.584 81.8359 -86.7676 81.8359 -63.623 L 81.8359 -48.3398 L 29.3945 -48.291 C 21.0938 -48.291 16.0645 -44.1895 16.0645 -35.2051 L 16.0645 11.9629 C 16.0645 21.0449 20.166 25.1465 28.5156 25.1465 Z"/>
  </g>
  <g id="Regular-L" transform="matrix(1 0 0 1 1370.45 1556)">
   <path d="M 28.125 24.4141 L 88.2812 24.4141 C 96.3867 24.4141 100.342 20.459 100.342 11.6699 L 100.342 -35.0098 C 100.342 -42.627 97.3145 -46.6309 91.1621 -47.5098 L 91.1621 -64.1113 C 91.1621 -80.3223 101.465 -89.5508 114.209 -89.5508 C 127.002 -89.5508 137.305 -80.3223 137.305 -64.1113 L 137.305 -50.1953 C 137.305 -47.0215 139.209 -45.4102 141.65 -45.4102 C 143.994 -45.4102 145.947 -46.875 145.947 -50.1953 L 145.947 -63.1348 C 145.947 -85.8887 131.104 -97.7539 114.209 -97.7539 C 97.3633 -97.7539 82.5195 -85.8887 82.5195 -63.1348 L 82.5195 -47.7051 L 29.1016 -47.6074 C 21.0449 -47.6074 16.0645 -43.6523 16.0645 -35.0098 L 16.0645 11.6699 C 16.0645 20.459 20.0195 24.4141 28.125 24.4141 Z"/>
  </g>
  <g id="Light-L" transform="matrix(1 0 0 1 1073.03 1556)">
   <path d="M 28.0273 24.4141 L 88.4766 24.4141 C 96.4844 24.4141 100.391 20.5566 100.391 11.8164 L 100.391 -35.4004 C 100.391 -42.9199 97.4609 -46.875 91.4551 -47.8027 L 91.4551 -63.4277 C 91.4551 -80.127 102.051 -90.4785 116.113 -90.4785 C 130.225 -90.4785 140.723 -80.127 140.723 -63.4277 L 140.723 -49.6582 C 140.723 -47.3145 142.236 -46.0449 144.092 -46.0449 C 145.85 -46.0449 147.363 -47.2168 147.363 -49.6582 L 147.363 -62.8906 C 147.363 -84.3262 133.496 -96.7773 116.113 -96.7773 C 98.7305 -96.7773 84.8633 -84.3262 84.8633 -62.8906 L 84.8633 -47.998 L 28.6133 -47.9492 C 20.6055 -47.9492 16.0645 -44.0918 16.0645 -35.4004 L 16.0645 11.8164 C 16.0645 20.5566 20.0195 24.4141 28.0273 24.4141 Z"/>
  </g>
  <g id="Thin-L" transform="matrix(1 0 0 1 775.368 1556)">
   <path d="M 27.8809 24.4141 L 88.7207 24.4141 C 96.6309 24.4141 100.488 20.6543 100.488 11.9629 L 100.488 -35.9375 C 100.488 -43.3594 97.6562 -47.168 91.8945 -48.1445 L 91.8945 -62.5488 C 91.8945 -79.8828 102.832 -91.6992 118.604 -91.6992 C 134.473 -91.6992 145.312 -79.8828 145.312 -62.5488 L 145.312 -48.9746 C 145.312 -47.7051 146.289 -46.9238 147.266 -46.9238 C 148.291 -46.9238 149.268 -47.7051 149.268 -48.9746 L 149.268 -62.5977 C 149.268 -82.2754 136.67 -95.459 118.604 -95.459 C 100.537 -95.459 87.9395 -82.2754 87.9395 -62.5977 L 87.9395 -48.3398 L 27.9785 -48.3398 C 20.0684 -48.3398 16.0645 -44.6289 16.0645 -35.9375 L 16.0645 11.9629 C 16.0645 20.6543 19.9707 24.4141 27.8809 24.4141 Z"/>
  </g>
  <g id="Ultralight-L" transform="matrix(1 0 0 1 478.168 1556)">
   <path d="M 27.7832 24.4141 L 88.8672 24.4141 C 96.6797 24.4141 100.537 20.752 100.537 12.0605 L 100.537 -36.2305 C 100.537 -43.6035 97.7539 -47.3633 92.0898 -48.291 L 92.0898 -62.0605 C 92.0898 -79.7852 103.223 -92.334 119.873 -92.334 C 136.621 -92.334 147.656 -79.7852 147.656 -62.0605 L 147.656 -48.584 C 147.656 -47.9004 148.34 -47.4121 148.926 -47.4121 C 149.561 -47.4121 150.195 -47.9492 150.195 -48.584 L 150.195 -62.4512 C 150.195 -81.25 138.281 -94.7754 119.873 -94.7754 C 101.465 -94.7754 89.5508 -81.25 89.5508 -62.4512 L 89.5508 -48.5352 C 89.3066 -48.5352 89.0625 -48.5352 88.8672 -48.5352 L 27.6855 -48.584 C 19.8242 -48.584 16.0645 -44.873 16.0645 -36.2305 L 16.0645 12.0605 C 16.0645 20.752 19.9219 24.4141 27.7832 24.4141 Z"/>
  </g>
  <g id="Black-M" transform="matrix(1 0 0 1 2870.24 1126)">
   <path d="M 24.1211 15.3809 L 75.3418 15.3809 C 83.1543 15.3809 86.9629 11.5234 86.9629 2.97852 L 86.9629 -36.6699 C 86.9629 -44.2871 83.8379 -48.1934 77.3926 -48.877 L 77.3926 -59.9609 C 77.3926 -67.334 81.8848 -72.3145 88.6719 -72.3145 C 95.5078 -72.3145 100 -67.334 100 -59.9609 L 100 -52.1973 C 100 -46.2891 103.467 -42.8711 108.154 -42.8711 C 112.891 -42.8711 116.357 -46.2891 116.357 -52.1973 L 116.357 -59.6191 C 116.357 -78.8086 102.539 -88.2324 88.6719 -88.2324 C 74.8047 -88.2324 61.0352 -78.8086 61.0352 -59.6191 L 61.0352 -48.9746 L 24.0723 -48.9746 C 16.3086 -48.9746 12.4512 -45.0684 12.4512 -36.6699 L 12.4512 2.97852 C 12.4512 11.5234 16.3574 15.3809 24.1211 15.3809 Z"/>
  </g>
  <g id="Heavy-M" transform="matrix(1 0 0 1 2573.99 1126)">
   <path d="M 23.584 14.3555 L 73.6816 14.3555 C 81.1523 14.3555 84.8145 10.6445 84.8145 2.53906 L 84.8145 -36.2305 C 84.8145 -43.457 81.8359 -47.2168 75.7812 -47.8516 L 75.7812 -59.5215 C 75.7812 -68.0176 81.0059 -73.3887 88.3789 -73.3887 C 95.752 -73.3887 101.025 -68.0176 101.025 -59.5215 L 101.025 -51.0254 C 101.025 -45.8008 104.102 -42.8223 108.203 -42.8223 C 112.354 -42.8223 115.381 -45.752 115.381 -51.0254 L 115.381 -58.9844 C 115.381 -78.0273 102.002 -87.3047 88.3789 -87.3047 C 74.8047 -87.3047 61.377 -78.0273 61.377 -58.9844 L 61.377 -47.9492 L 23.7793 -47.9492 C 16.3574 -47.9492 12.4512 -44.2383 12.4512 -36.2305 L 12.4512 2.53906 C 12.4512 10.6445 16.1621 14.3555 23.584 14.3555 Z"/>
  </g>
  <g id="Bold-M" transform="matrix(1 0 0 1 2277.82 1126)">
   <path d="M 22.998 13.1836 L 71.8262 13.1836 C 78.9062 13.1836 82.3242 9.66797 82.3242 2.00195 L 82.3242 -35.7422 C 82.3242 -42.5293 79.5898 -46.0449 73.9258 -46.7285 L 73.9258 -58.9844 C 73.9258 -68.7988 80.0781 -74.5605 88.0859 -74.5605 C 96.0449 -74.5605 102.197 -68.7988 102.197 -58.9844 L 102.197 -49.6582 C 102.197 -45.2637 104.834 -42.8223 108.301 -42.8223 C 111.719 -42.8223 114.307 -45.166 114.307 -49.6582 L 114.307 -58.3008 C 114.307 -77.0996 101.416 -86.2793 88.0859 -86.2793 C 74.7559 -86.2793 61.8164 -77.0996 61.8164 -58.3008 L 61.8164 -46.8262 L 23.4375 -46.8262 C 16.4062 -46.8262 12.4512 -43.3105 12.4512 -35.7422 L 12.4512 2.00195 C 12.4512 9.66797 15.9668 13.1836 22.998 13.1836 Z"/>
  </g>
  <g id="Semibold-M" transform="matrix(1 0 0 1 1981.5 1126)">
   <path d="M 22.5586 12.4023 L 70.5566 12.4023 C 77.3438 12.4023 80.6641 9.0332 80.6641 1.66016 L 80.6641 -35.4004 C 80.6641 -41.8945 78.0273 -45.3125 72.6562 -45.9473 L 72.6562 -58.6426 C 72.6562 -69.3359 79.4434 -75.3418 87.8418 -75.3418 C 96.2402 -75.3418 103.027 -69.3359 103.027 -58.6426 L 103.027 -48.7305 C 103.027 -44.873 105.322 -42.7734 108.35 -42.7734 C 111.279 -42.7734 113.574 -44.7754 113.574 -48.7305 L 113.574 -57.8125 C 113.574 -76.4648 100.977 -85.5469 87.8418 -85.5469 C 74.707 -85.5469 62.1094 -76.4648 62.1094 -57.8125 L 62.1094 -46.0938 L 23.2422 -46.0449 C 16.4551 -46.0449 12.4512 -42.6758 12.4512 -35.4004 L 12.4512 1.66016 C 12.4512 9.0332 15.8203 12.4023 22.5586 12.4023 Z"/>
  </g>
  <g id="Medium-M" transform="matrix(1 0 0 1 1685.06 1126)">
   <path d="M 22.2656 11.7676 L 69.5801 11.7676 C 76.1719 11.7676 79.3945 8.54492 79.3945 1.41602 L 79.3945 -35.1562 C 79.3945 -41.4062 76.8555 -44.6777 71.7285 -45.3613 L 71.7285 -58.3496 C 71.7285 -69.7266 78.9551 -75.9766 87.6953 -75.9766 C 96.3867 -75.9766 103.613 -69.7266 103.613 -58.3496 L 103.613 -48.0469 C 103.613 -44.5801 105.664 -42.7734 108.35 -42.7734 C 110.986 -42.7734 113.037 -44.4824 113.037 -48.0469 L 113.037 -57.4707 C 113.037 -76.0254 100.635 -84.9609 87.6953 -84.9609 C 74.707 -84.9609 62.3047 -76.0254 62.3047 -57.4707 L 62.3047 -45.5078 L 23.0469 -45.4102 C 16.5039 -45.4102 12.4512 -42.1875 12.4512 -35.1562 L 12.4512 1.41602 C 12.4512 8.54492 15.6738 11.7676 22.2656 11.7676 Z"/>
  </g>
  <g id="Regular-M" transform="matrix(1 0 0 1 1388.71 1126)">
   <path d="M 21.875 10.9863 L 68.3105 10.9863 C 74.6094 10.9863 77.7344 7.86133 77.7344 1.02539 L 77.7344 -34.8145 C 77.7344 -40.7715 75.3418 -43.9453 70.459 -44.6289 L 70.459 -58.0078 C 70.459 -70.2637 78.3203 -76.7578 87.4512 -76.7578 C 96.582 -76.7578 104.443 -70.2637 104.443 -58.0078 L 104.443 -47.168 C 104.443 -44.1895 106.152 -42.7246 108.398 -42.7246 C 110.547 -42.7246 112.305 -44.043 112.305 -47.168 L 112.305 -56.9824 C 112.305 -75.3906 100.244 -84.2773 87.4512 -84.2773 C 74.6582 -84.2773 62.5977 -75.3906 62.5977 -56.9824 L 62.5977 -44.7266 L 22.8516 -44.6289 C 16.5527 -44.6289 12.4512 -41.5527 12.4512 -34.8145 L 12.4512 1.02539 C 12.4512 7.86133 15.5762 10.9863 21.875 10.9863 Z"/>
  </g>
  <g id="Light-M" transform="matrix(1 0 0 1 1091.37 1126)">
   <path d="M 21.7773 10.9863 L 68.5059 10.9863 C 74.707 10.9863 77.7832 7.95898 77.7832 1.17188 L 77.7832 -35.1562 C 77.7832 -41.0645 75.4395 -44.1406 70.752 -44.8242 L 70.752 -57.373 C 70.752 -70.1172 78.8574 -77.6367 89.1602 -77.6367 C 99.4629 -77.6367 107.52 -70.1172 107.52 -57.373 L 107.52 -46.6797 C 107.52 -44.4824 108.887 -43.3105 110.596 -43.3105 C 112.207 -43.3105 113.574 -44.3848 113.574 -46.6797 L 113.574 -56.7871 C 113.574 -73.9746 102.393 -83.3496 89.1602 -83.3496 C 75.8789 -83.3496 64.6973 -73.9746 64.6973 -56.7871 L 64.6973 -44.9707 L 22.4121 -44.9219 C 16.1621 -44.9219 12.4512 -41.8945 12.4512 -35.1562 L 12.4512 1.17188 C 12.4512 7.95898 15.5273 10.9863 21.7773 10.9863 Z"/>
  </g>
  <g id="Thin-M" transform="matrix(1 0 0 1 793.8 1126)">
   <path d="M 21.6309 10.9863 L 68.7012 10.9863 C 74.8535 10.9863 77.8809 8.05664 77.8809 1.31836 L 77.8809 -35.6445 C 77.8809 -41.4551 75.6348 -44.4336 71.1426 -45.166 L 71.1426 -56.5918 C 71.1426 -69.873 79.541 -78.7598 91.3574 -78.7598 C 103.271 -78.7598 111.621 -69.873 111.621 -56.5918 L 111.621 -46.0449 C 111.621 -44.8242 112.5 -44.0918 113.428 -44.0918 C 114.404 -44.0918 115.234 -44.7754 115.234 -46.0449 L 115.234 -56.4941 C 115.234 -72.168 105.225 -82.1777 91.3574 -82.1777 C 77.5391 -82.1777 67.4805 -72.168 67.4805 -56.4941 L 67.4805 -45.3125 L 21.8262 -45.3125 C 15.6738 -45.3125 12.4512 -42.3828 12.4512 -35.6445 L 12.4512 1.31836 C 12.4512 8.05664 15.4785 10.9863 21.6309 10.9863 Z"/>
  </g>
  <g id="Ultralight-M" transform="matrix(1 0 0 1 496.674 1126)">
   <path d="M 21.582 10.9863 L 68.7988 10.9863 C 74.9023 10.9863 77.9297 8.10547 77.9297 1.41602 L 77.9297 -35.8887 C 77.9297 -41.6504 75.7324 -44.5801 71.3379 -45.3125 L 71.3379 -56.1523 C 71.3379 -69.7754 79.8828 -79.2969 92.5293 -79.2969 C 105.225 -79.2969 113.721 -69.7754 113.721 -56.1523 L 113.721 -45.7031 C 113.721 -45.0195 114.307 -44.5312 114.941 -44.5312 C 115.527 -44.5312 116.113 -45.0195 116.113 -45.7031 L 116.113 -56.3965 C 116.113 -71.1914 106.689 -81.5918 92.5293 -81.5918 C 78.3691 -81.5918 68.9453 -71.1914 68.9453 -56.3965 L 68.9453 -45.5078 L 21.5332 -45.5078 C 15.4297 -45.5078 12.4512 -42.627 12.4512 -35.8887 L 12.4512 1.41602 C 12.4512 8.10547 15.4785 10.9863 21.582 10.9863 Z"/>
  </g>
  <g id="Black-S" transform="matrix(1 0 0 1 2883.96 696)">
   <path d="M 18.8477 4.3457 L 58.8867 4.3457 C 64.9902 4.3457 67.9688 1.31836 67.9688 -5.32227 L 67.9688 -36.3281 C 67.9688 -42.2852 65.5273 -45.3125 60.498 -45.8008 L 60.498 -54.5898 C 60.498 -60.4492 64.0625 -64.3555 69.4336 -64.3555 C 74.8047 -64.3555 78.3691 -60.4492 78.3691 -54.5898 L 78.3691 -48.4375 C 78.3691 -43.8477 81.0547 -41.2109 84.7168 -41.2109 C 88.3789 -41.2109 91.0645 -43.8477 91.0645 -48.4375 L 91.0645 -54.2969 C 91.0645 -69.3359 80.2734 -76.709 69.4336 -76.709 C 58.5938 -76.709 47.8027 -69.3359 47.8027 -54.2969 L 47.8027 -45.8984 L 18.8477 -45.8984 C 12.793 -45.8984 9.76562 -42.8711 9.76562 -36.3281 L 9.76562 -5.32227 C 9.76562 1.31836 12.793 4.3457 18.8477 4.3457 Z"/>
  </g>
  <g id="Heavy-S" transform="matrix(1 0 0 1 2587.69 696)">
   <path d="M 18.457 3.56445 L 57.6172 3.56445 C 63.4277 3.56445 66.3086 0.634766 66.3086 -5.66406 L 66.3086 -35.9375 C 66.3086 -41.6016 63.9648 -44.5312 59.2285 -45.0195 L 59.2285 -54.2969 C 59.2285 -60.9863 63.3789 -65.0879 69.043 -65.0879 C 74.6582 -65.0879 78.8086 -60.9863 78.8086 -54.2969 L 78.8086 -47.5586 C 78.8086 -43.457 81.25 -41.1133 84.5215 -41.1133 C 87.793 -41.1133 90.1855 -43.4082 90.1855 -47.5586 L 90.1855 -53.8574 C 90.1855 -68.8477 79.6387 -76.0742 69.043 -76.0742 C 58.4473 -76.0742 47.8516 -68.8477 47.8516 -53.8574 L 47.8516 -45.1172 L 18.6523 -45.0684 C 12.8906 -45.0684 9.76562 -42.1875 9.76562 -35.9375 L 9.76562 -5.66406 C 9.76562 0.634766 12.6465 3.56445 18.457 3.56445 Z"/>
  </g>
  <g id="Bold-S" transform="matrix(1 0 0 1 2291.47 696)">
   <path d="M 18.0176 2.63672 L 56.1523 2.63672 C 61.7188 2.63672 64.4043 -0.0976562 64.4043 -6.10352 L 64.4043 -35.5469 C 64.4043 -40.8691 62.207 -43.6523 57.7637 -44.1406 L 57.7637 -54.0039 C 57.7637 -61.6211 62.5977 -65.8691 68.5547 -65.8691 C 74.5605 -65.8691 79.3457 -61.6211 79.3457 -54.0039 L 79.3457 -46.6309 C 79.3457 -42.9688 81.4453 -41.0156 84.2773 -41.0156 C 87.1094 -41.0156 89.209 -42.9199 89.209 -46.6309 L 89.209 -53.3203 C 89.209 -68.3594 78.8574 -75.3906 68.5547 -75.3906 C 58.252 -75.3906 47.9004 -68.3594 47.9004 -53.3203 L 47.9004 -44.2383 L 18.457 -44.1895 C 12.9395 -44.1895 9.76562 -41.4551 9.76562 -35.5469 L 9.76562 -6.10352 C 9.76562 -0.0976562 12.5 2.63672 18.0176 2.63672 Z"/>
  </g>
  <g id="Semibold-S" transform="matrix(1 0 0 1 1995.1 696)">
   <path d="M 17.7246 2.05078 L 55.1758 2.05078 C 60.498 2.05078 63.1348 -0.585938 63.1348 -6.39648 L 63.1348 -35.2539 C 63.1348 -40.332 61.0352 -43.0176 56.7871 -43.5547 L 56.7871 -53.7598 C 56.7871 -62.0117 62.0605 -66.4062 68.2617 -66.4062 C 74.4629 -66.4062 79.6875 -62.0117 79.6875 -53.7598 L 79.6875 -45.9473 C 79.6875 -42.6758 81.5918 -40.918 84.1309 -40.918 C 86.6211 -40.918 88.5254 -42.5781 88.5254 -45.9473 L 88.5254 -52.9785 C 88.5254 -67.9688 78.3691 -74.9023 68.2617 -74.9023 C 58.1055 -74.9023 47.9492 -67.9688 47.9492 -52.9785 L 47.9492 -43.6035 L 18.3594 -43.5547 C 13.0371 -43.5547 9.76562 -40.918 9.76562 -35.2539 L 9.76562 -6.39648 C 9.76562 -0.585938 12.4023 2.05078 17.7246 2.05078 Z"/>
  </g>
  <g id="Medium-S" transform="matrix(1 0 0 1 1698.63 696)">
   <path d="M 17.4805 1.5625 L 54.4434 1.5625 C 59.6191 1.5625 62.1094 -0.976562 62.1094 -6.5918 L 62.1094 -35.0098 C 62.1094 -39.9414 60.1074 -42.5293 56.0547 -43.0664 L 56.0547 -53.6133 C 56.0547 -62.3535 61.6211 -66.8457 68.0176 -66.8457 C 74.3652 -66.8457 79.9805 -62.3535 79.9805 -53.6133 L 79.9805 -45.459 C 79.9805 -42.4316 81.7383 -40.8691 84.0332 -40.8691 C 86.2793 -40.8691 88.0371 -42.334 88.0371 -45.459 L 88.0371 -52.7344 C 88.0371 -67.7246 77.9785 -74.5605 68.0176 -74.5605 C 58.0078 -74.5605 47.998 -67.7246 47.998 -52.7344 L 47.998 -43.1641 L 18.2129 -43.1152 C 13.0859 -43.1152 9.76562 -40.5273 9.76562 -35.0098 L 9.76562 -6.5918 C 9.76562 -0.976562 12.3047 1.5625 17.4805 1.5625 Z"/>
  </g>
  <g id="Regular-S" transform="matrix(1 0 0 1 1402.26 696)">
   <path d="M 17.1875 0.976562 L 53.4668 0.976562 C 58.3984 0.976562 60.8398 -1.51367 60.8398 -6.88477 L 60.8398 -34.7168 C 60.8398 -39.4043 58.9355 -41.9434 55.0781 -42.4805 L 55.0781 -53.3691 C 55.0781 -62.7441 61.1328 -67.3828 67.6758 -67.3828 C 74.2676 -67.3828 80.3223 -62.7441 80.3223 -53.3691 L 80.3223 -44.7754 C 80.3223 -42.1387 81.8848 -40.8203 83.8867 -40.8203 C 85.791 -40.8203 87.3535 -41.9922 87.3535 -44.7754 L 87.3535 -52.3438 C 87.3535 -67.3828 77.4902 -74.0723 67.6758 -74.0723 C 57.9102 -74.0723 48.0469 -67.3828 48.0469 -52.3438 L 48.0469 -42.5293 L 18.1152 -42.4805 C 13.1348 -42.4805 9.76562 -39.9902 9.76562 -34.7168 L 9.76562 -6.88477 C 9.76562 -1.51367 12.207 0.976562 17.1875 0.976562 Z"/>
  </g>
  <g id="Light-S" transform="matrix(1 0 0 1 1104.99 696)">
   <path d="M 17.0898 0.976562 L 53.6133 0.976562 C 58.4961 0.976562 60.8887 -1.41602 60.8887 -6.78711 L 60.8887 -35.0586 C 60.8887 -39.6973 59.082 -42.1387 55.3223 -42.6758 L 55.3223 -52.832 C 55.3223 -62.5977 61.5723 -68.1152 69.1895 -68.1152 C 76.8066 -68.1152 83.0566 -62.5977 83.0566 -52.832 L 83.0566 -44.3848 C 83.0566 -42.3828 84.2773 -41.3574 85.791 -41.3574 C 87.2559 -41.3574 88.4766 -42.2852 88.4766 -44.3848 L 88.4766 -52.1973 C 88.4766 -66.1133 79.3945 -73.291 69.1895 -73.291 C 58.9844 -73.291 49.9023 -66.1133 49.9023 -52.1973 L 49.9023 -42.7734 L 17.7246 -42.7246 C 12.793 -42.7246 9.76562 -40.332 9.76562 -35.0586 L 9.76562 -6.78711 C 9.76562 -1.41602 12.1582 0.976562 17.0898 0.976562 Z"/>
  </g>
  <g id="Thin-S" transform="matrix(1 0 0 1 807.521 696)">
   <path d="M 16.9922 0.976562 L 53.7598 0.976562 C 58.5938 0.976562 60.9863 -1.31836 60.9863 -6.64062 L 60.9863 -35.4492 C 60.9863 -40.0391 59.2285 -42.3828 55.6641 -42.9199 L 55.6641 -52.0996 C 55.6641 -62.4512 62.1582 -69.0918 71.1426 -69.0918 C 80.1758 -69.0918 86.6699 -62.4512 86.6699 -52.0996 L 86.6699 -43.7988 C 86.6699 -42.6758 87.4512 -42.041 88.3301 -42.041 C 89.209 -42.041 89.9902 -42.627 89.9902 -43.7988 L 89.9902 -51.9531 C 89.9902 -64.502 81.8848 -72.2656 71.1426 -72.2656 C 60.4004 -72.2656 52.3438 -64.502 52.3438 -51.9531 L 52.3438 -43.0664 L 17.2363 -43.0664 C 12.4023 -43.0664 9.76562 -40.7227 9.76562 -35.4492 L 9.76562 -6.64062 C 9.76562 -1.31836 12.1582 0.976562 16.9922 0.976562 Z"/>
  </g>
  <g id="Ultralight-S" transform="matrix(1 0 0 1 510.444 696)">
   <path d="M 16.8945 0.976562 L 53.9062 0.976562 C 58.6914 0.976562 61.0352 -1.26953 61.0352 -6.54297 L 61.0352 -35.6934 C 61.0352 -40.1855 59.3262 -42.5293 55.8105 -43.0664 L 55.8105 -51.7578 C 55.8105 -62.3047 62.5 -69.6289 72.168 -69.6289 C 81.9336 -69.6289 88.5254 -62.3047 88.5254 -51.7578 L 88.5254 -43.5059 C 88.5254 -42.8223 89.0625 -42.3828 89.6484 -42.3828 C 90.1855 -42.3828 90.7227 -42.8223 90.7227 -43.5059 L 90.7227 -51.8555 C 90.7227 -63.6719 83.2031 -71.7285 72.168 -71.7285 C 61.1816 -71.7285 53.6133 -63.6719 53.6133 -51.8555 L 53.6133 -43.2129 L 16.9434 -43.2129 C 12.1582 -43.2129 9.76562 -40.9668 9.76562 -35.6934 L 9.76562 -6.54297 C 9.76562 -1.26953 12.1094 0.976562 16.8945 0.976562 Z"/>
  </g>
 </g>
</svg>
