<?xml version="1.0" encoding="UTF-8"?>
<!--Generator: Apple Native CoreSVG 123-->
<!DOCTYPE svg
PUBLIC "-//W3C//DTD SVG 1.1//EN"
       "http://www.w3.org/Graphics/SVG/1.1/DTD/svg11.dtd">
<svg version="1.1" xmlns="http://www.w3.org/2000/svg" xmlns:xlink="http://www.w3.org/1999/xlink" width="3300" height="2200">
 <!--glyph: "uni10066A.medium", point size: 100.000000, font version: "Version 15.0d7e11", template writer version: "5"-->
 <g id="Notes">
  <rect height="2200" id="artboard" style="fill:white;opacity:1" width="3300" x="0" y="0"/>
  <line id="" style="fill:none;stroke:black;opacity:1;stroke-width:0.5;" x1="263" x2="3036" y1="292" y2="292"/>
  <text style="stroke:none;fill:black;font-family:-apple-system,&quot;SF Pro Display&quot;,&quot;SF Pro Text&quot;,Helvetica,sans-serif;font-weight:bold;" transform="matrix(1 0 0 1 263 322)">Weight/Scale Variations</text>
  <text style="stroke:none;fill:black;font-family:-apple-system,&quot;SF Pro Display&quot;,&quot;SF Pro Text&quot;,Helvetica,sans-serif;text-anchor:middle;" transform="matrix(1 0 0 1 559.711 322)">Ultralight</text>
  <text style="stroke:none;fill:black;font-family:-apple-system,&quot;SF Pro Display&quot;,&quot;SF Pro Text&quot;,Helvetica,sans-serif;text-anchor:middle;" transform="matrix(1 0 0 1 856.422 322)">Thin</text>
  <text style="stroke:none;fill:black;font-family:-apple-system,&quot;SF Pro Display&quot;,&quot;SF Pro Text&quot;,Helvetica,sans-serif;text-anchor:middle;" transform="matrix(1 0 0 1 1153.13 322)">Light</text>
  <text style="stroke:none;fill:black;font-family:-apple-system,&quot;SF Pro Display&quot;,&quot;SF Pro Text&quot;,Helvetica,sans-serif;text-anchor:middle;" transform="matrix(1 0 0 1 1449.84 322)">Regular</text>
  <text style="stroke:none;fill:black;font-family:-apple-system,&quot;SF Pro Display&quot;,&quot;SF Pro Text&quot;,Helvetica,sans-serif;text-anchor:middle;" transform="matrix(1 0 0 1 1746.56 322)">Medium</text>
  <text style="stroke:none;fill:black;font-family:-apple-system,&quot;SF Pro Display&quot;,&quot;SF Pro Text&quot;,Helvetica,sans-serif;text-anchor:middle;" transform="matrix(1 0 0 1 2043.27 322)">Semibold</text>
  <text style="stroke:none;fill:black;font-family:-apple-system,&quot;SF Pro Display&quot;,&quot;SF Pro Text&quot;,Helvetica,sans-serif;text-anchor:middle;" transform="matrix(1 0 0 1 2339.98 322)">Bold</text>
  <text style="stroke:none;fill:black;font-family:-apple-system,&quot;SF Pro Display&quot;,&quot;SF Pro Text&quot;,Helvetica,sans-serif;text-anchor:middle;" transform="matrix(1 0 0 1 2636.69 322)">Heavy</text>
  <text style="stroke:none;fill:black;font-family:-apple-system,&quot;SF Pro Display&quot;,&quot;SF Pro Text&quot;,Helvetica,sans-serif;text-anchor:middle;" transform="matrix(1 0 0 1 2933.4 322)">Black</text>
  <line id="" style="fill:none;stroke:black;opacity:1;stroke-width:0.5;" x1="263" x2="3036" y1="1903" y2="1903"/>
  <g id="" transform="matrix(1 0 0 1 263 1933)">
   <path d="M 9.24805 0.830078 C 13.5547 0.830078 17.1387 -2.74414 17.1387 -7.05078 C 17.1387 -11.3574 13.5449 -14.9316 9.23828 -14.9316 C 4.94141 -14.9316 1.36719 -11.3574 1.36719 -7.05078 C 1.36719 -2.74414 4.95117 0.830078 9.24805 0.830078 Z M 9.24805 -0.654297 C 5.70312 -0.654297 2.87109 -3.49609 2.87109 -7.05078 C 2.87109 -10.6055 5.69336 -13.4473 9.23828 -13.4473 C 12.793 -13.4473 15.6348 -10.6055 15.6445 -7.05078 C 15.6543 -3.49609 12.8027 -0.654297 9.24805 -0.654297 Z M 9.22852 -3.42773 C 9.69727 -3.42773 9.9707 -3.74023 9.9707 -4.25781 L 9.9707 -6.31836 L 12.1973 -6.31836 C 12.6953 -6.31836 13.0371 -6.57227 13.0371 -7.04102 C 13.0371 -7.51953 12.7148 -7.7832 12.1973 -7.7832 L 9.9707 -7.7832 L 9.9707 -10.0098 C 9.9707 -10.5273 9.69727 -10.8496 9.22852 -10.8496 C 8.75977 -10.8496 8.50586 -10.5078 8.50586 -10.0098 L 8.50586 -7.7832 L 6.29883 -7.7832 C 5.78125 -7.7832 5.44922 -7.51953 5.44922 -7.04102 C 5.44922 -6.57227 5.80078 -6.31836 6.29883 -6.31836 L 8.50586 -6.31836 L 8.50586 -4.25781 C 8.50586 -3.75977 8.75977 -3.42773 9.22852 -3.42773 Z"/>
  </g>
  <g id="" transform="matrix(1 0 0 1 281.506 1933)">
   <path d="M 11.709 2.91016 C 17.1582 2.91016 21.6699 -1.60156 21.6699 -7.05078 C 21.6699 -12.4902 17.1484 -17.0117 11.6992 -17.0117 C 6.25977 -17.0117 1.74805 -12.4902 1.74805 -7.05078 C 1.74805 -1.60156 6.26953 2.91016 11.709 2.91016 Z M 11.709 1.25 C 7.09961 1.25 3.41797 -2.44141 3.41797 -7.05078 C 3.41797 -11.6504 7.08984 -15.3516 11.6992 -15.3516 C 16.3086 -15.3516 20 -11.6504 20.0098 -7.05078 C 20.0195 -2.44141 16.3184 1.25 11.709 1.25 Z M 11.6895 -2.41211 C 12.207 -2.41211 12.5195 -2.77344 12.5195 -3.33984 L 12.5195 -6.23047 L 15.5762 -6.23047 C 16.123 -6.23047 16.5039 -6.51367 16.5039 -7.03125 C 16.5039 -7.55859 16.1426 -7.86133 15.5762 -7.86133 L 12.5195 -7.86133 L 12.5195 -10.9277 C 12.5195 -11.5039 12.207 -11.8555 11.6895 -11.8555 C 11.1719 -11.8555 10.8789 -11.4844 10.8789 -10.9277 L 10.8789 -7.86133 L 7.83203 -7.86133 C 7.26562 -7.86133 6.89453 -7.55859 6.89453 -7.03125 C 6.89453 -6.51367 7.28516 -6.23047 7.83203 -6.23047 L 10.8789 -6.23047 L 10.8789 -3.33984 C 10.8789 -2.79297 11.1719 -2.41211 11.6895 -2.41211 Z"/>
  </g>
  <g id="" transform="matrix(1 0 0 1 304.924 1933)">
   <path d="M 14.9707 5.67383 C 21.9336 5.67383 27.6953 -0.078125 27.6953 -7.04102 C 27.6953 -14.0039 21.9238 -19.7559 14.9609 -19.7559 C 8.00781 -19.7559 2.25586 -14.0039 2.25586 -7.04102 C 2.25586 -0.078125 8.01758 5.67383 14.9707 5.67383 Z M 14.9707 3.85742 C 8.93555 3.85742 4.08203 -1.00586 4.08203 -7.04102 C 4.08203 -13.0762 8.92578 -17.9395 14.9609 -17.9395 C 21.0059 -17.9395 25.8594 -13.0762 25.8691 -7.04102 C 25.8789 -1.00586 21.0156 3.85742 14.9707 3.85742 Z M 14.9512 -1.06445 C 15.5176 -1.06445 15.8691 -1.45508 15.8691 -2.06055 L 15.8691 -6.13281 L 20.1074 -6.13281 C 20.6934 -6.13281 21.1133 -6.46484 21.1133 -7.02148 C 21.1133 -7.59766 20.7227 -7.93945 20.1074 -7.93945 L 15.8691 -7.93945 L 15.8691 -12.1875 C 15.8691 -12.8027 15.5176 -13.1934 14.9512 -13.1934 C 14.3848 -13.1934 14.0625 -12.7832 14.0625 -12.1875 L 14.0625 -7.93945 L 9.83398 -7.93945 C 9.21875 -7.93945 8.80859 -7.59766 8.80859 -7.02148 C 8.80859 -6.46484 9.23828 -6.13281 9.83398 -6.13281 L 14.0625 -6.13281 L 14.0625 -2.06055 C 14.0625 -1.47461 14.3848 -1.06445 14.9512 -1.06445 Z"/>
  </g>
  <text style="stroke:none;fill:black;font-family:-apple-system,&quot;SF Pro Display&quot;,&quot;SF Pro Text&quot;,Helvetica,sans-serif;font-weight:bold;" transform="matrix(1 0 0 1 263 1953)">Design Variations</text>
  <text style="stroke:none;fill:black;font-family:-apple-system,&quot;SF Pro Display&quot;,&quot;SF Pro Text&quot;,Helvetica,sans-serif;" transform="matrix(1 0 0 1 263 1971)">Symbols are supported in up to nine weights and three scales.</text>
  <text style="stroke:none;fill:black;font-family:-apple-system,&quot;SF Pro Display&quot;,&quot;SF Pro Text&quot;,Helvetica,sans-serif;" transform="matrix(1 0 0 1 263 1989)">For optimal layout with text and other symbols, vertically align</text>
  <text style="stroke:none;fill:black;font-family:-apple-system,&quot;SF Pro Display&quot;,&quot;SF Pro Text&quot;,Helvetica,sans-serif;" transform="matrix(1 0 0 1 263 2007)">symbols with the adjacent text.</text>
  <rect height="14" id="" style="fill:#00AEEF;stroke:none;opacity:0.4;" width="3" x="776" y="1919"/>
  <g id="" transform="matrix(1 0 0 1 779 1933)">
   <path d="M 10.5273 0 L 12.373 0 L 7.17773 -14.0918 L 5.43945 -14.0918 L 0.244141 0 L 2.08984 0 L 3.50586 -4.0332 L 9.11133 -4.0332 Z M 6.2793 -11.9531 L 6.33789 -11.9531 L 8.59375 -5.52734 L 4.02344 -5.52734 Z"/>
  </g>
  <rect height="14" id="" style="fill:#00AEEF;stroke:none;opacity:0.4;" width="3" x="791.617" y="1919"/>
  <text style="stroke:none;fill:black;font-family:-apple-system,&quot;SF Pro Display&quot;,&quot;SF Pro Text&quot;,Helvetica,sans-serif;font-weight:bold;" transform="matrix(1 0 0 1 776 1953)">Margins</text>
  <text style="stroke:none;fill:black;font-family:-apple-system,&quot;SF Pro Display&quot;,&quot;SF Pro Text&quot;,Helvetica,sans-serif;" transform="matrix(1 0 0 1 776 1971)">Leading and trailing margins on the left and right side of each symbol</text>
  <text style="stroke:none;fill:black;font-family:-apple-system,&quot;SF Pro Display&quot;,&quot;SF Pro Text&quot;,Helvetica,sans-serif;" transform="matrix(1 0 0 1 776 1989)">can be adjusted by modifying the width of the blue rectangles.</text>
  <text style="stroke:none;fill:black;font-family:-apple-system,&quot;SF Pro Display&quot;,&quot;SF Pro Text&quot;,Helvetica,sans-serif;" transform="matrix(1 0 0 1 776 2007)">Modifications are automatically applied proportionally to all</text>
  <text style="stroke:none;fill:black;font-family:-apple-system,&quot;SF Pro Display&quot;,&quot;SF Pro Text&quot;,Helvetica,sans-serif;" transform="matrix(1 0 0 1 776 2025)">scales and weights.</text>
  <g id="" transform="matrix(1 0 0 1 1289 1933)">
   <path d="M 2.83203 3.11523 L 4.375 4.6582 C 5.22461 5.48828 6.19141 5.41992 7.06055 4.46289 L 17.2754 -6.66016 C 17.7051 -6.36719 18.0957 -6.37695 18.5645 -6.47461 L 19.6094 -6.68945 L 20.3027 -5.99609 L 20.2539 -5.47852 C 20.1855 -4.95117 20.3516 -4.53125 20.8496 -4.0332 L 21.6602 -3.22266 C 22.168 -2.71484 22.8223 -2.68555 23.3008 -3.16406 L 26.5527 -6.41602 C 27.0312 -6.89453 27.0117 -7.54883 26.5039 -8.05664 L 25.6836 -8.87695 C 25.1855 -9.375 24.7754 -9.55078 24.2383 -9.47266 L 23.7109 -9.41406 L 23.0566 -10.0781 L 23.3398 -11.2207 C 23.4863 -11.7871 23.3398 -12.2559 22.7148 -12.8613 L 20.3027 -15.2539 C 16.7578 -18.7793 12.2266 -18.6719 9.11133 -15.5371 C 8.69141 -15.1074 8.64258 -14.5215 8.91602 -14.0918 C 9.15039 -13.7207 9.62891 -13.4961 10.2734 -13.6621 C 11.7871 -14.043 13.3008 -13.9258 14.7852 -12.9199 L 14.1602 -11.3379 C 13.9258 -10.752 13.9453 -10.2734 14.1797 -9.83398 L 3.01758 0.439453 C 2.08008 1.30859 1.97266 2.25586 2.83203 3.11523 Z M 10.6738 -15.1465 C 13.3398 -17.1387 16.6504 -16.8262 19.0527 -14.4141 L 21.6797 -11.8066 C 21.9141 -11.5723 21.9434 -11.3867 21.8848 -11.0938 L 21.5039 -9.53125 L 23.0762 -7.95898 L 24.043 -8.04688 C 24.3262 -8.07617 24.4141 -8.05664 24.6387 -7.83203 L 25.2637 -7.20703 L 22.5098 -4.46289 L 21.8848 -5.07812 C 21.6602 -5.30273 21.6406 -5.40039 21.6699 -5.68359 L 21.7578 -6.64062 L 20.1953 -8.20312 L 18.5742 -7.89062 C 18.291 -7.83203 18.1445 -7.83203 17.9102 -8.07617 L 15.7324 -10.2539 C 15.5078 -10.4883 15.4785 -10.625 15.6055 -10.9473 L 16.5527 -13.2227 C 14.9512 -14.7559 12.8418 -15.6055 10.8008 -14.9512 C 10.7129 -14.9219 10.6445 -14.9414 10.6152 -14.9805 C 10.5859 -15.0293 10.5859 -15.0781 10.6738 -15.1465 Z M 4.10156 2.41211 C 3.61328 1.91406 3.78906 1.61133 4.12109 1.30859 L 15.0781 -8.80859 L 16.3086 -7.57812 L 6.15234 3.34961 C 5.84961 3.68164 5.46875 3.7793 5.06836 3.37891 Z"/>
  </g>
  <text style="stroke:none;fill:black;font-family:-apple-system,&quot;SF Pro Display&quot;,&quot;SF Pro Text&quot;,Helvetica,sans-serif;font-weight:bold;" transform="matrix(1 0 0 1 1289 1953)">Exporting</text>
  <text style="stroke:none;fill:black;font-family:-apple-system,&quot;SF Pro Display&quot;,&quot;SF Pro Text&quot;,Helvetica,sans-serif;" transform="matrix(1 0 0 1 1289 1971)">Symbols should be outlined when exporting to ensure the</text>
  <text style="stroke:none;fill:black;font-family:-apple-system,&quot;SF Pro Display&quot;,&quot;SF Pro Text&quot;,Helvetica,sans-serif;" transform="matrix(1 0 0 1 1289 1989)">design is preserved when submitting to Xcode.</text>
  <text id="template-version" style="stroke:none;fill:black;font-family:-apple-system,&quot;SF Pro Display&quot;,&quot;SF Pro Text&quot;,Helvetica,sans-serif;text-anchor:end;" transform="matrix(1 0 0 1 3036 1933)">Template v.1.0</text>
  <text style="stroke:none;fill:black;font-family:-apple-system,&quot;SF Pro Display&quot;,&quot;SF Pro Text&quot;,Helvetica,sans-serif;text-anchor:end;" transform="matrix(1 0 0 1 3036 1951)">Generated from bed.double.fill</text>
  <text style="stroke:none;fill:black;font-family:-apple-system,&quot;SF Pro Display&quot;,&quot;SF Pro Text&quot;,Helvetica,sans-serif;text-anchor:end;" transform="matrix(1 0 0 1 3036 1969)">Typeset at 100 points</text>
  <text style="stroke:none;fill:black;font-family:-apple-system,&quot;SF Pro Display&quot;,&quot;SF Pro Text&quot;,Helvetica,sans-serif;" transform="matrix(1 0 0 1 263 726)">Small</text>
  <text style="stroke:none;fill:black;font-family:-apple-system,&quot;SF Pro Display&quot;,&quot;SF Pro Text&quot;,Helvetica,sans-serif;" transform="matrix(1 0 0 1 263 1156)">Medium</text>
  <text style="stroke:none;fill:black;font-family:-apple-system,&quot;SF Pro Display&quot;,&quot;SF Pro Text&quot;,Helvetica,sans-serif;" transform="matrix(1 0 0 1 263 1586)">Large</text>
 </g>
 <g id="Guides">
  <g id="H-reference" style="fill:#27AAE1;stroke:none;" transform="matrix(1 0 0 1 339 696)">
   <path d="M 54.9316 0 L 57.666 0 L 30.5664 -70.459 L 28.0762 -70.459 L 0.976562 0 L 3.66211 0 L 12.9395 -24.4629 L 45.7031 -24.4629 Z M 29.1992 -67.0898 L 29.4434 -67.0898 L 44.8242 -26.709 L 13.8184 -26.709 Z"/>
  </g>
  <line id="Baseline-S" style="fill:none;stroke:#27AAE1;opacity:1;stroke-width:0.577;" x1="263" x2="3036" y1="696" y2="696"/>
  <line id="Capline-S" style="fill:none;stroke:#27AAE1;opacity:1;stroke-width:0.577;" x1="263" x2="3036" y1="625.541" y2="625.541"/>
  <g id="H-reference" style="fill:#27AAE1;stroke:none;" transform="matrix(1 0 0 1 339 1126)">
   <path d="M 54.9316 0 L 57.666 0 L 30.5664 -70.459 L 28.0762 -70.459 L 0.976562 0 L 3.66211 0 L 12.9395 -24.4629 L 45.7031 -24.4629 Z M 29.1992 -67.0898 L 29.4434 -67.0898 L 44.8242 -26.709 L 13.8184 -26.709 Z"/>
  </g>
  <line id="Baseline-M" style="fill:none;stroke:#27AAE1;opacity:1;stroke-width:0.577;" x1="263" x2="3036" y1="1126" y2="1126"/>
  <line id="Capline-M" style="fill:none;stroke:#27AAE1;opacity:1;stroke-width:0.577;" x1="263" x2="3036" y1="1055.54" y2="1055.54"/>
  <g id="H-reference" style="fill:#27AAE1;stroke:none;" transform="matrix(1 0 0 1 339 1556)">
   <path d="M 54.9316 0 L 57.666 0 L 30.5664 -70.459 L 28.0762 -70.459 L 0.976562 0 L 3.66211 0 L 12.9395 -24.4629 L 45.7031 -24.4629 Z M 29.1992 -67.0898 L 29.4434 -67.0898 L 44.8242 -26.709 L 13.8184 -26.709 Z"/>
  </g>
  <line id="Baseline-L" style="fill:none;stroke:#27AAE1;opacity:1;stroke-width:0.577;" x1="263" x2="3036" y1="1556" y2="1556"/>
  <line id="Capline-L" style="fill:none;stroke:#27AAE1;opacity:1;stroke-width:0.577;" x1="263" x2="3036" y1="1485.54" y2="1485.54"/>
  <rect height="119.336" id="left-margin" style="fill:#00AEEF;stroke:none;opacity:0.4;" width="12.4512" x="1378.46" y="1030.79"/>
  <rect height="119.336" id="right-margin" style="fill:#00AEEF;stroke:none;opacity:0.4;" width="12.4512" x="1508.78" y="1030.79"/>
 </g>
 <g id="Symbols">
  <g id="Black-L" transform="matrix(1 0 0 1 2835.91 1556)">
   <path d="M 32.1289 -51.416 L 49.4629 -51.416 L 49.4629 -58.9355 C 49.4629 -65.2832 52.8809 -68.6523 59.4238 -68.6523 L 80.9082 -68.6523 C 87.4512 -68.6523 90.8691 -65.2832 90.8691 -58.9355 L 90.8691 -51.416 L 104.102 -51.416 L 104.102 -58.9355 C 104.102 -65.2832 107.568 -68.6523 114.062 -68.6523 L 135.547 -68.6523 C 142.09 -68.6523 145.508 -65.2832 145.508 -58.9355 L 145.508 -51.416 L 162.842 -51.416 L 162.842 -68.7988 C 162.842 -81.2012 156.104 -87.793 143.555 -87.793 L 51.416 -87.793 C 38.8672 -87.793 32.1289 -81.2012 32.1289 -68.7988 Z M 16.0645 19.2383 C 16.0645 22.8027 18.5059 25.1465 22.0215 25.1465 L 26.1719 25.1465 C 29.6875 25.1465 32.1289 22.8027 32.1289 19.2383 L 32.1289 11.3281 C 32.8613 11.5723 35.4492 11.7676 37.3047 11.7676 L 157.666 11.7676 C 159.521 11.7676 162.109 11.5723 162.842 11.3281 L 162.842 19.2383 C 162.842 22.8027 165.283 25.1465 168.799 25.1465 L 172.949 25.1465 C 176.514 25.1465 178.906 22.8027 178.906 19.2383 L 178.906 -19.1895 C 178.906 -32.8125 171.484 -40.0391 157.666 -40.0391 L 37.3047 -40.0391 C 23.4863 -40.0391 16.0645 -32.8125 16.0645 -19.1895 Z"/>
  </g>
  <g id="Heavy-L" transform="matrix(1 0 0 1 2540.69 1556)">
   <path d="M 31.7383 -49.3652 L 48.4375 -49.3652 L 48.4375 -57.0312 C 48.4375 -63.1836 51.7578 -66.4551 58.0566 -66.4551 L 79.8828 -66.4551 C 86.1328 -66.4551 89.502 -63.1836 89.502 -57.0312 L 89.502 -49.3652 L 102.783 -49.3652 L 102.783 -57.0312 C 102.783 -63.1836 106.152 -66.4551 112.549 -66.4551 L 133.789 -66.4551 C 140.234 -66.4551 143.555 -63.1836 143.555 -57.0312 L 143.555 -49.3652 L 160.254 -49.3652 L 160.254 -66.6504 C 160.254 -78.6621 153.76 -84.9609 141.797 -84.9609 L 50.1953 -84.9609 C 38.2324 -84.9609 31.7383 -78.6621 31.7383 -66.6504 Z M 16.0645 18.9453 C 16.0645 22.3633 18.3594 24.5605 21.7285 24.5605 L 25.7324 24.5605 C 29.1016 24.5605 31.3965 22.3633 31.3965 18.9453 L 31.3965 10.7422 C 32.0801 10.9863 34.4727 11.1328 36.1816 11.1328 L 155.811 11.1328 C 157.52 11.1328 159.912 10.9863 160.596 10.7422 L 160.596 18.9453 C 160.596 22.3633 162.891 24.5605 166.26 24.5605 L 170.264 24.5605 C 173.633 24.5605 175.928 22.3633 175.928 18.9453 L 175.928 -19.043 C 175.928 -31.9336 168.848 -38.8184 155.811 -38.8184 L 36.1816 -38.8184 C 23.1445 -38.8184 16.0645 -31.9336 16.0645 -19.043 Z"/>
  </g>
  <g id="Bold-L" transform="matrix(1 0 0 1 2245.67 1556)">
   <path d="M 31.2988 -47.0703 L 47.2656 -47.0703 L 47.2656 -54.9316 C 47.2656 -60.791 50.4883 -64.0137 56.4941 -64.0137 L 78.7109 -64.0137 C 84.668 -64.0137 87.9395 -60.791 87.9395 -54.9316 L 87.9395 -47.0703 L 101.318 -47.0703 L 101.318 -54.9316 C 101.318 -60.791 104.59 -64.0137 110.84 -64.0137 L 131.836 -64.0137 C 138.135 -64.0137 141.406 -60.791 141.406 -54.9316 L 141.406 -47.0703 L 157.373 -47.0703 L 157.373 -64.209 C 157.373 -75.7812 151.123 -81.7871 139.795 -81.7871 L 48.8281 -81.7871 C 37.5 -81.7871 31.2988 -75.7812 31.2988 -64.209 Z M 16.0645 18.6523 C 16.0645 21.875 18.2129 23.9746 21.4355 23.9746 L 25.1953 23.9746 C 28.418 23.9746 30.5664 21.875 30.5664 18.6523 L 30.5664 10.1074 C 31.25 10.3027 33.3496 10.4492 34.9121 10.4492 L 153.711 10.4492 C 155.273 10.4492 157.422 10.3027 158.105 10.1074 L 158.105 18.6523 C 158.105 21.875 160.205 23.9746 163.477 23.9746 L 167.188 23.9746 C 170.459 23.9746 172.559 21.875 172.559 18.6523 L 172.559 -18.8965 C 172.559 -30.957 165.869 -37.5 153.76 -37.5 L 34.8633 -37.5 C 22.7539 -37.5 16.0645 -30.957 16.0645 -18.8965 Z"/>
  </g>
  <g id="Semibold-L" transform="matrix(1 0 0 1 1950.1 1556)">
   <path d="M 30.957 -45.5078 L 46.4355 -45.5078 L 46.4355 -53.4668 C 46.4355 -59.1797 49.6582 -62.3535 55.4199 -62.3535 L 77.9297 -62.3535 C 83.6914 -62.3535 86.9141 -59.1797 86.9141 -53.4668 L 86.9141 -45.5078 L 100.293 -45.5078 L 100.293 -53.4668 C 100.293 -59.1797 103.516 -62.3535 109.717 -62.3535 L 130.469 -62.3535 C 136.67 -62.3535 139.893 -59.1797 139.893 -53.4668 L 139.893 -45.5078 L 155.371 -45.5078 L 155.371 -62.5488 C 155.371 -73.8281 149.316 -79.5898 138.428 -79.5898 L 47.9004 -79.5898 C 37.0117 -79.5898 30.957 -73.8281 30.957 -62.5488 Z M 16.0645 18.4082 C 16.0645 21.582 18.1152 23.5352 21.2402 23.5352 L 24.8535 23.5352 C 27.9297 23.5352 29.9805 21.582 29.9805 18.4082 L 29.9805 9.61914 C 30.6641 9.86328 32.6172 9.96094 34.0332 9.96094 L 152.295 9.96094 C 153.711 9.96094 155.713 9.86328 156.348 9.61914 L 156.348 18.4082 C 156.348 21.582 158.398 23.5352 161.523 23.5352 L 165.088 23.5352 C 168.213 23.5352 170.264 21.582 170.264 18.4082 L 170.264 -18.7988 C 170.264 -30.2734 163.818 -36.5723 152.344 -36.5723 L 33.9844 -36.5723 C 22.5098 -36.5723 16.0645 -30.2734 16.0645 -18.7988 Z"/>
  </g>
  <g id="Medium-L" transform="matrix(1 0 0 1 1654.27 1556)">
   <path d="M 30.7617 -44.2871 L 45.8008 -44.2871 L 45.8008 -52.3926 C 45.8008 -57.959 48.9746 -61.084 54.5898 -61.084 L 77.2949 -61.084 C 82.9102 -61.084 86.084 -57.959 86.084 -52.3926 L 86.084 -44.2871 L 99.5117 -44.2871 L 99.5117 -52.3926 C 99.5117 -57.959 102.686 -61.084 108.789 -61.084 L 129.443 -61.084 C 135.547 -61.084 138.77 -57.959 138.77 -52.3926 L 138.77 -44.2871 L 153.809 -44.2871 L 153.809 -61.2793 C 153.809 -72.3145 147.949 -77.9297 137.402 -77.9297 L 47.168 -77.9297 C 36.6211 -77.9297 30.7617 -72.3145 30.7617 -61.2793 Z M 16.0645 18.2617 C 16.0645 21.3379 18.0176 23.1934 21.0938 23.1934 L 24.5605 23.1934 C 27.5879 23.1934 29.541 21.3379 29.541 18.2617 L 29.541 9.27734 C 30.1758 9.47266 32.0312 9.61914 33.3984 9.61914 L 151.172 9.61914 C 152.539 9.61914 154.395 9.47266 155.029 9.27734 L 155.029 18.2617 C 155.029 21.3379 156.982 23.1934 160.01 23.1934 L 163.477 23.1934 C 166.553 23.1934 168.506 21.3379 168.506 18.2617 L 168.506 -18.7012 C 168.506 -29.7363 162.305 -35.8887 151.221 -35.8887 L 33.3496 -35.8887 C 22.2656 -35.8887 16.0645 -29.7363 16.0645 -18.7012 Z"/>
  </g>
  <g id="Regular-L" transform="matrix(1 0 0 1 1358.71 1556)">
   <path d="M 30.4199 -42.7246 L 45.0195 -42.7246 L 45.0195 -50.9277 C 45.0195 -56.3477 48.1445 -59.4238 53.5645 -59.4238 L 76.5137 -59.4238 C 81.9336 -59.4238 85.0586 -56.3477 85.0586 -50.9277 L 85.0586 -42.7246 L 98.4863 -42.7246 L 98.4863 -50.9277 C 98.4863 -56.3477 101.611 -59.4238 107.666 -59.4238 L 128.125 -59.4238 C 134.131 -59.4238 137.256 -56.3477 137.256 -50.9277 L 137.256 -42.7246 L 151.855 -42.7246 L 151.855 -59.6191 C 151.855 -70.4102 146.143 -75.7324 136.035 -75.7324 L 46.2402 -75.7324 C 36.1328 -75.7324 30.4199 -70.4102 30.4199 -59.6191 Z M 16.0645 18.0176 C 16.0645 20.9961 17.9199 22.8027 20.8496 22.8027 L 24.2188 22.8027 C 27.1484 22.8027 28.9551 20.9961 28.9551 18.0176 L 28.9551 8.83789 C 29.5898 9.0332 31.2988 9.13086 32.5195 9.13086 L 149.756 9.13086 C 151.025 9.13086 152.686 9.0332 153.32 8.83789 L 153.32 18.0176 C 153.32 20.9961 155.176 22.8027 158.105 22.8027 L 161.426 22.8027 C 164.355 22.8027 166.211 20.9961 166.211 18.0176 L 166.211 -18.6035 C 166.211 -29.0527 160.254 -34.9609 149.805 -34.9609 L 32.4707 -34.9609 C 22.0215 -34.9609 16.0645 -29.0527 16.0645 -18.6035 Z"/>
  </g>
  <g id="Light-L" transform="matrix(1 0 0 1 1063.29 1556)">
   <path d="M 30.4688 -40.4785 L 44.1406 -40.4785 L 44.1406 -48.0469 C 44.1406 -53.2227 47.2168 -56.2988 52.2949 -56.2988 L 76.0254 -56.2988 C 81.1035 -56.2988 84.2285 -53.2227 84.2285 -48.0469 L 84.2285 -40.4785 L 97.4609 -40.4785 L 97.4609 -48.0469 C 97.4609 -53.2227 100.586 -56.2988 106.641 -56.2988 L 126.367 -56.2988 C 132.422 -56.2988 135.547 -53.2227 135.547 -48.0469 L 135.547 -40.4785 L 149.17 -40.4785 L 149.17 -56.9336 C 149.17 -67.1875 143.799 -72.1191 134.668 -72.1191 L 44.9707 -72.1191 C 35.8398 -72.1191 30.4688 -67.1875 30.4688 -56.9336 Z M 16.0645 18.457 C 16.0645 21.2402 17.6758 22.8027 20.4102 22.8027 L 23.4375 22.8027 C 26.123 22.8027 27.7344 21.2402 27.7344 18.457 L 27.7344 8.93555 C 28.3203 9.08203 29.541 9.13086 30.5664 9.13086 L 149.121 9.13086 C 150.098 9.13086 151.318 9.08203 151.904 8.93555 L 151.904 18.457 C 151.904 21.2402 153.516 22.8027 156.201 22.8027 L 159.229 22.8027 C 162.012 22.8027 163.623 21.2402 163.623 18.457 L 163.623 -19.3359 C 163.623 -28.418 158.203 -33.7891 149.219 -33.7891 L 30.4688 -33.7891 C 21.4355 -33.7891 16.0645 -28.418 16.0645 -19.3359 Z"/>
  </g>
  <g id="Thin-L" transform="matrix(1 0 0 1 768.336 1556)">
   <path d="M 30.5176 -37.5 L 42.9199 -37.5 L 42.9199 -44.2383 C 42.9199 -49.0723 45.9961 -52.1973 50.6836 -52.1973 L 75.3418 -52.1973 C 80.0293 -52.1973 83.1055 -49.0723 83.1055 -44.2383 L 83.1055 -37.5 L 96.0449 -37.5 L 96.0449 -44.2383 C 96.0449 -49.0723 99.1699 -52.1973 105.273 -52.1973 L 124.023 -52.1973 C 130.127 -52.1973 133.252 -49.0723 133.252 -44.2383 L 133.252 -37.5 L 145.654 -37.5 L 145.654 -53.3203 C 145.654 -62.9883 140.723 -67.334 132.91 -67.334 L 43.3105 -67.334 C 35.4492 -67.334 30.5176 -62.9883 30.5176 -53.3203 Z M 16.0645 19.043 C 16.0645 21.5332 17.334 22.8027 19.8242 22.8027 L 22.4609 22.8027 C 24.8535 22.8027 26.123 21.5332 26.123 19.043 L 26.123 9.0332 C 26.6602 9.13086 27.2949 9.13086 27.9297 9.13086 L 148.242 9.13086 C 148.926 9.13086 149.561 9.13086 150.049 9.0332 L 150.049 19.043 C 150.049 21.5332 151.367 22.8027 153.76 22.8027 L 156.348 22.8027 C 158.838 22.8027 160.107 21.5332 160.107 19.043 L 160.107 -20.3125 C 160.107 -27.5879 155.518 -32.2754 148.389 -32.2754 L 27.7832 -32.2754 C 20.7031 -32.2754 16.0645 -27.5879 16.0645 -20.3125 Z"/>
  </g>
  <g id="Ultralight-L" transform="matrix(1 0 0 1 472.504 1556)">
   <path d="M 30.5664 -35.9863 L 42.2852 -35.9863 L 42.2852 -42.2852 C 42.2852 -46.9727 45.3613 -50.0977 49.8535 -50.0977 L 75 -50.0977 C 79.4922 -50.0977 82.5195 -46.9727 82.5195 -42.2852 L 82.5195 -35.9863 L 95.3125 -35.9863 L 95.3125 -42.2852 C 95.3125 -46.9727 98.4863 -50.0977 104.59 -50.0977 L 122.852 -50.0977 C 128.955 -50.0977 132.129 -46.9727 132.129 -42.2852 L 132.129 -35.9863 L 143.848 -35.9863 L 143.848 -51.5137 C 143.848 -60.8398 139.16 -64.8926 131.982 -64.8926 L 42.4316 -64.8926 C 35.2539 -64.8926 30.5664 -60.8398 30.5664 -51.5137 Z M 16.0645 19.3359 C 16.0645 21.6797 17.1875 22.8027 19.5312 22.8027 L 21.9238 22.8027 C 24.1699 22.8027 25.293 21.6797 25.293 19.3359 L 25.293 9.08203 C 25.7812 9.13086 26.123 9.13086 26.6113 9.13086 L 147.803 9.13086 C 148.291 9.13086 148.633 9.13086 149.121 9.08203 L 149.121 19.3359 C 149.121 21.6797 150.244 22.8027 152.49 22.8027 L 154.883 22.8027 C 157.227 22.8027 158.35 21.6797 158.35 19.3359 L 158.35 -20.8008 C 158.35 -27.1973 154.102 -31.4941 147.998 -31.4941 L 26.416 -31.4941 C 20.3125 -31.4941 16.0645 -27.1973 16.0645 -20.8008 Z"/>
  </g>
  <g id="Black-M" transform="matrix(1 0 0 1 2856.52 1126)">
   <path d="M 25.4395 -49.3652 L 39.2578 -49.3652 L 39.2578 -54.5898 C 39.2578 -59.7168 41.9922 -62.4023 47.2656 -62.4023 L 63.8184 -62.4023 C 69.0918 -62.4023 71.8262 -59.7168 71.8262 -54.5898 L 71.8262 -49.3652 L 81.9336 -49.3652 L 81.9336 -54.5898 C 81.9336 -59.7168 84.668 -62.4023 89.9414 -62.4023 L 106.494 -62.4023 C 111.719 -62.4023 114.502 -59.7168 114.502 -54.5898 L 114.502 -49.3652 L 128.271 -49.3652 L 128.271 -62.7441 C 128.271 -72.6074 122.9 -77.8809 112.939 -77.8809 L 40.8203 -77.8809 C 30.8105 -77.8809 25.4395 -72.6074 25.4395 -62.7441 Z M 12.4512 7.61719 C 12.4512 10.4004 14.4043 12.3047 17.1875 12.3047 L 20.5078 12.3047 C 23.3398 12.3047 25.2441 10.4004 25.2441 7.61719 L 25.2441 1.70898 C 25.8301 1.9043 27.8809 2.00195 29.3945 2.00195 L 124.365 2.00195 C 125.879 2.00195 127.93 1.9043 128.516 1.70898 L 128.516 7.61719 C 128.516 10.4004 130.42 12.3047 133.252 12.3047 L 136.572 12.3047 C 139.355 12.3047 141.309 10.4004 141.309 7.61719 L 141.309 -23.3398 C 141.309 -34.2285 135.352 -39.9414 124.365 -39.9414 L 29.3945 -39.9414 C 18.4082 -39.9414 12.4512 -34.2285 12.4512 -23.3398 Z"/>
  </g>
  <g id="Heavy-M" transform="matrix(1 0 0 1 2561.1 1126)">
   <path d="M 25 -47.7051 L 38.3789 -47.7051 L 38.3789 -53.2715 C 38.3789 -58.2031 41.0156 -60.8398 46.0938 -60.8398 L 62.8418 -60.8398 C 67.8711 -60.8398 70.5566 -58.2031 70.5566 -53.2715 L 70.5566 -47.7051 L 80.7617 -47.7051 L 80.7617 -53.2715 C 80.7617 -58.2031 83.3984 -60.8398 88.5254 -60.8398 L 105.029 -60.8398 C 110.156 -60.8398 112.793 -58.2031 112.793 -53.2715 L 112.793 -47.7051 L 126.172 -47.7051 L 126.172 -61.084 C 126.172 -70.6543 120.947 -75.6836 111.328 -75.6836 L 39.8438 -75.6836 C 30.2246 -75.6836 25 -70.6543 25 -61.084 Z M 12.4512 7.17773 C 12.4512 9.91211 14.3066 11.6699 16.9922 11.6699 L 20.2148 11.6699 C 22.9004 11.6699 24.7559 9.91211 24.7559 7.17773 L 24.7559 1.02539 C 25.293 1.2207 27.2461 1.31836 28.6621 1.31836 L 122.51 1.31836 C 123.926 1.31836 125.83 1.2207 126.416 1.02539 L 126.416 7.17773 C 126.416 9.91211 128.271 11.6699 130.957 11.6699 L 134.131 11.6699 C 136.865 11.6699 138.721 9.91211 138.721 7.17773 L 138.721 -22.998 C 138.721 -33.3984 133.008 -38.9648 122.51 -38.9648 L 28.6621 -38.9648 C 18.1641 -38.9648 12.4512 -33.3984 12.4512 -22.998 Z"/>
  </g>
  <g id="Bold-M" transform="matrix(1 0 0 1 2265.86 1126)">
   <path d="M 24.5117 -45.8496 L 37.3535 -45.8496 L 37.3535 -51.8066 C 37.3535 -56.543 39.9414 -59.082 44.7266 -59.082 L 61.7188 -59.082 C 66.5039 -59.082 69.0918 -56.543 69.0918 -51.8066 L 69.0918 -45.8496 L 79.4434 -45.8496 L 79.4434 -51.8066 C 79.4434 -56.543 82.0312 -59.082 86.9629 -59.082 L 103.369 -59.082 C 108.35 -59.082 110.938 -56.543 110.938 -51.8066 L 110.938 -45.8496 L 123.73 -45.8496 L 123.73 -59.1797 C 123.73 -68.457 118.75 -73.291 109.57 -73.291 L 38.7207 -73.291 C 29.4922 -73.291 24.5117 -68.457 24.5117 -59.1797 Z M 12.4512 6.68945 C 12.4512 9.32617 14.209 11.0352 16.7969 11.0352 L 19.873 11.0352 C 22.4609 11.0352 24.2188 9.32617 24.2188 6.68945 L 24.2188 0.292969 C 24.7559 0.488281 26.5625 0.585938 27.8809 0.585938 L 120.41 0.585938 C 121.729 0.585938 123.535 0.488281 124.072 0.292969 L 124.072 6.68945 C 124.072 9.32617 125.83 11.0352 128.418 11.0352 L 131.445 11.0352 C 134.082 11.0352 135.791 9.32617 135.791 6.68945 L 135.791 -22.6562 C 135.791 -32.5195 130.371 -37.793 120.41 -37.793 L 27.832 -37.793 C 17.8711 -37.793 12.4512 -32.5195 12.4512 -22.6562 Z"/>
  </g>
  <g id="Semibold-M" transform="matrix(1 0 0 1 1970.15 1126)">
   <path d="M 24.1699 -44.5801 L 36.6211 -44.5801 L 36.6211 -50.8301 C 36.6211 -55.3711 39.1602 -57.8613 43.7988 -57.8613 L 60.9375 -57.8613 C 65.5762 -57.8613 68.1152 -55.3711 68.1152 -50.8301 L 68.1152 -44.5801 L 78.5156 -44.5801 L 78.5156 -50.8301 C 78.5156 -55.3711 81.0547 -57.8613 85.8887 -57.8613 L 102.246 -57.8613 C 107.08 -57.8613 109.619 -55.3711 109.619 -50.8301 L 109.619 -44.5801 L 122.07 -44.5801 L 122.07 -57.9102 C 122.07 -66.9434 117.236 -71.6309 108.35 -71.6309 L 37.9395 -71.6309 C 29.0527 -71.6309 24.1699 -66.9434 24.1699 -57.9102 Z M 12.4512 6.39648 C 12.4512 8.93555 14.1602 10.5469 16.6504 10.5469 L 19.6289 10.5469 C 22.1191 10.5469 23.8281 8.93555 23.8281 6.39648 L 23.8281 -0.195312 C 24.3652 -0.0488281 26.0742 0.0488281 27.2949 0.0488281 L 118.945 0.0488281 C 120.215 0.0488281 121.924 -0.0488281 122.461 -0.195312 L 122.461 6.39648 C 122.461 8.93555 124.121 10.5469 126.66 10.5469 L 129.59 10.5469 C 132.129 10.5469 133.789 8.93555 133.789 6.39648 L 133.789 -22.4121 C 133.789 -31.8848 128.564 -37.0117 118.994 -37.0117 L 27.2949 -37.0117 C 17.7246 -37.0117 12.4512 -31.8848 12.4512 -22.4121 Z"/>
  </g>
  <g id="Medium-M" transform="matrix(1 0 0 1 1674.19 1126)">
   <path d="M 23.9258 -43.6035 L 36.084 -43.6035 L 36.084 -50.0488 C 36.084 -54.4922 38.5742 -56.9336 43.1152 -56.9336 L 60.3516 -56.9336 C 64.8926 -56.9336 67.3828 -54.4922 67.3828 -50.0488 L 67.3828 -43.6035 L 77.832 -43.6035 L 77.832 -50.0488 C 77.832 -54.4922 80.3223 -56.9336 85.0586 -56.9336 L 101.416 -56.9336 C 106.152 -56.9336 108.643 -54.4922 108.643 -50.0488 L 108.643 -43.6035 L 120.85 -43.6035 L 120.85 -56.9336 C 120.85 -65.7715 116.064 -70.3613 107.422 -70.3613 L 37.3535 -70.3613 C 28.6621 -70.3613 23.9258 -65.7715 23.9258 -56.9336 Z M 12.4512 6.15234 C 12.4512 8.59375 14.0625 10.2051 16.5527 10.2051 L 19.4336 10.2051 C 21.875 10.2051 23.5352 8.59375 23.5352 6.15234 L 23.5352 -0.585938 C 24.0723 -0.439453 25.6836 -0.341797 26.9043 -0.341797 L 117.871 -0.341797 C 119.043 -0.341797 120.703 -0.439453 121.24 -0.585938 L 121.24 6.15234 C 121.24 8.59375 122.852 10.2051 125.342 10.2051 L 128.174 10.2051 C 130.664 10.2051 132.275 8.59375 132.275 6.15234 L 132.275 -22.2168 C 132.275 -31.4453 127.197 -36.4258 117.871 -36.4258 L 26.8555 -36.4258 C 17.5781 -36.4258 12.4512 -31.4453 12.4512 -22.2168 Z"/>
  </g>
  <g id="Regular-M" transform="matrix(1 0 0 1 1378.46 1126)">
   <path d="M 23.584 -42.334 L 35.4004 -42.334 L 35.4004 -49.0234 C 35.4004 -53.3691 37.8418 -55.7129 42.1875 -55.7129 L 59.5703 -55.7129 C 63.9648 -55.7129 66.3574 -53.3691 66.3574 -49.0234 L 66.3574 -42.334 L 76.9531 -42.334 L 76.9531 -49.0234 C 76.9531 -53.3691 79.3457 -55.7129 83.9844 -55.7129 L 100.293 -55.7129 C 104.932 -55.7129 107.373 -53.3691 107.373 -49.0234 L 107.373 -42.334 L 119.189 -42.334 L 119.189 -55.6641 C 119.189 -64.3066 114.6 -68.7012 106.201 -68.7012 L 36.5723 -68.7012 C 28.1738 -68.7012 23.584 -64.3066 23.584 -55.6641 Z M 12.4512 5.81055 C 12.4512 8.20312 14.0137 9.7168 16.4062 9.7168 L 19.1895 9.7168 C 21.582 9.7168 23.1445 8.20312 23.1445 5.81055 L 23.1445 -1.12305 C 23.6816 -0.976562 25.1953 -0.878906 26.3184 -0.878906 L 116.455 -0.878906 C 117.529 -0.878906 119.092 -0.976562 119.629 -1.12305 L 119.629 5.81055 C 119.629 8.20312 121.191 9.7168 123.584 9.7168 L 126.318 9.7168 C 128.76 9.7168 130.322 8.20312 130.322 5.81055 L 130.322 -21.9727 C 130.322 -30.8105 125.391 -35.6445 116.455 -35.6445 L 26.3184 -35.6445 C 17.3828 -35.6445 12.4512 -30.8105 12.4512 -21.9727 Z"/>
  </g>
  <g id="Light-M" transform="matrix(1 0 0 1 1082.92 1126)">
   <path d="M 23.584 -40.332 L 34.6191 -40.332 L 34.6191 -46.4355 C 34.6191 -50.5371 37.0117 -52.9297 41.1133 -52.9297 L 59.1309 -52.9297 C 63.2324 -52.9297 65.625 -50.5371 65.625 -46.4355 L 65.625 -40.332 L 75.9766 -40.332 L 75.9766 -46.4355 C 75.9766 -50.5371 78.418 -52.9297 83.1055 -52.9297 L 98.7305 -52.9297 C 103.369 -52.9297 105.811 -50.5371 105.811 -46.4355 L 105.811 -40.332 L 116.797 -40.332 L 116.797 -53.2227 C 116.797 -61.4258 112.5 -65.4297 104.98 -65.4297 L 35.4492 -65.4297 C 27.9297 -65.4297 23.584 -61.4258 23.584 -53.2227 Z M 12.4512 6.20117 C 12.4512 8.39844 13.8184 9.7168 16.0156 9.7168 L 18.5059 9.7168 C 20.7031 9.7168 22.0703 8.39844 22.0703 6.20117 L 22.0703 -1.02539 C 22.5098 -0.927734 23.6816 -0.878906 24.5605 -0.878906 L 115.869 -0.878906 C 116.748 -0.878906 117.871 -0.927734 118.359 -1.02539 L 118.359 6.20117 C 118.359 8.39844 119.727 9.7168 121.924 9.7168 L 124.365 9.7168 C 126.611 9.7168 127.979 8.39844 127.979 6.20117 L 127.979 -22.6074 C 127.979 -30.2246 123.535 -34.6191 115.918 -34.6191 L 24.5117 -34.6191 C 16.8945 -34.6191 12.4512 -30.2246 12.4512 -22.6074 Z"/>
  </g>
  <g id="Thin-M" transform="matrix(1 0 0 1 787.77 1126)">
   <path d="M 23.6328 -37.6465 L 33.5449 -37.6465 L 33.5449 -43.0176 C 33.5449 -46.875 35.8887 -49.2676 39.6484 -49.2676 L 58.5449 -49.2676 C 62.2559 -49.2676 64.6484 -46.875 64.6484 -43.0176 L 64.6484 -37.6465 L 74.7559 -37.6465 L 74.7559 -43.0176 C 74.7559 -46.875 77.1484 -49.2676 81.8848 -49.2676 L 96.6309 -49.2676 C 101.367 -49.2676 103.76 -46.875 103.76 -43.0176 L 103.76 -37.6465 L 113.672 -37.6465 L 113.672 -50.0488 C 113.672 -57.666 109.717 -61.1328 103.369 -61.1328 L 33.9355 -61.1328 C 27.5879 -61.1328 23.6328 -57.666 23.6328 -50.0488 Z M 12.4512 6.68945 C 12.4512 8.69141 13.5254 9.7168 15.5273 9.7168 L 17.627 9.7168 C 19.5312 9.7168 20.6055 8.69141 20.6055 6.68945 L 20.6055 -0.976562 C 20.9961 -0.878906 21.6309 -0.878906 22.2168 -0.878906 L 115.088 -0.878906 C 115.674 -0.878906 116.309 -0.878906 116.699 -0.976562 L 116.699 6.68945 C 116.699 8.69141 117.773 9.7168 119.678 9.7168 L 121.777 9.7168 C 123.779 9.7168 124.854 8.69141 124.854 6.68945 L 124.854 -23.4375 C 124.854 -29.4922 121.094 -33.3008 115.186 -33.3008 L 22.1191 -33.3008 C 16.2109 -33.3008 12.4512 -29.4922 12.4512 -23.4375 Z"/>
  </g>
  <g id="Ultralight-M" transform="matrix(1 0 0 1 491.864 1126)">
   <path d="M 23.6816 -36.2793 L 32.959 -36.2793 L 32.959 -41.3086 C 32.959 -44.9707 35.3516 -47.3633 38.8672 -47.3633 L 58.252 -47.3633 C 61.7676 -47.3633 64.1602 -44.9707 64.1602 -41.3086 L 64.1602 -36.2793 L 74.1211 -36.2793 L 74.1211 -41.3086 C 74.1211 -44.9707 76.5137 -47.3633 81.25 -47.3633 L 95.5566 -47.3633 C 100.293 -47.3633 102.734 -44.9707 102.734 -41.3086 L 102.734 -36.2793 L 112.061 -36.2793 L 112.061 -48.3887 C 112.061 -55.7129 108.301 -58.9355 102.588 -58.9355 L 33.1543 -58.9355 C 27.3926 -58.9355 23.6816 -55.7129 23.6816 -48.3887 Z M 12.4512 6.93359 C 12.4512 8.83789 13.3789 9.7168 15.2344 9.7168 L 17.1387 9.7168 C 18.9453 9.7168 19.873 8.83789 19.873 6.93359 L 19.873 -0.927734 C 20.2637 -0.878906 20.6055 -0.878906 20.9961 -0.878906 L 114.697 -0.878906 C 115.137 -0.878906 115.479 -0.878906 115.82 -0.927734 L 115.82 6.93359 C 115.82 8.83789 116.748 9.7168 118.555 9.7168 L 120.459 9.7168 C 122.314 9.7168 123.242 8.83789 123.242 6.93359 L 123.242 -23.877 C 123.242 -29.1016 119.873 -32.5684 114.844 -32.5684 L 20.8984 -32.5684 C 15.8691 -32.5684 12.4512 -29.1016 12.4512 -23.877 Z"/>
  </g>
  <g id="Black-S" transform="matrix(1 0 0 1 2873.24 696)">
   <path d="M 19.9219 -46.1914 L 30.7129 -46.1914 L 30.7129 -50.3418 C 30.7129 -54.3457 32.8613 -56.4453 36.9629 -56.4453 L 49.9512 -56.4453 C 54.0527 -56.4453 56.2012 -54.3457 56.2012 -50.3418 L 56.2012 -46.1914 L 64.1113 -46.1914 L 64.1113 -50.3418 C 64.1113 -54.3457 66.2598 -56.4453 70.3613 -56.4453 L 83.3496 -56.4453 C 87.4512 -56.4453 89.5996 -54.3457 89.5996 -50.3418 L 89.5996 -46.1914 L 100.391 -46.1914 L 100.391 -56.6895 C 100.391 -64.4043 96.1914 -68.5059 88.3789 -68.5059 L 31.9336 -68.5059 C 24.1211 -68.5059 19.9219 -64.4043 19.9219 -56.6895 Z M 9.76562 -1.70898 C 9.76562 0.488281 11.2793 1.95312 13.4766 1.95312 L 16.0645 1.95312 C 18.2617 1.95312 19.7754 0.488281 19.7754 -1.70898 L 19.7754 -6.34766 C 20.2148 -6.20117 21.8262 -6.10352 22.998 -6.10352 L 97.3145 -6.10352 C 98.4863 -6.10352 100.098 -6.20117 100.537 -6.34766 L 100.537 -1.70898 C 100.537 0.488281 102.051 1.95312 104.248 1.95312 L 106.836 1.95312 C 109.033 1.95312 110.547 0.488281 110.547 -1.70898 L 110.547 -25.8789 C 110.547 -34.375 105.908 -38.8672 97.3145 -38.8672 L 22.998 -38.8672 C 14.4043 -38.8672 9.76562 -34.375 9.76562 -25.8789 Z"/>
  </g>
  <g id="Heavy-S" transform="matrix(1 0 0 1 2577.39 696)">
   <path d="M 19.5801 -45.166 L 30.127 -45.166 L 30.127 -49.6094 C 30.127 -53.5156 32.1777 -55.5664 36.1816 -55.5664 L 49.2188 -55.5664 C 53.2227 -55.5664 55.3223 -53.5156 55.3223 -49.6094 L 55.3223 -45.166 L 63.3301 -45.166 L 63.3301 -49.6094 C 63.3301 -53.5156 65.4297 -55.5664 69.3848 -55.5664 L 82.4219 -55.5664 C 86.377 -55.5664 88.4766 -53.5156 88.4766 -49.6094 L 88.4766 -45.166 L 99.0234 -45.166 L 99.0234 -55.6641 C 99.0234 -63.2324 94.9219 -67.1875 87.3047 -67.1875 L 31.2988 -67.1875 C 23.6816 -67.1875 19.5801 -63.2324 19.5801 -55.6641 Z M 9.76562 -2.09961 C 9.76562 0.0488281 11.2305 1.51367 13.3789 1.51367 L 15.918 1.51367 C 18.0664 1.51367 19.5312 0.0488281 19.5312 -2.09961 L 19.5312 -6.88477 C 19.9707 -6.73828 21.5332 -6.64062 22.6562 -6.64062 L 95.9473 -6.64062 C 97.0703 -6.64062 98.6328 -6.73828 99.0723 -6.88477 L 99.0723 -2.09961 C 99.0723 0.0488281 100.537 1.51367 102.686 1.51367 L 105.225 1.51367 C 107.373 1.51367 108.838 0.0488281 108.838 -2.09961 L 108.838 -25.5371 C 108.838 -33.8379 104.297 -38.1836 95.9473 -38.1836 L 22.6562 -38.1836 C 14.2578 -38.1836 9.76562 -33.8379 9.76562 -25.5371 Z"/>
  </g>
  <g id="Bold-S" transform="matrix(1 0 0 1 2281.65 696)">
   <path d="M 19.1895 -43.9941 L 29.4434 -43.9941 L 29.4434 -48.8281 C 29.4434 -52.5879 31.4453 -54.541 35.3027 -54.541 L 48.4375 -54.541 C 52.2461 -54.541 54.2969 -52.5879 54.2969 -48.8281 L 54.2969 -43.9941 L 62.4512 -43.9941 L 62.4512 -48.8281 C 62.4512 -52.5879 64.4531 -54.541 68.3105 -54.541 L 81.3477 -54.541 C 85.2051 -54.541 87.2559 -52.5879 87.2559 -48.8281 L 87.2559 -43.9941 L 97.4609 -43.9941 L 97.4609 -54.541 C 97.4609 -61.8652 93.5059 -65.7715 86.084 -65.7715 L 30.5664 -65.7715 C 23.1934 -65.7715 19.1895 -61.8652 19.1895 -54.541 Z M 9.76562 -2.49023 C 9.76562 -0.390625 11.1816 0.976562 13.2812 0.976562 L 15.7227 0.976562 C 17.8223 0.976562 19.2383 -0.390625 19.2383 -2.49023 L 19.2383 -7.42188 C 19.6777 -7.27539 21.1914 -7.22656 22.2656 -7.22656 L 94.4336 -7.22656 C 95.5078 -7.22656 97.0215 -7.27539 97.4609 -7.42188 L 97.4609 -2.49023 C 97.4609 -0.390625 98.877 0.976562 100.928 0.976562 L 103.369 0.976562 C 105.469 0.976562 106.885 -0.390625 106.885 -2.49023 L 106.885 -25.1953 C 106.885 -33.2031 102.539 -37.4512 94.4336 -37.4512 L 22.2656 -37.4512 C 14.1602 -37.4512 9.76562 -33.2031 9.76562 -25.1953 Z"/>
  </g>
  <g id="Semibold-S" transform="matrix(1 0 0 1 1985.6 696)">
   <path d="M 18.9453 -43.1641 L 28.9551 -43.1641 L 28.9551 -48.291 C 28.9551 -51.9043 30.957 -53.8574 34.668 -53.8574 L 47.8516 -53.8574 C 51.6113 -53.8574 53.6133 -51.9043 53.6133 -48.291 L 53.6133 -43.1641 L 61.8164 -43.1641 L 61.8164 -48.291 C 61.8164 -51.9043 63.8184 -53.8574 67.5781 -53.8574 L 80.6152 -53.8574 C 84.375 -53.8574 86.377 -51.9043 86.377 -48.291 L 86.377 -43.1641 L 96.3867 -43.1641 L 96.3867 -53.7598 C 96.3867 -60.9863 92.5293 -64.7461 85.2539 -64.7461 L 30.0781 -64.7461 C 22.8516 -64.7461 18.9453 -60.9863 18.9453 -53.7598 Z M 9.76562 -2.7832 C 9.76562 -0.732422 11.1328 0.634766 13.1836 0.634766 L 15.5762 0.634766 C 17.627 0.634766 19.043 -0.732422 19.043 -2.7832 L 19.043 -7.86133 C 19.4824 -7.71484 20.9473 -7.61719 21.9727 -7.61719 L 93.3594 -7.61719 C 94.3848 -7.61719 95.8496 -7.71484 96.2891 -7.86133 L 96.2891 -2.7832 C 96.2891 -0.732422 97.7051 0.634766 99.7559 0.634766 L 102.148 0.634766 C 104.199 0.634766 105.566 -0.732422 105.566 -2.7832 L 105.566 -24.9512 C 105.566 -32.7637 101.27 -36.9629 93.3594 -36.9629 L 21.9727 -36.9629 C 14.0625 -36.9629 9.76562 -32.7637 9.76562 -24.9512 Z"/>
  </g>
  <g id="Medium-S" transform="matrix(1 0 0 1 1689.4 696)">
   <path d="M 18.7012 -42.5781 L 28.6133 -42.5781 L 28.6133 -47.8516 C 28.6133 -51.416 30.5664 -53.3203 34.2285 -53.3203 L 47.4609 -53.3203 C 51.123 -53.3203 53.0762 -51.416 53.0762 -47.8516 L 53.0762 -42.5781 L 61.3281 -42.5781 L 61.3281 -47.8516 C 61.3281 -51.416 63.2812 -53.3203 66.9922 -53.3203 L 80.0781 -53.3203 C 83.7891 -53.3203 85.7422 -51.416 85.7422 -47.8516 L 85.7422 -42.5781 L 95.6055 -42.5781 L 95.6055 -53.1738 C 95.6055 -60.2539 91.748 -64.0137 84.6191 -64.0137 L 29.6875 -64.0137 C 22.5586 -64.0137 18.7012 -60.2539 18.7012 -53.1738 Z M 9.76562 -2.97852 C 9.76562 -0.976562 11.1328 0.341797 13.1348 0.341797 L 15.4785 0.341797 C 17.5293 0.341797 18.8965 -0.976562 18.8965 -2.97852 L 18.8965 -8.1543 C 19.2871 -8.00781 20.752 -7.91016 21.7773 -7.91016 L 92.5781 -7.91016 C 93.5547 -7.91016 95.0195 -8.00781 95.459 -8.1543 L 95.459 -2.97852 C 95.459 -0.976562 96.8262 0.341797 98.8281 0.341797 L 101.172 0.341797 C 103.174 0.341797 104.541 -0.976562 104.541 -2.97852 L 104.541 -24.7559 C 104.541 -32.4707 100.342 -36.5723 92.5781 -36.5723 L 21.7773 -36.5723 C 13.9648 -36.5723 9.76562 -32.4707 9.76562 -24.7559 Z"/>
  </g>
  <g id="Regular-S" transform="matrix(1 0 0 1 1393.33 696)">
   <path d="M 18.457 -41.7969 L 28.125 -41.7969 L 28.125 -47.3145 C 28.125 -50.7812 30.0293 -52.6367 33.5938 -52.6367 L 46.9238 -52.6367 C 50.4883 -52.6367 52.3926 -50.7812 52.3926 -47.3145 L 52.3926 -41.7969 L 60.7422 -41.7969 L 60.7422 -47.3145 C 60.7422 -50.7812 62.6465 -52.6367 66.2598 -52.6367 L 79.3457 -52.6367 C 82.959 -52.6367 84.8633 -50.7812 84.8633 -47.3145 L 84.8633 -41.7969 L 94.5312 -41.7969 L 94.5312 -52.3926 C 94.5312 -59.375 90.7715 -63.0371 83.7891 -63.0371 L 29.1992 -63.0371 C 22.2168 -63.0371 18.457 -59.375 18.457 -52.3926 Z M 9.76562 -3.27148 C 9.76562 -1.26953 11.084 0 13.0859 0 L 15.3809 0 C 17.334 0 18.7012 -1.26953 18.7012 -3.27148 L 18.7012 -8.54492 C 19.0918 -8.39844 20.5078 -8.30078 21.4844 -8.30078 L 91.5039 -8.30078 C 92.4805 -8.30078 93.8965 -8.39844 94.3359 -8.54492 L 94.3359 -3.27148 C 94.3359 -1.26953 95.6543 0 97.6562 0 L 99.9512 0 C 101.904 0 103.271 -1.26953 103.271 -3.27148 L 103.271 -24.5117 C 103.271 -32.0312 99.1211 -36.084 91.5039 -36.084 L 21.4844 -36.084 C 13.8672 -36.084 9.76562 -32.0312 9.76562 -24.5117 Z"/>
  </g>
  <g id="Light-S" transform="matrix(1 0 0 1 1097.66 696)">
   <path d="M 18.5059 -39.9902 L 27.4414 -39.9902 L 27.4414 -45.0195 C 27.4414 -48.291 29.2969 -50.1953 32.6172 -50.1953 L 46.4844 -50.1953 C 49.8047 -50.1953 51.709 -48.291 51.709 -45.0195 L 51.709 -39.9902 L 59.9121 -39.9902 L 59.9121 -45.0195 C 59.9121 -48.291 61.8164 -50.1953 65.4785 -50.1953 L 77.9297 -50.1953 C 81.5918 -50.1953 83.4961 -48.291 83.4961 -45.0195 L 83.4961 -39.9902 L 92.4316 -39.9902 L 92.4316 -50.2441 C 92.4316 -56.8359 88.9648 -60.1562 82.7148 -60.1562 L 28.2227 -60.1562 C 21.9727 -60.1562 18.5059 -56.8359 18.5059 -50.2441 Z M 9.76562 -2.92969 C 9.76562 -1.12305 10.8887 0 12.7441 0 L 14.7949 0 C 16.5527 0 17.7246 -1.12305 17.7246 -2.92969 L 17.7246 -8.49609 C 18.1152 -8.34961 19.1406 -8.30078 19.9219 -8.30078 L 91.0156 -8.30078 C 91.7969 -8.30078 92.8223 -8.34961 93.2129 -8.49609 L 93.2129 -2.92969 C 93.2129 -1.12305 94.3848 0 96.1426 0 L 98.1934 0 C 100 0 101.172 -1.12305 101.172 -2.92969 L 101.172 -25.0977 C 101.172 -31.543 97.5098 -35.1562 91.0156 -35.1562 L 19.9219 -35.1562 C 13.4277 -35.1562 9.76562 -31.543 9.76562 -25.0977 Z"/>
  </g>
  <g id="Thin-S" transform="matrix(1 0 0 1 802.321 696)">
   <path d="M 18.5059 -37.6465 L 26.4648 -37.6465 L 26.4648 -41.9922 C 26.4648 -45.0195 28.3691 -46.9238 31.3477 -46.9238 L 45.9961 -46.9238 C 48.9746 -46.9238 50.8301 -45.0195 50.8301 -41.9922 L 50.8301 -37.6465 L 58.7891 -37.6465 L 58.7891 -41.9922 C 58.7891 -45.0195 60.6934 -46.9238 64.4043 -46.9238 L 76.123 -46.9238 C 79.7852 -46.9238 81.6895 -45.0195 81.6895 -41.9922 L 81.6895 -37.6465 L 89.6484 -37.6465 L 89.6484 -47.4609 C 89.6484 -53.5156 86.5234 -56.3477 81.2988 -56.3477 L 26.8555 -56.3477 C 21.6797 -56.3477 18.5059 -53.5156 18.5059 -47.4609 Z M 9.76562 -2.49023 C 9.76562 -0.878906 10.6445 0 12.2559 0 L 13.9648 0 C 15.5273 0 16.4551 -0.878906 16.4551 -2.49023 L 16.4551 -8.39844 C 16.748 -8.34961 17.334 -8.30078 17.8711 -8.30078 L 90.332 -8.30078 C 90.8203 -8.30078 91.4062 -8.34961 91.748 -8.39844 L 91.748 -2.49023 C 91.748 -0.878906 92.627 0 94.1895 0 L 95.9473 0 C 97.5098 0 98.4375 -0.878906 98.4375 -2.49023 L 98.4375 -25.8301 C 98.4375 -30.9082 95.3613 -33.9844 90.3809 -33.9844 L 17.7734 -33.9844 C 12.8418 -33.9844 9.76562 -30.9082 9.76562 -25.8301 Z"/>
  </g>
  <g id="Ultralight-S" transform="matrix(1 0 0 1 506.318 696)">
   <path d="M 18.5547 -36.4258 L 25.9766 -36.4258 L 25.9766 -40.4297 C 25.9766 -43.3594 27.832 -45.2637 30.6641 -45.2637 L 45.7031 -45.2637 C 48.5352 -45.2637 50.3906 -43.3594 50.3906 -40.4297 L 50.3906 -36.4258 L 58.252 -36.4258 L 58.252 -40.4297 C 58.252 -43.3594 60.1562 -45.2637 63.8672 -45.2637 L 75.1465 -45.2637 C 78.8574 -45.2637 80.7617 -43.3594 80.7617 -40.4297 L 80.7617 -36.4258 L 88.2324 -36.4258 L 88.2324 -45.9961 C 88.2324 -51.8066 85.2539 -54.3945 80.5664 -54.3945 L 26.1719 -54.3945 C 21.5332 -54.3945 18.5547 -51.8066 18.5547 -45.9961 Z M 9.76562 -2.24609 C 9.76562 -0.78125 10.5469 0 12.0117 0 L 13.5742 0 C 14.9902 0 15.7715 -0.78125 15.7715 -2.24609 L 15.7715 -8.34961 C 16.0645 -8.30078 16.4062 -8.30078 16.7969 -8.30078 L 89.9902 -8.30078 C 90.332 -8.30078 90.6738 -8.30078 91.0156 -8.34961 L 91.0156 -2.24609 C 91.0156 -0.78125 91.748 0 93.2129 0 L 94.7754 0 C 96.2402 0 97.0215 -0.78125 97.0215 -2.24609 L 97.0215 -26.2207 C 97.0215 -30.5664 94.2383 -33.3496 90.0879 -33.3496 L 16.6992 -33.3496 C 12.5 -33.3496 9.76562 -30.5664 9.76562 -26.2207 Z"/>
  </g>
 </g>
</svg>
