<?xml version="1.0" encoding="UTF-8"?>
<!--Generator: Apple Native CoreSVG 123-->
<!DOCTYPE svg
PUBLIC "-//W3C//DTD SVG 1.1//EN"
       "http://www.w3.org/Graphics/SVG/1.1/DTD/svg11.dtd">
<svg version="1.1" xmlns="http://www.w3.org/2000/svg" xmlns:xlink="http://www.w3.org/1999/xlink" width="3300" height="2200">
 <!--glyph: "uni100601.medium", point size: 100.000000, font version: "Version 15.0d7e11", template writer version: "5"-->
 <g id="Notes">
  <rect height="2200" id="artboard" style="fill:white;opacity:1" width="3300" x="0" y="0"/>
  <line id="" style="fill:none;stroke:black;opacity:1;stroke-width:0.5;" x1="263" x2="3036" y1="292" y2="292"/>
  <text style="stroke:none;fill:black;font-family:-apple-system,&quot;SF Pro Display&quot;,&quot;SF Pro Text&quot;,Helvetica,sans-serif;font-weight:bold;" transform="matrix(1 0 0 1 263 322)">Weight/Scale Variations</text>
  <text style="stroke:none;fill:black;font-family:-apple-system,&quot;SF Pro Display&quot;,&quot;SF Pro Text&quot;,Helvetica,sans-serif;text-anchor:middle;" transform="matrix(1 0 0 1 559.711 322)">Ultralight</text>
  <text style="stroke:none;fill:black;font-family:-apple-system,&quot;SF Pro Display&quot;,&quot;SF Pro Text&quot;,Helvetica,sans-serif;text-anchor:middle;" transform="matrix(1 0 0 1 856.422 322)">Thin</text>
  <text style="stroke:none;fill:black;font-family:-apple-system,&quot;SF Pro Display&quot;,&quot;SF Pro Text&quot;,Helvetica,sans-serif;text-anchor:middle;" transform="matrix(1 0 0 1 1153.13 322)">Light</text>
  <text style="stroke:none;fill:black;font-family:-apple-system,&quot;SF Pro Display&quot;,&quot;SF Pro Text&quot;,Helvetica,sans-serif;text-anchor:middle;" transform="matrix(1 0 0 1 1449.84 322)">Regular</text>
  <text style="stroke:none;fill:black;font-family:-apple-system,&quot;SF Pro Display&quot;,&quot;SF Pro Text&quot;,Helvetica,sans-serif;text-anchor:middle;" transform="matrix(1 0 0 1 1746.56 322)">Medium</text>
  <text style="stroke:none;fill:black;font-family:-apple-system,&quot;SF Pro Display&quot;,&quot;SF Pro Text&quot;,Helvetica,sans-serif;text-anchor:middle;" transform="matrix(1 0 0 1 2043.27 322)">Semibold</text>
  <text style="stroke:none;fill:black;font-family:-apple-system,&quot;SF Pro Display&quot;,&quot;SF Pro Text&quot;,Helvetica,sans-serif;text-anchor:middle;" transform="matrix(1 0 0 1 2339.98 322)">Bold</text>
  <text style="stroke:none;fill:black;font-family:-apple-system,&quot;SF Pro Display&quot;,&quot;SF Pro Text&quot;,Helvetica,sans-serif;text-anchor:middle;" transform="matrix(1 0 0 1 2636.69 322)">Heavy</text>
  <text style="stroke:none;fill:black;font-family:-apple-system,&quot;SF Pro Display&quot;,&quot;SF Pro Text&quot;,Helvetica,sans-serif;text-anchor:middle;" transform="matrix(1 0 0 1 2933.4 322)">Black</text>
  <line id="" style="fill:none;stroke:black;opacity:1;stroke-width:0.5;" x1="263" x2="3036" y1="1903" y2="1903"/>
  <g id="" transform="matrix(1 0 0 1 263 1933)">
   <path d="M 9.24805 0.830078 C 13.5547 0.830078 17.1387 -2.74414 17.1387 -7.05078 C 17.1387 -11.3574 13.5449 -14.9316 9.23828 -14.9316 C 4.94141 -14.9316 1.36719 -11.3574 1.36719 -7.05078 C 1.36719 -2.74414 4.95117 0.830078 9.24805 0.830078 Z M 9.24805 -0.654297 C 5.70312 -0.654297 2.87109 -3.49609 2.87109 -7.05078 C 2.87109 -10.6055 5.69336 -13.4473 9.23828 -13.4473 C 12.793 -13.4473 15.6348 -10.6055 15.6445 -7.05078 C 15.6543 -3.49609 12.8027 -0.654297 9.24805 -0.654297 Z M 9.22852 -3.42773 C 9.69727 -3.42773 9.9707 -3.74023 9.9707 -4.25781 L 9.9707 -6.31836 L 12.1973 -6.31836 C 12.6953 -6.31836 13.0371 -6.57227 13.0371 -7.04102 C 13.0371 -7.51953 12.7148 -7.7832 12.1973 -7.7832 L 9.9707 -7.7832 L 9.9707 -10.0098 C 9.9707 -10.5273 9.69727 -10.8496 9.22852 -10.8496 C 8.75977 -10.8496 8.50586 -10.5078 8.50586 -10.0098 L 8.50586 -7.7832 L 6.29883 -7.7832 C 5.78125 -7.7832 5.44922 -7.51953 5.44922 -7.04102 C 5.44922 -6.57227 5.80078 -6.31836 6.29883 -6.31836 L 8.50586 -6.31836 L 8.50586 -4.25781 C 8.50586 -3.75977 8.75977 -3.42773 9.22852 -3.42773 Z"/>
  </g>
  <g id="" transform="matrix(1 0 0 1 281.506 1933)">
   <path d="M 11.709 2.91016 C 17.1582 2.91016 21.6699 -1.60156 21.6699 -7.05078 C 21.6699 -12.4902 17.1484 -17.0117 11.6992 -17.0117 C 6.25977 -17.0117 1.74805 -12.4902 1.74805 -7.05078 C 1.74805 -1.60156 6.26953 2.91016 11.709 2.91016 Z M 11.709 1.25 C 7.09961 1.25 3.41797 -2.44141 3.41797 -7.05078 C 3.41797 -11.6504 7.08984 -15.3516 11.6992 -15.3516 C 16.3086 -15.3516 20 -11.6504 20.0098 -7.05078 C 20.0195 -2.44141 16.3184 1.25 11.709 1.25 Z M 11.6895 -2.41211 C 12.207 -2.41211 12.5195 -2.77344 12.5195 -3.33984 L 12.5195 -6.23047 L 15.5762 -6.23047 C 16.123 -6.23047 16.5039 -6.51367 16.5039 -7.03125 C 16.5039 -7.55859 16.1426 -7.86133 15.5762 -7.86133 L 12.5195 -7.86133 L 12.5195 -10.9277 C 12.5195 -11.5039 12.207 -11.8555 11.6895 -11.8555 C 11.1719 -11.8555 10.8789 -11.4844 10.8789 -10.9277 L 10.8789 -7.86133 L 7.83203 -7.86133 C 7.26562 -7.86133 6.89453 -7.55859 6.89453 -7.03125 C 6.89453 -6.51367 7.28516 -6.23047 7.83203 -6.23047 L 10.8789 -6.23047 L 10.8789 -3.33984 C 10.8789 -2.79297 11.1719 -2.41211 11.6895 -2.41211 Z"/>
  </g>
  <g id="" transform="matrix(1 0 0 1 304.924 1933)">
   <path d="M 14.9707 5.67383 C 21.9336 5.67383 27.6953 -0.078125 27.6953 -7.04102 C 27.6953 -14.0039 21.9238 -19.7559 14.9609 -19.7559 C 8.00781 -19.7559 2.25586 -14.0039 2.25586 -7.04102 C 2.25586 -0.078125 8.01758 5.67383 14.9707 5.67383 Z M 14.9707 3.85742 C 8.93555 3.85742 4.08203 -1.00586 4.08203 -7.04102 C 4.08203 -13.0762 8.92578 -17.9395 14.9609 -17.9395 C 21.0059 -17.9395 25.8594 -13.0762 25.8691 -7.04102 C 25.8789 -1.00586 21.0156 3.85742 14.9707 3.85742 Z M 14.9512 -1.06445 C 15.5176 -1.06445 15.8691 -1.45508 15.8691 -2.06055 L 15.8691 -6.13281 L 20.1074 -6.13281 C 20.6934 -6.13281 21.1133 -6.46484 21.1133 -7.02148 C 21.1133 -7.59766 20.7227 -7.93945 20.1074 -7.93945 L 15.8691 -7.93945 L 15.8691 -12.1875 C 15.8691 -12.8027 15.5176 -13.1934 14.9512 -13.1934 C 14.3848 -13.1934 14.0625 -12.7832 14.0625 -12.1875 L 14.0625 -7.93945 L 9.83398 -7.93945 C 9.21875 -7.93945 8.80859 -7.59766 8.80859 -7.02148 C 8.80859 -6.46484 9.23828 -6.13281 9.83398 -6.13281 L 14.0625 -6.13281 L 14.0625 -2.06055 C 14.0625 -1.47461 14.3848 -1.06445 14.9512 -1.06445 Z"/>
  </g>
  <text style="stroke:none;fill:black;font-family:-apple-system,&quot;SF Pro Display&quot;,&quot;SF Pro Text&quot;,Helvetica,sans-serif;font-weight:bold;" transform="matrix(1 0 0 1 263 1953)">Design Variations</text>
  <text style="stroke:none;fill:black;font-family:-apple-system,&quot;SF Pro Display&quot;,&quot;SF Pro Text&quot;,Helvetica,sans-serif;" transform="matrix(1 0 0 1 263 1971)">Symbols are supported in up to nine weights and three scales.</text>
  <text style="stroke:none;fill:black;font-family:-apple-system,&quot;SF Pro Display&quot;,&quot;SF Pro Text&quot;,Helvetica,sans-serif;" transform="matrix(1 0 0 1 263 1989)">For optimal layout with text and other symbols, vertically align</text>
  <text style="stroke:none;fill:black;font-family:-apple-system,&quot;SF Pro Display&quot;,&quot;SF Pro Text&quot;,Helvetica,sans-serif;" transform="matrix(1 0 0 1 263 2007)">symbols with the adjacent text.</text>
  <rect height="14" id="" style="fill:#00AEEF;stroke:none;opacity:0.4;" width="3" x="776" y="1919"/>
  <g id="" transform="matrix(1 0 0 1 779 1933)">
   <path d="M 10.5273 0 L 12.373 0 L 7.17773 -14.0918 L 5.43945 -14.0918 L 0.244141 0 L 2.08984 0 L 3.50586 -4.0332 L 9.11133 -4.0332 Z M 6.2793 -11.9531 L 6.33789 -11.9531 L 8.59375 -5.52734 L 4.02344 -5.52734 Z"/>
  </g>
  <rect height="14" id="" style="fill:#00AEEF;stroke:none;opacity:0.4;" width="3" x="791.617" y="1919"/>
  <text style="stroke:none;fill:black;font-family:-apple-system,&quot;SF Pro Display&quot;,&quot;SF Pro Text&quot;,Helvetica,sans-serif;font-weight:bold;" transform="matrix(1 0 0 1 776 1953)">Margins</text>
  <text style="stroke:none;fill:black;font-family:-apple-system,&quot;SF Pro Display&quot;,&quot;SF Pro Text&quot;,Helvetica,sans-serif;" transform="matrix(1 0 0 1 776 1971)">Leading and trailing margins on the left and right side of each symbol</text>
  <text style="stroke:none;fill:black;font-family:-apple-system,&quot;SF Pro Display&quot;,&quot;SF Pro Text&quot;,Helvetica,sans-serif;" transform="matrix(1 0 0 1 776 1989)">can be adjusted by modifying the width of the blue rectangles.</text>
  <text style="stroke:none;fill:black;font-family:-apple-system,&quot;SF Pro Display&quot;,&quot;SF Pro Text&quot;,Helvetica,sans-serif;" transform="matrix(1 0 0 1 776 2007)">Modifications are automatically applied proportionally to all</text>
  <text style="stroke:none;fill:black;font-family:-apple-system,&quot;SF Pro Display&quot;,&quot;SF Pro Text&quot;,Helvetica,sans-serif;" transform="matrix(1 0 0 1 776 2025)">scales and weights.</text>
  <g id="" transform="matrix(1 0 0 1 1289 1933)">
   <path d="M 2.83203 3.11523 L 4.375 4.6582 C 5.22461 5.48828 6.19141 5.41992 7.06055 4.46289 L 17.2754 -6.66016 C 17.7051 -6.36719 18.0957 -6.37695 18.5645 -6.47461 L 19.6094 -6.68945 L 20.3027 -5.99609 L 20.2539 -5.47852 C 20.1855 -4.95117 20.3516 -4.53125 20.8496 -4.0332 L 21.6602 -3.22266 C 22.168 -2.71484 22.8223 -2.68555 23.3008 -3.16406 L 26.5527 -6.41602 C 27.0312 -6.89453 27.0117 -7.54883 26.5039 -8.05664 L 25.6836 -8.87695 C 25.1855 -9.375 24.7754 -9.55078 24.2383 -9.47266 L 23.7109 -9.41406 L 23.0566 -10.0781 L 23.3398 -11.2207 C 23.4863 -11.7871 23.3398 -12.2559 22.7148 -12.8613 L 20.3027 -15.2539 C 16.7578 -18.7793 12.2266 -18.6719 9.11133 -15.5371 C 8.69141 -15.1074 8.64258 -14.5215 8.91602 -14.0918 C 9.15039 -13.7207 9.62891 -13.4961 10.2734 -13.6621 C 11.7871 -14.043 13.3008 -13.9258 14.7852 -12.9199 L 14.1602 -11.3379 C 13.9258 -10.752 13.9453 -10.2734 14.1797 -9.83398 L 3.01758 0.439453 C 2.08008 1.30859 1.97266 2.25586 2.83203 3.11523 Z M 10.6738 -15.1465 C 13.3398 -17.1387 16.6504 -16.8262 19.0527 -14.4141 L 21.6797 -11.8066 C 21.9141 -11.5723 21.9434 -11.3867 21.8848 -11.0938 L 21.5039 -9.53125 L 23.0762 -7.95898 L 24.043 -8.04688 C 24.3262 -8.07617 24.4141 -8.05664 24.6387 -7.83203 L 25.2637 -7.20703 L 22.5098 -4.46289 L 21.8848 -5.07812 C 21.6602 -5.30273 21.6406 -5.40039 21.6699 -5.68359 L 21.7578 -6.64062 L 20.1953 -8.20312 L 18.5742 -7.89062 C 18.291 -7.83203 18.1445 -7.83203 17.9102 -8.07617 L 15.7324 -10.2539 C 15.5078 -10.4883 15.4785 -10.625 15.6055 -10.9473 L 16.5527 -13.2227 C 14.9512 -14.7559 12.8418 -15.6055 10.8008 -14.9512 C 10.7129 -14.9219 10.6445 -14.9414 10.6152 -14.9805 C 10.5859 -15.0293 10.5859 -15.0781 10.6738 -15.1465 Z M 4.10156 2.41211 C 3.61328 1.91406 3.78906 1.61133 4.12109 1.30859 L 15.0781 -8.80859 L 16.3086 -7.57812 L 6.15234 3.34961 C 5.84961 3.68164 5.46875 3.7793 5.06836 3.37891 Z"/>
  </g>
  <text style="stroke:none;fill:black;font-family:-apple-system,&quot;SF Pro Display&quot;,&quot;SF Pro Text&quot;,Helvetica,sans-serif;font-weight:bold;" transform="matrix(1 0 0 1 1289 1953)">Exporting</text>
  <text style="stroke:none;fill:black;font-family:-apple-system,&quot;SF Pro Display&quot;,&quot;SF Pro Text&quot;,Helvetica,sans-serif;" transform="matrix(1 0 0 1 1289 1971)">Symbols should be outlined when exporting to ensure the</text>
  <text style="stroke:none;fill:black;font-family:-apple-system,&quot;SF Pro Display&quot;,&quot;SF Pro Text&quot;,Helvetica,sans-serif;" transform="matrix(1 0 0 1 1289 1989)">design is preserved when submitting to Xcode.</text>
  <text id="template-version" style="stroke:none;fill:black;font-family:-apple-system,&quot;SF Pro Display&quot;,&quot;SF Pro Text&quot;,Helvetica,sans-serif;text-anchor:end;" transform="matrix(1 0 0 1 3036 1933)">Template v.1.0</text>
  <text style="stroke:none;fill:black;font-family:-apple-system,&quot;SF Pro Display&quot;,&quot;SF Pro Text&quot;,Helvetica,sans-serif;text-anchor:end;" transform="matrix(1 0 0 1 3036 1951)">Generated from coloncurrencysign.square</text>
  <text style="stroke:none;fill:black;font-family:-apple-system,&quot;SF Pro Display&quot;,&quot;SF Pro Text&quot;,Helvetica,sans-serif;text-anchor:end;" transform="matrix(1 0 0 1 3036 1969)">Typeset at 100 points</text>
  <text style="stroke:none;fill:black;font-family:-apple-system,&quot;SF Pro Display&quot;,&quot;SF Pro Text&quot;,Helvetica,sans-serif;" transform="matrix(1 0 0 1 263 726)">Small</text>
  <text style="stroke:none;fill:black;font-family:-apple-system,&quot;SF Pro Display&quot;,&quot;SF Pro Text&quot;,Helvetica,sans-serif;" transform="matrix(1 0 0 1 263 1156)">Medium</text>
  <text style="stroke:none;fill:black;font-family:-apple-system,&quot;SF Pro Display&quot;,&quot;SF Pro Text&quot;,Helvetica,sans-serif;" transform="matrix(1 0 0 1 263 1586)">Large</text>
 </g>
 <g id="Guides">
  <g id="H-reference" style="fill:#27AAE1;stroke:none;" transform="matrix(1 0 0 1 339 696)">
   <path d="M 54.9316 0 L 57.666 0 L 30.5664 -70.459 L 28.0762 -70.459 L 0.976562 0 L 3.66211 0 L 12.9395 -24.4629 L 45.7031 -24.4629 Z M 29.1992 -67.0898 L 29.4434 -67.0898 L 44.8242 -26.709 L 13.8184 -26.709 Z"/>
  </g>
  <line id="Baseline-S" style="fill:none;stroke:#27AAE1;opacity:1;stroke-width:0.577;" x1="263" x2="3036" y1="696" y2="696"/>
  <line id="Capline-S" style="fill:none;stroke:#27AAE1;opacity:1;stroke-width:0.577;" x1="263" x2="3036" y1="625.541" y2="625.541"/>
  <g id="H-reference" style="fill:#27AAE1;stroke:none;" transform="matrix(1 0 0 1 339 1126)">
   <path d="M 54.9316 0 L 57.666 0 L 30.5664 -70.459 L 28.0762 -70.459 L 0.976562 0 L 3.66211 0 L 12.9395 -24.4629 L 45.7031 -24.4629 Z M 29.1992 -67.0898 L 29.4434 -67.0898 L 44.8242 -26.709 L 13.8184 -26.709 Z"/>
  </g>
  <line id="Baseline-M" style="fill:none;stroke:#27AAE1;opacity:1;stroke-width:0.577;" x1="263" x2="3036" y1="1126" y2="1126"/>
  <line id="Capline-M" style="fill:none;stroke:#27AAE1;opacity:1;stroke-width:0.577;" x1="263" x2="3036" y1="1055.54" y2="1055.54"/>
  <g id="H-reference" style="fill:#27AAE1;stroke:none;" transform="matrix(1 0 0 1 339 1556)">
   <path d="M 54.9316 0 L 57.666 0 L 30.5664 -70.459 L 28.0762 -70.459 L 0.976562 0 L 3.66211 0 L 12.9395 -24.4629 L 45.7031 -24.4629 Z M 29.1992 -67.0898 L 29.4434 -67.0898 L 44.8242 -26.709 L 13.8184 -26.709 Z"/>
  </g>
  <line id="Baseline-L" style="fill:none;stroke:#27AAE1;opacity:1;stroke-width:0.577;" x1="263" x2="3036" y1="1556" y2="1556"/>
  <line id="Capline-L" style="fill:none;stroke:#27AAE1;opacity:1;stroke-width:0.577;" x1="263" x2="3036" y1="1485.54" y2="1485.54"/>
  <rect height="119.336" id="left-margin" style="fill:#00AEEF;stroke:none;opacity:0.4;" width="12.4512" x="1392.45" y="1030.79"/>
  <rect height="119.336" id="right-margin" style="fill:#00AEEF;stroke:none;opacity:0.4;" width="12.4512" x="1494.79" y="1030.79"/>
 </g>
 <g id="Symbols">
  <g id="Black-L" transform="matrix(1 0 0 1 2855.62 1556)">
   <path d="M 39.9902 26.5137 L 115.576 26.5137 C 130.811 26.5137 139.502 17.8711 139.502 2.68555 L 139.502 -73.0957 C 139.502 -88.2812 130.811 -96.875 115.576 -96.875 L 39.9902 -96.875 C 24.7559 -96.875 16.0645 -88.2812 16.0645 -73.0957 L 16.0645 2.68555 C 16.0645 17.8711 24.7559 26.5137 39.9902 26.5137 Z M 42.6758 6.29883 C 38.4766 6.29883 36.3281 4.39453 36.3281 -0.146484 L 36.3281 -70.2148 C 36.3281 -74.7559 38.4766 -76.6602 42.6758 -76.6602 L 112.842 -76.6602 C 117.09 -76.6602 119.238 -74.7559 119.238 -70.2148 L 119.238 -0.146484 C 119.238 4.39453 117.09 6.29883 112.842 6.29883 Z M 51.8555 -35.2051 C 51.8555 -23.2422 56.4453 -14.6484 64.3555 -10.3516 L 63.0371 -4.93164 C 62.9395 -4.54102 62.8906 -4.10156 62.8906 -3.61328 C 62.8906 -2.05078 64.0137 -0.927734 65.5273 -0.927734 C 66.748 -0.927734 67.7734 -1.70898 68.0664 -3.02734 L 69.2871 -8.25195 C 70.5566 -7.91016 71.8262 -7.61719 73.1445 -7.37305 L 72.5098 -4.93164 C 72.3633 -4.24805 72.3145 -3.80859 72.3145 -3.51562 C 72.3145 -1.95312 73.3887 -0.927734 75.0488 -0.927734 C 76.3184 -0.927734 77.2461 -1.70898 77.5391 -3.02734 L 78.5156 -7.08008 C 88.5254 -7.32422 96.6797 -12.5 99.6094 -20.0684 C 100.146 -21.3379 100.439 -22.7051 100.439 -23.9746 C 100.439 -27.9297 97.7539 -30.6152 93.6035 -30.6152 C 90.4297 -30.6152 88.5742 -29.1504 87.1582 -25.9766 C 85.9375 -23.0957 83.9844 -20.9473 81.543 -20.0684 L 87.207 -43.8965 C 87.4023 -43.7012 87.5488 -43.3594 87.793 -43.0176 C 89.1113 -40.9668 90.7715 -39.8438 93.5547 -39.8438 C 97.4609 -39.8438 100 -42.3828 100 -46.1914 C 100 -47.9004 99.5117 -49.6582 98.6816 -51.3184 C 96.8262 -54.834 94.2383 -57.666 90.8691 -59.6191 L 92.2363 -65.2344 C 92.334 -65.625 92.3828 -66.0156 92.3828 -66.4062 C 92.3828 -67.9688 91.3086 -69.043 89.7461 -69.043 C 88.5254 -69.043 87.5 -68.3105 87.207 -66.9922 L 85.9863 -61.9141 C 84.8145 -62.3047 83.5449 -62.5488 82.1777 -62.8418 L 82.7637 -65.2832 C 82.8613 -65.6738 82.959 -66.1133 82.959 -66.4062 C 82.959 -67.9688 81.8848 -69.043 80.3223 -69.043 C 79.0527 -69.043 78.0273 -68.3105 77.7344 -66.9922 L 76.8555 -63.1348 C 61.3281 -62.793 51.8555 -52.3438 51.8555 -35.2051 Z M 72.2656 -20.7031 L 79.3457 -50.8301 C 80.7129 -50.5859 81.9336 -50.0488 83.0078 -49.2676 L 75.9277 -19.3359 C 74.5605 -19.5312 73.3398 -20.0195 72.2656 -20.7031 Z M 66.7969 -35.1074 C 66.7969 -42.9688 69.3359 -48.4863 73.7793 -50.293 L 68.1641 -26.5137 C 67.2363 -28.9062 66.7969 -31.7871 66.7969 -35.1074 Z"/>
  </g>
  <g id="Heavy-L" transform="matrix(1 0 0 1 2559.93 1556)">
   <path d="M 38.8184 25.4883 L 114.697 25.4883 C 129.346 25.4883 137.451 17.4316 137.451 2.88086 L 137.451 -73.2422 C 137.451 -87.793 129.346 -95.8496 114.697 -95.8496 L 38.8184 -95.8496 C 24.2188 -95.8496 16.0645 -87.793 16.0645 -73.2422 L 16.0645 2.88086 C 16.0645 17.4316 24.2188 25.4883 38.8184 25.4883 Z M 40.918 8.00781 C 36.084 8.00781 33.5938 5.71289 33.5938 0.585938 L 33.5938 -70.9473 C 33.5938 -76.0742 36.084 -78.3691 40.918 -78.3691 L 112.549 -78.3691 C 117.383 -78.3691 119.922 -76.0742 119.922 -70.9473 L 119.922 0.585938 C 119.922 5.71289 117.383 8.00781 112.549 8.00781 Z M 51.0742 -35.1074 C 51.0742 -23.3887 55.3711 -14.8438 62.8418 -10.4004 L 61.2305 -4.10156 C 61.1328 -3.66211 61.084 -3.22266 61.084 -2.7832 C 61.084 -1.17188 62.207 -0.0976562 63.7207 -0.0976562 C 64.9902 -0.0976562 66.0156 -0.830078 66.3574 -2.14844 L 67.7734 -8.00781 C 69.1406 -7.56836 70.6055 -7.17773 72.0703 -6.93359 L 71.3867 -4.05273 C 71.1914 -3.41797 71.1914 -3.02734 71.1914 -2.68555 C 71.1914 -1.07422 72.2168 -0.0976562 73.877 -0.0976562 C 75.1953 -0.0976562 76.123 -0.830078 76.4648 -2.14844 L 77.5879 -6.64062 C 87.5977 -6.93359 95.5566 -12.0605 98.4375 -19.7266 C 98.9258 -20.9473 99.2188 -22.2656 99.2188 -23.4863 C 99.2188 -26.9531 96.8262 -29.3457 93.1641 -29.3457 C 90.2832 -29.3457 88.623 -27.9297 87.4512 -25.0977 C 86.1816 -21.582 83.6426 -18.9941 80.2734 -18.1641 L 87.0117 -45.4102 C 87.3047 -45.0195 87.6465 -44.4336 87.8906 -43.7988 C 89.0137 -41.9434 90.4785 -40.7715 93.0664 -40.7715 C 96.5332 -40.7715 98.7793 -43.0176 98.7793 -46.4355 C 98.7793 -47.998 98.3887 -49.5605 97.6074 -51.0254 C 95.9473 -54.541 93.5059 -57.373 90.2832 -59.4238 L 91.8457 -65.625 C 91.9434 -66.0156 91.9922 -66.4551 91.9922 -66.8457 C 91.9922 -68.4082 90.918 -69.5312 89.3555 -69.5312 C 88.0859 -69.5312 87.0605 -68.7988 86.7188 -67.4316 L 85.3516 -61.9141 C 84.082 -62.4023 82.6172 -62.793 81.0547 -63.0859 L 81.7383 -65.6738 C 81.8359 -66.0645 81.8848 -66.5039 81.8848 -66.8457 C 81.8848 -68.4082 80.8105 -69.5312 79.248 -69.5312 C 77.9785 -69.5312 76.9531 -68.75 76.6113 -67.4316 L 75.6348 -63.3789 C 60.4004 -62.8906 51.0742 -52.2461 51.0742 -35.1074 Z M 70.4102 -19.1895 L 78.5156 -52.3438 C 80.0781 -52.0996 81.4453 -51.5137 82.7148 -50.6348 L 74.6582 -17.5781 C 73.0469 -17.8223 71.6797 -18.3594 70.4102 -19.1895 Z M 64.209 -35.0586 C 64.209 -43.8965 67.3828 -50.0977 72.8516 -51.9043 L 66.2598 -24.7559 C 64.8926 -27.4902 64.209 -30.957 64.209 -35.0586 Z"/>
  </g>
  <g id="Bold-L" transform="matrix(1 0 0 1 2264.37 1556)">
   <path d="M 37.5 24.3652 L 113.721 24.3652 C 127.637 24.3652 135.156 16.8945 135.156 3.07617 L 135.156 -73.3887 C 135.156 -87.207 127.637 -94.7266 113.721 -94.7266 L 37.5 -94.7266 C 23.6328 -94.7266 16.0645 -87.2559 16.0645 -73.3887 L 16.0645 3.07617 C 16.0645 16.8945 23.6328 24.3652 37.5 24.3652 Z M 38.9648 9.91211 C 33.4473 9.91211 30.5176 7.17773 30.5176 1.41602 L 30.5176 -71.7285 C 30.5176 -77.5391 33.4473 -80.2734 38.9648 -80.2734 L 112.256 -80.2734 C 117.725 -80.2734 120.703 -77.5391 120.703 -71.7285 L 120.703 1.41602 C 120.703 7.17773 117.725 9.91211 112.256 9.91211 Z M 50.1953 -34.9609 C 50.1953 -23.584 54.1504 -15.0879 61.084 -10.4004 L 59.2285 -3.125 C 59.1309 -2.73438 59.0332 -2.29492 59.0332 -1.85547 C 59.0332 -0.244141 60.2051 0.878906 61.7188 0.878906 C 63.0371 0.878906 64.0625 0.146484 64.4531 -1.2207 L 66.0645 -7.76367 C 67.5781 -7.17773 69.2383 -6.68945 70.9473 -6.44531 L 70.0684 -3.07617 C 69.9219 -2.53906 69.873 -2.14844 69.873 -1.80664 C 69.873 -0.146484 70.9473 0.878906 72.6074 0.878906 C 73.9258 0.878906 74.9512 0.146484 75.293 -1.2207 L 76.5137 -6.10352 C 86.5723 -6.44531 94.2871 -11.6211 97.1191 -19.3848 C 97.5586 -20.5078 97.8516 -21.7773 97.8516 -22.9004 C 97.8516 -25.8789 95.8008 -27.9785 92.7246 -27.9785 C 90.1855 -27.9785 88.6719 -26.6113 87.7441 -24.1699 C 86.4746 -19.9219 83.2031 -16.8457 78.8574 -16.0645 L 86.7676 -47.1191 C 87.2559 -46.5332 87.6953 -45.6543 87.9883 -44.7266 C 88.916 -42.9688 90.1855 -41.7969 92.5293 -41.7969 C 95.5078 -41.7969 97.4121 -43.75 97.4121 -46.6797 C 97.4121 -48.0469 97.0703 -49.4141 96.4844 -50.7324 C 94.9707 -54.1992 92.6758 -57.0801 89.6484 -59.2285 L 91.3574 -66.0645 C 91.5039 -66.5039 91.6016 -66.8945 91.6016 -67.2852 C 91.6016 -68.8965 90.4785 -70.0195 88.8672 -70.0195 C 87.5977 -70.0195 86.5234 -69.3359 86.1816 -67.9199 L 84.668 -61.9141 C 83.2031 -62.5488 81.543 -62.9883 79.834 -63.3301 L 80.5176 -66.1133 C 80.6641 -66.5039 80.7129 -66.9434 80.7129 -67.2852 C 80.7129 -68.8965 79.6875 -70.0195 78.0273 -70.0195 C 76.709 -70.0195 75.6836 -69.2871 75.3418 -67.9199 L 74.2676 -63.623 C 59.4238 -63.0371 50.1953 -52.1973 50.1953 -34.9609 Z M 68.4082 -17.4316 L 77.5879 -54.0527 C 79.3457 -53.8086 80.9082 -53.125 82.3242 -52.1973 L 73.1934 -15.625 C 71.3379 -15.8691 69.7754 -16.5039 68.4082 -17.4316 Z M 61.2793 -34.9609 C 61.2793 -44.9707 65.2344 -51.9043 71.8262 -53.6621 L 64.0625 -22.8027 C 62.2559 -25.9277 61.2793 -30.0293 61.2793 -34.9609 Z"/>
  </g>
  <g id="Semibold-L" transform="matrix(1 0 0 1 1968.44 1556)">
   <path d="M 36.6211 23.584 L 113.037 23.584 C 126.514 23.584 133.594 16.5039 133.594 3.17383 L 133.594 -73.5352 C 133.594 -86.8164 126.514 -93.9453 113.037 -93.9453 L 36.6211 -93.9453 C 23.1934 -93.9453 16.0645 -86.8652 16.0645 -73.5352 L 16.0645 3.17383 C 16.0645 16.5527 23.1934 23.584 36.6211 23.584 Z M 37.5977 11.2793 C 31.6406 11.2793 28.418 8.20312 28.418 1.95312 L 28.418 -72.3145 C 28.418 -78.5156 31.6406 -81.5918 37.5977 -81.5918 L 112.061 -81.5918 C 117.969 -81.5918 121.24 -78.5156 121.24 -72.3145 L 121.24 1.95312 C 121.24 8.20312 117.969 11.2793 112.061 11.2793 Z M 49.5605 -34.9121 C 49.5605 -23.7305 53.3203 -15.2344 59.8633 -10.4492 L 57.8613 -2.49023 C 57.7148 -2.05078 57.666 -1.61133 57.666 -1.2207 C 57.666 0.390625 58.7891 1.5625 60.3516 1.5625 C 61.7188 1.5625 62.7441 0.830078 63.0859 -0.585938 L 64.8926 -7.61719 C 66.5039 -6.93359 68.2617 -6.39648 70.1172 -6.10352 L 69.1895 -2.44141 C 69.043 -1.9043 68.9941 -1.5625 68.9941 -1.17188 C 68.9941 0.488281 70.0684 1.5625 71.7285 1.5625 C 73.0957 1.5625 74.0723 0.830078 74.4629 -0.585938 L 75.7812 -5.76172 C 85.8398 -6.10352 93.457 -11.3281 96.1914 -19.1406 C 96.6309 -20.2148 96.875 -21.4355 96.875 -22.5098 C 96.875 -25.1465 95.1172 -27.002 92.3828 -27.002 C 90.0879 -27.002 88.7207 -25.6348 87.9395 -23.4863 C 86.6699 -18.7988 82.959 -15.332 77.9297 -14.5996 L 86.5723 -48.291 C 87.207 -47.5586 87.7441 -46.4844 88.0371 -45.3613 C 88.8672 -43.7012 89.9414 -42.4805 92.1387 -42.4805 C 94.7754 -42.4805 96.4844 -44.2383 96.4844 -46.875 C 96.4844 -48.0957 96.1914 -49.3164 95.6543 -50.4883 C 94.2871 -53.9551 92.0898 -56.8359 89.209 -59.082 L 91.0645 -66.4062 C 91.2109 -66.8457 91.2598 -67.2363 91.2598 -67.627 C 91.2598 -69.2383 90.1855 -70.4102 88.5742 -70.4102 C 87.2559 -70.4102 86.1816 -69.6777 85.791 -68.2617 L 84.1797 -61.9141 C 82.6172 -62.6953 80.8594 -63.1836 79.0039 -63.5254 L 79.7363 -66.4062 C 79.834 -66.8457 79.9316 -67.2363 79.9316 -67.627 C 79.9316 -69.2383 78.8574 -70.4102 77.1973 -70.4102 C 75.8789 -70.4102 74.8047 -69.6289 74.4629 -68.2617 L 73.3398 -63.7695 C 58.6914 -63.1348 49.5605 -52.1484 49.5605 -34.9121 Z M 66.9922 -16.2598 L 76.9531 -55.2246 C 78.8086 -54.9805 80.5664 -54.2969 82.0801 -53.3203 L 72.168 -14.2578 C 70.166 -14.5508 68.5059 -15.2344 66.9922 -16.2598 Z M 59.3262 -34.8633 C 59.3262 -45.7031 63.7207 -53.1738 71.1426 -54.8828 L 62.5977 -21.4355 C 60.4492 -24.8047 59.3262 -29.3945 59.3262 -34.8633 Z"/>
  </g>
  <g id="Medium-L" transform="matrix(1 0 0 1 1672.31 1556)">
   <path d="M 35.9375 22.998 L 112.5 22.998 C 125.635 22.998 132.422 16.2109 132.422 3.27148 L 132.422 -73.6328 C 132.422 -86.5234 125.635 -93.3105 112.5 -93.3105 L 35.9375 -93.3105 C 22.9004 -93.3105 16.0645 -86.5723 16.0645 -73.6328 L 16.0645 3.27148 C 16.0645 16.2598 22.9004 22.998 35.9375 22.998 Z M 36.5723 12.2559 C 30.2246 12.2559 26.8066 8.98438 26.8066 2.39258 L 26.8066 -72.7051 C 26.8066 -79.2969 30.2246 -82.6172 36.5723 -82.6172 L 111.865 -82.6172 C 118.115 -82.6172 121.68 -79.2969 121.68 -72.7051 L 121.68 2.39258 C 121.68 8.98438 118.115 12.2559 111.865 12.2559 Z M 49.1211 -34.8633 C 49.1211 -23.8281 52.6855 -15.3809 58.9844 -10.4492 L 56.7871 -2.00195 C 56.6406 -1.5625 56.5918 -1.12305 56.5918 -0.732422 C 56.5918 0.927734 57.7637 2.05078 59.3262 2.05078 C 60.6934 2.05078 61.7188 1.36719 62.1094 -0.0976562 L 63.9648 -7.4707 C 65.7227 -6.73828 67.5293 -6.15234 69.5312 -5.81055 L 68.5059 -1.95312 C 68.3594 -1.46484 68.3105 -1.07422 68.3105 -0.683594 C 68.3105 0.976562 69.3848 2.05078 71.0449 2.05078 C 72.4121 2.05078 73.4375 1.36719 73.8281 -0.0976562 L 75.1953 -5.46875 C 85.3027 -5.85938 92.7734 -11.084 95.5078 -18.9453 C 95.8984 -19.9707 96.1914 -21.1426 96.1914 -22.2168 C 96.1914 -24.5605 94.5801 -26.2695 92.1387 -26.2695 C 90.0391 -26.2695 88.7695 -24.9512 88.0859 -22.998 C 86.8164 -17.9199 82.7148 -14.1602 77.1973 -13.4766 L 86.4258 -49.1699 C 87.207 -48.3398 87.793 -47.168 88.0859 -45.8008 C 88.8184 -44.2871 89.7949 -43.0176 91.8457 -43.0176 C 94.2383 -43.0176 95.8008 -44.5801 95.8008 -47.0215 C 95.8008 -48.1445 95.5078 -49.2676 95.0684 -50.3418 C 93.7988 -53.7598 91.6504 -56.6895 88.8672 -58.9355 L 90.8203 -66.6016 C 90.9668 -67.0898 91.0645 -67.4805 91.0645 -67.8711 C 91.0645 -69.4824 89.9414 -70.6543 88.3301 -70.6543 C 86.9629 -70.6543 85.8887 -69.9707 85.5469 -68.5059 L 83.8379 -61.9141 C 82.1777 -62.7441 80.3223 -63.2812 78.3691 -63.6719 L 79.1016 -66.6504 C 79.248 -67.041 79.2969 -67.4805 79.2969 -67.8711 C 79.2969 -69.4824 78.2715 -70.6543 76.6113 -70.6543 C 75.2441 -70.6543 74.1699 -69.9219 73.7793 -68.5059 L 72.6562 -63.916 C 58.2031 -63.1836 49.1211 -52.0996 49.1211 -34.8633 Z M 65.918 -15.332 L 76.4648 -56.1523 C 78.4668 -55.8594 80.2734 -55.127 81.8848 -54.1016 L 71.3867 -13.2324 C 69.2871 -13.5742 67.5293 -14.2578 65.918 -15.332 Z M 57.8125 -34.8145 C 57.8125 -46.2402 62.5488 -54.1016 70.6055 -55.8105 L 61.4746 -20.4102 C 59.082 -24.0234 57.8125 -28.9062 57.8125 -34.8145 Z"/>
  </g>
  <g id="Regular-L" transform="matrix(1 0 0 1 1376.38 1556)">
   <path d="M 35.0586 22.2168 L 111.816 22.2168 C 124.463 22.2168 130.859 15.8691 130.859 3.41797 L 130.859 -73.7305 C 130.859 -86.1816 124.463 -92.5293 111.816 -92.5293 L 35.0586 -92.5293 C 22.4609 -92.5293 16.0645 -86.2305 16.0645 -73.7305 L 16.0645 3.41797 C 16.0645 15.918 22.4609 22.2168 35.0586 22.2168 Z M 35.2539 13.5742 C 28.418 13.5742 24.707 9.96094 24.707 2.97852 L 24.707 -73.291 C 24.707 -80.2734 28.418 -83.8867 35.2539 -83.8867 L 111.67 -83.8867 C 118.359 -83.8867 122.217 -80.2734 122.217 -73.291 L 122.217 2.97852 C 122.217 9.96094 118.359 13.5742 111.67 13.5742 Z M 48.4863 -34.7656 C 48.4863 -23.9746 51.8555 -15.5273 57.7637 -10.4492 L 55.4199 -1.31836 C 55.2734 -0.878906 55.2246 -0.488281 55.2246 -0.146484 C 55.2246 1.5625 56.3965 2.73438 57.959 2.73438 C 59.3262 2.73438 60.4004 2.05078 60.791 0.537109 L 62.8418 -7.32422 C 64.6484 -6.44531 66.6016 -5.81055 68.7012 -5.46875 L 67.627 -1.26953 C 67.5293 -0.830078 67.4805 -0.488281 67.4805 -0.0976562 C 67.4805 1.61133 68.5059 2.73438 70.166 2.73438 C 71.582 2.73438 72.6074 2.05078 72.998 0.537109 L 74.5117 -5.12695 C 84.6191 -5.51758 91.9434 -10.7422 94.6289 -18.7012 C 94.9707 -19.6777 95.2148 -20.8008 95.2148 -21.8262 C 95.2148 -23.8281 93.8965 -25.293 91.7969 -25.293 C 89.9414 -25.293 88.8184 -24.0234 88.2812 -22.3145 C 87.0117 -16.748 82.4707 -12.6953 76.2207 -12.0605 L 86.2793 -50.3418 C 87.1582 -49.3652 87.8418 -47.998 88.1836 -46.4355 C 88.7207 -44.9707 89.5508 -43.7012 91.5039 -43.7012 C 93.5547 -43.7012 94.873 -45.0684 94.873 -47.168 C 94.873 -48.1934 94.6289 -49.1699 94.2871 -50.1465 C 93.1152 -53.5156 91.0645 -56.4453 88.4277 -58.7891 L 90.5273 -66.9434 C 90.6738 -67.3828 90.7715 -67.7734 90.7715 -68.2129 C 90.7715 -69.8242 89.6484 -70.9961 87.9883 -70.9961 C 86.6211 -70.9961 85.5469 -70.3613 85.1562 -68.7988 L 83.3496 -61.9141 C 81.5918 -62.8418 79.5898 -63.4277 77.4902 -63.8184 L 78.3203 -66.9434 C 78.418 -67.3828 78.5156 -67.7734 78.5156 -68.2129 C 78.5156 -69.8242 77.4414 -70.9961 75.7812 -70.9961 C 74.3652 -70.9961 73.3398 -70.2637 72.9492 -68.7988 L 71.7285 -64.0625 C 57.4707 -63.2812 48.4863 -52.0508 48.4863 -34.7656 Z M 64.5508 -14.1602 L 75.8301 -57.3242 C 77.9297 -57.0312 79.9316 -56.25 81.6406 -55.1758 L 70.4102 -11.9141 C 68.1641 -12.2559 66.2598 -12.9883 64.5508 -14.1602 Z M 55.8105 -34.7656 C 55.8105 -46.9727 61.084 -55.3223 69.873 -57.0312 L 59.9609 -19.043 C 57.2754 -22.9492 55.8105 -28.2715 55.8105 -34.7656 Z"/>
  </g>
  <g id="Light-L" transform="matrix(1 0 0 1 1080.5 1556)">
   <path d="M 34.0332 21.4355 L 111.23 21.4355 C 123.096 21.4355 129.199 15.2344 129.199 3.56445 L 129.199 -73.8281 C 129.199 -85.5469 123.096 -91.6992 111.23 -91.6992 L 34.0332 -91.6992 C 22.168 -91.6992 16.0645 -85.6445 16.0645 -73.8281 L 16.0645 3.56445 C 16.0645 15.3809 22.168 21.4355 34.0332 21.4355 Z M 34.1797 14.7949 C 26.709 14.7949 22.7051 10.8398 22.7051 3.22266 L 22.7051 -73.4863 C 22.7051 -81.1523 26.709 -85.0586 34.1797 -85.0586 L 111.035 -85.0586 C 118.359 -85.0586 122.559 -81.1523 122.559 -73.4863 L 122.559 3.22266 C 122.559 10.8398 118.359 14.7949 111.035 14.7949 Z M 48.6328 -34.9121 C 48.6328 -24.3652 51.8555 -16.1621 57.5684 -11.2793 L 55.127 -2.14844 C 55.0293 -1.75781 54.9805 -1.46484 54.9805 -1.17188 C 54.9805 0.292969 56.0059 1.26953 57.2754 1.26953 C 58.4473 1.26953 59.3262 0.683594 59.6191 -0.537109 L 61.7676 -8.54492 C 63.7207 -7.56836 65.8691 -6.83594 68.2129 -6.44531 L 67.041 -2.09961 C 66.8945 -1.75781 66.8945 -1.46484 66.8945 -1.12305 C 66.8945 0.390625 67.8223 1.26953 69.1406 1.26953 C 70.3125 1.26953 71.1914 0.683594 71.5332 -0.537109 L 73.0469 -6.15234 C 83.0078 -6.39648 90.3809 -11.5234 92.8711 -19.5801 C 93.1641 -20.5078 93.457 -21.6309 93.457 -22.5586 C 93.457 -24.2188 92.3828 -25.3906 90.7227 -25.3906 C 89.209 -25.3906 88.2812 -24.3164 87.9395 -22.998 C 86.7676 -16.6016 81.6406 -12.0605 74.4629 -11.6211 L 85.2051 -51.3184 C 86.5234 -49.8535 87.5 -47.9004 87.8418 -45.8008 C 88.2324 -44.4336 89.0137 -43.457 90.5273 -43.457 C 92.1875 -43.457 93.2129 -44.5801 93.2129 -46.3379 C 93.2129 -47.2656 92.9688 -48.1934 92.6758 -49.1211 C 91.5527 -52.5391 89.5996 -55.5664 86.9141 -57.959 L 89.1602 -66.2598 C 89.2578 -66.6504 89.3555 -66.9922 89.3555 -67.3828 C 89.3555 -68.75 88.4277 -69.7266 87.0117 -69.7266 C 85.8887 -69.7266 84.9609 -69.1895 84.668 -67.9199 L 82.666 -60.6934 C 80.8105 -61.8164 78.6133 -62.5 76.3672 -62.9395 L 77.2461 -66.2598 C 77.3926 -66.6016 77.4414 -66.9922 77.4414 -67.3828 C 77.4414 -68.75 76.5625 -69.7266 75.1465 -69.7266 C 73.9746 -69.7266 73.0957 -69.0918 72.7539 -67.9199 L 71.4844 -63.1836 C 57.3242 -62.6465 48.6328 -51.8066 48.6328 -34.9121 Z M 63.1836 -14.0137 L 75 -57.7148 C 77.2949 -57.373 79.4434 -56.543 81.2988 -55.3223 L 69.5801 -11.5723 C 67.1387 -11.9629 65.0391 -12.7441 63.1836 -14.0137 Z M 54.3945 -34.9121 C 54.3945 -47.7539 60.1562 -56.3965 70.0195 -57.5684 L 59.3262 -17.9199 C 56.1523 -21.9727 54.3945 -27.7832 54.3945 -34.9121 Z"/>
  </g>
  <g id="Thin-L" transform="matrix(1 0 0 1 784.889 1556)">
   <path d="M 32.666 20.3613 L 110.352 20.3613 C 121.24 20.3613 127.002 14.4531 127.002 3.75977 L 127.002 -73.9746 C 127.002 -84.7168 121.24 -90.5762 110.352 -90.5762 L 32.666 -90.5762 C 21.7773 -90.5762 16.0645 -84.8633 16.0645 -73.9746 L 16.0645 3.75977 C 16.0645 14.6484 21.7773 20.3613 32.666 20.3613 Z M 32.8125 16.4062 C 24.4141 16.4062 19.9707 12.0117 19.9707 3.56445 L 19.9707 -73.7793 C 19.9707 -82.2754 24.4141 -86.6699 32.8125 -86.6699 L 110.205 -86.6699 C 118.359 -86.6699 123.047 -82.2754 123.047 -73.7793 L 123.047 3.56445 C 123.047 12.0117 118.359 16.4062 110.205 16.4062 Z M 48.7793 -35.0586 C 48.7793 -24.9023 51.8066 -16.9434 57.3242 -12.3047 L 54.7852 -3.22266 C 54.6875 -2.92969 54.6875 -2.73438 54.6875 -2.58789 C 54.6875 -1.46484 55.5176 -0.683594 56.3477 -0.683594 C 57.2266 -0.683594 57.8613 -1.12305 58.1055 -2.00195 L 60.4004 -10.1562 C 62.5488 -8.98438 64.8926 -8.1543 67.4805 -7.76367 L 66.2109 -3.22266 C 66.1133 -2.92969 66.1133 -2.73438 66.1133 -2.49023 C 66.1133 -1.31836 66.8945 -0.683594 67.8223 -0.683594 C 68.7012 -0.683594 69.3359 -1.12305 69.5801 -2.00195 L 71.0938 -7.4707 C 80.957 -7.51953 88.3301 -12.5488 90.5762 -20.752 C 90.8203 -21.6309 91.1621 -22.7539 91.1621 -23.584 C 91.1621 -24.707 90.4297 -25.4883 89.209 -25.4883 C 88.2324 -25.4883 87.5977 -24.7559 87.4512 -23.877 C 86.4258 -16.4062 80.5176 -11.2793 72.1191 -11.0352 L 83.8379 -52.6855 C 85.6934 -50.5371 87.0605 -47.7539 87.3535 -44.9707 C 87.5488 -43.75 88.2324 -43.1641 89.2578 -43.1641 C 90.3809 -43.1641 91.0156 -43.9453 91.0156 -45.2637 C 91.0156 -46.0938 90.7715 -46.9238 90.5273 -47.7539 C 89.5508 -51.2695 87.5977 -54.3945 84.9609 -56.8848 L 87.3047 -65.332 C 87.4023 -65.6738 87.5 -65.9668 87.5 -66.2598 C 87.5 -67.2852 86.7676 -68.0664 85.7422 -68.0664 C 84.9121 -68.0664 84.2285 -67.6758 83.9355 -66.6992 L 81.8359 -59.082 C 79.7852 -60.4004 77.3438 -61.2305 74.8535 -61.7188 L 75.8789 -65.332 C 75.9277 -65.625 76.0254 -65.9668 76.0254 -66.2598 C 76.0254 -67.2852 75.3906 -68.0664 74.2676 -68.0664 C 73.3887 -68.0664 72.7539 -67.5293 72.5098 -66.6992 L 71.1426 -61.9629 C 57.0801 -61.8652 48.7793 -51.5137 48.7793 -35.0586 Z M 52.4902 -35.0586 C 52.4902 -48.8281 58.9355 -57.7637 70.166 -58.3008 L 58.4473 -16.4551 C 54.5898 -20.6543 52.4902 -27.0996 52.4902 -35.0586 Z M 61.4258 -13.8672 L 73.877 -58.2031 C 76.4648 -57.8125 78.8086 -56.8848 80.8594 -55.4688 L 68.457 -11.1816 C 65.8203 -11.5723 63.4277 -12.4512 61.4258 -13.8672 Z"/>
  </g>
  <g id="Ultralight-L" transform="matrix(1 0 0 1 488.739 1556)">
   <path d="M 31.9824 19.7754 L 109.961 19.7754 C 120.312 19.7754 125.879 14.0625 125.879 3.85742 L 125.879 -74.0723 C 125.879 -84.2773 120.312 -89.9902 109.961 -89.9902 L 31.9824 -89.9902 C 21.582 -89.9902 16.0645 -84.4727 16.0645 -74.0723 L 16.0645 3.85742 C 16.0645 14.2578 21.582 19.7754 31.9824 19.7754 Z M 32.1289 17.2363 C 23.1934 17.2363 18.6035 12.6465 18.6035 3.75977 L 18.6035 -73.9258 C 18.6035 -82.8125 23.1934 -87.4512 32.1289 -87.4512 L 109.766 -87.4512 C 118.359 -87.4512 123.291 -82.8125 123.291 -73.9258 L 123.291 3.75977 C 123.291 12.6465 118.359 17.2363 109.766 17.2363 Z M 48.8281 -35.1562 C 48.8281 -25.1953 51.7578 -17.3828 57.1777 -12.8418 L 54.5898 -3.75977 C 54.4922 -3.56445 54.4922 -3.41797 54.4922 -3.27148 C 54.4922 -2.29492 55.2734 -1.66016 55.9082 -1.66016 C 56.6406 -1.66016 57.1289 -2.00195 57.3242 -2.73438 L 59.7168 -10.9863 C 61.9141 -9.7168 64.4043 -8.83789 67.1387 -8.39844 L 65.8203 -3.75977 C 65.7227 -3.56445 65.7227 -3.41797 65.7227 -3.22266 C 65.7227 -2.14844 66.4062 -1.66016 67.1387 -1.66016 C 67.8711 -1.66016 68.3594 -2.00195 68.5547 -2.73438 L 70.1172 -8.20312 C 79.8828 -8.1543 87.3047 -13.0859 89.4043 -21.3379 C 89.6484 -22.168 89.9414 -23.3398 89.9414 -24.1211 C 89.9414 -24.9512 89.4043 -25.5859 88.4766 -25.5859 C 87.6953 -25.5859 87.207 -25 87.207 -24.3164 C 86.2793 -16.3086 79.9805 -10.8398 70.8984 -10.7422 L 83.1055 -53.3691 C 85.2539 -50.8789 86.8164 -47.7051 87.1094 -44.5312 C 87.2559 -43.3594 87.8418 -42.9688 88.623 -42.9688 C 89.4531 -42.9688 89.8926 -43.6523 89.8926 -44.7266 C 89.8926 -45.5078 89.6973 -46.2891 89.4531 -47.0703 C 88.5254 -50.6348 86.5723 -53.8086 83.9355 -56.2988 L 86.377 -64.8926 C 86.4746 -65.1855 86.5234 -65.4297 86.5234 -65.7227 C 86.5234 -66.5039 85.9375 -67.1875 85.0586 -67.1875 C 84.4238 -67.1875 83.8379 -66.8945 83.5938 -66.1133 L 81.3965 -58.252 C 79.248 -59.7168 76.709 -60.5957 74.0723 -61.1328 L 75.1465 -64.8926 C 75.2441 -65.0879 75.293 -65.4297 75.293 -65.7227 C 75.293 -66.5039 74.8047 -67.1875 73.8281 -67.1875 C 73.0957 -67.1875 72.6074 -66.748 72.3633 -66.1133 L 70.9961 -61.3281 C 56.9336 -61.4258 48.8281 -51.3672 48.8281 -35.1562 Z M 51.5625 -35.1562 C 51.5625 -49.3652 58.3008 -58.4473 70.2148 -58.6914 L 58.0078 -15.6738 C 53.8086 -19.9707 51.5625 -26.7578 51.5625 -35.1562 Z M 60.498 -13.7695 L 73.291 -58.4961 C 76.0254 -58.0566 78.4668 -57.0801 80.6152 -55.5664 L 67.9199 -10.9375 C 65.0879 -11.377 62.6465 -12.2559 60.498 -13.7695 Z"/>
  </g>
  <g id="Black-M" transform="matrix(1 0 0 1 2872.19 1126)">
   <path d="M 31.9824 13.5742 L 90.4297 13.5742 C 102.686 13.5742 109.961 6.29883 109.961 -5.95703 L 109.961 -64.4043 C 109.961 -76.6602 102.686 -83.9355 90.4297 -83.9355 L 31.9824 -83.9355 C 19.7266 -83.9355 12.4512 -76.6602 12.4512 -64.4043 L 12.4512 -5.95703 C 12.4512 6.29883 19.7266 13.5742 31.9824 13.5742 Z M 34.9121 -4.73633 C 32.0801 -4.73633 30.7617 -5.81055 30.7617 -8.88672 L 30.7617 -61.4746 C 30.7617 -64.5508 32.0801 -65.6738 34.9121 -65.6738 L 87.5 -65.6738 C 90.332 -65.6738 91.6504 -64.5508 91.6504 -61.4746 L 91.6504 -8.88672 C 91.6504 -5.81055 90.332 -4.73633 87.5 -4.73633 Z M 41.3574 -35.4004 C 41.3574 -25.9277 45.166 -19.2871 51.8555 -16.3574 L 51.1719 -13.3301 C 51.0742 -13.0859 51.0254 -12.793 51.0254 -12.4023 C 51.0254 -11.377 51.8555 -10.5957 52.832 -10.5957 C 53.6133 -10.5957 54.2969 -11.1816 54.4922 -11.9629 L 55.2246 -15.2832 C 56.0547 -15.0879 56.9336 -14.8926 57.8125 -14.7949 L 57.4219 -13.3301 C 57.3242 -12.7441 57.3242 -12.4512 57.3242 -12.2559 C 57.3242 -11.2305 58.0566 -10.5957 59.1309 -10.5957 C 60.0098 -10.5957 60.5469 -11.1816 60.7422 -11.9629 L 61.377 -14.5996 C 68.9941 -14.6484 75.5859 -18.5547 77.8809 -24.3652 C 78.3203 -25.4395 78.5645 -26.5625 78.5645 -27.6367 C 78.5645 -31.1035 76.1719 -33.3984 72.5098 -33.3984 C 69.8242 -33.3984 68.2617 -32.373 66.9922 -29.5898 C 66.1133 -27.7344 65.1367 -26.4648 63.916 -25.7812 L 67.334 -40.4297 C 67.4805 -40.2344 67.5781 -39.9902 67.7246 -39.7949 C 68.8965 -38.1348 70.4102 -37.4512 72.6562 -37.4512 C 76.0742 -37.4512 78.2715 -39.6484 78.2715 -42.9688 C 78.2715 -44.4824 77.832 -46.0938 77.002 -47.5098 C 75.4395 -50.3418 73.2422 -52.5391 70.4102 -53.9551 L 71.2891 -57.5684 C 71.3379 -57.8125 71.3867 -58.1055 71.3867 -58.3496 C 71.3867 -59.4238 70.6543 -60.1562 69.6289 -60.1562 C 68.7988 -60.1562 68.1152 -59.5703 67.9688 -58.7891 L 67.1387 -55.2734 C 66.3574 -55.4688 65.4785 -55.6152 64.5508 -55.8105 L 64.9902 -57.6172 C 65.0391 -57.8613 65.1367 -58.2031 65.1367 -58.3496 C 65.1367 -59.4238 64.4043 -60.1562 63.3301 -60.1562 C 62.5488 -60.1562 61.8652 -59.5703 61.6699 -58.7891 L 61.084 -56.0547 C 48.6328 -56.1035 41.3574 -48.4863 41.3574 -35.4004 Z M 57.7148 -26.0254 L 62.1582 -45.459 C 63.0859 -45.2637 63.916 -44.873 64.5508 -44.2871 L 60.1562 -25.0977 C 59.2773 -25.1953 58.4473 -25.5371 57.7148 -26.0254 Z M 54.4922 -35.3516 C 54.4922 -40.3809 55.8594 -43.8477 58.4961 -45.0684 L 55.0781 -30.2246 C 54.6875 -31.6895 54.4922 -33.3984 54.4922 -35.3516 Z"/>
  </g>
  <g id="Heavy-M" transform="matrix(1 0 0 1 2576.39 1126)">
   <path d="M 31.0059 12.6465 L 89.6484 12.6465 C 101.416 12.6465 108.154 5.9082 108.154 -5.81055 L 108.154 -64.5508 C 108.154 -76.2695 101.416 -83.0566 89.6484 -83.0566 L 31.0059 -83.0566 C 19.2383 -83.0566 12.4512 -76.3184 12.4512 -64.5508 L 12.4512 -5.81055 C 12.4512 5.9082 19.2383 12.6465 31.0059 12.6465 Z M 33.252 -3.17383 C 29.9316 -3.17383 28.2715 -4.63867 28.2715 -8.1543 L 28.2715 -62.207 C 28.2715 -65.7715 29.9316 -67.2363 33.252 -67.2363 L 87.3535 -67.2363 C 90.6738 -67.2363 92.334 -65.7715 92.334 -62.207 L 92.334 -8.1543 C 92.334 -4.63867 90.6738 -3.17383 87.3535 -3.17383 Z M 40.4297 -35.2539 C 40.4297 -25.9766 43.9941 -19.3848 50.2441 -16.1621 L 49.2676 -12.207 C 49.1699 -11.9141 49.1211 -11.5723 49.1211 -11.2305 C 49.1211 -10.1074 49.9512 -9.27734 51.0254 -9.27734 C 51.9531 -9.27734 52.6855 -9.86328 52.8809 -10.791 L 53.8086 -14.6973 C 54.7852 -14.4531 55.7617 -14.209 56.7871 -14.0137 L 56.3477 -12.1582 C 56.2012 -11.6699 56.2012 -11.3281 56.2012 -11.1328 C 56.2012 -9.96094 56.9824 -9.27734 58.1543 -9.27734 C 59.082 -9.27734 59.7656 -9.86328 59.9609 -10.791 L 60.6934 -13.8184 C 68.4082 -13.9648 74.7559 -17.9199 77.0508 -23.7793 C 77.4414 -24.8047 77.6855 -25.8789 77.6855 -26.8555 C 77.6855 -29.9316 75.5859 -32.0312 72.3633 -32.0312 C 69.9219 -32.0312 68.457 -30.957 67.3828 -28.4668 C 66.4551 -26.1719 64.9414 -24.5117 63.0371 -23.8281 L 67.3828 -41.8457 C 67.5781 -41.6016 67.7734 -41.2109 67.9199 -40.8691 C 68.9453 -39.3066 70.2637 -38.5254 72.3633 -38.5254 C 75.3906 -38.5254 77.3438 -40.4785 77.3438 -43.457 C 77.3438 -44.8242 77.002 -46.1914 76.2695 -47.4609 C 74.8535 -50.2441 72.8027 -52.4414 70.166 -53.9551 L 71.1914 -58.2031 C 71.2891 -58.4473 71.3379 -58.7891 71.3379 -59.0332 C 71.3379 -60.1562 70.5566 -60.9863 69.3848 -60.9863 C 68.5059 -60.9863 67.7734 -60.4004 67.5781 -59.5215 L 66.6504 -55.6152 C 65.7227 -55.8594 64.6973 -56.1035 63.6719 -56.2988 L 64.1113 -58.252 C 64.209 -58.4961 64.2578 -58.8379 64.2578 -59.0332 C 64.2578 -60.1562 63.4766 -60.9863 62.3535 -60.9863 C 61.4258 -60.9863 60.6934 -60.4004 60.498 -59.5215 L 59.8145 -56.543 C 47.7051 -56.3965 40.4297 -48.4375 40.4297 -35.2539 Z M 56.1035 -24.3652 L 61.4746 -47.0215 C 62.5488 -46.8262 63.5254 -46.4355 64.3066 -45.752 L 58.9844 -23.2422 C 57.8613 -23.4375 56.9336 -23.7793 56.1035 -24.3652 Z M 52.0508 -35.2051 C 52.0508 -41.2109 54.0039 -45.3613 57.4707 -46.6797 L 53.125 -28.6133 C 52.3926 -30.4199 52.0508 -32.6172 52.0508 -35.2051 Z"/>
  </g>
  <g id="Bold-M" transform="matrix(1 0 0 1 2280.68 1126)">
   <path d="M 29.8828 11.6699 L 88.7207 11.6699 C 99.9512 11.6699 106.152 5.46875 106.152 -5.66406 L 106.152 -64.6973 C 106.152 -75.8789 99.9512 -82.0312 88.7207 -82.0312 L 29.8828 -82.0312 C 18.6523 -82.0312 12.4512 -75.8789 12.4512 -64.6973 L 12.4512 -5.66406 C 12.4512 5.51758 18.6523 11.6699 29.8828 11.6699 Z M 31.3965 -1.41602 C 27.5391 -1.41602 25.5371 -3.27148 25.5371 -7.32422 L 25.5371 -63.0371 C 25.5371 -67.1387 27.5391 -68.9453 31.3965 -68.9453 L 87.207 -68.9453 C 91.0156 -68.9453 93.0664 -67.1387 93.0664 -63.0371 L 93.0664 -7.32422 C 93.0664 -3.27148 91.0156 -1.41602 87.207 -1.41602 Z M 39.4531 -35.1074 C 39.4531 -26.0742 42.6758 -19.4824 48.3887 -15.9668 L 47.1191 -10.8887 C 47.0215 -10.5957 46.9727 -10.2539 46.9727 -9.91211 C 46.9727 -8.69141 47.8516 -7.8125 49.0723 -7.8125 C 50.0488 -7.8125 50.8789 -8.39844 51.123 -9.42383 L 52.2461 -14.1113 C 53.3203 -13.7207 54.4922 -13.3789 55.6641 -13.1836 L 55.0781 -10.8887 C 54.9805 -10.4004 54.9316 -10.1074 54.9316 -9.86328 C 54.9316 -8.59375 55.7617 -7.8125 57.0801 -7.8125 C 58.1055 -7.8125 58.8379 -8.39844 59.082 -9.42383 L 59.9609 -12.9395 C 67.7246 -13.1836 73.877 -17.1875 76.123 -23.1445 C 76.4648 -24.0723 76.709 -25.0977 76.709 -26.0254 C 76.709 -28.6133 74.9023 -30.4199 72.168 -30.4199 C 69.9707 -30.4199 68.7012 -29.3457 67.8223 -27.1973 C 66.8457 -24.3652 64.7461 -22.3145 62.0117 -21.6309 L 67.3828 -43.4082 C 67.6758 -43.0664 67.9199 -42.5781 68.1152 -42.041 C 68.9941 -40.625 70.0684 -39.6973 72.0703 -39.6973 C 74.6582 -39.6973 76.3672 -41.4062 76.3672 -43.9453 C 76.3672 -45.1172 76.0254 -46.3379 75.4883 -47.4609 C 74.2188 -50.1465 72.3145 -52.3438 69.873 -53.9551 L 71.0938 -58.8867 C 71.1914 -59.1797 71.2402 -59.5215 71.2402 -59.8145 C 71.2402 -61.0352 70.4102 -61.9141 69.1895 -61.9141 C 68.1641 -61.9141 67.3828 -61.3281 67.1387 -60.3027 L 66.0645 -55.957 C 64.9902 -56.3477 63.8672 -56.6406 62.6465 -56.8848 L 63.1348 -58.8867 C 63.2324 -59.2285 63.2812 -59.5703 63.2812 -59.8145 C 63.2812 -61.0352 62.4512 -61.9141 61.2305 -61.9141 C 60.2051 -61.9141 59.4238 -61.3281 59.1309 -60.3027 L 58.3984 -57.0801 C 46.6309 -56.6895 39.4531 -48.4375 39.4531 -35.1074 Z M 54.248 -22.5098 L 60.7422 -48.7793 C 61.9629 -48.584 63.0371 -48.1445 64.0137 -47.4609 L 57.6172 -21.1914 C 56.3477 -21.3867 55.2246 -21.8262 54.248 -22.5098 Z M 49.2676 -35.0586 C 49.2676 -42.1387 51.8555 -47.0215 56.2988 -48.4375 L 50.9766 -26.8066 C 49.8535 -28.9551 49.2676 -31.7871 49.2676 -35.0586 Z"/>
  </g>
  <g id="Semibold-M" transform="matrix(1 0 0 1 1984.65 1126)">
   <path d="M 29.1016 10.9863 L 88.0859 10.9863 C 98.9746 10.9863 104.785 5.17578 104.785 -5.56641 L 104.785 -64.8438 C 104.785 -75.5859 98.9746 -81.3477 88.0859 -81.3477 L 29.1016 -81.3477 C 18.2617 -81.3477 12.4512 -75.5859 12.4512 -64.8438 L 12.4512 -5.56641 C 12.4512 5.22461 18.2617 10.9863 29.1016 10.9863 Z M 30.127 -0.195312 C 25.8789 -0.195312 23.6328 -2.34375 23.6328 -6.78711 L 23.6328 -63.623 C 23.6328 -68.0664 25.8789 -70.166 30.127 -70.166 L 87.1094 -70.166 C 91.2598 -70.166 93.6035 -68.0664 93.6035 -63.623 L 93.6035 -6.78711 C 93.6035 -2.34375 91.2598 -0.195312 87.1094 -0.195312 Z M 38.7207 -35.0098 C 38.7207 -26.1719 41.7969 -19.5312 47.1191 -15.8203 L 45.6543 -10.0098 C 45.5566 -9.7168 45.5078 -9.32617 45.5078 -8.98438 C 45.5078 -7.66602 46.4355 -6.78711 47.7051 -6.78711 C 48.7793 -6.78711 49.6094 -7.37305 49.9023 -8.49609 L 51.1719 -13.6719 C 52.3438 -13.1836 53.6133 -12.8418 54.9316 -12.5977 L 54.248 -10.0098 C 54.1504 -9.57031 54.1016 -9.22852 54.1016 -8.93555 C 54.1016 -7.61719 54.9316 -6.78711 56.2988 -6.78711 C 57.373 -6.78711 58.2031 -7.37305 58.4961 -8.49609 L 59.4727 -12.3535 C 67.2852 -12.6465 73.2422 -16.6992 75.4395 -22.7051 C 75.7812 -23.584 75.9766 -24.5117 75.9766 -25.4395 C 75.9766 -27.7344 74.4141 -29.3457 72.0215 -29.3457 C 70.0195 -29.3457 68.8477 -28.2715 68.1152 -26.3672 C 67.0898 -23.1445 64.5996 -20.752 61.2793 -20.1172 L 67.4316 -44.4824 C 67.7734 -44.0918 68.0664 -43.5059 68.2617 -42.8711 C 68.9941 -41.5039 69.9707 -40.5273 71.8262 -40.5273 C 74.1699 -40.5273 75.6836 -42.041 75.6836 -44.3359 C 75.6836 -45.3613 75.3906 -46.4355 74.9512 -47.4121 C 73.7793 -50.0977 72.0215 -52.2949 69.7266 -53.9551 L 71.0449 -59.375 C 71.1426 -59.7168 71.1914 -60.0098 71.1914 -60.3516 C 71.1914 -61.6211 70.3613 -62.5488 69.043 -62.5488 C 67.9688 -62.5488 67.0898 -61.9629 66.7969 -60.8398 L 65.6738 -56.2012 C 64.502 -56.6895 63.2812 -56.9824 61.9629 -57.2266 L 62.4512 -59.375 C 62.5488 -59.7168 62.6465 -60.0586 62.6465 -60.3516 C 62.6465 -61.6211 61.7676 -62.5488 60.4492 -62.5488 C 59.375 -62.5488 58.4961 -61.9629 58.252 -60.8398 L 57.4219 -57.4707 C 45.9473 -56.9336 38.7207 -48.3887 38.7207 -35.0098 Z M 52.9785 -21.1914 L 60.2051 -50 C 61.5234 -49.8047 62.7441 -49.3164 63.8184 -48.584 L 56.6895 -19.7754 C 55.2734 -20.0195 54.0527 -20.459 52.9785 -21.1914 Z M 47.3633 -34.9609 C 47.3633 -42.7734 50.3906 -48.1934 55.5176 -49.6582 L 49.4629 -25.5371 C 48.0957 -27.9785 47.3633 -31.2012 47.3633 -34.9609 Z"/>
  </g>
  <g id="Medium-M" transform="matrix(1 0 0 1 1688.47 1126)">
   <path d="M 28.5156 10.4492 L 87.6465 10.4492 C 98.2422 10.4492 103.711 4.98047 103.711 -5.46875 L 103.711 -64.8926 C 103.711 -75.3418 98.2422 -80.8105 87.6465 -80.8105 L 28.5156 -80.8105 C 17.9688 -80.8105 12.4512 -75.3906 12.4512 -64.8926 L 12.4512 -5.46875 C 12.4512 4.98047 17.9688 10.4492 28.5156 10.4492 Z M 29.1504 0.732422 C 24.6582 0.732422 22.168 -1.61133 22.168 -6.34766 L 22.168 -64.0137 C 22.168 -68.75 24.6582 -71.0938 29.1504 -71.0938 L 87.0117 -71.0938 C 91.4551 -71.0938 93.9941 -68.75 93.9941 -64.0137 L 93.9941 -6.34766 C 93.9941 -1.61133 91.4551 0.732422 87.0117 0.732422 Z M 38.2324 -34.9121 C 38.2324 -26.2207 41.1133 -19.5801 46.1426 -15.7227 L 44.5312 -9.375 C 44.4336 -8.98438 44.3848 -8.64258 44.3848 -8.30078 C 44.3848 -6.93359 45.3125 -6.00586 46.6309 -6.00586 C 47.8027 -6.00586 48.6816 -6.5918 48.9746 -7.8125 L 50.3418 -13.3301 C 51.6113 -12.793 52.9297 -12.4023 54.3457 -12.1582 L 53.6133 -9.32617 C 53.4668 -8.88672 53.4668 -8.59375 53.4668 -8.30078 C 53.4668 -6.88477 54.3457 -6.00586 55.7129 -6.00586 C 56.8848 -6.00586 57.7148 -6.5918 58.0078 -7.8125 L 59.082 -11.9141 C 66.8945 -12.2559 72.7539 -16.3086 74.9512 -22.3633 C 75.293 -23.1934 75.4883 -24.1211 75.4883 -25 C 75.4883 -27.0508 74.0723 -28.5645 71.9238 -28.5645 C 70.0684 -28.5645 68.9941 -27.4414 68.3594 -25.6836 C 67.2852 -22.2168 64.502 -19.6289 60.791 -18.9941 L 67.4316 -45.2637 C 67.8223 -44.873 68.1641 -44.2383 68.4082 -43.457 C 69.043 -42.1875 69.873 -41.1133 71.6797 -41.1133 C 73.7793 -41.1133 75.1465 -42.5293 75.1465 -44.5801 C 75.1465 -45.5566 74.9023 -46.4844 74.5117 -47.3633 C 73.4375 -50 71.7773 -52.2461 69.5801 -53.9551 L 70.9961 -59.7168 C 71.0938 -60.1074 71.1914 -60.4004 71.1914 -60.7422 C 71.1914 -62.1094 70.2637 -63.0371 68.8965 -63.0371 C 67.7734 -63.0371 66.8945 -62.4512 66.6016 -61.2305 L 65.332 -56.3965 C 64.1602 -56.9336 62.793 -57.2754 61.4258 -57.5195 L 61.9629 -59.7168 C 62.0605 -60.1074 62.1094 -60.4004 62.1094 -60.7422 C 62.1094 -62.1094 61.2305 -63.0371 59.8633 -63.0371 C 58.7402 -63.0371 57.8613 -62.4512 57.5195 -61.2305 L 56.6895 -57.7148 C 45.3613 -57.0801 38.2324 -48.3887 38.2324 -34.9121 Z M 52.0508 -20.2148 L 59.7656 -50.9277 C 61.1816 -50.7324 62.5 -50.1953 63.6719 -49.4629 L 55.957 -18.75 C 54.4434 -18.9453 53.1738 -19.4824 52.0508 -20.2148 Z M 45.9473 -34.9121 C 45.9473 -43.2617 49.3164 -49.0723 54.8828 -50.5859 L 48.3398 -24.5605 C 46.7773 -27.2461 45.9473 -30.7129 45.9473 -34.9121 Z"/>
  </g>
  <g id="Regular-M" transform="matrix(1 0 0 1 1392.45 1126)">
   <path d="M 27.7832 9.76562 L 87.0117 9.76562 C 97.2656 9.76562 102.344 4.6875 102.344 -5.37109 L 102.344 -64.9902 C 102.344 -75.0488 97.2656 -80.127 87.0117 -80.127 L 27.7832 -80.127 C 17.5781 -80.127 12.4512 -75.0977 12.4512 -64.9902 L 12.4512 -5.37109 C 12.4512 4.73633 17.5781 9.76562 27.7832 9.76562 Z M 27.8809 1.9043 C 22.998 1.9043 20.3125 -0.683594 20.3125 -5.76172 L 20.3125 -64.5996 C 20.3125 -69.6777 22.998 -72.2656 27.8809 -72.2656 L 86.9141 -72.2656 C 91.748 -72.2656 94.4824 -69.6777 94.4824 -64.5996 L 94.4824 -5.76172 C 94.4824 -0.683594 91.748 1.9043 86.9141 1.9043 Z M 37.5 -34.8145 C 37.5 -26.2695 40.2344 -19.6289 44.9219 -15.5762 L 43.1152 -8.49609 C 42.9688 -8.10547 42.9199 -7.76367 42.9199 -7.42188 C 42.9199 -5.95703 43.8965 -4.98047 45.3125 -4.98047 C 46.4844 -4.98047 47.4121 -5.56641 47.7539 -6.88477 L 49.2676 -12.8906 C 50.6348 -12.3047 52.0508 -11.8652 53.5645 -11.6211 L 52.7832 -8.44727 C 52.6367 -8.05664 52.5879 -7.76367 52.5879 -7.42188 C 52.5879 -5.95703 53.5156 -4.98047 54.9805 -4.98047 C 56.1523 -4.98047 57.0801 -5.56641 57.4219 -6.88477 L 58.5449 -11.3281 C 66.4551 -11.7188 72.1191 -15.8203 74.3164 -21.9238 C 74.6094 -22.7051 74.8047 -23.584 74.8047 -24.4141 C 74.8047 -26.1719 73.6328 -27.4902 71.7773 -27.4902 C 70.1172 -27.4902 69.1406 -26.3184 68.6523 -24.8535 C 67.5781 -20.9961 64.4043 -18.1152 60.0586 -17.4805 L 67.4805 -46.3379 C 67.9199 -45.8984 68.2617 -45.166 68.5547 -44.2871 C 69.043 -43.1152 69.7266 -41.9434 71.4355 -41.9434 C 73.291 -41.9434 74.4629 -43.1152 74.4629 -44.9707 C 74.4629 -45.752 74.2676 -46.582 73.9746 -47.3633 C 73.0469 -49.9512 71.4355 -52.1973 69.3848 -53.9551 L 70.9473 -60.2051 C 71.0449 -60.5957 71.1426 -60.9375 71.1426 -61.2793 C 71.1426 -62.6953 70.2148 -63.6719 68.75 -63.6719 C 67.5781 -63.6719 66.6504 -63.0859 66.3086 -61.7676 L 64.9414 -56.6406 C 63.6719 -57.2266 62.207 -57.6172 60.7422 -57.9102 L 61.2793 -60.2051 C 61.4258 -60.5469 61.4746 -60.9375 61.4746 -61.2793 C 61.4746 -62.6953 60.5469 -63.6719 59.082 -63.6719 C 57.9102 -63.6719 56.9824 -63.0859 56.6406 -61.7676 L 55.7129 -58.1055 C 44.6777 -57.3242 37.5 -48.3887 37.5 -34.8145 Z M 50.7812 -18.9453 L 59.2773 -52.0996 C 60.791 -51.9043 62.207 -51.3672 63.4766 -50.6348 L 55.0293 -17.334 C 53.418 -17.5781 52.002 -18.1152 50.7812 -18.9453 Z M 44.0918 -34.8145 C 44.0918 -43.8965 47.8516 -50.2441 54.1016 -51.8066 L 46.875 -23.3398 C 45.0684 -26.2695 44.0918 -30.127 44.0918 -34.8145 Z"/>
  </g>
  <g id="Light-M" transform="matrix(1 0 0 1 1096.47 1126)">
   <path d="M 26.8555 9.0332 L 86.4746 9.0332 C 95.9961 9.0332 100.879 4.15039 100.879 -5.22461 L 100.879 -65.0879 C 100.879 -74.5117 95.9961 -79.3945 86.4746 -79.3945 L 26.8555 -79.3945 C 17.334 -79.3945 12.4512 -74.5605 12.4512 -65.0879 L 12.4512 -5.22461 C 12.4512 4.19922 17.334 9.0332 26.8555 9.0332 Z M 26.9531 2.97852 C 21.4844 2.97852 18.5059 0.0976562 18.5059 -5.56641 L 18.5059 -64.7949 C 18.5059 -70.4102 21.4844 -73.3398 26.9531 -73.3398 L 86.3281 -73.3398 C 91.748 -73.3398 94.8242 -70.4102 94.8242 -64.7949 L 94.8242 -5.56641 C 94.8242 0.0976562 91.748 2.97852 86.3281 2.97852 Z M 37.6465 -34.9121 C 37.6465 -26.6602 40.1855 -20.166 44.7266 -16.3086 L 42.8711 -9.22852 C 42.7734 -8.88672 42.7246 -8.64258 42.7246 -8.34961 C 42.7246 -7.12891 43.5547 -6.29883 44.6777 -6.29883 C 45.7031 -6.29883 46.4355 -6.78711 46.7285 -7.86133 L 48.3398 -14.0137 C 49.8047 -13.2812 51.3672 -12.7441 53.0762 -12.5 L 52.1973 -9.17969 C 52.0996 -8.88672 52.0996 -8.64258 52.0996 -8.34961 C 52.0996 -7.08008 52.8809 -6.29883 54.0527 -6.29883 C 55.0781 -6.29883 55.8105 -6.78711 56.1035 -7.86133 L 57.2754 -12.2559 C 65.0391 -12.5 70.752 -16.5039 72.7539 -22.7051 C 72.998 -23.4863 73.2422 -24.3164 73.2422 -25.0977 C 73.2422 -26.5137 72.2656 -27.5391 70.8008 -27.5391 C 69.4824 -27.5391 68.6523 -26.6602 68.3105 -25.4395 C 67.334 -20.8496 63.623 -17.5781 58.4961 -17.1387 L 66.5039 -47.2656 C 67.334 -46.3379 67.9688 -45.0684 68.2129 -43.7012 C 68.6035 -42.627 69.2383 -41.748 70.6055 -41.748 C 72.0703 -41.748 72.9492 -42.7246 72.9492 -44.2383 C 72.9492 -44.9707 72.8027 -45.7031 72.5098 -46.4355 C 71.6309 -49.0723 70.1172 -51.3672 68.0176 -53.2227 L 69.7266 -59.5703 C 69.8242 -59.9121 69.873 -60.2051 69.873 -60.498 C 69.873 -61.6699 69.0918 -62.5488 67.8711 -62.5488 C 66.8945 -62.5488 66.1133 -62.0605 65.8203 -60.9375 L 64.3555 -55.5176 C 62.9883 -56.2988 61.377 -56.7871 59.7168 -57.0801 L 60.3516 -59.5703 C 60.4492 -59.9121 60.498 -60.2051 60.498 -60.498 C 60.498 -61.6699 59.7656 -62.5488 58.4961 -62.5488 C 57.5195 -62.5488 56.7383 -62.0117 56.4453 -60.9375 L 55.5176 -57.2754 C 44.4824 -56.7871 37.6465 -48.1934 37.6465 -34.9121 Z M 49.5605 -18.8477 L 58.4961 -52.4902 C 60.2051 -52.2461 61.7676 -51.6113 63.1836 -50.7324 L 54.2969 -17.041 C 52.4902 -17.334 50.9277 -17.9199 49.5605 -18.8477 Z M 42.7734 -34.9121 C 42.7734 -44.5801 47.0215 -51.1719 54.1992 -52.2949 L 46.2891 -22.3145 C 44.043 -25.3906 42.7734 -29.6875 42.7734 -34.9121 Z"/>
  </g>
  <g id="Thin-M" transform="matrix(1 0 0 1 800.758 1126)">
   <path d="M 25.6348 8.05664 L 85.7422 8.05664 C 94.3848 8.05664 98.877 3.4668 98.877 -5.0293 L 98.877 -65.2344 C 98.877 -73.7305 94.3848 -78.3691 85.7422 -78.3691 L 25.6348 -78.3691 C 16.9922 -78.3691 12.4512 -73.877 12.4512 -65.2344 L 12.4512 -5.0293 C 12.4512 3.56445 16.9922 8.05664 25.6348 8.05664 Z M 25.7324 4.44336 C 19.3848 4.44336 16.0645 1.12305 16.0645 -5.22461 L 16.0645 -65.0391 C 16.0645 -71.4355 19.3848 -74.7559 25.7324 -74.7559 L 85.5957 -74.7559 C 91.748 -74.7559 95.2637 -71.4355 95.2637 -65.0391 L 95.2637 -5.22461 C 95.2637 1.12305 91.748 4.44336 85.5957 4.44336 Z M 37.7441 -35.0586 C 37.7441 -27.0996 40.1367 -20.8984 44.4824 -17.2363 L 42.5293 -10.2051 C 42.4316 -9.96094 42.4316 -9.76562 42.4316 -9.61914 C 42.4316 -8.69141 43.1152 -8.00781 43.8477 -8.00781 C 44.6289 -8.00781 45.166 -8.39844 45.3613 -9.17969 L 47.1191 -15.4297 C 48.7305 -14.5996 50.4883 -13.9648 52.4414 -13.6719 L 51.5137 -10.1562 C 51.416 -9.96094 51.416 -9.76562 51.416 -9.57031 C 51.416 -8.59375 52.0508 -8.00781 52.832 -8.00781 C 53.6133 -8.00781 54.1504 -8.39844 54.3457 -9.17969 L 55.5176 -13.4277 C 63.1836 -13.5254 68.8965 -17.4316 70.7031 -23.7305 C 70.8984 -24.4629 71.1426 -25.3418 71.1426 -25.9766 C 71.1426 -26.9531 70.5078 -27.6855 69.4824 -27.6855 C 68.6035 -27.6855 68.0176 -27.0508 67.8711 -26.2207 C 67.041 -20.7031 62.6465 -16.8457 56.3965 -16.6016 L 65.2832 -48.4863 C 66.6016 -46.9727 67.5781 -44.9707 67.8223 -42.9688 C 68.0176 -41.9922 68.5547 -41.4551 69.4336 -41.4551 C 70.4102 -41.4551 70.9961 -42.1387 70.9961 -43.2617 C 70.9961 -43.8965 70.8496 -44.5801 70.6055 -45.2148 C 69.8242 -47.9492 68.3105 -50.3418 66.2598 -52.2461 L 68.0664 -58.7402 C 68.1641 -59.0332 68.2129 -59.2773 68.2129 -59.5215 C 68.2129 -60.3516 67.627 -61.0352 66.6992 -61.0352 C 66.0156 -61.0352 65.4297 -60.6934 65.2344 -59.8633 L 63.623 -54.1016 C 62.0605 -55.0293 60.2051 -55.6641 58.3496 -56.0059 L 59.082 -58.7402 C 59.1797 -58.9844 59.2285 -59.2773 59.2285 -59.5215 C 59.2285 -60.3516 58.6914 -61.0352 57.7637 -61.0352 C 56.9824 -61.0352 56.4453 -60.5957 56.25 -59.8633 L 55.2246 -56.2012 C 44.2871 -56.0547 37.7441 -47.9004 37.7441 -35.0586 Z M 41.1133 -35.0586 C 41.1133 -45.5566 45.9473 -52.3926 54.3457 -52.9785 L 45.459 -20.9961 C 42.627 -24.2188 41.1133 -29.0527 41.1133 -35.0586 Z M 47.998 -18.7012 L 57.4707 -52.9297 C 59.4238 -52.6367 61.2305 -51.9531 62.7441 -50.8789 L 53.3203 -16.6992 C 51.2695 -16.9922 49.5117 -17.627 47.998 -18.7012 Z"/>
  </g>
  <g id="Ultralight-M" transform="matrix(1 0 0 1 504.535 1126)">
   <path d="M 25 7.56836 L 85.3516 7.56836 C 93.5059 7.56836 97.9004 3.125 97.9004 -4.98047 L 97.9004 -65.2832 C 97.9004 -73.3887 93.5059 -77.832 85.3516 -77.832 L 25 -77.832 C 16.7969 -77.832 12.4512 -73.4863 12.4512 -65.2832 L 12.4512 -4.98047 C 12.4512 3.22266 16.7969 7.56836 25 7.56836 Z M 25.0977 5.17578 C 18.3594 5.17578 14.8438 1.66016 14.8438 -5.07812 L 14.8438 -65.1855 C 14.8438 -71.9727 18.3594 -75.4395 25.0977 -75.4395 L 85.2051 -75.4395 C 91.748 -75.4395 95.5078 -71.9727 95.5078 -65.1855 L 95.5078 -5.07812 C 95.5078 1.66016 91.748 5.17578 85.2051 5.17578 Z M 37.8418 -35.1562 C 37.8418 -27.3438 40.1367 -21.2891 44.3359 -17.7246 L 42.334 -10.6934 C 42.2852 -10.498 42.2852 -10.4004 42.2852 -10.2539 C 42.2852 -9.47266 42.9199 -8.88672 43.457 -8.88672 C 44.043 -8.88672 44.4824 -9.22852 44.6777 -9.81445 L 46.4844 -16.2109 C 48.1934 -15.2344 50.0488 -14.5508 52.1484 -14.2578 L 51.123 -10.6934 C 51.0742 -10.498 51.0742 -10.4004 51.0742 -10.2051 C 51.0742 -9.32617 51.6113 -8.88672 52.2461 -8.88672 C 52.832 -8.88672 53.2715 -9.22852 53.4668 -9.81445 L 54.6387 -14.0625 C 62.2559 -14.0625 67.9688 -17.9199 69.6289 -24.2676 C 69.8242 -24.9512 70.0684 -25.8301 70.0684 -26.4648 C 70.0684 -27.1973 69.5801 -27.7344 68.7988 -27.7344 C 68.1152 -27.7344 67.7246 -27.2461 67.6758 -26.6113 C 66.8945 -20.6055 62.1582 -16.4551 55.3223 -16.3574 L 64.6484 -49.0723 C 66.2109 -47.2656 67.334 -44.9219 67.5781 -42.5781 C 67.7246 -41.6504 68.2129 -41.3086 68.8477 -41.3086 C 69.5801 -41.3086 70.0195 -41.8457 70.0195 -42.7734 C 70.0195 -43.3594 69.8242 -43.9941 69.6289 -44.6289 C 68.8965 -47.3633 67.4316 -49.8047 65.332 -51.7578 L 67.2363 -58.3496 C 67.2852 -58.5938 67.334 -58.7891 67.334 -59.0332 C 67.334 -59.7168 66.8457 -60.2539 66.1133 -60.2539 C 65.5762 -60.2539 65.0879 -60.0098 64.8926 -59.3262 L 63.2324 -53.3203 C 61.5723 -54.3945 59.668 -55.0781 57.666 -55.4688 L 58.4473 -58.3496 C 58.4961 -58.5449 58.5938 -58.7891 58.5938 -59.0332 C 58.5938 -59.7168 58.1543 -60.2539 57.373 -60.2539 C 56.7383 -60.2539 56.2988 -59.8633 56.1523 -59.3262 L 55.0781 -55.6641 C 44.1895 -55.6641 37.8418 -47.7539 37.8418 -35.1562 Z M 40.2344 -35.1562 C 40.2344 -45.9961 45.3613 -53.0273 54.3945 -53.3203 L 45.0684 -20.3125 C 41.9434 -23.6328 40.2344 -28.7598 40.2344 -35.1562 Z M 47.168 -18.6035 L 56.9824 -53.1738 C 59.0332 -52.832 60.9375 -52.0996 62.5488 -50.9766 L 52.7832 -16.5039 C 50.6836 -16.7969 48.7793 -17.4805 47.168 -18.6035 Z"/>
  </g>
  <g id="Black-S" transform="matrix(1 0 0 1 2885.5 696)">
   <path d="M 25 2.92969 L 70.8008 2.92969 C 80.3711 2.92969 86.0352 -2.73438 86.0352 -12.3047 L 86.0352 -58.1055 C 86.0352 -67.6758 80.3711 -73.3398 70.8008 -73.3398 L 25 -73.3398 C 15.4297 -73.3398 9.76562 -67.6758 9.76562 -58.1055 L 9.76562 -12.3047 C 9.76562 -2.73438 15.4297 2.92969 25 2.92969 Z M 27.2461 -11.2305 C 25 -11.2305 23.9258 -12.1094 23.9258 -14.5508 L 23.9258 -55.8594 C 23.9258 -58.3008 25 -59.1797 27.2461 -59.1797 L 68.5547 -59.1797 C 70.8008 -59.1797 71.875 -58.3008 71.875 -55.8594 L 71.875 -14.5508 C 71.875 -12.1094 70.8008 -11.2305 68.5547 -11.2305 Z M 32.3242 -35.3516 C 32.3242 -27.9297 35.3027 -22.7539 40.5273 -20.4102 L 39.9414 -17.9688 C 39.8926 -17.7734 39.8438 -17.5293 39.8438 -17.2363 C 39.8438 -16.4062 40.4785 -15.8203 41.2598 -15.8203 C 41.8945 -15.8203 42.4316 -16.2598 42.5781 -16.8945 L 43.1641 -19.5312 C 43.8477 -19.3848 44.5312 -19.2383 45.2148 -19.1406 L 44.9219 -17.9688 C 44.8242 -17.5293 44.8242 -17.2852 44.8242 -17.1387 C 44.8242 -16.3086 45.4102 -15.8203 46.2891 -15.8203 C 46.9727 -15.8203 47.4121 -16.2598 47.5586 -16.8945 L 48.0469 -18.9941 C 54.0527 -19.043 59.1797 -22.1191 60.9863 -26.6602 C 61.3281 -27.4902 61.5234 -28.3691 61.5234 -29.1992 C 61.5234 -31.8848 59.668 -33.6914 56.8359 -33.6914 C 54.7363 -33.6914 53.5156 -32.8613 52.5391 -30.7129 C 51.8555 -29.248 51.0254 -28.2227 50.0488 -27.6855 L 52.7832 -39.4043 C 52.8809 -39.2578 52.9785 -39.0625 53.0762 -38.916 C 54.0039 -37.5977 55.1758 -37.0605 56.9336 -37.0605 C 59.5703 -37.0605 61.2793 -38.7695 61.2793 -41.3574 C 61.2793 -42.5293 60.9375 -43.75 60.3027 -44.873 C 59.082 -47.0703 57.373 -48.7793 55.1758 -49.9023 L 55.8594 -52.7832 C 55.9082 -52.9785 55.957 -53.2227 55.957 -53.418 C 55.957 -54.248 55.3711 -54.834 54.541 -54.834 C 53.9062 -54.834 53.3691 -54.3945 53.2227 -53.7598 L 52.5879 -50.9766 C 51.9531 -51.123 51.2695 -51.2695 50.5371 -51.416 L 50.8789 -52.832 C 50.9277 -53.0273 50.9766 -53.2715 50.9766 -53.418 C 50.9766 -54.248 50.3906 -54.834 49.5605 -54.834 C 48.9258 -54.834 48.3887 -54.3945 48.2422 -53.7598 L 47.7539 -51.6113 C 38.0371 -51.6113 32.3242 -45.6055 32.3242 -35.3516 Z M 45.1172 -27.8809 L 48.6816 -43.3594 C 49.4141 -43.2129 50.0488 -42.9199 50.5859 -42.4316 L 47.0703 -27.1484 C 46.3379 -27.2461 45.7031 -27.4902 45.1172 -27.8809 Z M 42.5293 -35.3027 C 42.5293 -39.3066 43.6523 -42.0898 45.752 -43.0664 L 43.0176 -31.2012 C 42.6758 -32.373 42.5293 -33.7402 42.5293 -35.3027 Z"/>
  </g>
  <g id="Heavy-S" transform="matrix(1 0 0 1 2589.4 696)">
   <path d="M 24.3652 2.34375 L 70.2637 2.34375 C 79.541 2.34375 84.8145 -2.97852 84.8145 -12.207 L 84.8145 -58.2031 C 84.8145 -67.4316 79.541 -72.7539 70.2637 -72.7539 L 24.3652 -72.7539 C 15.0879 -72.7539 9.76562 -67.4316 9.76562 -58.2031 L 9.76562 -12.207 C 9.76562 -2.97852 15.0879 2.34375 24.3652 2.34375 Z M 26.0742 -10.1562 C 23.5352 -10.1562 22.2656 -11.2793 22.2656 -14.0137 L 22.2656 -56.3965 C 22.2656 -59.1309 23.5352 -60.2539 26.0742 -60.2539 L 68.5059 -60.2539 C 71.0449 -60.2539 72.3633 -59.1309 72.3633 -56.3965 L 72.3633 -14.0137 C 72.3633 -11.2793 71.0449 -10.1562 68.5059 -10.1562 Z M 31.6406 -35.2051 C 31.6406 -27.9785 34.4238 -22.7539 39.3066 -20.2148 L 38.5254 -16.9922 C 38.4766 -16.7969 38.4277 -16.5039 38.4277 -16.2109 C 38.4277 -15.332 39.0625 -14.6484 39.9902 -14.6484 C 40.7227 -14.6484 41.3086 -15.1367 41.5039 -15.8691 L 42.1875 -18.9941 C 42.9688 -18.7988 43.7012 -18.6035 44.4824 -18.457 L 44.1406 -16.9922 C 44.043 -16.6016 44.043 -16.3574 44.043 -16.1621 C 44.043 -15.2344 44.6777 -14.6484 45.6543 -14.6484 C 46.3867 -14.6484 46.9238 -15.1367 47.1191 -15.8691 L 47.7051 -18.3105 C 53.7598 -18.4082 58.6914 -21.5332 60.498 -26.123 C 60.8398 -26.9043 61.0352 -27.7344 61.0352 -28.5645 C 61.0352 -30.957 59.375 -32.6172 56.7871 -32.6172 C 54.8828 -32.6172 53.7109 -31.7383 52.8809 -29.7852 C 52.1484 -28.0273 50.9766 -26.7578 49.5117 -26.2207 L 52.9297 -40.3809 C 53.0273 -40.2344 53.125 -39.9902 53.2715 -39.7949 C 54.1016 -38.5254 55.127 -37.8906 56.7871 -37.8906 C 59.1797 -37.8906 60.7422 -39.4531 60.7422 -41.7969 C 60.7422 -42.8223 60.4492 -43.9453 59.9121 -44.9219 C 58.7891 -47.1191 57.1777 -48.8281 55.127 -50 L 55.957 -53.3203 C 56.0059 -53.5645 56.0547 -53.8086 56.0547 -54.0039 C 56.0547 -54.9316 55.4199 -55.6152 54.4922 -55.6152 C 53.7598 -55.6152 53.1738 -55.127 52.9785 -54.3945 L 52.2461 -51.3184 C 51.5625 -51.5625 50.7812 -51.709 49.9512 -51.9043 L 50.293 -53.3691 C 50.3906 -53.6133 50.4395 -53.8574 50.4395 -54.0039 C 50.4395 -54.9316 49.8047 -55.6152 48.877 -55.6152 C 48.1445 -55.6152 47.5098 -55.127 47.3633 -54.3945 L 46.8262 -52.0508 C 37.3535 -51.9043 31.6406 -45.6055 31.6406 -35.2051 Z M 43.9941 -26.6113 L 48.2422 -44.5312 C 49.0723 -44.3848 49.8047 -44.043 50.4395 -43.5547 L 46.2402 -25.7812 C 45.3613 -25.8789 44.6777 -26.1719 43.9941 -26.6113 Z M 40.7715 -35.2051 C 40.7715 -39.8438 42.2852 -43.1152 44.9707 -44.2383 L 41.6016 -30.0781 C 41.0645 -31.4941 40.7715 -33.2031 40.7715 -35.2051 Z"/>
  </g>
  <g id="Bold-S" transform="matrix(1 0 0 1 2293.35 696)">
   <path d="M 23.6328 1.66016 L 69.6289 1.66016 C 78.6133 1.66016 83.4961 -3.22266 83.4961 -12.1094 L 83.4961 -58.3008 C 83.4961 -67.1875 78.6133 -72.0703 69.6289 -72.0703 L 23.6328 -72.0703 C 14.6973 -72.0703 9.76562 -67.1875 9.76562 -58.3008 L 9.76562 -12.1094 C 9.76562 -3.22266 14.6973 1.66016 23.6328 1.66016 Z M 24.8047 -8.93555 C 21.9238 -8.93555 20.3613 -10.3516 20.3613 -13.4277 L 20.3613 -56.9824 C 20.3613 -60.0586 21.9238 -61.4746 24.8047 -61.4746 L 68.457 -61.4746 C 71.3379 -61.4746 72.9004 -60.0586 72.9004 -56.9824 L 72.9004 -13.4277 C 72.9004 -10.3516 71.3379 -8.93555 68.457 -8.93555 Z M 30.8594 -35.1074 C 30.8594 -27.9785 33.3984 -22.7539 37.8906 -19.9707 L 36.9141 -15.9668 C 36.8652 -15.6738 36.8164 -15.3809 36.8164 -15.1367 C 36.8164 -14.0625 37.5 -13.3789 38.5254 -13.3789 C 39.3555 -13.3789 40.0391 -13.8184 40.2344 -14.7461 L 41.1133 -18.3594 C 41.9434 -18.1152 42.8223 -17.8711 43.7012 -17.7246 L 43.2617 -15.918 C 43.1641 -15.5273 43.1641 -15.2832 43.1641 -15.0391 C 43.1641 -14.0137 43.8477 -13.3789 44.9219 -13.3789 C 45.752 -13.3789 46.3867 -13.8184 46.582 -14.7461 L 47.2656 -17.5293 C 53.418 -17.7246 58.2031 -20.8984 60.0098 -25.5371 C 60.2539 -26.2695 60.4492 -27.0508 60.4492 -27.832 C 60.4492 -29.9316 58.9844 -31.3965 56.7871 -31.3965 C 54.9805 -31.3965 53.9551 -30.4688 53.2227 -28.7598 C 52.4414 -26.709 50.9277 -25.1465 48.9258 -24.6094 L 53.0762 -41.4551 C 53.1738 -41.3086 53.3203 -41.0645 53.4668 -40.7715 C 54.1504 -39.5996 55.0293 -38.8184 56.6895 -38.8184 C 58.7891 -38.8184 60.1562 -40.1855 60.1562 -42.2852 C 60.1562 -43.2129 59.9121 -44.1406 59.4727 -45.0195 C 58.4961 -47.1191 56.9824 -48.8281 55.0781 -50.0977 L 56.0547 -53.9551 C 56.1035 -54.1992 56.1523 -54.4434 56.1523 -54.6875 C 56.1523 -55.7129 55.4688 -56.4453 54.4434 -56.4453 C 53.5645 -56.4453 52.9297 -55.957 52.6855 -55.0781 L 51.9043 -51.7578 C 51.0742 -52.0508 50.2441 -52.2461 49.3164 -52.3926 L 49.707 -53.9551 C 49.7559 -54.1992 49.8047 -54.4922 49.8047 -54.6875 C 49.8047 -55.7129 49.1211 -56.4453 48.0957 -56.4453 C 47.2168 -56.4453 46.582 -55.957 46.3379 -55.0781 L 45.752 -52.5879 C 36.5723 -52.1973 30.8594 -45.6055 30.8594 -35.1074 Z M 42.7734 -25.1953 L 47.7539 -45.8496 C 48.6816 -45.7031 49.5117 -45.3125 50.2441 -44.8242 L 45.2637 -24.2676 C 44.3359 -24.4141 43.5059 -24.707 42.7734 -25.1953 Z M 38.8184 -35.0586 C 38.8184 -40.4785 40.7715 -44.2871 44.043 -45.5078 L 40.0391 -28.8086 C 39.2578 -30.5176 38.8184 -32.6172 38.8184 -35.0586 Z"/>
  </g>
  <g id="Semibold-S" transform="matrix(1 0 0 1 1997.1 696)">
   <path d="M 23.0957 1.17188 L 69.1895 1.17188 C 77.9297 1.17188 82.5684 -3.36914 82.5684 -12.0117 L 82.5684 -58.3984 C 82.5684 -67.041 77.9297 -71.582 69.1895 -71.582 L 23.0957 -71.582 C 14.4043 -71.582 9.76562 -67.041 9.76562 -58.3984 L 9.76562 -12.0117 C 9.76562 -3.36914 14.4043 1.17188 23.0957 1.17188 Z M 23.877 -8.10547 C 20.752 -8.10547 19.0918 -9.7168 19.0918 -12.9883 L 19.0918 -57.4219 C 19.0918 -60.6934 20.752 -62.3047 23.877 -62.3047 L 68.4082 -62.3047 C 71.5332 -62.3047 73.2422 -60.6934 73.2422 -57.4219 L 73.2422 -12.9883 C 73.2422 -9.7168 71.5332 -8.10547 68.4082 -8.10547 Z M 30.3223 -35.0098 C 30.3223 -27.9785 32.7148 -22.7539 36.9629 -19.7754 L 35.8398 -15.2344 C 35.7422 -14.9414 35.6934 -14.6484 35.6934 -14.3555 C 35.6934 -13.2324 36.4258 -12.4512 37.5488 -12.4512 C 38.4277 -12.4512 39.1602 -12.9395 39.4043 -13.916 L 40.3809 -17.9688 C 41.2598 -17.627 42.1875 -17.3828 43.1641 -17.1875 L 42.6758 -15.1855 C 42.5781 -14.7949 42.5293 -14.5508 42.5293 -14.3066 C 42.5293 -13.1836 43.2617 -12.4512 44.3848 -12.4512 C 45.3125 -12.4512 45.9961 -12.9395 46.2402 -13.916 L 47.0215 -16.9922 C 53.1738 -17.2363 57.8125 -20.459 59.6191 -25.1465 C 59.9121 -25.8301 60.0586 -26.5625 60.0586 -27.2949 C 60.0586 -29.1992 58.7402 -30.5664 56.7871 -30.5664 C 55.0781 -30.5664 54.1504 -29.6387 53.5156 -28.0273 C 52.6855 -25.7812 50.8789 -24.0234 48.5352 -23.4863 L 53.1738 -42.1875 C 53.2715 -42.0898 53.4668 -41.7969 53.6133 -41.4062 C 54.1992 -40.332 54.9805 -39.4531 56.5918 -39.4531 C 58.4961 -39.4531 59.7656 -40.7227 59.7656 -42.627 C 59.7656 -43.457 59.5703 -44.2871 59.1797 -45.0684 C 58.252 -47.168 56.8848 -48.877 55.0781 -50.1465 L 56.1035 -54.3457 C 56.1523 -54.6387 56.2012 -54.9316 56.2012 -55.1758 C 56.2012 -56.25 55.4688 -57.0312 54.3945 -57.0312 C 53.4668 -57.0312 52.7344 -56.543 52.4902 -55.5664 L 51.6113 -52.0508 C 50.7812 -52.3438 49.8535 -52.5879 48.877 -52.7832 L 49.2676 -54.3457 C 49.3164 -54.6387 49.3652 -54.9316 49.3652 -55.1758 C 49.3652 -56.25 48.6328 -57.0312 47.5586 -57.0312 C 46.6309 -57.0312 45.8984 -56.543 45.6543 -55.5664 L 45.0195 -52.9297 C 36.0352 -52.4414 30.3223 -45.6055 30.3223 -35.0098 Z M 41.8945 -24.2188 L 47.4121 -46.7285 C 48.3887 -46.582 49.3164 -46.1914 50.0977 -45.7031 L 44.6289 -23.1934 C 43.5547 -23.3398 42.6758 -23.6816 41.8945 -24.2188 Z M 37.5 -34.9609 C 37.5 -40.918 39.7461 -45.1172 43.4082 -46.4355 L 38.916 -27.9297 C 37.9883 -29.834 37.5 -32.1777 37.5 -34.9609 Z"/>
  </g>
  <g id="Medium-S" transform="matrix(1 0 0 1 1700.75 696)">
   <path d="M 22.7051 0.830078 L 68.8965 0.830078 C 77.4414 0.830078 81.8359 -3.51562 81.8359 -11.9629 L 81.8359 -58.4473 C 81.8359 -66.8945 77.4414 -71.2402 68.8965 -71.2402 L 22.7051 -71.2402 C 14.209 -71.2402 9.76562 -66.8945 9.76562 -58.4473 L 9.76562 -11.9629 C 9.76562 -3.51562 14.209 0.830078 22.7051 0.830078 Z M 23.1934 -7.4707 C 19.9219 -7.4707 18.0664 -9.22852 18.0664 -12.6953 L 18.0664 -57.7148 C 18.0664 -61.1816 19.9219 -62.9395 23.1934 -62.9395 L 68.4082 -62.9395 C 71.6797 -62.9395 73.5352 -61.1816 73.5352 -57.7148 L 73.5352 -12.6953 C 73.5352 -9.22852 71.6797 -7.4707 68.4082 -7.4707 Z M 29.8828 -34.9121 C 29.8828 -28.0273 32.2266 -22.7539 36.2305 -19.6777 L 34.9609 -14.6484 C 34.9121 -14.3555 34.8633 -14.0137 34.8633 -13.7695 C 34.8633 -12.5977 35.6445 -11.7676 36.7676 -11.7676 C 37.7441 -11.7676 38.5254 -12.3047 38.7695 -13.3301 L 39.7949 -17.627 C 40.7227 -17.2852 41.748 -16.9922 42.7734 -16.7969 L 42.1875 -14.5996 C 42.0898 -14.2578 42.0898 -14.0137 42.0898 -13.7207 C 42.0898 -12.5488 42.8223 -11.7676 43.9941 -11.7676 C 44.9707 -11.7676 45.752 -12.3047 45.9961 -13.3301 L 46.7773 -16.6016 C 52.9785 -16.8945 57.5684 -20.1172 59.3262 -24.8535 C 59.6191 -25.4883 59.7656 -26.2207 59.7656 -26.9043 C 59.7656 -28.6621 58.5938 -29.9316 56.7383 -29.9316 C 55.1758 -29.9316 54.248 -28.9551 53.7109 -27.4902 C 52.832 -25.0488 50.8301 -23.1934 48.2422 -22.6562 L 53.2227 -42.7734 C 53.3691 -42.627 53.5156 -42.334 53.7109 -41.9434 C 54.248 -40.918 54.9316 -39.9414 56.4941 -39.9414 C 58.3008 -39.9414 59.4727 -41.1133 59.4727 -42.8711 C 59.4727 -43.6523 59.2773 -44.3848 58.9355 -45.1172 C 58.1055 -47.168 56.7383 -48.877 55.0293 -50.1953 L 56.1523 -54.6875 C 56.25 -54.9805 56.2988 -55.2734 56.2988 -55.5176 C 56.2988 -56.6895 55.5176 -57.4707 54.3457 -57.4707 C 53.3691 -57.4707 52.6367 -56.9824 52.3438 -55.957 L 51.416 -52.2461 C 50.5371 -52.5879 49.5605 -52.832 48.5352 -53.0273 L 48.9258 -54.6875 C 49.0234 -54.9805 49.0723 -55.2734 49.0723 -55.5176 C 49.0723 -56.6895 48.291 -57.4707 47.1191 -57.4707 C 46.1426 -57.4707 45.4102 -56.9824 45.1172 -55.957 L 44.4824 -53.1738 C 35.5957 -52.5879 29.8828 -45.6055 29.8828 -34.9121 Z M 41.2598 -23.4863 L 47.1191 -47.4121 C 48.1934 -47.2656 49.1699 -46.875 50.0488 -46.3867 L 44.1406 -22.4121 C 43.0176 -22.5586 42.0898 -22.9492 41.2598 -23.4863 Z M 36.4746 -34.9121 C 36.4746 -41.2598 38.9648 -45.752 42.9688 -47.0703 L 38.0859 -27.2461 C 37.0605 -29.2969 36.4746 -31.8848 36.4746 -34.9121 Z"/>
  </g>
  <g id="Regular-S" transform="matrix(1 0 0 1 1404.51 696)">
   <path d="M 22.2168 0.390625 L 68.457 0.390625 C 76.8066 0.390625 80.9082 -3.71094 80.9082 -11.9141 L 80.9082 -58.4961 C 80.9082 -66.6992 76.8066 -70.8008 68.457 -70.8008 L 22.2168 -70.8008 C 13.916 -70.8008 9.76562 -66.6992 9.76562 -58.4961 L 9.76562 -11.9141 C 9.76562 -3.71094 13.916 0.390625 22.2168 0.390625 Z M 22.3145 -6.68945 C 18.7988 -6.68945 16.7969 -8.54492 16.7969 -12.2559 L 16.7969 -58.1543 C 16.7969 -61.8164 18.7988 -63.7207 22.3145 -63.7207 L 68.3594 -63.7207 C 71.875 -63.7207 73.877 -61.8164 73.877 -58.1543 L 73.877 -12.2559 C 73.877 -8.54492 71.875 -6.68945 68.3594 -6.68945 Z M 29.3457 -34.8145 C 29.3457 -28.0273 31.543 -22.7539 35.2539 -19.4824 L 33.8867 -13.916 C 33.7891 -13.623 33.7402 -13.2812 33.7402 -12.9883 C 33.7402 -11.7676 34.5703 -10.8887 35.791 -10.8887 C 36.8164 -10.8887 37.6465 -11.4258 37.9395 -12.5488 L 39.0625 -17.1875 C 40.0391 -16.7969 41.1133 -16.5039 42.1875 -16.3086 L 41.6016 -13.8672 C 41.5039 -13.5742 41.4551 -13.2812 41.4551 -12.9883 C 41.4551 -11.7676 42.2363 -10.8887 43.5059 -10.8887 C 44.5312 -10.8887 45.3613 -11.4258 45.6543 -12.5488 L 46.5332 -16.0645 C 52.7832 -16.4062 57.2266 -19.6777 58.9844 -24.4141 C 59.2285 -25.0488 59.375 -25.7324 59.375 -26.416 C 59.375 -27.9785 58.3496 -29.1016 56.7383 -29.1016 C 55.2734 -29.1016 54.3945 -28.125 53.9551 -26.8066 C 53.0273 -24.1699 50.8301 -22.0703 47.8516 -21.5332 L 53.3203 -43.5059 C 53.4668 -43.3594 53.6621 -43.0664 53.8574 -42.5781 C 54.3457 -41.6016 54.8828 -40.5762 56.3965 -40.5762 C 58.0078 -40.5762 59.0332 -41.6504 59.0332 -43.2129 C 59.0332 -43.8477 58.8867 -44.5312 58.6426 -45.166 C 57.9102 -47.168 56.6406 -48.877 55.0293 -50.293 L 56.2012 -55.0781 C 56.2988 -55.4199 56.3477 -55.7129 56.3477 -56.0059 C 56.3477 -57.2266 55.5176 -58.0566 54.2969 -58.0566 C 53.2715 -58.0566 52.4414 -57.5684 52.1973 -56.3965 L 51.1719 -52.5391 C 50.2441 -52.9297 49.1699 -53.1738 48.0957 -53.3691 L 48.4863 -55.0781 C 48.584 -55.4199 48.6328 -55.7129 48.6328 -56.0059 C 48.6328 -57.2266 47.8027 -58.0566 46.582 -58.0566 C 45.5566 -58.0566 44.7266 -57.5684 44.4336 -56.3965 L 43.75 -53.5156 C 35.0586 -52.7832 29.3457 -45.6055 29.3457 -34.8145 Z M 40.3809 -22.5586 L 46.8262 -48.291 C 47.9004 -48.1445 48.9746 -47.7539 49.9023 -47.2168 L 43.5059 -21.3379 C 42.2852 -21.5332 41.3086 -21.9238 40.3809 -22.5586 Z M 35.1562 -34.8145 C 35.1562 -41.6504 37.8906 -46.5332 42.334 -47.998 L 37.0117 -26.416 C 35.8398 -28.6133 35.1562 -31.4941 35.1562 -34.8145 Z"/>
  </g>
  <g id="Light-S" transform="matrix(1 0 0 1 1108.46 696)">
   <path d="M 21.3867 -0.292969 L 67.9688 -0.292969 C 75.7324 -0.292969 79.5898 -4.15039 79.5898 -11.7676 L 79.5898 -58.5938 C 79.5898 -66.2109 75.7324 -70.1172 67.9688 -70.1172 L 21.3867 -70.1172 C 13.6719 -70.1172 9.76562 -66.2598 9.76562 -58.5938 L 9.76562 -11.7676 C 9.76562 -4.15039 13.6719 -0.292969 21.3867 -0.292969 Z M 21.4844 -5.71289 C 17.4316 -5.71289 15.1855 -7.86133 15.1855 -12.0605 L 15.1855 -58.3008 C 15.1855 -62.5 17.4316 -64.6973 21.4844 -64.6973 L 67.8711 -64.6973 C 71.875 -64.6973 74.1699 -62.5 74.1699 -58.3008 L 74.1699 -12.0605 C 74.1699 -7.86133 71.875 -5.71289 67.8711 -5.71289 Z M 29.4434 -34.9121 C 29.4434 -28.3691 31.4941 -23.2422 35.1074 -20.1172 L 33.6914 -14.5996 C 33.5938 -14.3066 33.5449 -14.0625 33.5449 -13.8184 C 33.5449 -12.793 34.2773 -12.0605 35.2539 -12.0605 C 36.1328 -12.0605 36.7676 -12.5 37.0117 -13.4277 L 38.2324 -18.1641 C 39.3555 -17.6758 40.5273 -17.2852 41.7969 -17.0898 L 41.1133 -14.5508 C 41.0645 -14.2578 41.0156 -14.0625 41.0156 -13.8184 C 41.0156 -12.7441 41.6992 -12.0605 42.7246 -12.0605 C 43.5547 -12.0605 44.2383 -12.5 44.4824 -13.4277 L 45.3613 -16.8457 C 51.5137 -17.1387 55.957 -20.3125 57.6172 -25.1465 C 57.8125 -25.7324 57.959 -26.416 57.959 -27.002 C 57.959 -28.2715 57.1289 -29.1992 55.8594 -29.1992 C 54.6875 -29.1992 54.0039 -28.3691 53.6621 -27.3438 C 52.832 -24.0234 50.1465 -21.582 46.4355 -21.1914 L 52.4902 -44.2871 C 52.9785 -43.7988 53.3691 -42.9688 53.5645 -42.0898 C 53.9062 -41.2109 54.4434 -40.3809 55.6641 -40.3809 C 56.9336 -40.3809 57.7637 -41.2598 57.7637 -42.5293 C 57.7637 -43.1641 57.6172 -43.7988 57.373 -44.3848 C 56.6895 -46.4355 55.4199 -48.1934 53.8086 -49.6094 L 55.127 -54.541 C 55.1758 -54.834 55.2246 -55.0781 55.2246 -55.3223 C 55.2246 -56.3477 54.541 -57.0801 53.5156 -57.0801 C 52.6855 -57.0801 52.002 -56.6406 51.7578 -55.7129 L 50.6836 -51.5625 C 49.6094 -52.0996 48.4375 -52.4414 47.168 -52.6855 L 47.6562 -54.541 C 47.7539 -54.834 47.8027 -55.0781 47.8027 -55.3223 C 47.8027 -56.3477 47.1191 -57.0801 46.0938 -57.0801 C 45.2148 -57.0801 44.5312 -56.5918 44.2871 -55.7129 L 43.5547 -52.832 C 34.9121 -52.2949 29.4434 -45.459 29.4434 -34.9121 Z M 39.3066 -22.4609 L 46.1426 -48.584 C 47.4121 -48.4375 48.584 -47.9492 49.6094 -47.3145 L 42.8223 -21.0938 C 41.5039 -21.2891 40.332 -21.7285 39.3066 -22.4609 Z M 34.0332 -34.9121 C 34.0332 -42.2852 37.1582 -47.3633 42.4316 -48.4375 L 36.4746 -25.4883 C 34.9121 -27.832 34.0332 -31.0547 34.0332 -34.9121 Z"/>
  </g>
  <g id="Thin-S" transform="matrix(1 0 0 1 812.599 696)">
   <path d="M 20.3125 -1.12305 L 67.334 -1.12305 C 74.2676 -1.12305 77.8809 -4.78516 77.8809 -11.6211 L 77.8809 -58.6914 C 77.8809 -65.5762 74.2676 -69.2383 67.334 -69.2383 L 20.3125 -69.2383 C 13.3789 -69.2383 9.76562 -65.625 9.76562 -58.6914 L 9.76562 -11.6211 C 9.76562 -4.6875 13.3789 -1.12305 20.3125 -1.12305 Z M 20.4102 -4.44336 C 15.625 -4.44336 13.0859 -6.93359 13.0859 -11.8164 L 13.0859 -58.5449 C 13.0859 -63.3789 15.625 -65.918 20.4102 -65.918 L 67.2363 -65.918 C 71.875 -65.918 74.5605 -63.3789 74.5605 -58.5449 L 74.5605 -11.8164 C 74.5605 -6.93359 71.875 -4.44336 67.2363 -4.44336 Z M 29.541 -35.0586 C 29.541 -28.7598 31.4941 -23.877 34.9121 -20.9473 L 33.3984 -15.4297 C 33.3496 -15.2344 33.3008 -15.0879 33.3008 -14.9414 C 33.3008 -14.1113 33.8867 -13.5742 34.5215 -13.5742 C 35.1562 -13.5742 35.6445 -13.916 35.8398 -14.5508 L 37.1582 -19.4336 C 38.3789 -18.7988 39.7461 -18.3105 41.2109 -18.1152 L 40.4785 -15.4297 C 40.4297 -15.2344 40.4297 -15.0879 40.4297 -14.8926 C 40.4297 -14.0625 40.9668 -13.5742 41.6504 -13.5742 C 42.2852 -13.5742 42.7246 -13.916 42.9199 -14.5508 L 43.8477 -17.9199 C 49.8535 -18.0176 54.3457 -21.0938 55.8105 -26.0254 C 55.957 -26.6113 56.1523 -27.2949 56.1523 -27.832 C 56.1523 -28.6621 55.5664 -29.2969 54.6875 -29.2969 C 53.9062 -29.2969 53.418 -28.7109 53.2715 -28.0273 C 52.5879 -23.877 49.2676 -20.9473 44.5801 -20.752 L 51.3672 -45.3613 C 52.3438 -44.2871 53.0273 -42.8711 53.2227 -41.4551 C 53.418 -40.625 53.8574 -40.1367 54.6387 -40.1367 C 55.5176 -40.1367 56.0059 -40.7715 56.0059 -41.6992 C 56.0059 -42.2363 55.8594 -42.7734 55.7129 -43.3105 C 55.0781 -45.4102 53.8574 -47.2656 52.2461 -48.7305 L 53.6621 -53.8086 C 53.7109 -54.0527 53.7598 -54.248 53.7598 -54.4434 C 53.7598 -55.1758 53.2715 -55.7129 52.4902 -55.7129 C 51.9043 -55.7129 51.416 -55.4688 51.2207 -54.7363 L 50 -50.293 C 48.8281 -50.9766 47.4121 -51.4648 45.9961 -51.709 L 46.5332 -53.8086 C 46.6309 -54.0039 46.6797 -54.248 46.6797 -54.4434 C 46.6797 -55.1758 46.1914 -55.7129 45.4102 -55.7129 C 44.7754 -55.7129 44.2871 -55.3711 44.1406 -54.7363 L 43.3105 -51.8555 C 34.7656 -51.6602 29.541 -45.2148 29.541 -35.0586 Z M 37.8906 -22.3145 L 45.2637 -49.0234 C 46.7285 -48.7793 48.0957 -48.2422 49.2676 -47.4609 L 41.9434 -20.752 C 40.4297 -20.9961 39.0625 -21.4844 37.8906 -22.3145 Z M 32.5195 -35.0586 C 32.5195 -43.1152 36.2305 -48.4375 42.5293 -48.9746 L 35.791 -24.3164 C 33.6914 -26.8066 32.5195 -30.5176 32.5195 -35.0586 Z"/>
  </g>
  <g id="Ultralight-S" transform="matrix(1 0 0 1 516.352 696)">
   <path d="M 19.7754 -1.5625 L 66.9922 -1.5625 C 73.5352 -1.5625 76.9531 -5.12695 76.9531 -11.5234 L 76.9531 -58.7891 C 76.9531 -65.2344 73.5352 -68.75 66.9922 -68.75 L 19.7754 -68.75 C 13.2324 -68.75 9.76562 -65.2832 9.76562 -58.7891 L 9.76562 -11.5234 C 9.76562 -5.0293 13.2324 -1.5625 19.7754 -1.5625 Z M 19.873 -3.75977 C 14.6484 -3.75977 11.9629 -6.44531 11.9629 -11.6699 L 11.9629 -58.6426 C 11.9629 -63.8672 14.6484 -66.5527 19.873 -66.5527 L 66.8945 -66.5527 C 71.875 -66.5527 74.7559 -63.8672 74.7559 -58.6426 L 74.7559 -11.6699 C 74.7559 -6.44531 71.875 -3.75977 66.8945 -3.75977 Z M 29.6387 -35.1562 C 29.6387 -29.0039 31.4453 -24.1699 34.8145 -21.3867 L 33.252 -15.8691 C 33.2031 -15.7227 33.2031 -15.625 33.2031 -15.4785 C 33.2031 -14.8438 33.6914 -14.3555 34.1797 -14.3555 C 34.668 -14.3555 35.0586 -14.6484 35.2051 -15.1367 L 36.6211 -20.1172 C 37.8906 -19.3848 39.3555 -18.8477 40.918 -18.6523 L 40.1855 -15.8691 C 40.0879 -15.7227 40.0879 -15.625 40.0879 -15.4297 C 40.0879 -14.7461 40.5762 -14.3555 41.1133 -14.3555 C 41.6016 -14.3555 41.9922 -14.6484 42.1387 -15.1367 L 43.0664 -18.457 C 49.0234 -18.5059 53.5156 -21.5332 54.834 -26.5137 C 54.9805 -27.0508 55.1758 -27.7344 55.1758 -28.2227 C 55.1758 -28.8574 54.7852 -29.3457 54.1016 -29.3457 C 53.5156 -29.3457 53.125 -28.9062 53.0762 -28.3691 C 52.4902 -23.7793 48.8281 -20.6543 43.6035 -20.5078 L 50.8301 -45.8984 C 52.002 -44.5801 52.832 -42.8223 53.0273 -41.1133 C 53.125 -40.332 53.5156 -40.0391 54.1016 -40.0391 C 54.7363 -40.0391 55.127 -40.4785 55.127 -41.2598 C 55.127 -41.748 54.9805 -42.2363 54.834 -42.7734 C 54.248 -44.873 53.0762 -46.7773 51.4648 -48.291 L 52.9297 -53.4668 C 52.9785 -53.6621 53.0273 -53.8086 53.0273 -54.0039 C 53.0273 -54.5898 52.5879 -55.0293 51.9531 -55.0293 C 51.5137 -55.0293 51.0742 -54.834 50.9277 -54.248 L 49.6582 -49.6094 C 48.3887 -50.4395 46.875 -50.9277 45.3613 -51.2207 L 45.9961 -53.4668 C 46.0449 -53.6133 46.0938 -53.8086 46.0938 -54.0039 C 46.0938 -54.5898 45.7031 -55.0293 45.0684 -55.0293 C 44.5312 -55.0293 44.1895 -54.7363 43.9941 -54.248 L 43.2129 -51.3672 C 34.6191 -51.3672 29.6387 -45.1172 29.6387 -35.1562 Z M 31.7871 -35.1562 C 31.7871 -43.5547 35.6934 -48.9746 42.627 -49.3164 L 35.4492 -23.7305 C 33.0566 -26.2695 31.7871 -30.2246 31.7871 -35.1562 Z M 37.1582 -22.2168 L 44.7754 -49.2188 C 46.3867 -48.9746 47.8027 -48.3887 49.0723 -47.5586 L 41.5039 -20.6055 C 39.8926 -20.8496 38.4277 -21.3867 37.1582 -22.2168 Z"/>
  </g>
 </g>
</svg>
