<?xml version="1.0" encoding="UTF-8"?>
<!--Generator: Apple Native CoreSVG 123-->
<!DOCTYPE svg
PUBLIC "-//W3C//DTD SVG 1.1//EN"
       "http://www.w3.org/Graphics/SVG/1.1/DTD/svg11.dtd">
<svg version="1.1" xmlns="http://www.w3.org/2000/svg" xmlns:xlink="http://www.w3.org/1999/xlink" width="3300" height="2200">
 <!--glyph: "uni1005D7.medium", point size: 100.000000, font version: "Version 15.0d7e11", template writer version: "5"-->
 <g id="Notes">
  <rect height="2200" id="artboard" style="fill:white;opacity:1" width="3300" x="0" y="0"/>
  <line id="" style="fill:none;stroke:black;opacity:1;stroke-width:0.5;" x1="263" x2="3036" y1="292" y2="292"/>
  <text style="stroke:none;fill:black;font-family:-apple-system,&quot;SF Pro Display&quot;,&quot;SF Pro Text&quot;,Helvetica,sans-serif;font-weight:bold;" transform="matrix(1 0 0 1 263 322)">Weight/Scale Variations</text>
  <text style="stroke:none;fill:black;font-family:-apple-system,&quot;SF Pro Display&quot;,&quot;SF Pro Text&quot;,Helvetica,sans-serif;text-anchor:middle;" transform="matrix(1 0 0 1 559.711 322)">Ultralight</text>
  <text style="stroke:none;fill:black;font-family:-apple-system,&quot;SF Pro Display&quot;,&quot;SF Pro Text&quot;,Helvetica,sans-serif;text-anchor:middle;" transform="matrix(1 0 0 1 856.422 322)">Thin</text>
  <text style="stroke:none;fill:black;font-family:-apple-system,&quot;SF Pro Display&quot;,&quot;SF Pro Text&quot;,Helvetica,sans-serif;text-anchor:middle;" transform="matrix(1 0 0 1 1153.13 322)">Light</text>
  <text style="stroke:none;fill:black;font-family:-apple-system,&quot;SF Pro Display&quot;,&quot;SF Pro Text&quot;,Helvetica,sans-serif;text-anchor:middle;" transform="matrix(1 0 0 1 1449.84 322)">Regular</text>
  <text style="stroke:none;fill:black;font-family:-apple-system,&quot;SF Pro Display&quot;,&quot;SF Pro Text&quot;,Helvetica,sans-serif;text-anchor:middle;" transform="matrix(1 0 0 1 1746.56 322)">Medium</text>
  <text style="stroke:none;fill:black;font-family:-apple-system,&quot;SF Pro Display&quot;,&quot;SF Pro Text&quot;,Helvetica,sans-serif;text-anchor:middle;" transform="matrix(1 0 0 1 2043.27 322)">Semibold</text>
  <text style="stroke:none;fill:black;font-family:-apple-system,&quot;SF Pro Display&quot;,&quot;SF Pro Text&quot;,Helvetica,sans-serif;text-anchor:middle;" transform="matrix(1 0 0 1 2339.98 322)">Bold</text>
  <text style="stroke:none;fill:black;font-family:-apple-system,&quot;SF Pro Display&quot;,&quot;SF Pro Text&quot;,Helvetica,sans-serif;text-anchor:middle;" transform="matrix(1 0 0 1 2636.69 322)">Heavy</text>
  <text style="stroke:none;fill:black;font-family:-apple-system,&quot;SF Pro Display&quot;,&quot;SF Pro Text&quot;,Helvetica,sans-serif;text-anchor:middle;" transform="matrix(1 0 0 1 2933.4 322)">Black</text>
  <line id="" style="fill:none;stroke:black;opacity:1;stroke-width:0.5;" x1="263" x2="3036" y1="1903" y2="1903"/>
  <g id="" transform="matrix(1 0 0 1 263 1933)">
   <path d="M 9.24805 0.830078 C 13.5547 0.830078 17.1387 -2.74414 17.1387 -7.05078 C 17.1387 -11.3574 13.5449 -14.9316 9.23828 -14.9316 C 4.94141 -14.9316 1.36719 -11.3574 1.36719 -7.05078 C 1.36719 -2.74414 4.95117 0.830078 9.24805 0.830078 Z M 9.24805 -0.654297 C 5.70312 -0.654297 2.87109 -3.49609 2.87109 -7.05078 C 2.87109 -10.6055 5.69336 -13.4473 9.23828 -13.4473 C 12.793 -13.4473 15.6348 -10.6055 15.6445 -7.05078 C 15.6543 -3.49609 12.8027 -0.654297 9.24805 -0.654297 Z M 9.22852 -3.42773 C 9.69727 -3.42773 9.9707 -3.74023 9.9707 -4.25781 L 9.9707 -6.31836 L 12.1973 -6.31836 C 12.6953 -6.31836 13.0371 -6.57227 13.0371 -7.04102 C 13.0371 -7.51953 12.7148 -7.7832 12.1973 -7.7832 L 9.9707 -7.7832 L 9.9707 -10.0098 C 9.9707 -10.5273 9.69727 -10.8496 9.22852 -10.8496 C 8.75977 -10.8496 8.50586 -10.5078 8.50586 -10.0098 L 8.50586 -7.7832 L 6.29883 -7.7832 C 5.78125 -7.7832 5.44922 -7.51953 5.44922 -7.04102 C 5.44922 -6.57227 5.80078 -6.31836 6.29883 -6.31836 L 8.50586 -6.31836 L 8.50586 -4.25781 C 8.50586 -3.75977 8.75977 -3.42773 9.22852 -3.42773 Z"/>
  </g>
  <g id="" transform="matrix(1 0 0 1 281.506 1933)">
   <path d="M 11.709 2.91016 C 17.1582 2.91016 21.6699 -1.60156 21.6699 -7.05078 C 21.6699 -12.4902 17.1484 -17.0117 11.6992 -17.0117 C 6.25977 -17.0117 1.74805 -12.4902 1.74805 -7.05078 C 1.74805 -1.60156 6.26953 2.91016 11.709 2.91016 Z M 11.709 1.25 C 7.09961 1.25 3.41797 -2.44141 3.41797 -7.05078 C 3.41797 -11.6504 7.08984 -15.3516 11.6992 -15.3516 C 16.3086 -15.3516 20 -11.6504 20.0098 -7.05078 C 20.0195 -2.44141 16.3184 1.25 11.709 1.25 Z M 11.6895 -2.41211 C 12.207 -2.41211 12.5195 -2.77344 12.5195 -3.33984 L 12.5195 -6.23047 L 15.5762 -6.23047 C 16.123 -6.23047 16.5039 -6.51367 16.5039 -7.03125 C 16.5039 -7.55859 16.1426 -7.86133 15.5762 -7.86133 L 12.5195 -7.86133 L 12.5195 -10.9277 C 12.5195 -11.5039 12.207 -11.8555 11.6895 -11.8555 C 11.1719 -11.8555 10.8789 -11.4844 10.8789 -10.9277 L 10.8789 -7.86133 L 7.83203 -7.86133 C 7.26562 -7.86133 6.89453 -7.55859 6.89453 -7.03125 C 6.89453 -6.51367 7.28516 -6.23047 7.83203 -6.23047 L 10.8789 -6.23047 L 10.8789 -3.33984 C 10.8789 -2.79297 11.1719 -2.41211 11.6895 -2.41211 Z"/>
  </g>
  <g id="" transform="matrix(1 0 0 1 304.924 1933)">
   <path d="M 14.9707 5.67383 C 21.9336 5.67383 27.6953 -0.078125 27.6953 -7.04102 C 27.6953 -14.0039 21.9238 -19.7559 14.9609 -19.7559 C 8.00781 -19.7559 2.25586 -14.0039 2.25586 -7.04102 C 2.25586 -0.078125 8.01758 5.67383 14.9707 5.67383 Z M 14.9707 3.85742 C 8.93555 3.85742 4.08203 -1.00586 4.08203 -7.04102 C 4.08203 -13.0762 8.92578 -17.9395 14.9609 -17.9395 C 21.0059 -17.9395 25.8594 -13.0762 25.8691 -7.04102 C 25.8789 -1.00586 21.0156 3.85742 14.9707 3.85742 Z M 14.9512 -1.06445 C 15.5176 -1.06445 15.8691 -1.45508 15.8691 -2.06055 L 15.8691 -6.13281 L 20.1074 -6.13281 C 20.6934 -6.13281 21.1133 -6.46484 21.1133 -7.02148 C 21.1133 -7.59766 20.7227 -7.93945 20.1074 -7.93945 L 15.8691 -7.93945 L 15.8691 -12.1875 C 15.8691 -12.8027 15.5176 -13.1934 14.9512 -13.1934 C 14.3848 -13.1934 14.0625 -12.7832 14.0625 -12.1875 L 14.0625 -7.93945 L 9.83398 -7.93945 C 9.21875 -7.93945 8.80859 -7.59766 8.80859 -7.02148 C 8.80859 -6.46484 9.23828 -6.13281 9.83398 -6.13281 L 14.0625 -6.13281 L 14.0625 -2.06055 C 14.0625 -1.47461 14.3848 -1.06445 14.9512 -1.06445 Z"/>
  </g>
  <text style="stroke:none;fill:black;font-family:-apple-system,&quot;SF Pro Display&quot;,&quot;SF Pro Text&quot;,Helvetica,sans-serif;font-weight:bold;" transform="matrix(1 0 0 1 263 1953)">Design Variations</text>
  <text style="stroke:none;fill:black;font-family:-apple-system,&quot;SF Pro Display&quot;,&quot;SF Pro Text&quot;,Helvetica,sans-serif;" transform="matrix(1 0 0 1 263 1971)">Symbols are supported in up to nine weights and three scales.</text>
  <text style="stroke:none;fill:black;font-family:-apple-system,&quot;SF Pro Display&quot;,&quot;SF Pro Text&quot;,Helvetica,sans-serif;" transform="matrix(1 0 0 1 263 1989)">For optimal layout with text and other symbols, vertically align</text>
  <text style="stroke:none;fill:black;font-family:-apple-system,&quot;SF Pro Display&quot;,&quot;SF Pro Text&quot;,Helvetica,sans-serif;" transform="matrix(1 0 0 1 263 2007)">symbols with the adjacent text.</text>
  <rect height="14" id="" style="fill:#00AEEF;stroke:none;opacity:0.4;" width="3" x="776" y="1919"/>
  <g id="" transform="matrix(1 0 0 1 779 1933)">
   <path d="M 10.5273 0 L 12.373 0 L 7.17773 -14.0918 L 5.43945 -14.0918 L 0.244141 0 L 2.08984 0 L 3.50586 -4.0332 L 9.11133 -4.0332 Z M 6.2793 -11.9531 L 6.33789 -11.9531 L 8.59375 -5.52734 L 4.02344 -5.52734 Z"/>
  </g>
  <rect height="14" id="" style="fill:#00AEEF;stroke:none;opacity:0.4;" width="3" x="791.617" y="1919"/>
  <text style="stroke:none;fill:black;font-family:-apple-system,&quot;SF Pro Display&quot;,&quot;SF Pro Text&quot;,Helvetica,sans-serif;font-weight:bold;" transform="matrix(1 0 0 1 776 1953)">Margins</text>
  <text style="stroke:none;fill:black;font-family:-apple-system,&quot;SF Pro Display&quot;,&quot;SF Pro Text&quot;,Helvetica,sans-serif;" transform="matrix(1 0 0 1 776 1971)">Leading and trailing margins on the left and right side of each symbol</text>
  <text style="stroke:none;fill:black;font-family:-apple-system,&quot;SF Pro Display&quot;,&quot;SF Pro Text&quot;,Helvetica,sans-serif;" transform="matrix(1 0 0 1 776 1989)">can be adjusted by modifying the width of the blue rectangles.</text>
  <text style="stroke:none;fill:black;font-family:-apple-system,&quot;SF Pro Display&quot;,&quot;SF Pro Text&quot;,Helvetica,sans-serif;" transform="matrix(1 0 0 1 776 2007)">Modifications are automatically applied proportionally to all</text>
  <text style="stroke:none;fill:black;font-family:-apple-system,&quot;SF Pro Display&quot;,&quot;SF Pro Text&quot;,Helvetica,sans-serif;" transform="matrix(1 0 0 1 776 2025)">scales and weights.</text>
  <g id="" transform="matrix(1 0 0 1 1289 1933)">
   <path d="M 2.83203 3.11523 L 4.375 4.6582 C 5.22461 5.48828 6.19141 5.41992 7.06055 4.46289 L 17.2754 -6.66016 C 17.7051 -6.36719 18.0957 -6.37695 18.5645 -6.47461 L 19.6094 -6.68945 L 20.3027 -5.99609 L 20.2539 -5.47852 C 20.1855 -4.95117 20.3516 -4.53125 20.8496 -4.0332 L 21.6602 -3.22266 C 22.168 -2.71484 22.8223 -2.68555 23.3008 -3.16406 L 26.5527 -6.41602 C 27.0312 -6.89453 27.0117 -7.54883 26.5039 -8.05664 L 25.6836 -8.87695 C 25.1855 -9.375 24.7754 -9.55078 24.2383 -9.47266 L 23.7109 -9.41406 L 23.0566 -10.0781 L 23.3398 -11.2207 C 23.4863 -11.7871 23.3398 -12.2559 22.7148 -12.8613 L 20.3027 -15.2539 C 16.7578 -18.7793 12.2266 -18.6719 9.11133 -15.5371 C 8.69141 -15.1074 8.64258 -14.5215 8.91602 -14.0918 C 9.15039 -13.7207 9.62891 -13.4961 10.2734 -13.6621 C 11.7871 -14.043 13.3008 -13.9258 14.7852 -12.9199 L 14.1602 -11.3379 C 13.9258 -10.752 13.9453 -10.2734 14.1797 -9.83398 L 3.01758 0.439453 C 2.08008 1.30859 1.97266 2.25586 2.83203 3.11523 Z M 10.6738 -15.1465 C 13.3398 -17.1387 16.6504 -16.8262 19.0527 -14.4141 L 21.6797 -11.8066 C 21.9141 -11.5723 21.9434 -11.3867 21.8848 -11.0938 L 21.5039 -9.53125 L 23.0762 -7.95898 L 24.043 -8.04688 C 24.3262 -8.07617 24.4141 -8.05664 24.6387 -7.83203 L 25.2637 -7.20703 L 22.5098 -4.46289 L 21.8848 -5.07812 C 21.6602 -5.30273 21.6406 -5.40039 21.6699 -5.68359 L 21.7578 -6.64062 L 20.1953 -8.20312 L 18.5742 -7.89062 C 18.291 -7.83203 18.1445 -7.83203 17.9102 -8.07617 L 15.7324 -10.2539 C 15.5078 -10.4883 15.4785 -10.625 15.6055 -10.9473 L 16.5527 -13.2227 C 14.9512 -14.7559 12.8418 -15.6055 10.8008 -14.9512 C 10.7129 -14.9219 10.6445 -14.9414 10.6152 -14.9805 C 10.5859 -15.0293 10.5859 -15.0781 10.6738 -15.1465 Z M 4.10156 2.41211 C 3.61328 1.91406 3.78906 1.61133 4.12109 1.30859 L 15.0781 -8.80859 L 16.3086 -7.57812 L 6.15234 3.34961 C 5.84961 3.68164 5.46875 3.7793 5.06836 3.37891 Z"/>
  </g>
  <text style="stroke:none;fill:black;font-family:-apple-system,&quot;SF Pro Display&quot;,&quot;SF Pro Text&quot;,Helvetica,sans-serif;font-weight:bold;" transform="matrix(1 0 0 1 1289 1953)">Exporting</text>
  <text style="stroke:none;fill:black;font-family:-apple-system,&quot;SF Pro Display&quot;,&quot;SF Pro Text&quot;,Helvetica,sans-serif;" transform="matrix(1 0 0 1 1289 1971)">Symbols should be outlined when exporting to ensure the</text>
  <text style="stroke:none;fill:black;font-family:-apple-system,&quot;SF Pro Display&quot;,&quot;SF Pro Text&quot;,Helvetica,sans-serif;" transform="matrix(1 0 0 1 1289 1989)">design is preserved when submitting to Xcode.</text>
  <text id="template-version" style="stroke:none;fill:black;font-family:-apple-system,&quot;SF Pro Display&quot;,&quot;SF Pro Text&quot;,Helvetica,sans-serif;text-anchor:end;" transform="matrix(1 0 0 1 3036 1933)">Template v.1.0</text>
  <text style="stroke:none;fill:black;font-family:-apple-system,&quot;SF Pro Display&quot;,&quot;SF Pro Text&quot;,Helvetica,sans-serif;text-anchor:end;" transform="matrix(1 0 0 1 3036 1951)">Generated from dollarsign.square</text>
  <text style="stroke:none;fill:black;font-family:-apple-system,&quot;SF Pro Display&quot;,&quot;SF Pro Text&quot;,Helvetica,sans-serif;text-anchor:end;" transform="matrix(1 0 0 1 3036 1969)">Typeset at 100 points</text>
  <text style="stroke:none;fill:black;font-family:-apple-system,&quot;SF Pro Display&quot;,&quot;SF Pro Text&quot;,Helvetica,sans-serif;" transform="matrix(1 0 0 1 263 726)">Small</text>
  <text style="stroke:none;fill:black;font-family:-apple-system,&quot;SF Pro Display&quot;,&quot;SF Pro Text&quot;,Helvetica,sans-serif;" transform="matrix(1 0 0 1 263 1156)">Medium</text>
  <text style="stroke:none;fill:black;font-family:-apple-system,&quot;SF Pro Display&quot;,&quot;SF Pro Text&quot;,Helvetica,sans-serif;" transform="matrix(1 0 0 1 263 1586)">Large</text>
 </g>
 <g id="Guides">
  <g id="H-reference" style="fill:#27AAE1;stroke:none;" transform="matrix(1 0 0 1 339 696)">
   <path d="M 54.9316 0 L 57.666 0 L 30.5664 -70.459 L 28.0762 -70.459 L 0.976562 0 L 3.66211 0 L 12.9395 -24.4629 L 45.7031 -24.4629 Z M 29.1992 -67.0898 L 29.4434 -67.0898 L 44.8242 -26.709 L 13.8184 -26.709 Z"/>
  </g>
  <line id="Baseline-S" style="fill:none;stroke:#27AAE1;opacity:1;stroke-width:0.577;" x1="263" x2="3036" y1="696" y2="696"/>
  <line id="Capline-S" style="fill:none;stroke:#27AAE1;opacity:1;stroke-width:0.577;" x1="263" x2="3036" y1="625.541" y2="625.541"/>
  <g id="H-reference" style="fill:#27AAE1;stroke:none;" transform="matrix(1 0 0 1 339 1126)">
   <path d="M 54.9316 0 L 57.666 0 L 30.5664 -70.459 L 28.0762 -70.459 L 0.976562 0 L 3.66211 0 L 12.9395 -24.4629 L 45.7031 -24.4629 Z M 29.1992 -67.0898 L 29.4434 -67.0898 L 44.8242 -26.709 L 13.8184 -26.709 Z"/>
  </g>
  <line id="Baseline-M" style="fill:none;stroke:#27AAE1;opacity:1;stroke-width:0.577;" x1="263" x2="3036" y1="1126" y2="1126"/>
  <line id="Capline-M" style="fill:none;stroke:#27AAE1;opacity:1;stroke-width:0.577;" x1="263" x2="3036" y1="1055.54" y2="1055.54"/>
  <g id="H-reference" style="fill:#27AAE1;stroke:none;" transform="matrix(1 0 0 1 339 1556)">
   <path d="M 54.9316 0 L 57.666 0 L 30.5664 -70.459 L 28.0762 -70.459 L 0.976562 0 L 3.66211 0 L 12.9395 -24.4629 L 45.7031 -24.4629 Z M 29.1992 -67.0898 L 29.4434 -67.0898 L 44.8242 -26.709 L 13.8184 -26.709 Z"/>
  </g>
  <line id="Baseline-L" style="fill:none;stroke:#27AAE1;opacity:1;stroke-width:0.577;" x1="263" x2="3036" y1="1556" y2="1556"/>
  <line id="Capline-L" style="fill:none;stroke:#27AAE1;opacity:1;stroke-width:0.577;" x1="263" x2="3036" y1="1485.54" y2="1485.54"/>
  <rect height="119.336" id="left-margin" style="fill:#00AEEF;stroke:none;opacity:0.4;" width="12.4512" x="1392.45" y="1030.79"/>
  <rect height="119.336" id="right-margin" style="fill:#00AEEF;stroke:none;opacity:0.4;" width="12.4512" x="1494.79" y="1030.79"/>
 </g>
 <g id="Symbols">
  <g id="Black-L" transform="matrix(1 0 0 1 2855.62 1556)">
   <path d="M 39.9902 26.5137 L 115.576 26.5137 C 130.811 26.5137 139.502 17.8711 139.502 2.68555 L 139.502 -73.0957 C 139.502 -88.2812 130.811 -96.875 115.576 -96.875 L 39.9902 -96.875 C 24.7559 -96.875 16.0645 -88.2812 16.0645 -73.0957 L 16.0645 2.68555 C 16.0645 17.8711 24.7559 26.5137 39.9902 26.5137 Z M 42.6758 6.29883 C 38.4766 6.29883 36.3281 4.39453 36.3281 -0.146484 L 36.3281 -70.2148 C 36.3281 -74.7559 38.4766 -76.6602 42.6758 -76.6602 L 112.842 -76.6602 C 117.09 -76.6602 119.238 -74.7559 119.238 -70.2148 L 119.238 -0.146484 C 119.238 4.39453 117.09 6.29883 112.842 6.29883 Z M 77.7832 -1.66016 C 79.2969 -1.66016 80.3711 -2.73438 80.3711 -4.39453 L 80.3711 -7.95898 C 91.9922 -8.88672 99.8047 -15.2344 99.8047 -25.0488 C 99.8047 -33.8379 94.3848 -38.5742 83.3496 -40.7715 L 80.3711 -41.3574 L 80.3711 -51.1719 C 82.7637 -50.6348 84.4238 -49.3164 85.498 -47.2168 C 87.1582 -44.5801 89.1602 -43.2617 92.0898 -43.2617 C 95.9473 -43.2617 98.3398 -45.4102 98.3398 -48.6816 C 98.3398 -49.6582 98.0957 -50.6348 97.8516 -51.5137 C 95.9961 -57.1289 89.9414 -61.7676 80.3711 -62.5977 L 80.3711 -66.4062 C 80.3711 -68.0664 79.2969 -69.1406 77.7832 -69.1406 C 76.2695 -69.1406 75.1465 -68.0664 75.1465 -66.4062 L 75.1465 -62.5977 C 64.0137 -61.8164 56.2012 -55.5176 56.2012 -45.8984 C 56.2012 -37.1582 61.8652 -32.2754 72.3633 -30.0293 L 75.1465 -29.4434 L 75.1465 -19.2383 C 71.9727 -19.7266 70.166 -21.2402 69.2871 -23.2422 C 67.8711 -25.9277 65.8691 -27.4414 62.8418 -27.4414 C 58.6914 -27.4414 56.2988 -24.9512 56.2988 -21.4355 C 56.2988 -20.5078 56.4941 -19.5312 56.9336 -18.457 C 58.7891 -13.5254 64.5996 -8.54492 75.1465 -7.95898 L 75.1465 -4.39453 C 75.1465 -2.73438 76.2695 -1.66016 77.7832 -1.66016 Z M 75.1465 -42.627 L 74.707 -42.7246 C 71.582 -43.5059 70.0195 -44.9219 70.0195 -47.0703 C 70.0195 -49.3164 71.9727 -51.0254 75.1465 -51.3672 Z M 80.3711 -28.2227 L 81.0547 -28.0762 C 84.6191 -27.2461 85.9863 -25.9766 85.9863 -23.6816 C 85.9863 -21.1914 84.0332 -19.6777 80.3711 -19.2383 Z"/>
  </g>
  <g id="Heavy-L" transform="matrix(1 0 0 1 2559.93 1556)">
   <path d="M 38.8184 25.4883 L 114.697 25.4883 C 129.346 25.4883 137.451 17.4316 137.451 2.88086 L 137.451 -73.2422 C 137.451 -87.793 129.346 -95.8496 114.697 -95.8496 L 38.8184 -95.8496 C 24.2188 -95.8496 16.0645 -87.793 16.0645 -73.2422 L 16.0645 2.88086 C 16.0645 17.4316 24.2188 25.4883 38.8184 25.4883 Z M 40.918 8.00781 C 36.084 8.00781 33.5938 5.71289 33.5938 0.585938 L 33.5938 -70.9473 C 33.5938 -76.0742 36.084 -78.3691 40.918 -78.3691 L 112.549 -78.3691 C 117.383 -78.3691 119.922 -76.0742 119.922 -70.9473 L 119.922 0.585938 C 119.922 5.71289 117.383 8.00781 112.549 8.00781 Z M 76.7578 -1.17188 C 78.2715 -1.17188 79.3945 -2.24609 79.3945 -3.90625 L 79.3945 -7.71484 C 90.625 -8.64258 98.3398 -14.7949 98.3398 -24.5117 C 98.3398 -33.1543 92.8711 -37.9395 81.8848 -40.1367 L 79.3945 -40.625 L 79.3945 -52.4902 C 82.4219 -51.9043 84.5215 -50.1953 85.5957 -47.5098 C 87.0117 -45.0684 88.7695 -43.8477 91.4551 -43.8477 C 94.8242 -43.8477 96.9727 -45.8008 96.9727 -48.7305 C 96.9727 -49.6094 96.7773 -50.5371 96.5332 -51.3672 C 94.7754 -57.2266 88.623 -61.8652 79.3945 -62.6953 L 79.3945 -66.6504 C 79.3945 -68.2617 78.2715 -69.3848 76.7578 -69.3848 C 75.2441 -69.3848 74.1211 -68.3105 74.1211 -66.6504 L 74.1211 -62.6953 C 63.3789 -61.9141 55.7617 -55.6641 55.7617 -46.3867 C 55.7617 -37.8418 61.377 -33.0078 71.8262 -30.7129 L 74.1211 -30.2246 L 74.1211 -17.8223 C 70.2148 -18.3594 67.9688 -20.3125 67.041 -22.998 C 65.8691 -25.4395 64.0625 -26.8555 61.3281 -26.8555 C 57.7148 -26.8555 55.6152 -24.6582 55.6152 -21.4844 C 55.6152 -20.6543 55.7617 -19.7266 56.1035 -18.7988 C 57.959 -13.2812 64.0625 -8.34961 74.1211 -7.71484 L 74.1211 -3.90625 C 74.1211 -2.24609 75.2441 -1.17188 76.7578 -1.17188 Z M 74.1211 -41.8945 L 73.6816 -41.9922 C 69.8242 -43.0176 67.9688 -44.7266 67.9688 -47.3633 C 67.9688 -50.0977 70.3125 -52.1484 74.1211 -52.6367 Z M 79.3945 -29.0039 L 80.2246 -28.8086 C 84.5215 -27.7344 86.1816 -26.1719 86.1816 -23.3887 C 86.1816 -20.3125 83.7891 -18.3105 79.3945 -17.8223 Z"/>
  </g>
  <g id="Bold-L" transform="matrix(1 0 0 1 2264.37 1556)">
   <path d="M 37.5 24.3652 L 113.721 24.3652 C 127.637 24.3652 135.156 16.8945 135.156 3.07617 L 135.156 -73.3887 C 135.156 -87.207 127.637 -94.7266 113.721 -94.7266 L 37.5 -94.7266 C 23.6328 -94.7266 16.0645 -87.2559 16.0645 -73.3887 L 16.0645 3.07617 C 16.0645 16.8945 23.6328 24.3652 37.5 24.3652 Z M 38.9648 9.91211 C 33.4473 9.91211 30.5176 7.17773 30.5176 1.41602 L 30.5176 -71.7285 C 30.5176 -77.5391 33.4473 -80.2734 38.9648 -80.2734 L 112.256 -80.2734 C 117.725 -80.2734 120.703 -77.5391 120.703 -71.7285 L 120.703 1.41602 C 120.703 7.17773 117.725 9.91211 112.256 9.91211 Z M 75.6348 -0.634766 C 77.1484 -0.634766 78.2715 -1.70898 78.2715 -3.32031 L 78.2715 -7.42188 C 89.0137 -8.34961 96.6797 -14.3555 96.6797 -23.877 C 96.6797 -32.373 91.2109 -37.2559 80.3223 -39.4043 L 78.2715 -39.7949 L 78.2715 -53.9551 C 81.9824 -53.3203 84.6191 -51.123 85.6934 -47.8516 C 86.8164 -45.6543 88.3301 -44.4824 90.7227 -44.4824 C 93.6035 -44.4824 95.459 -46.2402 95.459 -48.8281 C 95.459 -49.6094 95.2637 -50.3906 95.0684 -51.1719 C 93.3594 -57.3242 87.1094 -62.0117 78.2715 -62.8418 L 78.2715 -66.9434 C 78.2715 -68.5547 77.1484 -69.6289 75.6348 -69.6289 C 74.0723 -69.6289 72.9492 -68.5547 72.9492 -66.9434 L 72.9492 -62.8418 C 62.6953 -61.9629 55.3223 -55.8594 55.3223 -46.875 C 55.3223 -38.623 60.8398 -33.8379 71.2891 -31.4941 L 72.9492 -31.1523 L 72.9492 -16.2109 C 68.3105 -16.8457 65.4785 -19.3359 64.5996 -22.7051 C 63.5742 -24.9512 62.0117 -26.1719 59.668 -26.1719 C 56.6406 -26.1719 54.7852 -24.2676 54.7852 -21.5332 C 54.7852 -20.752 54.9316 -19.9707 55.2246 -19.1406 C 57.0312 -12.9883 63.3789 -8.1543 72.9492 -7.4707 L 72.9492 -3.32031 C 72.9492 -1.70898 74.0723 -0.634766 75.6348 -0.634766 Z M 72.9492 -41.1133 L 72.5586 -41.2109 C 67.8711 -42.4805 65.6738 -44.4824 65.6738 -47.6074 C 65.6738 -50.8789 68.5059 -53.418 72.9492 -54.0039 Z M 78.2715 -29.8828 L 79.2969 -29.6387 C 84.4238 -28.3203 86.377 -26.3184 86.377 -22.998 C 86.377 -19.3359 83.5449 -16.7969 78.2715 -16.2109 Z"/>
  </g>
  <g id="Semibold-L" transform="matrix(1 0 0 1 1968.44 1556)">
   <path d="M 36.6211 23.584 L 113.037 23.584 C 126.514 23.584 133.594 16.5039 133.594 3.17383 L 133.594 -73.5352 C 133.594 -86.8164 126.514 -93.9453 113.037 -93.9453 L 36.6211 -93.9453 C 23.1934 -93.9453 16.0645 -86.8652 16.0645 -73.5352 L 16.0645 3.17383 C 16.0645 16.5527 23.1934 23.584 36.6211 23.584 Z M 37.5977 11.2793 C 31.6406 11.2793 28.418 8.20312 28.418 1.95312 L 28.418 -72.3145 C 28.418 -78.5156 31.6406 -81.5918 37.5977 -81.5918 L 112.061 -81.5918 C 117.969 -81.5918 121.24 -78.5156 121.24 -72.3145 L 121.24 1.95312 C 121.24 8.20312 117.969 11.2793 112.061 11.2793 Z M 74.8047 -0.244141 C 76.3672 -0.244141 77.4902 -1.36719 77.4902 -2.92969 L 77.4902 -7.22656 C 87.9395 -8.10547 95.5078 -14.0625 95.5078 -23.4375 C 95.5078 -31.8848 90.0879 -36.7676 79.1992 -38.8672 L 77.4902 -39.2578 L 77.4902 -54.9316 C 81.6895 -54.2969 84.668 -51.8066 85.791 -48.0957 C 86.7188 -46.0449 88.0371 -44.9219 90.2344 -44.9219 C 92.7246 -44.9219 94.3848 -46.5332 94.3848 -48.877 C 94.3848 -49.6094 94.2383 -50.3418 94.0918 -51.0742 C 92.4316 -57.4219 86.084 -62.1094 77.4902 -62.9395 L 77.4902 -67.1387 C 77.4902 -68.7012 76.3672 -69.8242 74.8047 -69.8242 C 73.291 -69.8242 72.168 -68.75 72.168 -67.1387 L 72.168 -62.9395 C 62.207 -62.0117 55.0293 -56.0059 55.0293 -47.2656 C 55.0293 -39.209 60.4492 -34.4238 70.8984 -32.0801 L 72.168 -31.7871 L 72.168 -15.1367 C 66.9922 -15.8203 63.7695 -18.6035 62.8418 -22.4609 C 62.0117 -24.6094 60.6445 -25.7324 58.4961 -25.7324 C 55.9082 -25.7324 54.248 -24.0234 54.248 -21.582 C 54.248 -20.8496 54.3945 -20.1172 54.5898 -19.3848 C 56.3965 -12.8418 62.9395 -8.00781 72.168 -7.27539 L 72.168 -2.92969 C 72.168 -1.31836 73.291 -0.244141 74.8047 -0.244141 Z M 72.168 -40.5762 L 71.7773 -40.6738 C 66.5527 -42.1387 64.0625 -44.3359 64.0625 -47.8027 C 64.0625 -51.4648 67.2363 -54.3457 72.168 -54.9805 Z M 77.4902 -30.4688 L 78.6621 -30.1758 C 84.3262 -28.7109 86.4746 -26.4648 86.4746 -22.7539 C 86.4746 -18.7012 83.3496 -15.7227 77.4902 -15.1367 Z"/>
  </g>
  <g id="Medium-L" transform="matrix(1 0 0 1 1672.31 1556)">
   <path d="M 35.9375 22.998 L 112.5 22.998 C 125.635 22.998 132.422 16.2109 132.422 3.27148 L 132.422 -73.6328 C 132.422 -86.5234 125.635 -93.3105 112.5 -93.3105 L 35.9375 -93.3105 C 22.9004 -93.3105 16.0645 -86.5723 16.0645 -73.6328 L 16.0645 3.27148 C 16.0645 16.2598 22.9004 22.998 35.9375 22.998 Z M 36.5723 12.2559 C 30.2246 12.2559 26.8066 8.98438 26.8066 2.39258 L 26.8066 -72.7051 C 26.8066 -79.2969 30.2246 -82.6172 36.5723 -82.6172 L 111.865 -82.6172 C 118.115 -82.6172 121.68 -79.2969 121.68 -72.7051 L 121.68 2.39258 C 121.68 8.98438 118.115 12.2559 111.865 12.2559 Z M 74.2188 0 C 75.7812 0 76.9043 -1.07422 76.9043 -2.63672 L 76.9043 -7.08008 C 87.1094 -7.95898 94.6289 -13.8184 94.6289 -23.0957 C 94.6289 -31.4941 89.209 -36.4258 78.3691 -38.5254 L 76.9043 -38.8184 L 76.9043 -55.7129 C 81.4941 -55.0293 84.7168 -52.3438 85.8887 -48.2422 C 86.6211 -46.3867 87.8418 -45.2637 89.8438 -45.2637 C 92.0898 -45.2637 93.6035 -46.7773 93.6035 -48.9258 C 93.6035 -49.6094 93.457 -50.293 93.3105 -50.9766 C 91.6992 -57.4707 85.3027 -62.1582 76.9043 -62.9883 L 76.9043 -67.2852 C 76.9043 -68.8477 75.7812 -69.9219 74.2188 -69.9219 C 72.7051 -69.9219 71.582 -68.8965 71.582 -67.2852 L 71.582 -62.9883 C 61.8652 -62.0605 54.834 -56.1035 54.834 -47.5098 C 54.834 -39.5996 60.1562 -34.8633 70.6055 -32.4707 L 71.582 -32.2266 L 71.582 -14.3066 C 65.9668 -15.0391 62.5 -18.0664 61.5723 -22.3145 C 60.8398 -24.3164 59.5703 -25.3906 57.6172 -25.3906 C 55.3223 -25.3906 53.8086 -23.8281 53.8086 -21.582 C 53.8086 -20.8984 53.9551 -20.2637 54.1504 -19.5312 C 55.9082 -12.6953 62.6465 -7.91016 71.582 -7.12891 L 71.582 -2.63672 C 71.582 -1.02539 72.7051 0 74.2188 0 Z M 71.582 -40.1367 L 71.1426 -40.2832 C 65.5273 -41.8457 62.8418 -44.1895 62.8418 -47.9492 C 62.8418 -51.9043 66.3086 -54.9805 71.582 -55.7617 Z M 76.9043 -30.9082 L 78.1738 -30.6152 C 84.2773 -29.0039 86.5723 -26.5625 86.5723 -22.5586 C 86.5723 -18.1641 83.2031 -14.9414 76.9043 -14.3066 Z"/>
  </g>
  <g id="Regular-L" transform="matrix(1 0 0 1 1376.38 1556)">
   <path d="M 35.0586 22.2168 L 111.816 22.2168 C 124.463 22.2168 130.859 15.8691 130.859 3.41797 L 130.859 -73.7305 C 130.859 -86.1816 124.463 -92.5293 111.816 -92.5293 L 35.0586 -92.5293 C 22.4609 -92.5293 16.0645 -86.2305 16.0645 -73.7305 L 16.0645 3.41797 C 16.0645 15.918 22.4609 22.2168 35.0586 22.2168 Z M 35.2539 13.5742 C 28.418 13.5742 24.707 9.96094 24.707 2.97852 L 24.707 -73.291 C 24.707 -80.2734 28.418 -83.8867 35.2539 -83.8867 L 111.67 -83.8867 C 118.359 -83.8867 122.217 -80.2734 122.217 -73.291 L 122.217 2.97852 C 122.217 9.96094 118.359 13.5742 111.67 13.5742 Z M 73.4375 0.390625 C 75 0.390625 76.1719 -0.683594 76.1719 -2.29492 L 76.1719 -6.88477 C 86.084 -7.76367 93.5059 -13.5254 93.5059 -22.7051 C 93.5059 -30.957 88.0859 -35.9375 77.2949 -38.0371 L 76.1719 -38.2324 L 76.1719 -56.6895 C 81.2012 -55.957 84.8145 -52.9785 85.9375 -48.4863 C 86.5234 -46.7773 87.5488 -45.7031 89.3555 -45.7031 C 91.2598 -45.7031 92.5781 -47.0703 92.5781 -48.9746 C 92.5781 -49.6094 92.4316 -50.1953 92.334 -50.8301 C 90.7227 -57.5195 84.2773 -62.2559 76.1719 -63.0859 L 76.1719 -67.4316 C 76.1719 -69.043 75 -70.1172 73.4375 -70.1172 C 71.875 -70.1172 70.8008 -69.043 70.8008 -67.4316 L 70.8008 -63.0859 C 61.377 -62.1094 54.4922 -56.2012 54.4922 -47.8516 C 54.4922 -40.1367 59.8145 -35.4492 70.2148 -33.0078 L 70.8008 -32.8613 L 70.8008 -13.2324 C 64.6484 -13.9648 60.791 -17.3828 59.8633 -22.1191 C 59.2773 -23.9746 58.1543 -24.9512 56.4941 -24.9512 C 54.5898 -24.9512 53.2715 -23.584 53.2715 -21.6309 C 53.2715 -20.9961 53.418 -20.4102 53.5156 -19.7754 C 55.2246 -12.5 62.207 -7.76367 70.8008 -6.98242 L 70.8008 -2.29492 C 70.8008 -0.683594 71.9238 0.390625 73.4375 0.390625 Z M 70.8008 -39.5996 L 70.3613 -39.7461 C 64.209 -41.4551 61.2793 -44.043 61.2793 -48.1445 C 61.2793 -52.4414 65.0879 -55.8594 70.8008 -56.6895 Z M 76.1719 -31.4941 L 77.5391 -31.1523 C 84.1797 -29.3945 86.7188 -26.709 86.7188 -22.3633 C 86.7188 -17.4805 83.0078 -13.8672 76.1719 -13.2324 Z"/>
  </g>
  <g id="Light-L" transform="matrix(1 0 0 1 1080.5 1556)">
   <path d="M 34.0332 21.4355 L 111.23 21.4355 C 123.096 21.4355 129.199 15.2344 129.199 3.56445 L 129.199 -73.8281 C 129.199 -85.5469 123.096 -91.6992 111.23 -91.6992 L 34.0332 -91.6992 C 22.168 -91.6992 16.0645 -85.6445 16.0645 -73.8281 L 16.0645 3.56445 C 16.0645 15.3809 22.168 21.4355 34.0332 21.4355 Z M 34.1797 14.7949 C 26.709 14.7949 22.7051 10.8398 22.7051 3.22266 L 22.7051 -73.4863 C 22.7051 -81.1523 26.709 -85.0586 34.1797 -85.0586 L 111.035 -85.0586 C 118.359 -85.0586 122.559 -81.1523 122.559 -73.4863 L 122.559 3.22266 C 122.559 10.8398 118.359 14.7949 111.035 14.7949 Z M 72.6074 -0.0976562 C 73.9258 -0.0976562 74.9023 -0.976562 74.9023 -2.29492 L 74.9023 -7.17773 C 85.0098 -7.95898 92.2852 -13.8184 92.2852 -22.5098 C 92.2852 -30.4199 87.1094 -35.1562 76.416 -37.3535 L 74.9023 -37.6953 L 74.9023 -57.3242 C 80.7129 -56.6895 84.9121 -53.3203 85.9375 -48.4863 C 86.377 -47.0215 87.1582 -46.1426 88.6719 -46.1426 C 90.2344 -46.1426 91.3086 -47.2168 91.3086 -48.8281 C 91.3086 -49.4141 91.2109 -49.9512 91.0645 -50.4883 C 89.5996 -57.0801 83.1543 -61.8652 74.9023 -62.5488 L 74.9023 -66.9434 C 74.9023 -68.2617 73.9258 -69.1895 72.6074 -69.1895 C 71.2891 -69.1895 70.3613 -68.3105 70.3613 -66.9434 L 70.3613 -62.5488 C 61.1328 -61.7188 54.1992 -55.9082 54.1992 -47.8516 C 54.1992 -40.5273 59.3262 -35.9375 69.5801 -33.4961 L 70.3613 -33.3496 L 70.3613 -12.3535 C 63.623 -13.0371 59.0332 -16.8457 58.2031 -22.2168 C 57.8125 -23.7793 56.9336 -24.6094 55.5176 -24.6094 C 54.0039 -24.6094 52.9297 -23.5352 52.9297 -21.875 C 52.9297 -21.3379 53.0273 -20.752 53.125 -20.2148 C 54.7363 -12.8906 61.5234 -7.95898 70.3613 -7.27539 L 70.3613 -2.29492 C 70.3613 -0.927734 71.3379 -0.0976562 72.6074 -0.0976562 Z M 70.3613 -38.8184 L 70.0195 -38.916 C 63.0859 -40.7227 59.6191 -43.457 59.6191 -48.0469 C 59.6191 -52.9297 64.1113 -56.6406 70.3613 -57.3242 Z M 74.9023 -32.2266 L 76.2695 -31.8848 C 83.7891 -30.0293 86.8652 -27.1484 86.8652 -22.3145 C 86.8652 -16.9434 82.373 -12.8906 74.9023 -12.3535 Z"/>
  </g>
  <g id="Thin-L" transform="matrix(1 0 0 1 784.889 1556)">
   <path d="M 32.666 20.3613 L 110.352 20.3613 C 121.24 20.3613 127.002 14.4531 127.002 3.75977 L 127.002 -73.9746 C 127.002 -84.7168 121.24 -90.5762 110.352 -90.5762 L 32.666 -90.5762 C 21.7773 -90.5762 16.0645 -84.8633 16.0645 -73.9746 L 16.0645 3.75977 C 16.0645 14.6484 21.7773 20.3613 32.666 20.3613 Z M 32.8125 16.4062 C 24.4141 16.4062 19.9707 12.0117 19.9707 3.56445 L 19.9707 -73.7793 C 19.9707 -82.2754 24.4141 -86.6699 32.8125 -86.6699 L 110.205 -86.6699 C 118.359 -86.6699 123.047 -82.2754 123.047 -73.7793 L 123.047 3.56445 C 123.047 12.0117 118.359 16.4062 110.205 16.4062 Z M 71.5332 -0.683594 C 72.5098 -0.683594 73.291 -1.36719 73.291 -2.34375 L 73.291 -7.56836 C 83.6426 -8.20312 90.625 -14.2578 90.625 -22.3145 C 90.625 -29.6875 85.7422 -34.082 75.293 -36.4746 L 73.291 -36.9141 L 73.291 -58.2031 C 80.0781 -57.666 85.1074 -53.8086 85.9375 -48.5352 C 86.1816 -47.3145 86.7188 -46.6797 87.793 -46.6797 C 88.8672 -46.6797 89.5996 -47.4121 89.5996 -48.584 C 89.5996 -49.1211 89.502 -49.6094 89.4531 -50.0977 C 88.1348 -56.4453 81.6895 -61.3281 73.291 -61.8164 L 73.291 -66.2598 C 73.291 -67.2363 72.5098 -67.9199 71.5332 -67.9199 C 70.459 -67.9199 69.8242 -67.2852 69.8242 -66.2598 L 69.8242 -61.8164 C 60.8398 -61.2305 53.7598 -55.4688 53.7598 -47.8027 C 53.7598 -41.0156 58.6914 -36.5723 68.7988 -34.1797 L 69.8242 -33.9844 L 69.8242 -11.2305 C 62.2559 -11.8164 56.7383 -16.1621 56.0547 -22.3633 C 55.9082 -23.5352 55.3223 -24.2188 54.1992 -24.2188 C 53.1738 -24.2188 52.4414 -23.4863 52.4414 -22.2168 C 52.4414 -21.7285 52.5391 -21.2402 52.6367 -20.752 C 54.0527 -13.4277 60.6934 -8.20312 69.8242 -7.66602 L 69.8242 -2.34375 C 69.8242 -1.31836 70.5566 -0.683594 71.5332 -0.683594 Z M 69.8242 -37.7441 L 69.5312 -37.793 C 61.5723 -39.6973 57.4219 -42.627 57.4219 -47.8516 C 57.4219 -53.5156 62.8906 -57.666 69.8242 -58.2031 Z M 73.291 -33.1543 L 74.6582 -32.8613 C 83.2031 -30.8594 87.0117 -27.7344 87.0117 -22.2656 C 87.0117 -16.1621 81.4941 -11.6211 73.291 -11.2305 Z"/>
  </g>
  <g id="Ultralight-L" transform="matrix(1 0 0 1 488.739 1556)">
   <path d="M 31.9824 19.7754 L 109.961 19.7754 C 120.312 19.7754 125.879 14.0625 125.879 3.85742 L 125.879 -74.0723 C 125.879 -84.2773 120.312 -89.9902 109.961 -89.9902 L 31.9824 -89.9902 C 21.582 -89.9902 16.0645 -84.4727 16.0645 -74.0723 L 16.0645 3.85742 C 16.0645 14.2578 21.582 19.7754 31.9824 19.7754 Z M 32.1289 17.2363 C 23.1934 17.2363 18.6035 12.6465 18.6035 3.75977 L 18.6035 -73.9258 C 18.6035 -82.8125 23.1934 -87.4512 32.1289 -87.4512 L 109.766 -87.4512 C 118.359 -87.4512 123.291 -82.8125 123.291 -73.9258 L 123.291 3.75977 C 123.291 12.6465 118.359 17.2363 109.766 17.2363 Z M 70.9473 -1.02539 C 71.7773 -1.02539 72.4121 -1.61133 72.4121 -2.39258 L 72.4121 -7.76367 C 82.959 -8.30078 89.7949 -14.4531 89.7949 -22.168 C 89.7949 -29.2969 85.0586 -33.5449 74.7559 -36.0352 L 72.4121 -36.5234 L 72.4121 -58.6426 C 79.7363 -58.2031 85.2051 -54.0527 85.9375 -48.5352 C 86.084 -47.5098 86.4746 -46.9727 87.3535 -46.9727 C 88.1836 -46.9727 88.7695 -47.5586 88.7695 -48.4863 C 88.7695 -48.9258 88.6719 -49.4141 88.623 -49.9023 C 87.3535 -56.1035 80.9082 -61.0352 72.4121 -61.4746 L 72.4121 -65.918 C 72.4121 -66.6992 71.7773 -67.2852 70.9473 -67.2852 C 70.0684 -67.2852 69.5801 -66.7969 69.5801 -65.918 L 69.5801 -61.4746 C 60.6934 -60.9375 53.5156 -55.2734 53.5156 -47.8027 C 53.5156 -41.2598 58.3496 -36.8652 68.3594 -34.5703 L 69.5801 -34.2773 L 69.5801 -10.5957 C 61.5723 -11.1328 55.5176 -15.7715 54.9316 -22.4609 C 54.9316 -23.3887 54.4922 -23.9746 53.5645 -23.9746 C 52.7832 -23.9746 52.1973 -23.4375 52.1973 -22.4121 C 52.1973 -21.9238 52.2949 -21.4844 52.3438 -20.9961 C 53.7109 -13.6719 60.2539 -8.30078 69.5801 -7.86133 L 69.5801 -2.39258 C 69.5801 -1.51367 70.166 -1.02539 70.9473 -1.02539 Z M 69.5801 -37.1582 L 69.2383 -37.2559 C 60.791 -39.209 56.2988 -42.2363 56.2988 -47.7539 C 56.2988 -53.8574 62.2559 -58.2031 69.5801 -58.6426 Z M 72.4121 -33.6426 L 73.7793 -33.3496 C 82.9102 -31.2988 87.1094 -28.0273 87.1094 -22.2168 C 87.1094 -15.7715 81.0547 -10.9863 72.4121 -10.5957 Z"/>
  </g>
  <g id="Black-M" transform="matrix(1 0 0 1 2872.19 1126)">
   <path d="M 31.9824 13.5742 L 90.4297 13.5742 C 102.686 13.5742 109.961 6.29883 109.961 -5.95703 L 109.961 -64.4043 C 109.961 -76.6602 102.686 -83.9355 90.4297 -83.9355 L 31.9824 -83.9355 C 19.7266 -83.9355 12.4512 -76.6602 12.4512 -64.4043 L 12.4512 -5.95703 C 12.4512 6.29883 19.7266 13.5742 31.9824 13.5742 Z M 34.9121 -4.73633 C 32.0801 -4.73633 30.7617 -5.81055 30.7617 -8.88672 L 30.7617 -61.4746 C 30.7617 -64.5508 32.0801 -65.6738 34.9121 -65.6738 L 87.5 -65.6738 C 90.332 -65.6738 91.6504 -64.5508 91.6504 -61.4746 L 91.6504 -8.88672 C 91.6504 -5.81055 90.332 -4.73633 87.5 -4.73633 Z M 61.1816 -10.1074 C 62.2559 -10.1074 62.9883 -10.8398 62.9883 -12.0117 L 62.9883 -14.5996 C 72.6562 -15.2832 78.7109 -20.4102 78.7109 -28.0273 C 78.7109 -34.7656 74.5605 -38.2324 66.0645 -40.0391 L 62.9883 -40.6738 L 62.9883 -46.1914 C 64.4043 -45.8496 65.3809 -45.166 66.1133 -44.1406 C 67.6758 -41.8945 69.4336 -40.8691 71.875 -40.8691 C 75.293 -40.8691 77.3438 -42.7246 77.3438 -45.459 C 77.3438 -46.2891 77.1973 -47.168 76.9043 -47.9004 C 75.4883 -51.8066 70.8984 -55.4199 62.9883 -55.957 L 62.9883 -58.7891 C 62.9883 -59.9609 62.2559 -60.6934 61.1816 -60.6934 C 60.1562 -60.6934 59.4238 -59.9609 59.4238 -58.7891 L 59.4238 -55.957 C 50.3418 -55.5664 43.8965 -50.5371 43.8965 -42.8711 C 43.8965 -35.9375 48.3398 -32.2266 56.3965 -30.5176 L 59.4238 -29.8828 L 59.4238 -24.2676 C 57.5195 -24.5117 56.4453 -25.293 55.8105 -26.3672 C 54.541 -28.5156 52.8809 -29.834 50.1953 -29.834 C 46.4355 -29.834 44.4336 -27.6855 44.4336 -24.6094 C 44.4336 -23.877 44.5312 -22.998 44.9707 -22.0215 C 46.4355 -18.8965 50.4883 -14.8926 59.4238 -14.5508 L 59.4238 -12.0117 C 59.4238 -10.8398 60.1562 -10.1074 61.1816 -10.1074 Z M 59.4238 -41.4551 L 59.082 -41.5527 C 57.2266 -41.8945 56.1523 -42.6758 56.1523 -43.9941 C 56.1523 -45.4102 57.4707 -46.3379 59.4238 -46.3867 Z M 62.9883 -29.1504 L 63.2812 -29.1016 C 65.4785 -28.7109 66.4551 -28.0762 66.4551 -26.709 C 66.4551 -25.2441 65.1367 -24.5117 62.9883 -24.2676 Z"/>
  </g>
  <g id="Heavy-M" transform="matrix(1 0 0 1 2576.39 1126)">
   <path d="M 31.0059 12.6465 L 89.6484 12.6465 C 101.416 12.6465 108.154 5.9082 108.154 -5.81055 L 108.154 -64.5508 C 108.154 -76.2695 101.416 -83.0566 89.6484 -83.0566 L 31.0059 -83.0566 C 19.2383 -83.0566 12.4512 -76.3184 12.4512 -64.5508 L 12.4512 -5.81055 C 12.4512 5.9082 19.2383 12.6465 31.0059 12.6465 Z M 33.252 -3.17383 C 29.9316 -3.17383 28.2715 -4.63867 28.2715 -8.1543 L 28.2715 -62.207 C 28.2715 -65.7715 29.9316 -67.2363 33.252 -67.2363 L 87.3535 -67.2363 C 90.6738 -67.2363 92.334 -65.7715 92.334 -62.207 L 92.334 -8.1543 C 92.334 -4.63867 90.6738 -3.17383 87.3535 -3.17383 Z M 60.3027 -9.47266 C 61.4258 -9.47266 62.207 -10.2539 62.207 -11.4746 L 62.207 -14.2578 C 71.3867 -14.9414 77.3926 -19.9219 77.3926 -27.4414 C 77.3926 -34.1797 73.2422 -37.7441 64.6973 -39.502 L 62.207 -40.0391 L 62.207 -47.4121 C 64.1113 -47.0703 65.4297 -45.9961 66.2109 -44.4824 C 67.5293 -42.3828 69.0918 -41.4062 71.3379 -41.4062 C 74.3652 -41.4062 76.2207 -43.0664 76.2207 -45.6055 C 76.2207 -46.3379 76.0254 -47.1191 75.8301 -47.8027 C 74.4141 -52.0508 69.7266 -55.6641 62.207 -56.25 L 62.207 -59.1797 C 62.207 -60.4004 61.4258 -61.1816 60.3027 -61.1816 C 59.1797 -61.1816 58.3984 -60.4004 58.3984 -59.1797 L 58.3984 -56.25 C 49.707 -55.7129 43.5547 -50.8301 43.5547 -43.4082 C 43.5547 -36.6211 47.9004 -32.9102 56.0059 -31.1523 L 58.3984 -30.6641 L 58.3984 -22.9492 C 55.9082 -23.291 54.4922 -24.4629 53.8086 -26.0742 C 52.7344 -28.0762 51.1719 -29.248 48.8281 -29.248 C 45.5566 -29.248 43.75 -27.3438 43.75 -24.6094 C 43.75 -23.877 43.8477 -23.0957 44.2383 -22.2656 C 45.6543 -18.5547 50.0488 -14.6484 58.3984 -14.209 L 58.3984 -11.4746 C 58.3984 -10.2539 59.1797 -9.47266 60.3027 -9.47266 Z M 58.3984 -40.918 L 58.0566 -40.9668 C 55.6152 -41.5527 54.3457 -42.627 54.3457 -44.3359 C 54.3457 -46.0938 55.9082 -47.3633 58.3984 -47.5586 Z M 62.207 -29.834 L 62.6953 -29.6875 C 65.4785 -29.1016 66.6504 -28.1738 66.6504 -26.3672 C 66.6504 -24.4141 65.0391 -23.291 62.207 -22.9492 Z"/>
  </g>
  <g id="Bold-M" transform="matrix(1 0 0 1 2280.68 1126)">
   <path d="M 29.8828 11.6699 L 88.7207 11.6699 C 99.9512 11.6699 106.152 5.46875 106.152 -5.66406 L 106.152 -64.6973 C 106.152 -75.8789 99.9512 -82.0312 88.7207 -82.0312 L 29.8828 -82.0312 C 18.6523 -82.0312 12.4512 -75.8789 12.4512 -64.6973 L 12.4512 -5.66406 C 12.4512 5.51758 18.6523 11.6699 29.8828 11.6699 Z M 31.3965 -1.41602 C 27.5391 -1.41602 25.5371 -3.27148 25.5371 -7.32422 L 25.5371 -63.0371 C 25.5371 -67.1387 27.5391 -68.9453 31.3965 -68.9453 L 87.207 -68.9453 C 91.0156 -68.9453 93.0664 -67.1387 93.0664 -63.0371 L 93.0664 -7.32422 C 93.0664 -3.27148 91.0156 -1.41602 87.207 -1.41602 Z M 59.3262 -8.74023 C 60.498 -8.74023 61.377 -9.57031 61.377 -10.8398 L 61.377 -13.8672 C 69.9707 -14.5508 75.9277 -19.3359 75.9277 -26.8066 C 75.9277 -33.4961 71.7285 -37.207 63.2324 -38.916 L 61.377 -39.3066 L 61.377 -48.8281 C 63.8184 -48.3887 65.5273 -46.9727 66.3574 -44.8242 C 67.3828 -42.9688 68.75 -41.9922 70.752 -41.9922 C 73.291 -41.9922 74.9023 -43.5059 74.9023 -45.7031 C 74.9023 -46.3867 74.7559 -47.0703 74.6094 -47.7051 C 73.2422 -52.2949 68.4082 -55.9082 61.377 -56.543 L 61.377 -59.6191 C 61.377 -60.8887 60.498 -61.7676 59.3262 -61.7676 C 58.1055 -61.7676 57.2754 -60.8887 57.2754 -59.6191 L 57.2754 -56.543 C 49.0234 -55.9082 43.1641 -51.123 43.1641 -43.9453 C 43.1641 -37.4023 47.4609 -33.6426 55.5664 -31.8848 L 57.2754 -31.4941 L 57.2754 -21.4844 C 54.1016 -21.9238 52.2949 -23.4863 51.5625 -25.6836 C 50.6836 -27.5879 49.3164 -28.6133 47.2656 -28.6133 C 44.5312 -28.6133 42.9688 -26.9531 42.9688 -24.5605 C 42.9688 -23.9258 43.0664 -23.2422 43.3594 -22.5098 C 44.7754 -18.1641 49.5117 -14.3555 57.2754 -13.8672 L 57.2754 -10.8398 C 57.2754 -9.57031 58.1055 -8.74023 59.3262 -8.74023 Z M 57.2754 -40.2832 L 56.9336 -40.3809 C 53.8086 -41.2109 52.2949 -42.5293 52.2949 -44.6777 C 52.2949 -46.875 54.1992 -48.5352 57.2754 -48.9258 Z M 61.377 -30.5664 L 62.0117 -30.3711 C 65.4785 -29.541 66.7969 -28.2227 66.7969 -25.9766 C 66.7969 -23.5352 64.8926 -21.875 61.377 -21.4844 Z"/>
  </g>
  <g id="Semibold-M" transform="matrix(1 0 0 1 1984.65 1126)">
   <path d="M 29.1016 10.9863 L 88.0859 10.9863 C 98.9746 10.9863 104.785 5.17578 104.785 -5.56641 L 104.785 -64.8438 C 104.785 -75.5859 98.9746 -81.3477 88.0859 -81.3477 L 29.1016 -81.3477 C 18.2617 -81.3477 12.4512 -75.5859 12.4512 -64.8438 L 12.4512 -5.56641 C 12.4512 5.22461 18.2617 10.9863 29.1016 10.9863 Z M 30.127 -0.195312 C 25.8789 -0.195312 23.6328 -2.34375 23.6328 -6.78711 L 23.6328 -63.623 C 23.6328 -68.0664 25.8789 -70.166 30.127 -70.166 L 87.1094 -70.166 C 91.2598 -70.166 93.6035 -68.0664 93.6035 -63.623 L 93.6035 -6.78711 C 93.6035 -2.34375 91.2598 -0.195312 87.1094 -0.195312 Z M 58.5938 -8.25195 C 59.8633 -8.25195 60.7422 -9.13086 60.7422 -10.4004 L 60.7422 -13.5742 C 68.9941 -14.3066 74.9512 -18.9453 74.9512 -26.3672 C 74.9512 -33.0566 70.7031 -36.8652 62.1582 -38.4766 L 60.7422 -38.7695 L 60.7422 -49.8047 C 63.5742 -49.2676 65.5762 -47.6562 66.4551 -45.0684 C 67.2852 -43.3594 68.5059 -42.3828 70.3613 -42.3828 C 72.5586 -42.3828 74.0234 -43.7988 74.0234 -45.8008 C 74.0234 -46.4355 73.877 -47.0215 73.7305 -47.6074 C 72.4121 -52.4902 67.5293 -56.1035 60.7422 -56.7383 L 60.7422 -59.9609 C 60.7422 -61.2305 59.8633 -62.1094 58.5938 -62.1094 C 57.373 -62.1094 56.4453 -61.2793 56.4453 -59.9609 L 56.4453 -56.7383 C 48.5352 -56.0547 42.9199 -51.3184 42.9199 -44.3359 C 42.9199 -37.9395 47.168 -34.1797 55.2734 -32.373 L 56.4453 -32.0801 L 56.4453 -20.459 C 52.8809 -20.9473 50.7812 -22.8516 50.0488 -25.4395 C 49.2676 -27.2461 48.0469 -28.1738 46.1914 -28.1738 C 43.8477 -28.1738 42.4316 -26.709 42.4316 -24.5605 C 42.4316 -23.9746 42.5293 -23.3887 42.7734 -22.7051 C 44.1406 -17.8711 49.1699 -14.1602 56.4453 -13.623 L 56.4453 -10.4004 C 56.4453 -9.08203 57.373 -8.25195 58.5938 -8.25195 Z M 56.4453 -39.8438 L 56.1523 -39.9414 C 52.5391 -40.9668 50.8789 -42.4805 50.8789 -44.9219 C 50.8789 -47.4121 53.0273 -49.3652 56.4453 -49.8535 Z M 60.7422 -31.0547 L 61.5723 -30.8594 C 65.4785 -29.834 66.9434 -28.2715 66.9434 -25.7324 C 66.9434 -22.9004 64.8438 -20.8984 60.7422 -20.459 Z"/>
  </g>
  <g id="Medium-M" transform="matrix(1 0 0 1 1688.47 1126)">
   <path d="M 28.5156 10.4492 L 87.6465 10.4492 C 98.2422 10.4492 103.711 4.98047 103.711 -5.46875 L 103.711 -64.8926 C 103.711 -75.3418 98.2422 -80.8105 87.6465 -80.8105 L 28.5156 -80.8105 C 17.9688 -80.8105 12.4512 -75.3906 12.4512 -64.8926 L 12.4512 -5.46875 C 12.4512 4.98047 17.9688 10.4492 28.5156 10.4492 Z M 29.1504 0.732422 C 24.6582 0.732422 22.168 -1.61133 22.168 -6.34766 L 22.168 -64.0137 C 22.168 -68.75 24.6582 -71.0938 29.1504 -71.0938 L 87.0117 -71.0938 C 91.4551 -71.0938 93.9941 -68.75 93.9941 -64.0137 L 93.9941 -6.34766 C 93.9941 -1.61133 91.4551 0.732422 87.0117 0.732422 Z M 58.1055 -7.86133 C 59.375 -7.86133 60.3027 -8.74023 60.3027 -10.1074 L 60.3027 -13.3789 C 68.2617 -14.1113 74.1699 -18.6035 74.1699 -26.0254 C 74.1699 -32.666 69.873 -36.5723 61.377 -38.1836 L 60.3027 -38.3789 L 60.3027 -50.5371 C 63.4277 -50 65.5762 -48.1445 66.5039 -45.2637 C 67.2363 -43.6523 68.3105 -42.7246 70.0195 -42.7246 C 72.0215 -42.7246 73.3398 -43.9941 73.3398 -45.8984 C 73.3398 -46.4844 73.2422 -47.0215 73.0957 -47.5586 C 71.7773 -52.6367 66.8457 -56.25 60.3027 -56.9336 L 60.3027 -60.2051 C 60.3027 -61.5234 59.375 -62.4023 58.1055 -62.4023 C 56.7871 -62.4023 55.8594 -61.5234 55.8594 -60.2051 L 55.8594 -56.9336 C 48.1445 -56.1523 42.6758 -51.4648 42.6758 -44.6289 C 42.6758 -38.3301 46.9238 -34.5703 55.0781 -32.7148 L 55.8594 -32.5195 L 55.8594 -19.6777 C 51.9531 -20.2637 49.6094 -22.3633 48.877 -25.2441 C 48.1934 -26.9531 47.0703 -27.8809 45.4102 -27.8809 C 43.3594 -27.8809 41.9922 -26.5137 41.9922 -24.5605 C 41.9922 -23.9746 42.1387 -23.4375 42.2852 -22.8516 C 43.7012 -17.6758 48.9258 -14.0137 55.8594 -13.4277 L 55.8594 -10.1074 C 55.8594 -8.74023 56.8359 -7.86133 58.1055 -7.86133 Z M 55.8594 -39.502 L 55.5176 -39.5996 C 51.6113 -40.7715 49.8535 -42.4805 49.8535 -45.0684 C 49.8535 -47.8027 52.1484 -50 55.8594 -50.5859 Z M 60.3027 -31.4453 L 61.2305 -31.2012 C 65.4785 -30.0781 67.041 -28.3203 67.041 -25.5371 C 67.041 -22.4121 64.7949 -20.166 60.3027 -19.6777 Z"/>
  </g>
  <g id="Regular-M" transform="matrix(1 0 0 1 1392.45 1126)">
   <path d="M 27.7832 9.76562 L 87.0117 9.76562 C 97.2656 9.76562 102.344 4.6875 102.344 -5.37109 L 102.344 -64.9902 C 102.344 -75.0488 97.2656 -80.127 87.0117 -80.127 L 27.7832 -80.127 C 17.5781 -80.127 12.4512 -75.0977 12.4512 -64.9902 L 12.4512 -5.37109 C 12.4512 4.73633 17.5781 9.76562 27.7832 9.76562 Z M 27.8809 1.9043 C 22.998 1.9043 20.3125 -0.683594 20.3125 -5.76172 L 20.3125 -64.5996 C 20.3125 -69.6777 22.998 -72.2656 27.8809 -72.2656 L 86.9141 -72.2656 C 91.748 -72.2656 94.4824 -69.6777 94.4824 -64.5996 L 94.4824 -5.76172 C 94.4824 -0.683594 91.748 1.9043 86.9141 1.9043 Z M 57.4219 -7.37305 C 58.7402 -7.37305 59.7168 -8.30078 59.7168 -9.66797 L 59.7168 -13.0859 C 67.2852 -13.8184 73.1934 -18.2129 73.1934 -25.5859 C 73.1934 -32.2266 68.8477 -36.2305 60.4004 -37.7441 L 59.7168 -37.8906 L 59.7168 -51.5137 C 63.1836 -50.8789 65.625 -48.7793 66.6016 -45.5078 C 67.1387 -44.043 68.0176 -43.1152 69.6289 -43.1152 C 71.2891 -43.1152 72.4609 -44.2871 72.4609 -45.9961 C 72.4609 -46.4844 72.3633 -46.9727 72.2656 -47.5098 C 70.9473 -52.7832 65.9668 -56.3965 59.7168 -57.1289 L 59.7168 -60.498 C 59.7168 -61.8652 58.7402 -62.793 57.4219 -62.793 C 56.0547 -62.793 55.0781 -61.8652 55.0781 -60.498 L 55.0781 -57.1289 C 47.7051 -56.2988 42.4316 -51.6602 42.4316 -45.0195 C 42.4316 -38.8184 46.6309 -35.1074 54.7363 -33.2031 L 55.0781 -33.1055 L 55.0781 -18.6523 C 50.7324 -19.2871 48.1445 -21.7285 47.3145 -25 C 46.7773 -26.6602 45.752 -27.4414 44.3359 -27.4414 C 42.6758 -27.4414 41.5039 -26.2695 41.5039 -24.5605 C 41.5039 -24.0234 41.6016 -23.5352 41.6992 -23.0469 C 43.1152 -17.4316 48.584 -13.8184 55.0781 -13.1836 L 55.0781 -9.66797 C 55.0781 -8.30078 56.1035 -7.37305 57.4219 -7.37305 Z M 55.0781 -39.1113 L 54.7363 -39.209 C 50.3906 -40.4785 48.4375 -42.4316 48.4375 -45.3125 C 48.4375 -48.291 50.9766 -50.7812 55.0781 -51.5137 Z M 59.7168 -31.9336 L 60.791 -31.6895 C 65.4785 -30.3711 67.1387 -28.3691 67.1387 -25.2441 C 67.1387 -21.8262 64.6973 -19.2383 59.7168 -18.6523 Z"/>
  </g>
  <g id="Light-M" transform="matrix(1 0 0 1 1096.47 1126)">
   <path d="M 26.8555 9.0332 L 86.4746 9.0332 C 95.9961 9.0332 100.879 4.15039 100.879 -5.22461 L 100.879 -65.0879 C 100.879 -74.5117 95.9961 -79.3945 86.4746 -79.3945 L 26.8555 -79.3945 C 17.334 -79.3945 12.4512 -74.5605 12.4512 -65.0879 L 12.4512 -5.22461 C 12.4512 4.19922 17.334 9.0332 26.8555 9.0332 Z M 26.9531 2.97852 C 21.4844 2.97852 18.5059 0.0976562 18.5059 -5.56641 L 18.5059 -64.7949 C 18.5059 -70.4102 21.4844 -73.3398 26.9531 -73.3398 L 86.3281 -73.3398 C 91.748 -73.3398 94.8242 -70.4102 94.8242 -64.7949 L 94.8242 -5.56641 C 94.8242 0.0976562 91.748 2.97852 86.3281 2.97852 Z M 56.6406 -7.76367 C 57.7637 -7.76367 58.5938 -8.54492 58.5938 -9.7168 L 58.5938 -13.3789 C 66.3574 -14.0137 72.0703 -18.5059 72.0703 -25.4395 C 72.0703 -31.7383 67.9688 -35.5469 59.6191 -37.1582 L 58.5938 -37.4023 L 58.5938 -52.0996 C 62.793 -51.5625 65.7715 -49.1211 66.6016 -45.5078 C 66.9922 -44.2383 67.7246 -43.5059 68.9941 -43.5059 C 70.3613 -43.5059 71.3379 -44.4336 71.3379 -45.8496 C 71.3379 -46.2891 71.2402 -46.7285 71.1426 -47.2168 C 69.9707 -52.3438 64.9414 -56.0547 58.5938 -56.6406 L 58.5938 -60.0098 C 58.5938 -61.1816 57.7637 -61.9629 56.6406 -61.9629 C 55.5176 -61.9629 54.7363 -61.1816 54.7363 -60.0098 L 54.7363 -56.6406 C 47.5098 -55.957 42.1387 -51.3672 42.1387 -45.0195 C 42.1387 -39.1602 46.1914 -35.5469 54.1992 -33.6914 L 54.7363 -33.5449 L 54.7363 -17.8711 C 49.8047 -18.457 46.5332 -21.2402 45.8496 -25.0977 C 45.459 -26.4648 44.6777 -27.1484 43.457 -27.1484 C 42.1387 -27.1484 41.1621 -26.1719 41.1621 -24.7559 C 41.1621 -24.3164 41.2598 -23.877 41.3574 -23.3887 C 42.627 -17.7734 47.998 -14.0137 54.7363 -13.4277 L 54.7363 -9.7168 C 54.7363 -8.54492 55.5664 -7.76367 56.6406 -7.76367 Z M 54.7363 -38.3789 L 54.3945 -38.4766 C 49.3652 -39.8438 46.9727 -41.8945 46.9727 -45.2148 C 46.9727 -48.7305 50.0977 -51.4648 54.7363 -52.0996 Z M 58.5938 -32.5684 L 59.668 -32.3242 C 65.0879 -30.9082 67.2363 -28.7598 67.2363 -25.2441 C 67.2363 -21.2891 64.1113 -18.3594 58.5938 -17.8711 Z"/>
  </g>
  <g id="Thin-M" transform="matrix(1 0 0 1 800.758 1126)">
   <path d="M 25.6348 8.05664 L 85.7422 8.05664 C 94.3848 8.05664 98.877 3.4668 98.877 -5.0293 L 98.877 -65.2344 C 98.877 -73.7305 94.3848 -78.3691 85.7422 -78.3691 L 25.6348 -78.3691 C 16.9922 -78.3691 12.4512 -73.877 12.4512 -65.2344 L 12.4512 -5.0293 C 12.4512 3.56445 16.9922 8.05664 25.6348 8.05664 Z M 25.7324 4.44336 C 19.3848 4.44336 16.0645 1.12305 16.0645 -5.22461 L 16.0645 -65.0391 C 16.0645 -71.4355 19.3848 -74.7559 25.7324 -74.7559 L 85.5957 -74.7559 C 91.748 -74.7559 95.2637 -71.4355 95.2637 -65.0391 L 95.2637 -5.22461 C 95.2637 1.12305 91.748 4.44336 85.5957 4.44336 Z M 55.6641 -8.34961 C 56.4941 -8.34961 57.1289 -8.93555 57.1289 -9.76562 L 57.1289 -13.7207 C 65.1367 -14.209 70.6055 -18.8965 70.6055 -25.2441 C 70.6055 -31.1035 66.748 -34.5703 58.5938 -36.377 L 57.1289 -36.7188 L 57.1289 -52.832 C 62.207 -52.4414 65.918 -49.5117 66.6016 -45.5566 C 66.7969 -44.5312 67.2852 -43.9941 68.2129 -43.9941 C 69.1895 -43.9941 69.8242 -44.6289 69.8242 -45.6543 C 69.8242 -46.0449 69.7266 -46.4355 69.6777 -46.8262 C 68.6035 -51.8066 63.623 -55.5664 57.1289 -56.0059 L 57.1289 -59.4238 C 57.1289 -60.2539 56.4941 -60.8398 55.6641 -60.8398 C 54.7852 -60.8398 54.248 -60.3027 54.248 -59.4238 L 54.248 -56.0059 C 47.2168 -55.4688 41.748 -51.0254 41.748 -44.9707 C 41.748 -39.5996 45.6055 -36.1328 53.4668 -34.2773 L 54.248 -34.1309 L 54.248 -16.8457 C 48.5352 -17.334 44.4824 -20.6055 43.8965 -25.2441 C 43.75 -26.2207 43.2129 -26.7578 42.2852 -26.7578 C 41.4062 -26.7578 40.7715 -26.123 40.7715 -25.0977 C 40.7715 -24.6582 40.8203 -24.2676 40.918 -23.877 C 42.041 -18.2129 47.2168 -14.209 54.248 -13.7695 L 54.248 -9.76562 C 54.248 -8.88672 54.834 -8.34961 55.6641 -8.34961 Z M 54.248 -37.4023 L 53.9551 -37.4512 C 48.0469 -38.916 44.9707 -41.1621 44.9707 -45.0684 C 44.9707 -49.2676 49.0234 -52.3926 54.248 -52.832 Z M 57.1289 -33.4473 L 58.2031 -33.1543 C 64.5996 -31.6895 67.4316 -29.2969 67.4316 -25.1953 C 67.4316 -20.6055 63.3789 -17.2363 57.1289 -16.8457 Z"/>
  </g>
  <g id="Ultralight-M" transform="matrix(1 0 0 1 504.535 1126)">
   <path d="M 25 7.56836 L 85.3516 7.56836 C 93.5059 7.56836 97.9004 3.125 97.9004 -4.98047 L 97.9004 -65.2832 C 97.9004 -73.3887 93.5059 -77.832 85.3516 -77.832 L 25 -77.832 C 16.7969 -77.832 12.4512 -73.4863 12.4512 -65.2832 L 12.4512 -4.98047 C 12.4512 3.22266 16.7969 7.56836 25 7.56836 Z M 25.0977 5.17578 C 18.3594 5.17578 14.8438 1.66016 14.8438 -5.07812 L 14.8438 -65.1855 C 14.8438 -71.9727 18.3594 -75.4395 25.0977 -75.4395 L 85.2051 -75.4395 C 91.748 -75.4395 95.5078 -71.9727 95.5078 -65.1855 L 95.5078 -5.07812 C 95.5078 1.66016 91.748 5.17578 85.2051 5.17578 Z M 55.1758 -8.59375 C 55.8594 -8.59375 56.3965 -9.08203 56.3965 -9.76562 L 56.3965 -13.916 C 64.502 -14.3066 69.873 -19.0918 69.873 -25.1465 C 69.873 -30.7617 66.1133 -34.082 58.1055 -35.9863 L 56.3965 -36.377 L 56.3965 -53.2227 C 61.9141 -52.8809 66.0156 -49.7559 66.6016 -45.5566 C 66.748 -44.6777 67.0898 -44.2383 67.8223 -44.2383 C 68.5547 -44.2383 69.043 -44.7266 69.043 -45.5566 C 69.043 -45.8984 68.9941 -46.2891 68.8965 -46.6309 C 67.9199 -51.5137 62.9395 -55.3223 56.3965 -55.6641 L 56.3965 -59.082 C 56.3965 -59.7656 55.8594 -60.2539 55.1758 -60.2539 C 54.4434 -60.2539 54.0039 -59.8633 54.0039 -59.082 L 54.0039 -55.6641 C 47.0703 -55.2246 41.5527 -50.8301 41.5527 -44.9707 C 41.5527 -39.8438 45.3125 -36.4258 53.125 -34.6191 L 54.0039 -34.4238 L 54.0039 -16.3574 C 47.9492 -16.748 43.4082 -20.2637 42.9199 -25.293 C 42.8711 -26.0742 42.4805 -26.5625 41.6992 -26.5625 C 41.0156 -26.5625 40.5273 -26.0742 40.5273 -25.2441 C 40.5273 -24.8535 40.625 -24.5117 40.6738 -24.1211 C 41.6992 -18.457 46.8262 -14.3066 54.0039 -13.9648 L 54.0039 -9.76562 C 54.0039 -9.0332 54.4922 -8.59375 55.1758 -8.59375 Z M 54.0039 -36.9141 L 53.7598 -36.9629 C 47.3633 -38.4766 43.9453 -40.7715 43.9453 -44.9707 C 43.9453 -49.5605 48.4375 -52.8809 54.0039 -53.2227 Z M 56.3965 -33.8867 L 57.4707 -33.5938 C 64.3555 -32.0312 67.4805 -29.541 67.4805 -25.1465 C 67.4805 -20.2637 62.9883 -16.6504 56.3965 -16.3574 Z"/>
  </g>
  <g id="Black-S" transform="matrix(1 0 0 1 2885.5 696)">
   <path d="M 25 2.92969 L 70.8008 2.92969 C 80.3711 2.92969 86.0352 -2.73438 86.0352 -12.3047 L 86.0352 -58.1055 C 86.0352 -67.6758 80.3711 -73.3398 70.8008 -73.3398 L 25 -73.3398 C 15.4297 -73.3398 9.76562 -67.6758 9.76562 -58.1055 L 9.76562 -12.3047 C 9.76562 -2.73438 15.4297 2.92969 25 2.92969 Z M 27.2461 -11.2305 C 25 -11.2305 23.9258 -12.1094 23.9258 -14.5508 L 23.9258 -55.8594 C 23.9258 -58.3008 25 -59.1797 27.2461 -59.1797 L 68.5547 -59.1797 C 70.8008 -59.1797 71.875 -58.3008 71.875 -55.8594 L 71.875 -14.5508 C 71.875 -12.1094 70.8008 -11.2305 68.5547 -11.2305 Z M 47.9004 -15.4785 C 48.7305 -15.4785 49.3164 -16.0645 49.3164 -16.9922 L 49.3164 -19.043 C 56.8359 -19.5801 61.5723 -23.584 61.5723 -29.541 C 61.5723 -34.8145 58.3496 -37.5488 51.6602 -38.9648 L 49.3164 -39.4531 L 49.3164 -43.8965 C 50.4395 -43.6523 51.2207 -43.0664 51.8066 -42.2363 C 53.0273 -40.4785 54.3945 -39.6973 56.2988 -39.6973 C 58.9355 -39.6973 60.5469 -41.1133 60.5469 -43.2617 C 60.5469 -43.8965 60.4004 -44.5801 60.2051 -45.166 C 59.082 -48.2422 55.4688 -51.0742 49.3164 -51.5137 L 49.3164 -53.7109 C 49.3164 -54.6387 48.7305 -55.2246 47.9004 -55.2246 C 47.0703 -55.2246 46.4844 -54.6387 46.4844 -53.7109 L 46.4844 -51.5137 C 39.4043 -51.1719 34.375 -47.2656 34.375 -41.2598 C 34.375 -35.8398 37.8418 -32.9102 44.1895 -31.5918 L 46.4844 -31.1035 L 46.4844 -26.5625 C 44.9707 -26.7578 44.0918 -27.3926 43.6035 -28.2715 C 42.627 -29.9316 41.3086 -30.957 39.2578 -30.957 C 36.3281 -30.957 34.7656 -29.2969 34.7656 -26.9043 C 34.7656 -26.3184 34.8633 -25.6348 35.2051 -24.9023 C 36.3281 -22.4121 39.5508 -19.2871 46.4844 -18.9941 L 46.4844 -16.9922 C 46.4844 -16.0645 47.0703 -15.4785 47.9004 -15.4785 Z M 46.4844 -40.0879 L 46.2402 -40.1367 C 44.7266 -40.4297 43.8965 -41.0645 43.8965 -42.1387 C 43.8965 -43.2617 44.9219 -43.9941 46.4844 -44.043 Z M 49.3164 -30.5176 L 49.5605 -30.4688 C 51.3184 -30.127 52.0996 -29.6387 52.0996 -28.5156 C 52.0996 -27.3438 51.0254 -26.7578 49.3164 -26.5625 Z"/>
  </g>
  <g id="Heavy-S" transform="matrix(1 0 0 1 2589.4 696)">
   <path d="M 24.3652 2.34375 L 70.2637 2.34375 C 79.541 2.34375 84.8145 -2.97852 84.8145 -12.207 L 84.8145 -58.2031 C 84.8145 -67.4316 79.541 -72.7539 70.2637 -72.7539 L 24.3652 -72.7539 C 15.0879 -72.7539 9.76562 -67.4316 9.76562 -58.2031 L 9.76562 -12.207 C 9.76562 -2.97852 15.0879 2.34375 24.3652 2.34375 Z M 26.0742 -10.1562 C 23.5352 -10.1562 22.2656 -11.2793 22.2656 -14.0137 L 22.2656 -56.3965 C 22.2656 -59.1309 23.5352 -60.2539 26.0742 -60.2539 L 68.5059 -60.2539 C 71.0449 -60.2539 72.3633 -59.1309 72.3633 -56.3965 L 72.3633 -14.0137 C 72.3633 -11.2793 71.0449 -10.1562 68.5059 -10.1562 Z M 47.3145 -14.9414 C 48.1934 -14.9414 48.8281 -15.5762 48.8281 -16.5527 L 48.8281 -18.75 C 55.957 -19.2871 60.6934 -23.1445 60.6934 -29.1016 C 60.6934 -34.4238 57.4219 -37.2559 50.7324 -38.623 L 48.8281 -39.0137 L 48.8281 -44.7754 C 50.293 -44.4824 51.2695 -43.7012 51.9043 -42.4805 C 52.9297 -40.8203 54.1992 -40.0391 55.957 -40.0391 C 58.3008 -40.0391 59.8145 -41.4062 59.8145 -43.3594 C 59.8145 -43.9453 59.668 -44.5801 59.4727 -45.1172 C 58.3984 -48.4863 54.6875 -51.2695 48.8281 -51.7578 L 48.8281 -54.0527 C 48.8281 -55.0781 48.1934 -55.7129 47.3145 -55.7129 C 46.3867 -55.7129 45.752 -55.0781 45.752 -54.0527 L 45.752 -51.7578 C 38.9648 -51.3672 34.1309 -47.5098 34.1309 -41.6504 C 34.1309 -36.3281 37.5977 -33.3984 43.9453 -32.0312 L 45.752 -31.6406 L 45.752 -25.6348 C 43.8477 -25.9277 42.7734 -26.8066 42.2363 -28.0273 C 41.3574 -29.5898 40.1367 -30.5664 38.2812 -30.5664 C 35.6934 -30.5664 34.2773 -29.0527 34.2773 -26.8555 C 34.2773 -26.3184 34.375 -25.6836 34.668 -25.0488 C 35.791 -22.1191 39.2578 -19.0918 45.752 -18.7012 L 45.752 -16.5527 C 45.752 -15.5762 46.3867 -14.9414 47.3145 -14.9414 Z M 45.752 -39.7461 L 45.5078 -39.7949 C 43.6035 -40.2344 42.6758 -41.0645 42.6758 -42.3828 C 42.6758 -43.75 43.8477 -44.7266 45.752 -44.9219 Z M 48.8281 -30.957 L 49.2188 -30.8594 C 51.3672 -30.3711 52.1973 -29.6387 52.1973 -28.2715 C 52.1973 -26.8066 51.0254 -25.8789 48.8281 -25.6348 Z"/>
  </g>
  <g id="Bold-S" transform="matrix(1 0 0 1 2293.35 696)">
   <path d="M 23.6328 1.66016 L 69.6289 1.66016 C 78.6133 1.66016 83.4961 -3.22266 83.4961 -12.1094 L 83.4961 -58.3008 C 83.4961 -67.1875 78.6133 -72.0703 69.6289 -72.0703 L 23.6328 -72.0703 C 14.6973 -72.0703 9.76562 -67.1875 9.76562 -58.3008 L 9.76562 -12.1094 C 9.76562 -3.22266 14.6973 1.66016 23.6328 1.66016 Z M 24.8047 -8.93555 C 21.9238 -8.93555 20.3613 -10.3516 20.3613 -13.4277 L 20.3613 -56.9824 C 20.3613 -60.0586 21.9238 -61.4746 24.8047 -61.4746 L 68.457 -61.4746 C 71.3379 -61.4746 72.9004 -60.0586 72.9004 -56.9824 L 72.9004 -13.4277 C 72.9004 -10.3516 71.3379 -8.93555 68.457 -8.93555 Z M 46.6309 -14.3555 C 47.6074 -14.3555 48.3398 -15.0391 48.3398 -16.1133 L 48.3398 -18.4082 C 55.0293 -18.9941 59.7168 -22.6562 59.7168 -28.6621 C 59.7168 -33.9844 56.3965 -36.9629 49.6582 -38.2324 L 48.3398 -38.5254 L 48.3398 -45.8008 C 50.0977 -45.4102 51.3184 -44.3848 52.002 -42.7734 C 52.832 -41.2598 53.9551 -40.4785 55.5664 -40.4785 C 57.6172 -40.4785 58.9355 -41.6992 58.9355 -43.5059 C 58.9355 -44.043 58.8379 -44.5801 58.6914 -45.0684 C 57.5684 -48.7305 53.8086 -51.5137 48.3398 -52.0508 L 48.3398 -54.4922 C 48.3398 -55.5176 47.6074 -56.25 46.6309 -56.25 C 45.6543 -56.25 44.9219 -55.5176 44.9219 -54.4922 L 44.9219 -52.0508 C 38.4277 -51.5137 33.8867 -47.7539 33.8867 -42.0898 C 33.8867 -36.8652 37.3047 -33.9355 43.7012 -32.5195 L 44.9219 -32.2266 L 44.9219 -24.6094 C 42.5781 -24.9512 41.3086 -26.123 40.7227 -27.7344 C 39.9414 -29.248 38.8672 -30.127 37.207 -30.127 C 35.0098 -30.127 33.7402 -28.7598 33.7402 -26.8066 C 33.7402 -26.3184 33.7891 -25.7812 34.0332 -25.1953 C 35.1562 -21.7773 38.9648 -18.8477 44.9219 -18.4082 L 44.9219 -16.1133 C 44.9219 -15.0391 45.6543 -14.3555 46.6309 -14.3555 Z M 44.9219 -39.3555 L 44.6289 -39.4043 C 42.334 -40.0391 41.3086 -41.1133 41.3086 -42.6758 C 41.3086 -44.2871 42.627 -45.5566 44.9219 -45.8496 Z M 48.3398 -31.4453 L 48.877 -31.2988 C 51.416 -30.6152 52.3438 -29.6387 52.3438 -27.9785 C 52.3438 -26.1719 51.0254 -24.9512 48.3398 -24.6094 Z"/>
  </g>
  <g id="Semibold-S" transform="matrix(1 0 0 1 1997.1 696)">
   <path d="M 23.0957 1.17188 L 69.1895 1.17188 C 77.9297 1.17188 82.5684 -3.36914 82.5684 -12.0117 L 82.5684 -58.3984 C 82.5684 -67.041 77.9297 -71.582 69.1895 -71.582 L 23.0957 -71.582 C 14.4043 -71.582 9.76562 -67.041 9.76562 -58.3984 L 9.76562 -12.0117 C 9.76562 -3.36914 14.4043 1.17188 23.0957 1.17188 Z M 23.877 -8.10547 C 20.752 -8.10547 19.0918 -9.7168 19.0918 -12.9883 L 19.0918 -57.4219 C 19.0918 -60.6934 20.752 -62.3047 23.877 -62.3047 L 68.4082 -62.3047 C 71.5332 -62.3047 73.2422 -60.6934 73.2422 -57.4219 L 73.2422 -12.9883 C 73.2422 -9.7168 71.5332 -8.10547 68.4082 -8.10547 Z M 46.1426 -13.916 C 47.2168 -13.916 47.9492 -14.6484 47.9492 -15.7715 L 47.9492 -18.1641 C 54.3457 -18.75 59.0332 -22.3633 59.0332 -28.3203 C 59.0332 -33.6426 55.6641 -36.7188 48.9258 -37.9883 L 47.9492 -38.1836 L 47.9492 -46.4844 C 49.9512 -46.0449 51.3184 -44.873 52.0508 -42.9199 C 52.7832 -41.5527 53.7598 -40.7227 55.3223 -40.7227 C 57.1289 -40.7227 58.3496 -41.8945 58.3496 -43.5547 C 58.3496 -44.0918 58.252 -44.5312 58.1055 -45.0195 C 57.0312 -48.877 53.2227 -51.709 47.9492 -52.2461 L 47.9492 -54.7852 C 47.9492 -55.8594 47.2168 -56.5918 46.1426 -56.5918 C 45.1172 -56.5918 44.3359 -55.8594 44.3359 -54.7852 L 44.3359 -52.2461 C 38.0859 -51.6602 33.6914 -47.9492 33.6914 -42.3828 C 33.6914 -37.2559 37.1094 -34.2773 43.5059 -32.8613 L 44.3359 -32.666 L 44.3359 -23.877 C 41.6992 -24.3164 40.2832 -25.6836 39.6484 -27.5391 C 39.0137 -29.0039 37.9395 -29.7852 36.4746 -29.7852 C 34.5215 -29.7852 33.3496 -28.5645 33.3496 -26.8066 C 33.3496 -26.3184 33.4473 -25.8301 33.5938 -25.293 C 34.7656 -21.5332 38.7207 -18.6523 44.3359 -18.2129 L 44.3359 -15.7715 C 44.3359 -14.6484 45.1172 -13.916 46.1426 -13.916 Z M 44.3359 -39.0625 L 44.0918 -39.1602 C 41.5039 -39.9414 40.332 -41.1133 40.332 -42.8711 C 40.332 -44.6289 41.7969 -46.0938 44.3359 -46.5332 Z M 47.9492 -31.7383 L 48.6328 -31.5918 C 51.4648 -30.8105 52.3926 -29.6387 52.3926 -27.7832 C 52.3926 -25.7324 50.9766 -24.2676 47.9492 -23.877 Z"/>
  </g>
  <g id="Medium-S" transform="matrix(1 0 0 1 1700.75 696)">
   <path d="M 22.7051 0.830078 L 68.8965 0.830078 C 77.4414 0.830078 81.8359 -3.51562 81.8359 -11.9629 L 81.8359 -58.4473 C 81.8359 -66.8945 77.4414 -71.2402 68.8965 -71.2402 L 22.7051 -71.2402 C 14.209 -71.2402 9.76562 -66.8945 9.76562 -58.4473 L 9.76562 -11.9629 C 9.76562 -3.51562 14.209 0.830078 22.7051 0.830078 Z M 23.1934 -7.4707 C 19.9219 -7.4707 18.0664 -9.22852 18.0664 -12.6953 L 18.0664 -57.7148 C 18.0664 -61.1816 19.9219 -62.9395 23.1934 -62.9395 L 68.4082 -62.9395 C 71.6797 -62.9395 73.5352 -61.1816 73.5352 -57.7148 L 73.5352 -12.6953 C 73.5352 -9.22852 71.6797 -7.4707 68.4082 -7.4707 Z M 45.8008 -13.623 C 46.875 -13.623 47.7051 -14.3555 47.7051 -15.5273 L 47.7051 -18.0176 C 53.8574 -18.6035 58.5449 -22.1191 58.5449 -28.0762 C 58.5449 -33.4473 55.127 -36.5723 48.3887 -37.7441 L 47.7051 -37.8906 L 47.7051 -47.0215 C 49.8535 -46.5332 51.3672 -45.2148 52.1484 -43.0664 C 52.7344 -41.748 53.6133 -40.9668 55.0781 -40.9668 C 56.7871 -40.9668 57.9102 -42.041 57.9102 -43.6523 C 57.9102 -44.0918 57.8125 -44.5312 57.7148 -45.0195 C 56.6406 -49.0234 52.7832 -51.8066 47.7051 -52.3926 L 47.7051 -54.9805 C 47.7051 -56.1035 46.875 -56.8848 45.8008 -56.8848 C 44.7266 -56.8848 43.8965 -56.1035 43.8965 -54.9805 L 43.8965 -52.3926 C 37.8418 -51.7578 33.5938 -48.0469 33.5938 -42.627 C 33.5938 -37.5 36.9629 -34.5703 43.3594 -33.1055 L 43.8965 -32.959 L 43.8965 -23.3398 C 41.0645 -23.8281 39.502 -25.3418 38.8672 -27.3438 C 38.2324 -28.8086 37.3047 -29.541 35.8887 -29.541 C 34.1797 -29.541 33.0566 -28.418 33.0566 -26.7578 C 33.0566 -26.3184 33.1543 -25.8789 33.3008 -25.3906 C 34.4238 -21.3379 38.5742 -18.5547 43.8965 -18.0176 L 43.8965 -15.5273 C 43.8965 -14.3555 44.7266 -13.623 45.8008 -13.623 Z M 43.8965 -38.8672 L 43.6523 -38.9648 C 40.8203 -39.8438 39.5996 -41.1133 39.5996 -43.0176 C 39.5996 -44.9219 41.1621 -46.5332 43.8965 -47.0215 Z M 47.7051 -31.9824 L 48.4375 -31.8359 C 51.4648 -30.957 52.4902 -29.6387 52.4902 -27.6367 C 52.4902 -25.3906 50.9766 -23.7793 47.7051 -23.3398 Z"/>
  </g>
  <g id="Regular-S" transform="matrix(1 0 0 1 1404.51 696)">
   <path d="M 22.2168 0.390625 L 68.457 0.390625 C 76.8066 0.390625 80.9082 -3.71094 80.9082 -11.9141 L 80.9082 -58.4961 C 80.9082 -66.6992 76.8066 -70.8008 68.457 -70.8008 L 22.2168 -70.8008 C 13.916 -70.8008 9.76562 -66.6992 9.76562 -58.4961 L 9.76562 -11.9141 C 9.76562 -3.71094 13.916 0.390625 22.2168 0.390625 Z M 22.3145 -6.68945 C 18.7988 -6.68945 16.7969 -8.54492 16.7969 -12.2559 L 16.7969 -58.1543 C 16.7969 -61.8164 18.7988 -63.7207 22.3145 -63.7207 L 68.3594 -63.7207 C 71.875 -63.7207 73.877 -61.8164 73.877 -58.1543 L 73.877 -12.2559 C 73.877 -8.54492 71.875 -6.68945 68.3594 -6.68945 Z M 45.3613 -13.1836 C 46.4844 -13.1836 47.3145 -14.0137 47.3145 -15.1855 L 47.3145 -17.7734 C 53.1738 -18.4082 57.8613 -21.7773 57.8613 -27.7832 C 57.8613 -33.1055 54.3945 -36.377 47.7051 -37.5 L 47.3145 -37.5488 L 47.3145 -47.7051 C 49.7559 -47.168 51.3672 -45.7031 52.1973 -43.2617 C 52.6855 -42.041 53.4668 -41.2109 54.834 -41.2109 C 56.2988 -41.2109 57.3242 -42.2363 57.3242 -43.75 C 57.3242 -44.1406 57.2266 -44.5312 57.1289 -44.9707 C 56.1035 -49.2188 52.1973 -52.002 47.3145 -52.5879 L 47.3145 -55.2734 C 47.3145 -56.4453 46.4844 -57.2266 45.3613 -57.2266 C 44.1895 -57.2266 43.3594 -56.4453 43.3594 -55.2734 L 43.3594 -52.5879 C 37.4512 -51.9043 33.3984 -48.2422 33.3984 -42.9199 C 33.3984 -37.8906 36.7676 -34.9121 43.1641 -33.3984 L 43.3594 -33.3496 L 43.3594 -22.6562 C 40.1855 -23.1445 38.4766 -24.8535 37.793 -27.1484 C 37.3047 -28.5645 36.4258 -29.248 35.1562 -29.248 C 33.6914 -29.248 32.666 -28.2227 32.666 -26.7578 C 32.666 -26.3184 32.7637 -25.9277 32.8613 -25.4883 C 34.0332 -21.0938 38.3301 -18.4082 43.3594 -17.8223 L 43.3594 -15.1855 C 43.3594 -14.0137 44.1895 -13.1836 45.3613 -13.1836 Z M 43.3594 -38.623 L 43.0664 -38.7207 C 39.9902 -39.6973 38.6719 -41.1133 38.6719 -43.2129 C 38.6719 -45.2637 40.332 -47.0703 43.3594 -47.7051 Z M 47.3145 -32.3242 L 48.1445 -32.1289 C 51.5137 -31.1523 52.5391 -29.6387 52.5391 -27.4414 C 52.5391 -24.9512 50.9766 -23.0957 47.3145 -22.6562 Z"/>
  </g>
  <g id="Light-S" transform="matrix(1 0 0 1 1108.46 696)">
   <path d="M 21.3867 -0.292969 L 67.9688 -0.292969 C 75.7324 -0.292969 79.5898 -4.15039 79.5898 -11.7676 L 79.5898 -58.5938 C 79.5898 -66.2109 75.7324 -70.1172 67.9688 -70.1172 L 21.3867 -70.1172 C 13.6719 -70.1172 9.76562 -66.2598 9.76562 -58.5938 L 9.76562 -11.7676 C 9.76562 -4.15039 13.6719 -0.292969 21.3867 -0.292969 Z M 21.4844 -5.71289 C 17.4316 -5.71289 15.1855 -7.86133 15.1855 -12.0605 L 15.1855 -58.3008 C 15.1855 -62.5 17.4316 -64.6973 21.4844 -64.6973 L 67.8711 -64.6973 C 71.875 -64.6973 74.1699 -62.5 74.1699 -58.3008 L 74.1699 -12.0605 C 74.1699 -7.86133 71.875 -5.71289 67.8711 -5.71289 Z M 44.6777 -13.5742 C 45.6543 -13.5742 46.3379 -14.2578 46.3379 -15.2344 L 46.3379 -18.0176 C 52.3438 -18.5547 56.8848 -22.0215 56.8848 -27.6367 C 56.8848 -32.666 53.6133 -35.7422 47.0215 -36.9629 L 46.3379 -37.1094 L 46.3379 -48.1934 C 49.3652 -47.7539 51.4648 -45.9961 52.1973 -43.2617 C 52.5391 -42.2363 53.1738 -41.5527 54.2969 -41.5527 C 55.5176 -41.5527 56.3477 -42.3828 56.3477 -43.6035 C 56.3477 -43.9941 56.25 -44.3359 56.1523 -44.7266 C 55.1758 -48.8281 51.2695 -51.6602 46.3379 -52.1973 L 46.3379 -54.834 C 46.3379 -55.8105 45.6543 -56.4941 44.6777 -56.4941 C 43.7012 -56.4941 43.0176 -55.8594 43.0176 -54.834 L 43.0176 -52.1973 C 37.3047 -51.6113 33.1543 -47.998 33.1543 -42.9199 C 33.1543 -38.1836 36.377 -35.3027 42.6758 -33.8379 L 43.0176 -33.7402 L 43.0176 -21.9238 C 39.3555 -22.4121 37.0605 -24.4629 36.5234 -27.2461 C 36.1328 -28.418 35.4492 -29.0039 34.375 -29.0039 C 33.2031 -29.0039 32.373 -28.1738 32.373 -26.9531 C 32.373 -26.5625 32.4707 -26.2207 32.5684 -25.8301 C 33.5938 -21.3867 37.8418 -18.5547 43.0176 -18.0664 L 43.0176 -15.2344 C 43.0176 -14.209 43.75 -13.5742 44.6777 -13.5742 Z M 43.0176 -37.9395 L 42.7734 -38.0371 C 39.0625 -39.1113 37.3535 -40.625 37.3535 -43.1152 C 37.3535 -45.6543 39.5996 -47.7051 43.0176 -48.1934 Z M 46.3379 -32.9102 L 47.168 -32.7148 C 51.1719 -31.6406 52.6367 -29.9805 52.6367 -27.3926 C 52.6367 -24.5117 50.4883 -22.3633 46.3379 -21.9238 Z"/>
  </g>
  <g id="Thin-S" transform="matrix(1 0 0 1 812.599 696)">
   <path d="M 20.3125 -1.12305 L 67.334 -1.12305 C 74.2676 -1.12305 77.8809 -4.78516 77.8809 -11.6211 L 77.8809 -58.6914 C 77.8809 -65.5762 74.2676 -69.2383 67.334 -69.2383 L 20.3125 -69.2383 C 13.3789 -69.2383 9.76562 -65.625 9.76562 -58.6914 L 9.76562 -11.6211 C 9.76562 -4.6875 13.3789 -1.12305 20.3125 -1.12305 Z M 20.4102 -4.44336 C 15.625 -4.44336 13.0859 -6.93359 13.0859 -11.8164 L 13.0859 -58.5449 C 13.0859 -63.3789 15.625 -65.918 20.4102 -65.918 L 67.2363 -65.918 C 71.875 -65.918 74.5605 -63.3789 74.5605 -58.5449 L 74.5605 -11.8164 C 74.5605 -6.93359 71.875 -4.44336 67.2363 -4.44336 Z M 43.7988 -14.0625 C 44.5312 -14.0625 45.0684 -14.5508 45.0684 -15.2344 L 45.0684 -18.3105 C 51.2695 -18.7012 55.6152 -22.3633 55.6152 -27.4414 C 55.6152 -32.1289 52.5391 -34.9121 46.1426 -36.2793 L 45.0684 -36.5234 L 45.0684 -48.877 C 48.877 -48.5352 51.6113 -46.3379 52.1973 -43.3105 C 52.3926 -42.4805 52.832 -41.9922 53.6133 -41.9922 C 54.4434 -41.9922 54.9805 -42.5781 54.9805 -43.4082 C 54.9805 -43.75 54.9316 -44.0918 54.8828 -44.3848 C 54.0039 -48.3398 50.0977 -51.2695 45.0684 -51.6113 L 45.0684 -54.2969 C 45.0684 -55.0293 44.5312 -55.5176 43.7988 -55.5176 C 43.0664 -55.5176 42.627 -55.0293 42.627 -54.2969 L 42.627 -51.6113 C 37.0605 -51.1719 32.8125 -47.6562 32.8125 -42.8711 C 32.8125 -38.5742 35.8887 -35.791 42.041 -34.375 L 42.627 -34.2285 L 42.627 -21.0449 C 38.2812 -21.4355 35.2539 -23.877 34.7656 -27.3438 C 34.6191 -28.2227 34.1797 -28.6621 33.3496 -28.6621 C 32.5684 -28.6621 32.0312 -28.125 32.0312 -27.1973 C 32.0312 -26.9043 32.0801 -26.5625 32.1289 -26.2207 C 33.0566 -21.8262 37.1582 -18.7012 42.627 -18.3594 L 42.627 -15.2344 C 42.627 -14.502 43.1152 -14.0625 43.7988 -14.0625 Z M 42.627 -37.1094 L 42.3828 -37.1582 C 37.8906 -38.2812 35.6445 -39.9902 35.6445 -42.9688 C 35.6445 -46.1426 38.623 -48.4863 42.627 -48.877 Z M 45.0684 -33.6426 L 45.8984 -33.4473 C 50.7324 -32.2754 52.7832 -30.4688 52.7832 -27.3926 C 52.7832 -23.9258 49.8047 -21.3379 45.0684 -21.0449 Z"/>
  </g>
  <g id="Ultralight-S" transform="matrix(1 0 0 1 516.352 696)">
   <path d="M 19.7754 -1.5625 L 66.9922 -1.5625 C 73.5352 -1.5625 76.9531 -5.12695 76.9531 -11.5234 L 76.9531 -58.7891 C 76.9531 -65.2344 73.5352 -68.75 66.9922 -68.75 L 19.7754 -68.75 C 13.2324 -68.75 9.76562 -65.2832 9.76562 -58.7891 L 9.76562 -11.5234 C 9.76562 -5.0293 13.2324 -1.5625 19.7754 -1.5625 Z M 19.873 -3.75977 C 14.6484 -3.75977 11.9629 -6.44531 11.9629 -11.6699 L 11.9629 -58.6426 C 11.9629 -63.8672 14.6484 -66.5527 19.873 -66.5527 L 66.8945 -66.5527 C 71.875 -66.5527 74.7559 -63.8672 74.7559 -58.6426 L 74.7559 -11.6699 C 74.7559 -6.44531 71.875 -3.75977 66.8945 -3.75977 Z M 43.3594 -14.3066 C 43.9453 -14.3066 44.3848 -14.6973 44.3848 -15.2832 L 44.3848 -18.457 C 50.7324 -18.8477 54.9316 -22.5098 54.9316 -27.3438 C 54.9316 -31.7871 52.002 -34.4727 45.6543 -35.9375 L 44.3848 -36.1816 L 44.3848 -49.2188 C 48.584 -48.9258 51.709 -46.5332 52.1973 -43.3105 C 52.2949 -42.5781 52.6367 -42.2363 53.2715 -42.2363 C 53.9062 -42.2363 54.2969 -42.6758 54.2969 -43.3105 C 54.2969 -43.6523 54.248 -43.9453 54.1992 -44.2383 C 53.418 -48.0469 49.5117 -51.0254 44.3848 -51.3184 L 44.3848 -54.0039 C 44.3848 -54.5898 43.9453 -54.9805 43.3594 -54.9805 C 42.7734 -54.9805 42.3828 -54.6387 42.3828 -54.0039 L 42.3828 -51.3184 C 36.9629 -50.9766 32.6172 -47.5098 32.6172 -42.8711 C 32.6172 -38.7695 35.5957 -36.084 41.748 -34.668 L 42.3828 -34.5215 L 42.3828 -20.5566 C 37.7441 -20.8984 34.2773 -23.584 33.8867 -27.4414 C 33.8379 -28.125 33.4961 -28.5156 32.8125 -28.5156 C 32.2754 -28.5156 31.8359 -28.0762 31.8359 -27.3438 C 31.8359 -27.0508 31.8848 -26.7578 31.9336 -26.4648 C 32.7637 -22.0215 36.8164 -18.8477 42.3828 -18.5059 L 42.3828 -15.2832 C 42.3828 -14.6484 42.7734 -14.3066 43.3594 -14.3066 Z M 42.3828 -36.6699 L 42.1875 -36.7188 C 37.3047 -37.8906 34.7168 -39.6973 34.7168 -42.8711 C 34.7168 -46.3867 38.0859 -48.9258 42.3828 -49.2188 Z M 44.3848 -34.0332 L 45.2148 -33.8379 C 50.4883 -32.6172 52.8809 -30.7129 52.8809 -27.3438 C 52.8809 -23.584 49.4629 -20.8008 44.3848 -20.5566 Z"/>
  </g>
 </g>
</svg>
