<?xml version="1.0" encoding="UTF-8"?>
<!--Generator: Apple Native CoreSVG 123-->
<!DOCTYPE svg
PUBLIC "-//W3C//DTD SVG 1.1//EN"
       "http://www.w3.org/Graphics/SVG/1.1/DTD/svg11.dtd">
<svg version="1.1" xmlns="http://www.w3.org/2000/svg" xmlns:xlink="http://www.w3.org/1999/xlink" width="3300" height="2200">
 <!--glyph: "uni10065C.medium", point size: 100.000000, font version: "Version 15.0d7e11", template writer version: "5"-->
 <g id="Notes">
  <rect height="2200" id="artboard" style="fill:white;opacity:1" width="3300" x="0" y="0"/>
  <line id="" style="fill:none;stroke:black;opacity:1;stroke-width:0.5;" x1="263" x2="3036" y1="292" y2="292"/>
  <text style="stroke:none;fill:black;font-family:-apple-system,&quot;SF Pro Display&quot;,&quot;SF Pro Text&quot;,Helvetica,sans-serif;font-weight:bold;" transform="matrix(1 0 0 1 263 322)">Weight/Scale Variations</text>
  <text style="stroke:none;fill:black;font-family:-apple-system,&quot;SF Pro Display&quot;,&quot;SF Pro Text&quot;,Helvetica,sans-serif;text-anchor:middle;" transform="matrix(1 0 0 1 559.711 322)">Ultralight</text>
  <text style="stroke:none;fill:black;font-family:-apple-system,&quot;SF Pro Display&quot;,&quot;SF Pro Text&quot;,Helvetica,sans-serif;text-anchor:middle;" transform="matrix(1 0 0 1 856.422 322)">Thin</text>
  <text style="stroke:none;fill:black;font-family:-apple-system,&quot;SF Pro Display&quot;,&quot;SF Pro Text&quot;,Helvetica,sans-serif;text-anchor:middle;" transform="matrix(1 0 0 1 1153.13 322)">Light</text>
  <text style="stroke:none;fill:black;font-family:-apple-system,&quot;SF Pro Display&quot;,&quot;SF Pro Text&quot;,Helvetica,sans-serif;text-anchor:middle;" transform="matrix(1 0 0 1 1449.84 322)">Regular</text>
  <text style="stroke:none;fill:black;font-family:-apple-system,&quot;SF Pro Display&quot;,&quot;SF Pro Text&quot;,Helvetica,sans-serif;text-anchor:middle;" transform="matrix(1 0 0 1 1746.56 322)">Medium</text>
  <text style="stroke:none;fill:black;font-family:-apple-system,&quot;SF Pro Display&quot;,&quot;SF Pro Text&quot;,Helvetica,sans-serif;text-anchor:middle;" transform="matrix(1 0 0 1 2043.27 322)">Semibold</text>
  <text style="stroke:none;fill:black;font-family:-apple-system,&quot;SF Pro Display&quot;,&quot;SF Pro Text&quot;,Helvetica,sans-serif;text-anchor:middle;" transform="matrix(1 0 0 1 2339.98 322)">Bold</text>
  <text style="stroke:none;fill:black;font-family:-apple-system,&quot;SF Pro Display&quot;,&quot;SF Pro Text&quot;,Helvetica,sans-serif;text-anchor:middle;" transform="matrix(1 0 0 1 2636.69 322)">Heavy</text>
  <text style="stroke:none;fill:black;font-family:-apple-system,&quot;SF Pro Display&quot;,&quot;SF Pro Text&quot;,Helvetica,sans-serif;text-anchor:middle;" transform="matrix(1 0 0 1 2933.4 322)">Black</text>
  <line id="" style="fill:none;stroke:black;opacity:1;stroke-width:0.5;" x1="263" x2="3036" y1="1903" y2="1903"/>
  <g id="" transform="matrix(1 0 0 1 263 1933)">
   <path d="M 9.24805 0.830078 C 13.5547 0.830078 17.1387 -2.74414 17.1387 -7.05078 C 17.1387 -11.3574 13.5449 -14.9316 9.23828 -14.9316 C 4.94141 -14.9316 1.36719 -11.3574 1.36719 -7.05078 C 1.36719 -2.74414 4.95117 0.830078 9.24805 0.830078 Z M 9.24805 -0.654297 C 5.70312 -0.654297 2.87109 -3.49609 2.87109 -7.05078 C 2.87109 -10.6055 5.69336 -13.4473 9.23828 -13.4473 C 12.793 -13.4473 15.6348 -10.6055 15.6445 -7.05078 C 15.6543 -3.49609 12.8027 -0.654297 9.24805 -0.654297 Z M 9.22852 -3.42773 C 9.69727 -3.42773 9.9707 -3.74023 9.9707 -4.25781 L 9.9707 -6.31836 L 12.1973 -6.31836 C 12.6953 -6.31836 13.0371 -6.57227 13.0371 -7.04102 C 13.0371 -7.51953 12.7148 -7.7832 12.1973 -7.7832 L 9.9707 -7.7832 L 9.9707 -10.0098 C 9.9707 -10.5273 9.69727 -10.8496 9.22852 -10.8496 C 8.75977 -10.8496 8.50586 -10.5078 8.50586 -10.0098 L 8.50586 -7.7832 L 6.29883 -7.7832 C 5.78125 -7.7832 5.44922 -7.51953 5.44922 -7.04102 C 5.44922 -6.57227 5.80078 -6.31836 6.29883 -6.31836 L 8.50586 -6.31836 L 8.50586 -4.25781 C 8.50586 -3.75977 8.75977 -3.42773 9.22852 -3.42773 Z"/>
  </g>
  <g id="" transform="matrix(1 0 0 1 281.506 1933)">
   <path d="M 11.709 2.91016 C 17.1582 2.91016 21.6699 -1.60156 21.6699 -7.05078 C 21.6699 -12.4902 17.1484 -17.0117 11.6992 -17.0117 C 6.25977 -17.0117 1.74805 -12.4902 1.74805 -7.05078 C 1.74805 -1.60156 6.26953 2.91016 11.709 2.91016 Z M 11.709 1.25 C 7.09961 1.25 3.41797 -2.44141 3.41797 -7.05078 C 3.41797 -11.6504 7.08984 -15.3516 11.6992 -15.3516 C 16.3086 -15.3516 20 -11.6504 20.0098 -7.05078 C 20.0195 -2.44141 16.3184 1.25 11.709 1.25 Z M 11.6895 -2.41211 C 12.207 -2.41211 12.5195 -2.77344 12.5195 -3.33984 L 12.5195 -6.23047 L 15.5762 -6.23047 C 16.123 -6.23047 16.5039 -6.51367 16.5039 -7.03125 C 16.5039 -7.55859 16.1426 -7.86133 15.5762 -7.86133 L 12.5195 -7.86133 L 12.5195 -10.9277 C 12.5195 -11.5039 12.207 -11.8555 11.6895 -11.8555 C 11.1719 -11.8555 10.8789 -11.4844 10.8789 -10.9277 L 10.8789 -7.86133 L 7.83203 -7.86133 C 7.26562 -7.86133 6.89453 -7.55859 6.89453 -7.03125 C 6.89453 -6.51367 7.28516 -6.23047 7.83203 -6.23047 L 10.8789 -6.23047 L 10.8789 -3.33984 C 10.8789 -2.79297 11.1719 -2.41211 11.6895 -2.41211 Z"/>
  </g>
  <g id="" transform="matrix(1 0 0 1 304.924 1933)">
   <path d="M 14.9707 5.67383 C 21.9336 5.67383 27.6953 -0.078125 27.6953 -7.04102 C 27.6953 -14.0039 21.9238 -19.7559 14.9609 -19.7559 C 8.00781 -19.7559 2.25586 -14.0039 2.25586 -7.04102 C 2.25586 -0.078125 8.01758 5.67383 14.9707 5.67383 Z M 14.9707 3.85742 C 8.93555 3.85742 4.08203 -1.00586 4.08203 -7.04102 C 4.08203 -13.0762 8.92578 -17.9395 14.9609 -17.9395 C 21.0059 -17.9395 25.8594 -13.0762 25.8691 -7.04102 C 25.8789 -1.00586 21.0156 3.85742 14.9707 3.85742 Z M 14.9512 -1.06445 C 15.5176 -1.06445 15.8691 -1.45508 15.8691 -2.06055 L 15.8691 -6.13281 L 20.1074 -6.13281 C 20.6934 -6.13281 21.1133 -6.46484 21.1133 -7.02148 C 21.1133 -7.59766 20.7227 -7.93945 20.1074 -7.93945 L 15.8691 -7.93945 L 15.8691 -12.1875 C 15.8691 -12.8027 15.5176 -13.1934 14.9512 -13.1934 C 14.3848 -13.1934 14.0625 -12.7832 14.0625 -12.1875 L 14.0625 -7.93945 L 9.83398 -7.93945 C 9.21875 -7.93945 8.80859 -7.59766 8.80859 -7.02148 C 8.80859 -6.46484 9.23828 -6.13281 9.83398 -6.13281 L 14.0625 -6.13281 L 14.0625 -2.06055 C 14.0625 -1.47461 14.3848 -1.06445 14.9512 -1.06445 Z"/>
  </g>
  <text style="stroke:none;fill:black;font-family:-apple-system,&quot;SF Pro Display&quot;,&quot;SF Pro Text&quot;,Helvetica,sans-serif;font-weight:bold;" transform="matrix(1 0 0 1 263 1953)">Design Variations</text>
  <text style="stroke:none;fill:black;font-family:-apple-system,&quot;SF Pro Display&quot;,&quot;SF Pro Text&quot;,Helvetica,sans-serif;" transform="matrix(1 0 0 1 263 1971)">Symbols are supported in up to nine weights and three scales.</text>
  <text style="stroke:none;fill:black;font-family:-apple-system,&quot;SF Pro Display&quot;,&quot;SF Pro Text&quot;,Helvetica,sans-serif;" transform="matrix(1 0 0 1 263 1989)">For optimal layout with text and other symbols, vertically align</text>
  <text style="stroke:none;fill:black;font-family:-apple-system,&quot;SF Pro Display&quot;,&quot;SF Pro Text&quot;,Helvetica,sans-serif;" transform="matrix(1 0 0 1 263 2007)">symbols with the adjacent text.</text>
  <rect height="14" id="" style="fill:#00AEEF;stroke:none;opacity:0.4;" width="3" x="776" y="1919"/>
  <g id="" transform="matrix(1 0 0 1 779 1933)">
   <path d="M 10.5273 0 L 12.373 0 L 7.17773 -14.0918 L 5.43945 -14.0918 L 0.244141 0 L 2.08984 0 L 3.50586 -4.0332 L 9.11133 -4.0332 Z M 6.2793 -11.9531 L 6.33789 -11.9531 L 8.59375 -5.52734 L 4.02344 -5.52734 Z"/>
  </g>
  <rect height="14" id="" style="fill:#00AEEF;stroke:none;opacity:0.4;" width="3" x="791.617" y="1919"/>
  <text style="stroke:none;fill:black;font-family:-apple-system,&quot;SF Pro Display&quot;,&quot;SF Pro Text&quot;,Helvetica,sans-serif;font-weight:bold;" transform="matrix(1 0 0 1 776 1953)">Margins</text>
  <text style="stroke:none;fill:black;font-family:-apple-system,&quot;SF Pro Display&quot;,&quot;SF Pro Text&quot;,Helvetica,sans-serif;" transform="matrix(1 0 0 1 776 1971)">Leading and trailing margins on the left and right side of each symbol</text>
  <text style="stroke:none;fill:black;font-family:-apple-system,&quot;SF Pro Display&quot;,&quot;SF Pro Text&quot;,Helvetica,sans-serif;" transform="matrix(1 0 0 1 776 1989)">can be adjusted by modifying the width of the blue rectangles.</text>
  <text style="stroke:none;fill:black;font-family:-apple-system,&quot;SF Pro Display&quot;,&quot;SF Pro Text&quot;,Helvetica,sans-serif;" transform="matrix(1 0 0 1 776 2007)">Modifications are automatically applied proportionally to all</text>
  <text style="stroke:none;fill:black;font-family:-apple-system,&quot;SF Pro Display&quot;,&quot;SF Pro Text&quot;,Helvetica,sans-serif;" transform="matrix(1 0 0 1 776 2025)">scales and weights.</text>
  <g id="" transform="matrix(1 0 0 1 1289 1933)">
   <path d="M 2.83203 3.11523 L 4.375 4.6582 C 5.22461 5.48828 6.19141 5.41992 7.06055 4.46289 L 17.2754 -6.66016 C 17.7051 -6.36719 18.0957 -6.37695 18.5645 -6.47461 L 19.6094 -6.68945 L 20.3027 -5.99609 L 20.2539 -5.47852 C 20.1855 -4.95117 20.3516 -4.53125 20.8496 -4.0332 L 21.6602 -3.22266 C 22.168 -2.71484 22.8223 -2.68555 23.3008 -3.16406 L 26.5527 -6.41602 C 27.0312 -6.89453 27.0117 -7.54883 26.5039 -8.05664 L 25.6836 -8.87695 C 25.1855 -9.375 24.7754 -9.55078 24.2383 -9.47266 L 23.7109 -9.41406 L 23.0566 -10.0781 L 23.3398 -11.2207 C 23.4863 -11.7871 23.3398 -12.2559 22.7148 -12.8613 L 20.3027 -15.2539 C 16.7578 -18.7793 12.2266 -18.6719 9.11133 -15.5371 C 8.69141 -15.1074 8.64258 -14.5215 8.91602 -14.0918 C 9.15039 -13.7207 9.62891 -13.4961 10.2734 -13.6621 C 11.7871 -14.043 13.3008 -13.9258 14.7852 -12.9199 L 14.1602 -11.3379 C 13.9258 -10.752 13.9453 -10.2734 14.1797 -9.83398 L 3.01758 0.439453 C 2.08008 1.30859 1.97266 2.25586 2.83203 3.11523 Z M 10.6738 -15.1465 C 13.3398 -17.1387 16.6504 -16.8262 19.0527 -14.4141 L 21.6797 -11.8066 C 21.9141 -11.5723 21.9434 -11.3867 21.8848 -11.0938 L 21.5039 -9.53125 L 23.0762 -7.95898 L 24.043 -8.04688 C 24.3262 -8.07617 24.4141 -8.05664 24.6387 -7.83203 L 25.2637 -7.20703 L 22.5098 -4.46289 L 21.8848 -5.07812 C 21.6602 -5.30273 21.6406 -5.40039 21.6699 -5.68359 L 21.7578 -6.64062 L 20.1953 -8.20312 L 18.5742 -7.89062 C 18.291 -7.83203 18.1445 -7.83203 17.9102 -8.07617 L 15.7324 -10.2539 C 15.5078 -10.4883 15.4785 -10.625 15.6055 -10.9473 L 16.5527 -13.2227 C 14.9512 -14.7559 12.8418 -15.6055 10.8008 -14.9512 C 10.7129 -14.9219 10.6445 -14.9414 10.6152 -14.9805 C 10.5859 -15.0293 10.5859 -15.0781 10.6738 -15.1465 Z M 4.10156 2.41211 C 3.61328 1.91406 3.78906 1.61133 4.12109 1.30859 L 15.0781 -8.80859 L 16.3086 -7.57812 L 6.15234 3.34961 C 5.84961 3.68164 5.46875 3.7793 5.06836 3.37891 Z"/>
  </g>
  <text style="stroke:none;fill:black;font-family:-apple-system,&quot;SF Pro Display&quot;,&quot;SF Pro Text&quot;,Helvetica,sans-serif;font-weight:bold;" transform="matrix(1 0 0 1 1289 1953)">Exporting</text>
  <text style="stroke:none;fill:black;font-family:-apple-system,&quot;SF Pro Display&quot;,&quot;SF Pro Text&quot;,Helvetica,sans-serif;" transform="matrix(1 0 0 1 1289 1971)">Symbols should be outlined when exporting to ensure the</text>
  <text style="stroke:none;fill:black;font-family:-apple-system,&quot;SF Pro Display&quot;,&quot;SF Pro Text&quot;,Helvetica,sans-serif;" transform="matrix(1 0 0 1 1289 1989)">design is preserved when submitting to Xcode.</text>
  <text id="template-version" style="stroke:none;fill:black;font-family:-apple-system,&quot;SF Pro Display&quot;,&quot;SF Pro Text&quot;,Helvetica,sans-serif;text-anchor:end;" transform="matrix(1 0 0 1 3036 1933)">Template v.1.0</text>
  <text style="stroke:none;fill:black;font-family:-apple-system,&quot;SF Pro Display&quot;,&quot;SF Pro Text&quot;,Helvetica,sans-serif;text-anchor:end;" transform="matrix(1 0 0 1 3036 1951)">Generated from leaf.arrow.circlepath</text>
  <text style="stroke:none;fill:black;font-family:-apple-system,&quot;SF Pro Display&quot;,&quot;SF Pro Text&quot;,Helvetica,sans-serif;text-anchor:end;" transform="matrix(1 0 0 1 3036 1969)">Typeset at 100 points</text>
  <text style="stroke:none;fill:black;font-family:-apple-system,&quot;SF Pro Display&quot;,&quot;SF Pro Text&quot;,Helvetica,sans-serif;" transform="matrix(1 0 0 1 263 726)">Small</text>
  <text style="stroke:none;fill:black;font-family:-apple-system,&quot;SF Pro Display&quot;,&quot;SF Pro Text&quot;,Helvetica,sans-serif;" transform="matrix(1 0 0 1 263 1156)">Medium</text>
  <text style="stroke:none;fill:black;font-family:-apple-system,&quot;SF Pro Display&quot;,&quot;SF Pro Text&quot;,Helvetica,sans-serif;" transform="matrix(1 0 0 1 263 1586)">Large</text>
 </g>
 <g id="Guides">
  <g id="H-reference" style="fill:#27AAE1;stroke:none;" transform="matrix(1 0 0 1 339 696)">
   <path d="M 54.9316 0 L 57.666 0 L 30.5664 -70.459 L 28.0762 -70.459 L 0.976562 0 L 3.66211 0 L 12.9395 -24.4629 L 45.7031 -24.4629 Z M 29.1992 -67.0898 L 29.4434 -67.0898 L 44.8242 -26.709 L 13.8184 -26.709 Z"/>
  </g>
  <line id="Baseline-S" style="fill:none;stroke:#27AAE1;opacity:1;stroke-width:0.577;" x1="263" x2="3036" y1="696" y2="696"/>
  <line id="Capline-S" style="fill:none;stroke:#27AAE1;opacity:1;stroke-width:0.577;" x1="263" x2="3036" y1="625.541" y2="625.541"/>
  <g id="H-reference" style="fill:#27AAE1;stroke:none;" transform="matrix(1 0 0 1 339 1126)">
   <path d="M 54.9316 0 L 57.666 0 L 30.5664 -70.459 L 28.0762 -70.459 L 0.976562 0 L 3.66211 0 L 12.9395 -24.4629 L 45.7031 -24.4629 Z M 29.1992 -67.0898 L 29.4434 -67.0898 L 44.8242 -26.709 L 13.8184 -26.709 Z"/>
  </g>
  <line id="Baseline-M" style="fill:none;stroke:#27AAE1;opacity:1;stroke-width:0.577;" x1="263" x2="3036" y1="1126" y2="1126"/>
  <line id="Capline-M" style="fill:none;stroke:#27AAE1;opacity:1;stroke-width:0.577;" x1="263" x2="3036" y1="1055.54" y2="1055.54"/>
  <g id="H-reference" style="fill:#27AAE1;stroke:none;" transform="matrix(1 0 0 1 339 1556)">
   <path d="M 54.9316 0 L 57.666 0 L 30.5664 -70.459 L 28.0762 -70.459 L 0.976562 0 L 3.66211 0 L 12.9395 -24.4629 L 45.7031 -24.4629 Z M 29.1992 -67.0898 L 29.4434 -67.0898 L 44.8242 -26.709 L 13.8184 -26.709 Z"/>
  </g>
  <line id="Baseline-L" style="fill:none;stroke:#27AAE1;opacity:1;stroke-width:0.577;" x1="263" x2="3036" y1="1556" y2="1556"/>
  <line id="Capline-L" style="fill:none;stroke:#27AAE1;opacity:1;stroke-width:0.577;" x1="263" x2="3036" y1="1485.54" y2="1485.54"/>
  <rect height="119.336" id="left-margin" style="fill:#00AEEF;stroke:none;opacity:0.4;" width="8.74023" x="1391.3" y="1030.79"/>
  <rect height="119.336" id="right-margin" style="fill:#00AEEF;stroke:none;opacity:0.4;" width="8.74023" x="1499.65" y="1030.79"/>
 </g>
 <g id="Symbols">
  <g id="Black-L" transform="matrix(1 0 0 1 2854.05 1556)">
   <path d="M 79.3457 32.8125 C 116.748 32.8125 147.412 2.14844 147.412 -35.2539 C 147.412 -52.9297 139.111 -73.0957 126.807 -83.6914 C 121.338 -88.5742 115.234 -88.5254 111.377 -84.3262 C 107.08 -79.6875 108.545 -73.584 112.793 -68.9941 C 121.68 -59.8145 126.953 -48.5352 126.953 -35.2539 C 127.002 -8.88672 105.713 12.3535 79.3457 12.3535 C 52.9785 12.3535 31.7383 -8.88672 31.7383 -35.2539 C 31.7383 -56.1523 45.0195 -73.8281 63.6719 -80.2734 L 63.6719 -71.582 C 63.6719 -65.5762 68.9453 -63.7207 74.3652 -67.6758 L 99.1699 -85.8398 C 103.467 -88.9648 103.369 -94.1406 99.1699 -97.2168 L 74.3652 -115.479 C 69.043 -119.385 63.6719 -117.725 63.6719 -111.523 L 63.6719 -101.514 C 33.7402 -94.3848 11.2793 -67.334 11.2793 -35.2539 C 11.2793 2.14844 41.9434 32.8125 79.3457 32.8125 Z M 48.5352 -54.6875 C 48.3398 -52.4414 48.1934 -50.2441 48.1934 -48.1934 C 48.1934 -26.2207 61.8164 -10.9863 79.4922 -10.9863 C 87.2559 -10.9863 94.4824 -14.8438 97.5586 -21.2402 C 100.098 -17.7734 101.465 -13.7695 103.564 -7.71484 C 103.955 -6.73828 104.883 -6.25 105.811 -6.68945 L 107.324 -7.42188 C 108.789 -8.1543 109.424 -8.88672 109.424 -10.5469 C 109.424 -14.8926 103.76 -21.3379 100.732 -23.9746 C 88.1836 -35.0098 68.75 -28.4668 64.6484 -40.918 C 64.5508 -41.1621 64.5508 -41.3574 64.5508 -41.5527 C 64.5508 -42.041 64.8926 -42.3828 65.2344 -42.3828 C 65.7227 -42.3828 65.9668 -42.1875 66.2598 -41.8457 C 75.293 -32.8125 87.8906 -39.7461 99.5117 -30.7129 C 101.416 -29.2969 103.174 -29.4434 103.223 -31.8848 C 103.223 -32.3242 103.271 -32.8125 103.271 -33.3008 C 103.271 -47.168 93.5059 -53.125 79.5898 -53.125 C 74.9512 -53.125 70.2637 -51.9043 65.918 -51.9043 C 60.9863 -51.9043 56.25 -52.3926 53.2227 -55.4199 C 51.0254 -57.5684 48.7305 -57.373 48.5352 -54.6875 Z"/>
  </g>
  <g id="Heavy-L" transform="matrix(1 0 0 1 2558.39 1556)">
   <path d="M 78.2715 31.7383 C 115.088 31.7383 145.312 1.5625 145.312 -35.2539 C 145.312 -53.8574 136.328 -73.7793 122.998 -84.5703 C 118.262 -88.7207 112.891 -88.5254 109.668 -84.8633 C 106.055 -80.7617 107.324 -75.4883 111.084 -71.582 C 121.289 -62.3047 127.49 -49.8047 127.539 -35.2539 C 127.539 -8.00781 105.566 13.9648 78.2715 13.9648 C 51.0254 13.9648 29.0527 -8.00781 29.0527 -35.2539 C 29.0527 -57.4219 43.5059 -76.0254 63.5254 -82.2754 L 63.5254 -73.2422 C 63.5254 -67.6758 68.2129 -66.0156 73.0469 -69.5312 L 96.7285 -86.7188 C 100.586 -89.5508 100.537 -94.0918 96.7285 -96.9238 L 73.0957 -114.111 C 68.2617 -117.676 63.5254 -116.113 63.5254 -110.449 L 63.5254 -100.635 C 33.7402 -93.8477 11.2793 -66.9922 11.2793 -35.2539 C 11.2793 1.5625 41.5039 31.7383 78.2715 31.7383 Z M 46.9727 -55.6641 C 46.7285 -53.2227 46.582 -50.8301 46.582 -48.5352 C 46.582 -26.6113 60.3516 -11.0352 78.2715 -11.0352 C 86.1328 -11.0352 93.457 -14.7949 96.582 -21.0449 C 99.2188 -17.4805 100.586 -13.3301 102.783 -7.03125 C 103.125 -6.10352 104.004 -5.71289 104.834 -6.10352 L 106.543 -6.93359 C 108.057 -7.66602 108.643 -8.44727 108.643 -10.1074 C 108.643 -14.5508 102.881 -21.1426 99.8535 -23.877 C 87.1582 -35.1562 67.627 -28.5156 63.2324 -41.1621 C 63.1348 -41.4062 63.1348 -41.6016 63.1348 -41.748 C 63.1348 -42.2363 63.4766 -42.627 63.8184 -42.627 C 64.3066 -42.627 64.5508 -42.4316 64.8926 -42.0898 C 74.1699 -32.8125 87.1094 -40.1367 98.9746 -30.3711 C 100.635 -29.1016 102.295 -29.248 102.295 -31.3965 C 102.344 -31.9824 102.393 -32.666 102.393 -33.3984 C 102.393 -47.4121 92.4805 -53.418 78.3691 -53.418 C 73.7305 -53.418 69.043 -52.3926 64.6973 -52.3926 C 59.375 -52.3926 54.4434 -53.0273 51.2207 -56.3965 C 49.3164 -58.3008 47.168 -58.0566 46.9727 -55.6641 Z"/>
  </g>
  <g id="Bold-L" transform="matrix(1 0 0 1 2262.88 1556)">
   <path d="M 77.0996 30.5664 C 113.232 30.5664 142.92 0.878906 142.92 -35.2539 C 142.92 -54.834 133.252 -74.5117 118.75 -85.5469 C 114.844 -88.8672 110.303 -88.5742 107.764 -85.4004 C 104.932 -81.9336 106.006 -77.6367 109.229 -74.5117 C 120.801 -65.0879 128.125 -51.2207 128.174 -35.2539 C 128.174 -6.93359 105.371 15.8203 77.0996 15.8203 C 48.8281 15.8203 26.0742 -6.93359 26.0742 -35.2539 C 26.0742 -58.7891 41.7969 -78.5156 63.3789 -84.4727 L 63.3789 -75.0488 C 63.3789 -70.0684 67.3828 -68.6035 71.6309 -71.6797 L 93.9453 -87.6953 C 97.3633 -90.1855 97.3633 -94.0918 93.9453 -96.582 L 71.6797 -112.646 C 67.4316 -115.723 63.3789 -114.307 63.3789 -109.229 L 63.3789 -99.6094 C 33.7402 -93.2129 11.2793 -66.6504 11.2793 -35.2539 C 11.2793 0.878906 41.0156 30.5664 77.0996 30.5664 Z M 45.2148 -56.7383 C 44.9219 -54.1016 44.7266 -51.4648 44.7266 -48.9746 C 44.7266 -27.002 58.7402 -11.0352 76.9043 -11.0352 C 84.9121 -11.0352 92.2852 -14.6973 95.5078 -20.8496 C 98.2422 -17.1875 99.6582 -12.8906 101.904 -6.29883 C 102.197 -5.46875 102.979 -5.12695 103.711 -5.46875 L 105.615 -6.39648 C 107.178 -7.12891 107.812 -7.95898 107.812 -9.66797 C 107.812 -14.209 101.904 -20.9473 98.877 -23.7305 C 86.0352 -35.3516 66.3574 -28.6133 61.6699 -41.4062 C 61.5723 -41.6992 61.5234 -41.8945 61.5234 -42.041 C 61.5234 -42.5293 61.9141 -42.9199 62.3047 -42.9199 C 62.7441 -42.9199 63.0371 -42.6758 63.3301 -42.3828 C 72.9004 -32.8125 86.2305 -40.5762 98.3887 -29.9805 C 99.7559 -28.9062 101.27 -29.1016 101.318 -30.8105 C 101.367 -31.5918 101.416 -32.4707 101.416 -33.4473 C 101.416 -47.7051 91.4062 -53.8086 77.002 -53.8086 C 72.3633 -53.8086 67.6758 -52.9297 63.2812 -52.9297 C 57.6172 -52.9297 52.3926 -53.7598 48.9746 -57.4219 C 47.4121 -59.0332 45.4102 -58.8379 45.2148 -56.7383 Z"/>
  </g>
  <g id="Semibold-L" transform="matrix(1 0 0 1 1966.97 1556)">
   <path d="M 76.2695 29.7852 C 111.914 29.7852 141.309 0.390625 141.309 -35.2051 C 141.309 -55.5176 131.152 -75 115.82 -86.2305 C 112.5 -89.0137 108.545 -88.5742 106.445 -85.791 C 104.15 -82.7637 105.078 -79.1016 107.91 -76.5137 C 120.508 -66.9922 128.564 -52.1973 128.613 -35.2051 C 128.662 -6.25 105.273 17.0898 76.2695 17.0898 C 47.3145 17.0898 24.0234 -6.25 24.0234 -35.2051 C 24.0234 -59.7168 40.625 -80.1758 63.2812 -85.9375 L 63.2812 -76.3184 C 63.2812 -71.7285 66.7969 -70.3613 70.6543 -73.1445 L 92.041 -88.3789 C 95.166 -90.625 95.166 -94.0918 92.041 -96.3379 L 70.7031 -111.572 C 66.8457 -114.355 63.2812 -113.086 63.2812 -108.398 L 63.2812 -98.9258 C 33.7402 -92.8223 11.2793 -66.4062 11.2793 -35.2051 C 11.2793 0.390625 40.6738 29.7852 76.2695 29.7852 Z M 43.9941 -57.5195 C 43.7012 -54.6875 43.5059 -51.9043 43.5059 -49.2676 C 43.5059 -27.2949 57.666 -11.084 75.9766 -11.084 C 84.0332 -11.084 91.5039 -14.6973 94.7266 -20.7031 C 97.5586 -16.9922 98.9746 -12.5488 101.318 -5.76172 C 101.562 -4.98047 102.295 -4.6875 102.93 -5.0293 L 105.029 -6.05469 C 106.592 -6.73828 107.227 -7.61719 107.227 -9.32617 C 107.227 -13.916 101.27 -20.8496 98.1445 -23.6328 C 85.2539 -35.4492 65.5273 -28.6621 60.5957 -41.6016 C 60.498 -41.8945 60.4492 -42.041 60.4492 -42.1875 C 60.4492 -42.7246 60.8398 -43.1152 61.2305 -43.1152 C 61.6699 -43.1152 61.9629 -42.8711 62.2559 -42.5781 C 72.0215 -32.8125 85.5957 -40.8691 97.998 -29.6875 C 99.1699 -28.7109 100.537 -28.9551 100.635 -30.4199 C 100.684 -31.3477 100.781 -32.373 100.781 -33.4961 C 100.781 -47.9004 90.625 -54.0527 76.0742 -54.0527 C 71.4355 -54.0527 66.6992 -53.2715 62.3535 -53.2715 C 56.3965 -53.2715 50.9766 -54.248 47.4121 -58.2031 C 46.0938 -59.5703 44.1895 -59.375 43.9941 -57.5195 Z"/>
  </g>
  <g id="Medium-L" transform="matrix(1 0 0 1 1670.87 1556)">
   <path d="M 75.6836 29.1992 C 110.938 29.1992 140.088 0.0488281 140.088 -35.2051 C 140.088 -56.0547 129.492 -75.3906 113.623 -86.7676 C 110.693 -89.1113 107.178 -88.5742 105.42 -86.084 C 103.564 -83.3984 104.395 -80.2246 106.934 -78.0273 C 120.264 -68.457 128.906 -52.9297 128.906 -35.2051 C 128.955 -5.71289 105.176 18.0176 75.6836 18.0176 C 46.1426 18.0176 22.4609 -5.71289 22.4609 -35.2051 C 22.4609 -60.4492 39.7461 -81.4453 63.1836 -87.0117 L 63.1836 -77.2461 C 63.1836 -72.9492 66.3574 -71.7285 69.9219 -74.2188 L 90.625 -88.8672 C 93.5059 -90.918 93.5059 -94.043 90.625 -96.1426 L 69.9707 -110.791 C 66.4062 -113.379 63.1836 -112.158 63.1836 -107.764 L 63.1836 -98.3887 C 33.7891 -92.4805 11.2793 -66.2598 11.2793 -35.2051 C 11.2793 0.0488281 40.3809 29.1992 75.6836 29.1992 Z M 43.0664 -58.1055 C 42.7734 -55.1758 42.5293 -52.2461 42.5293 -49.4629 C 42.5293 -27.5391 56.7871 -11.084 75.293 -11.084 C 83.3496 -11.084 90.8691 -14.6484 94.1895 -20.6055 C 97.0703 -16.7969 98.4863 -12.3047 100.83 -5.37109 C 101.074 -4.63867 101.758 -4.39453 102.344 -4.6875 L 104.541 -5.76172 C 106.152 -6.44531 106.738 -7.37305 106.738 -9.08203 C 106.738 -13.7207 100.732 -20.752 97.6562 -23.584 C 84.668 -35.5469 64.8438 -28.6621 59.8145 -41.748 C 59.668 -41.9922 59.6191 -42.1875 59.6191 -42.334 C 59.6191 -42.8711 60.0098 -43.2617 60.4004 -43.2617 C 60.8887 -43.2617 61.1328 -43.0176 61.4746 -42.6758 C 71.3867 -32.7637 85.1562 -41.1133 97.7051 -29.4922 C 98.7305 -28.6133 100.049 -28.9062 100.098 -30.127 C 100.195 -31.1035 100.244 -32.2754 100.244 -33.5449 C 100.244 -48.0469 90.0391 -54.248 75.3418 -54.248 C 70.752 -54.248 66.0156 -53.5645 61.6211 -53.5645 C 55.4688 -53.5645 49.9023 -54.6387 46.2402 -58.7402 C 45.0684 -59.9609 43.2617 -59.7656 43.0664 -58.1055 Z"/>
  </g>
  <g id="Regular-L" transform="matrix(1 0 0 1 1374.97 1556)">
   <path d="M 74.8535 28.3691 C 109.668 28.3691 138.477 -0.390625 138.477 -35.2051 C 138.477 -56.7383 127.393 -75.9277 110.742 -87.4023 C 108.35 -89.209 105.42 -88.5742 104.102 -86.4258 C 102.783 -84.1797 103.467 -81.6406 105.664 -80.0293 C 119.922 -70.3125 129.297 -53.9062 129.346 -35.2051 C 129.395 -5.0293 105.078 19.2871 74.8535 19.2871 C 44.6777 19.2871 20.4102 -5.0293 20.4102 -35.2051 C 20.4102 -61.377 38.5742 -83.1055 63.0859 -88.4277 L 63.0859 -78.5156 C 63.0859 -74.5605 65.8203 -73.4863 68.9453 -75.6836 L 88.7207 -89.5508 C 91.3086 -91.3574 91.3574 -94.043 88.7207 -95.8984 L 68.9941 -109.766 C 65.8203 -112.012 63.0859 -110.938 63.0859 -106.934 L 63.0859 -97.7051 C 33.7891 -92.0898 11.2793 -66.0156 11.2793 -35.2051 C 11.2793 -0.390625 40.0879 28.3691 74.8535 28.3691 Z M 41.8945 -58.8379 C 41.5039 -55.7617 41.2598 -52.6855 41.2598 -49.7559 C 41.2598 -27.7832 55.7129 -11.1328 74.3652 -11.1328 C 82.5195 -11.1328 90.0879 -14.5996 93.457 -20.5078 C 96.3867 -16.6016 97.8516 -12.0117 100.244 -4.83398 C 100.439 -4.19922 101.074 -4.00391 101.562 -4.24805 L 103.955 -5.37109 C 105.566 -6.10352 106.152 -7.03125 106.152 -8.74023 C 106.152 -13.4766 100.098 -20.6055 96.9727 -23.4863 C 83.8867 -35.6934 63.9648 -28.7109 58.7402 -41.9434 C 58.5938 -42.1875 58.5449 -42.3828 58.5449 -42.5293 C 58.5449 -43.0176 58.9844 -43.457 59.375 -43.457 C 59.8145 -43.457 60.1074 -43.2129 60.4004 -42.8711 C 70.5078 -32.7637 84.5215 -41.4062 97.3145 -29.1992 C 98.0957 -28.4668 99.3164 -28.7598 99.4141 -29.7852 C 99.5117 -30.8594 99.6094 -32.1777 99.6094 -33.5938 C 99.6094 -48.2422 89.2578 -54.4922 74.4629 -54.4922 C 69.8242 -54.4922 65.0879 -53.9062 60.6445 -53.9062 C 54.248 -53.9062 48.5352 -55.127 44.7266 -59.4727 C 43.7988 -60.498 42.041 -60.3027 41.8945 -58.8379 Z"/>
  </g>
  <g id="Light-L" transform="matrix(1 0 0 1 1079.18 1556)">
   <path d="M 73.9258 27.4902 C 108.301 27.4902 136.621 -0.830078 136.621 -35.1562 C 136.621 -57.0801 125.049 -76.5137 107.715 -87.6953 C 105.908 -89.0137 103.711 -88.5254 102.734 -86.8652 C 101.758 -85.1562 102.295 -83.2031 103.955 -82.0312 C 119.434 -72.2168 129.688 -54.9316 129.736 -35.1562 C 129.736 -4.3457 104.785 20.6055 73.9258 20.6055 C 43.1152 20.6055 18.2129 -4.3457 18.2129 -35.1562 C 18.2129 -62.1582 37.2559 -84.6191 62.6465 -89.7949 L 62.6465 -78.7109 C 62.6465 -75.4883 64.8926 -74.5117 67.5781 -76.416 L 86.9629 -89.9902 C 89.1602 -91.5039 89.209 -93.75 86.9629 -95.3125 L 67.627 -108.887 C 64.8926 -110.791 62.6465 -109.814 62.6465 -106.592 L 62.6465 -96.8262 C 33.5938 -91.4551 11.2793 -65.6738 11.2793 -35.1562 C 11.2793 -0.830078 39.5996 27.4902 73.9258 27.4902 Z M 40.332 -59.5215 C 39.8926 -56.2012 39.6484 -52.9785 39.6484 -49.9023 C 39.6484 -27.2949 54.3457 -10.5469 73.3398 -10.5469 C 81.6406 -10.5469 89.3066 -14.0625 92.7246 -20.0684 C 95.752 -16.0645 97.2168 -11.377 99.6582 -4.05273 C 99.8535 -3.4668 100.439 -3.27148 100.879 -3.4668 L 103.418 -4.6875 C 105.078 -5.41992 105.713 -6.39648 105.713 -8.1543 C 105.713 -12.9883 99.4629 -20.166 96.3379 -23.1445 C 83.1055 -35.5957 63.1836 -28.6621 57.4219 -41.8945 C 57.3242 -42.1875 57.2266 -42.334 57.2266 -42.4805 C 57.2266 -43.0176 57.666 -43.457 58.0566 -43.457 C 58.4961 -43.457 58.7891 -43.1641 59.1309 -42.8711 C 69.4336 -32.5195 83.8379 -41.4551 96.875 -28.7598 C 97.5586 -28.0762 98.6816 -28.3203 98.7793 -29.248 C 98.9258 -30.4199 98.9746 -31.8359 98.9746 -33.3984 C 98.9746 -48.291 88.4766 -54.6875 73.3887 -54.6875 C 68.7012 -54.6875 63.8672 -54.1016 59.375 -54.1016 C 52.7344 -54.1016 46.7285 -55.3223 42.8711 -60.0586 C 42.041 -61.0352 40.4785 -60.8398 40.332 -59.5215 Z"/>
  </g>
  <g id="Thin-L" transform="matrix(1 0 0 1 783.693 1556)">
   <path d="M 72.7051 26.3184 C 106.494 26.3184 134.18 -1.36719 134.18 -35.1074 C 134.18 -57.5684 121.973 -77.2949 103.76 -88.0371 C 102.686 -88.7207 101.465 -88.3789 100.928 -87.4512 C 100.439 -86.4746 100.732 -85.3027 101.709 -84.668 C 118.75 -74.6582 130.176 -56.25 130.176 -35.1074 C 130.176 -3.41797 104.443 22.3145 72.7051 22.3145 C 41.0156 22.3145 15.2832 -3.41797 15.2832 -35.1074 C 15.2832 -63.1836 35.4492 -86.6211 62.1094 -91.6016 L 62.1094 -79.0039 C 62.1094 -76.7578 63.7207 -75.9277 65.7715 -77.3926 L 84.6191 -90.5273 C 86.3281 -91.748 86.3281 -93.3594 84.6191 -94.5801 L 65.8203 -107.715 C 63.7207 -109.18 62.1094 -108.35 62.1094 -106.104 L 62.1094 -95.6543 C 33.3496 -90.5762 11.2793 -65.2832 11.2793 -35.1074 C 11.2793 -1.36719 38.9648 26.3184 72.7051 26.3184 Z M 38.2812 -60.4492 C 37.7441 -56.8359 37.5 -53.3691 37.5 -50.0488 C 37.5 -26.6113 52.5391 -9.76562 71.9727 -9.76562 C 80.4199 -9.76562 88.2812 -13.3789 91.748 -19.4824 C 94.873 -15.4297 96.3867 -10.5957 98.877 -2.97852 C 99.0723 -2.49023 99.5605 -2.29492 100 -2.49023 L 102.734 -3.75977 C 104.443 -4.54102 105.078 -5.56641 105.078 -7.32422 C 105.078 -12.3047 98.6816 -19.6289 95.459 -22.7051 C 82.0312 -35.4492 62.1582 -28.5645 55.7129 -41.7969 C 55.5664 -42.1387 55.4688 -42.2852 55.4688 -42.4316 C 55.4688 -43.0176 55.957 -43.457 56.3477 -43.457 C 56.7871 -43.457 57.0801 -43.1641 57.4219 -42.8223 C 68.0176 -32.2266 82.8613 -41.5039 96.2891 -28.1738 C 96.875 -27.5879 97.8516 -27.7832 97.9492 -28.6133 C 98.0957 -29.8828 98.1934 -31.4453 98.1934 -33.1543 C 98.1934 -48.3398 87.4512 -54.9316 72.0215 -54.9316 C 67.2363 -54.9316 62.3047 -54.3457 57.666 -54.3457 C 50.6836 -54.3457 44.3359 -55.6152 40.4785 -60.791 C 39.7949 -61.7188 38.4277 -61.5234 38.2812 -60.4492 Z"/>
  </g>
  <g id="Ultralight-L" transform="matrix(1 0 0 1 487.616 1556)">
   <path d="M 72.1191 25.7324 C 105.566 25.7324 132.91 -1.61133 132.91 -35.1074 C 132.91 -57.8125 120.361 -77.6855 101.758 -88.1836 C 101.025 -88.623 100.293 -88.3301 100 -87.7441 C 99.707 -87.1582 99.9023 -86.377 100.537 -86.0352 C 118.408 -75.9277 130.42 -56.8848 130.42 -35.1074 C 130.42 -2.97852 104.248 23.2422 72.1191 23.2422 C 39.9414 23.2422 13.7695 -2.97852 13.7695 -35.1074 C 13.7695 -63.7207 34.5703 -87.6465 61.8164 -92.4805 L 61.8164 -79.1504 C 61.8164 -77.3926 63.0859 -76.6113 64.8926 -77.8809 L 83.3984 -90.8203 C 84.8633 -91.8457 84.8633 -93.1641 83.3984 -94.1895 L 64.8926 -107.129 C 63.0859 -108.398 61.8164 -107.617 61.8164 -105.859 L 61.8164 -95.0195 C 33.2031 -90.1367 11.2793 -65.0391 11.2793 -35.1074 C 11.2793 -1.61133 38.623 25.7324 72.1191 25.7324 Z M 37.207 -60.8887 C 36.6211 -57.1289 36.377 -53.5156 36.377 -50.0977 C 36.377 -26.2695 51.6113 -9.32617 71.2402 -9.32617 C 79.834 -9.32617 87.7441 -12.9883 91.2598 -19.2383 C 94.4336 -15.0391 95.9473 -10.2051 98.4863 -2.44141 C 98.6816 -1.95312 99.1211 -1.80664 99.5117 -1.95312 L 102.393 -3.27148 C 104.102 -4.10156 104.736 -5.12695 104.736 -6.93359 C 104.736 -11.9629 98.2422 -19.3848 95.0195 -22.4609 C 81.4453 -35.4004 61.6211 -28.4668 54.834 -41.748 C 54.6875 -42.0898 54.5898 -42.2363 54.5898 -42.4316 C 54.5898 -42.9688 55.0781 -43.457 55.4688 -43.457 C 55.9082 -43.457 56.2012 -43.1641 56.543 -42.8223 C 67.2852 -32.0312 82.373 -41.5527 95.9961 -27.8809 C 96.5332 -27.3438 97.4609 -27.4902 97.5098 -28.2715 C 97.7051 -29.5898 97.7539 -31.25 97.7539 -33.0566 C 97.7539 -48.3887 86.9629 -55.0293 71.3379 -55.0293 C 66.5039 -55.0293 61.4746 -54.4922 56.7871 -54.4922 C 49.6094 -54.4922 43.1152 -55.7617 39.209 -61.1816 C 38.623 -62.0605 37.4023 -61.9141 37.207 -60.8887 Z"/>
  </g>
  <g id="Black-M" transform="matrix(1 0 0 1 2870.97 1126)">
   <path d="M 62.4023 18.4082 C 91.9922 18.4082 116.113 -5.66406 116.113 -35.2539 C 116.113 -47.9492 110.303 -64.0137 101.758 -71.7773 C 96.8262 -76.2207 91.5039 -76.4648 87.8906 -72.8516 C 83.7891 -68.7988 85.1074 -63.2324 88.7695 -58.9355 C 94.5801 -51.9531 97.8027 -44.3848 97.8027 -35.2539 C 97.8027 -15.7227 81.9824 0.146484 62.4023 0.146484 C 42.8711 0.146484 27.002 -15.7227 27.002 -35.2539 C 27.002 -50.1953 36.2305 -62.9395 49.3164 -68.1641 L 49.3164 -61.3281 C 49.3164 -56.3965 53.9551 -54.7363 58.6426 -58.2031 L 79.248 -73.5352 C 82.8613 -76.2207 82.7637 -80.7617 79.248 -83.3984 L 58.5938 -98.7305 C 54.0527 -102.148 49.3164 -100.684 49.3164 -95.6543 L 49.3164 -87.3047 C 26.0254 -81.4453 8.74023 -60.3516 8.74023 -35.2539 C 8.74023 -5.66406 32.8125 18.4082 62.4023 18.4082 Z M 38.8672 -49.3164 C 38.7695 -47.8027 38.7207 -46.2402 38.7207 -44.8242 C 38.7207 -27.4902 49.1211 -16.1133 62.6953 -16.1133 C 68.6523 -16.1133 74.1699 -19.1895 76.5137 -24.3652 C 78.418 -21.8262 79.4434 -18.8477 81.0547 -14.4043 C 81.3477 -13.5254 82.1777 -13.0859 83.0078 -13.4766 L 83.9844 -13.9648 C 85.1074 -14.5508 85.5957 -15.0879 85.5957 -16.3574 C 85.5957 -19.6289 81.25 -24.4629 78.9062 -26.4648 C 69.2871 -34.8145 54.3945 -29.8828 51.2695 -39.3066 C 51.2207 -39.4531 51.2207 -39.6484 51.2207 -39.7949 C 51.2207 -40.1367 51.4648 -40.3809 51.709 -40.3809 C 52.0996 -40.3809 52.2949 -40.2832 52.5391 -40.0391 C 59.2773 -33.252 68.7988 -38.2324 77.5879 -31.9824 C 79.3457 -30.7129 80.8594 -30.7129 80.8594 -33.0566 C 80.8594 -33.2031 80.8594 -33.3984 80.8594 -33.5449 C 80.8594 -44.1406 73.3887 -48.7793 62.7441 -48.7793 C 59.1309 -48.7793 55.4199 -47.6074 52.0508 -47.6074 C 48.5352 -47.6074 45.0684 -47.8027 42.9688 -49.9023 C 40.9668 -51.9043 39.0625 -51.709 38.8672 -49.3164 Z"/>
  </g>
  <g id="Heavy-M" transform="matrix(1 0 0 1 2575.19 1126)">
   <path d="M 61.5234 17.5293 C 90.5273 17.5293 114.258 -6.20117 114.258 -35.2539 C 114.258 -48.8281 107.861 -64.5996 98.3887 -72.6562 C 94.1406 -76.4648 89.4043 -76.5137 86.377 -73.291 C 82.959 -69.6777 84.082 -64.8926 87.3535 -61.2793 C 94.2871 -54.1992 98.3398 -45.5078 98.3398 -35.2539 C 98.3398 -14.8926 81.8848 1.61133 61.5234 1.61133 C 41.1133 1.61133 24.6582 -14.8926 24.6582 -35.2539 C 24.6582 -51.3672 34.9121 -64.9902 49.2676 -70.0195 L 49.2676 -63.0371 C 49.2676 -58.4473 53.3691 -56.9824 57.5684 -60.0586 L 77.002 -74.3652 C 80.3223 -76.8066 80.2246 -80.8105 77.002 -83.2031 L 57.5684 -97.5098 C 53.418 -100.586 49.2676 -99.2676 49.2676 -94.5312 L 49.2676 -86.5723 C 26.0742 -81.0059 8.74023 -60.1074 8.74023 -35.2539 C 8.74023 -6.20117 32.4707 17.5293 61.5234 17.5293 Z M 37.5977 -50.2441 C 37.4512 -48.5352 37.3535 -46.7773 37.3535 -45.2148 C 37.3535 -28.0273 47.9004 -16.2598 61.6211 -16.2598 C 67.6758 -16.2598 73.2422 -19.2871 75.6348 -24.3164 C 77.6367 -21.6309 78.6621 -18.5547 80.3223 -13.8672 C 80.6152 -13.0859 81.3477 -12.6953 82.0801 -13.0371 L 83.252 -13.623 C 84.375 -14.1602 84.8633 -14.7461 84.8633 -16.0156 C 84.8633 -19.3848 80.4688 -24.4141 78.125 -26.416 C 68.3594 -35.0098 53.3691 -29.9805 50.0977 -39.5508 C 50.0488 -39.7461 50 -39.9414 50 -40.0391 C 50 -40.4297 50.293 -40.6738 50.5371 -40.6738 C 50.9277 -40.6738 51.123 -40.5273 51.3672 -40.2832 C 58.3496 -33.3008 68.1152 -38.623 77.1484 -31.6895 C 78.6621 -30.6152 80.0293 -30.6641 80.0293 -32.6172 C 80.0781 -32.959 80.0781 -33.3008 80.0781 -33.6914 C 80.0781 -44.4336 72.5098 -49.0723 61.6699 -49.0723 C 58.1055 -49.0723 54.4434 -48.0957 51.0742 -48.0957 C 47.2168 -48.0957 43.5547 -48.4375 41.2598 -50.7812 C 39.502 -52.5391 37.7441 -52.3438 37.5977 -50.2441 Z"/>
  </g>
  <g id="Bold-M" transform="matrix(1 0 0 1 2279.5 1126)">
   <path d="M 60.498 16.5039 C 88.8672 16.5039 112.207 -6.83594 112.207 -35.2539 C 112.207 -49.8047 105.176 -65.2344 94.6289 -73.6328 C 91.1133 -76.709 87.0605 -76.5625 84.668 -73.7793 C 81.9824 -70.7031 82.959 -66.748 85.791 -63.8672 C 93.8965 -56.6406 98.9258 -46.7773 98.9258 -35.2539 C 98.9746 -13.9648 81.7871 3.22266 60.498 3.22266 C 39.1602 3.22266 22.0703 -13.9648 22.0703 -35.2539 C 22.0703 -52.6367 33.4473 -67.2363 49.2188 -72.0215 L 49.2188 -64.9902 C 49.2188 -60.791 52.7344 -59.5215 56.3965 -62.1582 L 74.5117 -75.293 C 77.4414 -77.4414 77.3926 -80.8594 74.5117 -82.959 L 56.4453 -96.1426 C 52.7832 -98.7793 49.2188 -97.6074 49.2188 -93.3105 L 49.2188 -85.7422 C 26.1719 -80.5664 8.74023 -59.8145 8.74023 -35.2539 C 8.74023 -6.83594 32.0801 16.5039 60.498 16.5039 Z M 36.1328 -51.2207 C 35.9375 -49.3164 35.791 -47.4121 35.791 -45.6055 C 35.791 -28.6133 46.5332 -16.5039 60.4492 -16.5039 C 66.5527 -16.5039 72.2168 -19.3848 74.6582 -24.2188 C 76.7578 -21.4355 77.832 -18.2129 79.541 -13.2812 C 79.7852 -12.5488 80.4199 -12.2559 81.0547 -12.5488 L 82.4219 -13.2324 C 83.5938 -13.7695 84.082 -14.4043 84.082 -15.6738 C 84.082 -19.1406 79.5898 -24.3164 77.1973 -26.416 C 67.3828 -35.2051 52.1973 -30.0781 48.7793 -39.8926 C 48.6816 -40.0391 48.6816 -40.2344 48.6816 -40.332 C 48.6816 -40.7227 48.9746 -41.0156 49.2188 -41.0156 C 49.6094 -41.0156 49.8047 -40.8691 50.0488 -40.5762 C 57.2754 -33.3496 67.3828 -39.1113 76.6113 -31.3965 C 77.832 -30.4688 79.1016 -30.5664 79.1504 -32.1777 C 79.1504 -32.666 79.1992 -33.2031 79.1992 -33.8379 C 79.1992 -44.7266 71.4844 -49.4141 60.498 -49.4141 C 56.9336 -49.4141 53.2715 -48.6328 49.9023 -48.6328 C 45.752 -48.6328 41.8457 -49.1699 39.3555 -51.8066 C 37.9395 -53.2227 36.2793 -53.0273 36.1328 -51.2207 Z"/>
  </g>
  <g id="Semibold-M" transform="matrix(1 0 0 1 1983.5 1126)">
   <path d="M 59.7656 15.7715 C 87.7441 15.7715 110.791 -7.27539 110.791 -35.2539 C 110.791 -50.4883 103.32 -65.6738 92.041 -74.3164 C 89.0137 -76.9043 85.4492 -76.5625 83.4961 -74.0723 C 81.3477 -71.3867 82.2266 -68.0664 84.7168 -65.6738 C 93.6523 -58.3984 99.3164 -47.6074 99.3652 -35.2539 C 99.3652 -13.3301 81.6895 4.3457 59.7656 4.3457 C 37.8418 4.3457 20.2637 -13.3301 20.2637 -35.2539 C 20.2637 -53.5156 32.4219 -68.7988 49.1699 -73.3887 L 49.1699 -66.3086 C 49.1699 -62.4023 52.2949 -61.2305 55.6152 -63.623 L 72.7539 -75.9277 C 75.4395 -77.8809 75.4395 -80.9082 72.7539 -82.8125 L 55.6152 -95.166 C 52.2949 -97.5586 49.1699 -96.4844 49.1699 -92.4805 L 49.1699 -85.1562 C 26.2207 -80.2246 8.74023 -59.6191 8.74023 -35.2539 C 8.74023 -7.27539 31.7871 15.7715 59.7656 15.7715 Z M 35.1074 -51.9531 C 34.9121 -49.9023 34.7656 -47.8516 34.7656 -45.8984 C 34.7656 -29.0527 45.6055 -16.6504 59.6191 -16.6504 C 65.7715 -16.6504 71.5332 -19.4336 73.9746 -24.1699 C 76.123 -21.2891 77.1973 -17.9688 78.9551 -12.8418 C 79.1992 -12.207 79.7852 -11.9629 80.3223 -12.207 L 81.8359 -12.9883 C 83.0566 -13.5254 83.4961 -14.1602 83.4961 -15.4785 C 83.4961 -18.9941 78.9551 -24.2188 76.6113 -26.3672 C 66.6992 -35.3516 51.416 -30.127 47.8516 -40.0879 C 47.7539 -40.2832 47.7539 -40.4297 47.7539 -40.5273 C 47.7539 -40.918 48.0469 -41.2109 48.3398 -41.2109 C 48.6816 -41.2109 48.877 -41.0645 49.1211 -40.8203 C 56.543 -33.3984 66.8457 -39.4043 76.2695 -31.2012 C 77.2949 -30.3711 78.4668 -30.5176 78.5156 -31.8359 C 78.5645 -32.4219 78.6133 -33.1543 78.6133 -33.8867 C 78.6133 -44.9219 70.8008 -49.6094 59.7168 -49.6094 C 56.1523 -49.6094 52.4902 -48.9746 49.1211 -48.9746 C 44.7266 -48.9746 40.6738 -49.6582 37.9883 -52.4902 C 36.8164 -53.7109 35.2539 -53.5156 35.1074 -51.9531 Z"/>
  </g>
  <g id="Medium-M" transform="matrix(1 0 0 1 1687.3 1126)">
   <path d="M 59.2285 15.2832 C 86.9141 15.2832 109.766 -7.56836 109.766 -35.2539 C 109.766 -51.0254 101.904 -65.9668 90.0879 -74.8535 C 87.4512 -77.002 84.2285 -76.6113 82.6172 -74.3164 C 80.8594 -71.9238 81.6406 -69.043 83.8867 -67.041 C 93.5059 -59.668 99.6094 -48.291 99.6582 -35.2539 C 99.707 -12.8418 81.6406 5.17578 59.2285 5.17578 C 36.8164 5.17578 18.8965 -12.8418 18.8965 -35.2539 C 18.8965 -54.1992 31.6895 -69.9707 49.1699 -74.4141 L 49.1699 -67.334 C 49.1699 -63.5742 51.9531 -62.5488 54.9805 -64.7461 L 71.4844 -76.416 C 73.9258 -78.2227 73.9746 -80.957 71.4844 -82.7148 L 55.0293 -94.4336 C 51.9531 -96.6309 49.1699 -95.6543 49.1699 -91.8457 L 49.1699 -84.7168 C 26.2207 -79.9805 8.74023 -59.4727 8.74023 -35.2539 C 8.74023 -7.56836 31.5918 15.2832 59.2285 15.2832 Z M 34.3262 -52.4414 C 34.1309 -50.293 33.9355 -48.1934 33.9355 -46.1426 C 33.9355 -29.3457 44.873 -16.748 59.0332 -16.748 C 65.2344 -16.748 70.9473 -19.4824 73.4863 -24.1211 C 75.6836 -21.1914 76.7578 -17.7734 78.5645 -12.5488 C 78.7598 -11.9629 79.2969 -11.7188 79.7852 -11.9629 L 81.3965 -12.7441 C 82.6172 -13.2812 83.1055 -13.9648 83.1055 -15.2832 C 83.1055 -18.8477 78.5156 -24.1699 76.123 -26.3672 C 66.1621 -35.498 50.8301 -30.1758 47.168 -40.2344 C 47.0703 -40.4297 47.0215 -40.5762 47.0215 -40.7227 C 47.0215 -41.0645 47.3633 -41.4062 47.6562 -41.4062 C 47.998 -41.4062 48.1934 -41.2109 48.4375 -40.9668 C 56.0059 -33.4473 66.4551 -39.6484 76.0254 -31.0547 C 76.9043 -30.2734 77.9785 -30.5176 78.0273 -31.5918 C 78.0762 -32.2754 78.125 -33.1055 78.125 -33.9844 C 78.125 -45.0684 70.3125 -49.8047 59.082 -49.8047 C 55.5176 -49.8047 51.9043 -49.2676 48.5352 -49.2676 C 43.9453 -49.2676 39.7949 -50 37.0117 -53.0273 C 35.9863 -54.0527 34.4727 -53.8574 34.3262 -52.4414 Z"/>
  </g>
  <g id="Regular-M" transform="matrix(1 0 0 1 1391.3 1126)">
   <path d="M 58.5449 14.5508 C 85.791 14.5508 108.35 -8.00781 108.35 -35.2539 C 108.35 -51.6602 100.049 -66.4062 87.5 -75.5371 C 85.3516 -77.1973 82.666 -76.6602 81.4453 -74.6582 C 80.2246 -72.6074 80.8594 -70.3125 82.8613 -68.7988 C 93.2617 -61.377 100 -49.1211 100.049 -35.2539 C 100.098 -12.207 81.5918 6.25 58.5449 6.25 C 35.498 6.25 17.0898 -12.207 17.0898 -35.2539 C 17.0898 -55.0293 30.6641 -71.4844 49.1211 -75.6836 L 49.1211 -68.6523 C 49.1211 -65.1855 51.5137 -64.2578 54.1992 -66.1621 L 69.7754 -77.0996 C 71.9727 -78.6133 72.0215 -80.957 69.7754 -82.5684 L 54.248 -93.5059 C 51.5137 -95.459 49.1211 -94.5312 49.1211 -91.0156 L 49.1211 -84.1309 C 26.2695 -79.6875 8.74023 -59.2773 8.74023 -35.2539 C 8.74023 -8.00781 31.3477 14.5508 58.5449 14.5508 Z M 33.3496 -53.1738 C 33.1055 -50.8789 32.9102 -48.6328 32.9102 -46.4355 C 32.9102 -29.7852 43.9453 -16.8945 58.2031 -16.8945 C 64.4531 -16.8945 70.2637 -19.5801 72.8027 -24.0234 C 75.0488 -21.0938 76.1719 -17.5781 77.9785 -12.1094 C 78.1738 -11.6211 78.7109 -11.4258 79.1016 -11.6699 L 80.8594 -12.5 C 82.1289 -13.0371 82.5684 -13.7207 82.5684 -15.0391 C 82.5684 -18.7012 77.9297 -24.1211 75.5371 -26.3184 C 65.4785 -35.6445 50.0488 -30.2246 46.2402 -40.4785 C 46.1914 -40.6738 46.0938 -40.7715 46.0938 -40.918 C 46.0938 -41.3086 46.4355 -41.6016 46.7285 -41.6016 C 47.1191 -41.6016 47.3145 -41.4062 47.5586 -41.1621 C 55.2734 -33.4473 65.918 -39.9902 75.6836 -30.8105 C 76.3672 -30.1758 77.3438 -30.4688 77.3926 -31.2988 C 77.4902 -32.0801 77.5391 -33.0566 77.5391 -34.082 C 77.5391 -45.2637 69.6289 -50.0488 58.3008 -50.0488 C 54.7363 -50.0488 51.123 -49.6094 47.7539 -49.6094 C 42.9199 -49.6094 38.623 -50.4883 35.6934 -53.7109 C 34.9121 -54.541 33.4473 -54.3457 33.3496 -53.1738 Z"/>
  </g>
  <g id="Light-M" transform="matrix(1 0 0 1 1095.42 1126)">
   <path d="M 57.7148 13.7695 C 84.5215 13.7695 106.689 -8.39844 106.689 -35.2051 C 106.689 -52.002 97.9492 -66.9434 84.8145 -75.7324 C 83.1543 -77.002 81.1523 -76.5625 80.2246 -75.0488 C 79.2969 -73.4863 79.7852 -71.7285 81.2988 -70.6055 C 92.7734 -63.0371 100.342 -50.0488 100.391 -35.2051 C 100.391 -11.5723 81.3477 7.4707 57.7148 7.4707 C 34.082 7.4707 15.0879 -11.5723 15.0879 -35.2051 C 15.0879 -55.7617 29.4434 -72.8027 48.7305 -76.9043 L 48.7305 -68.8477 C 48.7305 -66.0156 50.6836 -65.1855 52.9785 -66.7969 L 68.1641 -77.4414 C 70.0684 -78.8086 70.1172 -80.7129 68.1641 -82.0801 L 53.0273 -92.7246 C 50.6836 -94.3359 48.7305 -93.5547 48.7305 -90.6738 L 48.7305 -83.3496 C 26.123 -79.1016 8.74023 -58.9844 8.74023 -35.2051 C 8.74023 -8.39844 30.9082 13.7695 57.7148 13.7695 Z M 31.9336 -53.7598 C 31.6406 -51.2695 31.4453 -48.877 31.4453 -46.5332 C 31.4453 -29.2969 42.7246 -16.3574 57.2754 -16.3574 C 63.6719 -16.3574 69.5801 -19.0918 72.168 -23.6816 C 74.4629 -20.6055 75.6348 -17.041 77.4902 -11.4258 C 77.6367 -10.9375 78.125 -10.791 78.4668 -10.9863 L 80.3711 -11.8652 C 81.6406 -12.4023 82.1289 -13.1836 82.1289 -14.502 C 82.1289 -18.2129 77.3438 -23.7305 74.9512 -26.0254 C 64.7461 -35.5469 49.3164 -30.1758 45.0684 -40.4297 C 45.0195 -40.625 44.9219 -40.7715 44.9219 -40.8691 C 44.9219 -41.2598 45.2637 -41.6016 45.6055 -41.6016 C 45.9473 -41.6016 46.1426 -41.4062 46.3867 -41.1621 C 54.2969 -33.252 65.2832 -40.0391 75.2441 -30.4199 C 75.8789 -29.8828 76.7578 -30.0781 76.8555 -30.8105 C 76.9043 -31.6895 77.002 -32.7637 77.002 -33.8867 C 77.002 -45.3125 68.9453 -50.1953 57.373 -50.1953 C 53.7598 -50.1953 50.0488 -49.7559 46.582 -49.7559 C 41.5527 -49.7559 37.0117 -50.6836 34.0332 -54.1992 C 33.3496 -54.9805 32.0801 -54.834 31.9336 -53.7598 Z"/>
  </g>
  <g id="Thin-M" transform="matrix(1 0 0 1 799.806 1126)">
   <path d="M 56.6406 12.7441 C 82.9102 12.7441 104.492 -8.83789 104.492 -35.1562 C 104.492 -52.4414 95.166 -67.627 81.25 -76.0742 C 80.2734 -76.7578 79.1016 -76.4648 78.6133 -75.5859 C 78.125 -74.6582 78.3691 -73.584 79.2969 -72.998 C 92.1875 -65.2344 100.781 -51.2207 100.781 -35.1562 C 100.781 -10.791 81.0059 8.98438 56.6406 8.98438 C 32.2266 8.98438 12.4512 -10.791 12.4512 -35.1562 C 12.4512 -56.6895 27.8809 -74.6094 48.2422 -78.5156 L 48.2422 -69.0918 C 48.2422 -67.1387 49.6094 -66.4551 51.3672 -67.6758 L 66.0645 -77.9785 C 67.5293 -79.0039 67.5293 -80.3711 66.0645 -81.3965 L 51.3672 -91.6504 C 49.6094 -92.9199 48.2422 -92.2363 48.2422 -90.2344 L 48.2422 -82.2754 C 25.8789 -78.3203 8.74023 -58.5938 8.74023 -35.1562 C 8.74023 -8.83789 30.3223 12.7441 56.6406 12.7441 Z M 30.127 -54.5898 C 29.7363 -51.8066 29.541 -49.1699 29.541 -46.6797 C 29.541 -28.7109 41.1133 -15.625 56.0547 -15.625 C 62.5977 -15.625 68.6523 -18.457 71.3379 -23.1445 C 73.7305 -20.0195 74.8535 -16.3086 76.8066 -10.4492 C 76.9531 -10.0586 77.3438 -9.91211 77.6855 -10.0586 L 79.7852 -11.0352 C 81.0547 -11.6211 81.543 -12.4023 81.543 -13.7695 C 81.543 -17.5781 76.6602 -23.291 74.1699 -25.5859 C 63.7695 -35.4492 48.3887 -30.0781 43.5547 -40.332 C 43.457 -40.5762 43.3594 -40.7227 43.3594 -40.8203 C 43.3594 -41.2598 43.75 -41.6016 44.043 -41.6016 C 44.3848 -41.6016 44.6289 -41.3574 44.873 -41.1133 C 53.0273 -32.959 64.4043 -40.0879 74.7559 -29.8828 C 75.2441 -29.4434 76.0254 -29.5898 76.0742 -30.2246 C 76.2207 -31.2012 76.2695 -32.373 76.2695 -33.6914 C 76.2695 -45.4102 68.0176 -50.4395 56.1035 -50.4395 C 52.4414 -50.4395 48.6328 -50 45.0684 -50 C 39.6973 -50 34.8633 -50.9766 31.8848 -54.8828 C 31.3477 -55.6152 30.2246 -55.4688 30.127 -54.5898 Z"/>
  </g>
  <g id="Ultralight-M" transform="matrix(1 0 0 1 503.656 1126)">
   <path d="M 56.0547 12.207 C 82.0801 12.207 103.369 -9.08203 103.369 -35.1562 C 103.369 -52.6855 93.75 -68.0176 79.4434 -76.2207 C 78.8086 -76.6113 78.0762 -76.3672 77.7832 -75.8789 C 77.4902 -75.2441 77.6855 -74.5605 78.2715 -74.1699 C 91.8457 -66.4062 100.977 -51.8066 100.977 -35.1562 C 100.977 -10.3516 80.8594 9.81445 56.0547 9.81445 C 31.2988 9.81445 11.1328 -10.3516 11.1328 -35.1562 C 11.1328 -57.1289 27.0508 -75.5371 47.998 -79.3457 L 47.998 -69.2383 C 47.998 -67.7246 49.0723 -67.0898 50.5371 -68.1641 L 64.9902 -78.2227 C 66.2109 -79.1016 66.2109 -80.1758 64.9902 -81.0547 L 50.5371 -91.1133 C 49.0723 -92.1875 47.998 -91.5527 47.998 -90.0391 L 47.998 -81.7383 C 25.7812 -77.8809 8.74023 -58.3984 8.74023 -35.1562 C 8.74023 -9.08203 30.0293 12.207 56.0547 12.207 Z M 29.1504 -54.9805 C 28.7109 -52.0996 28.5645 -49.3652 28.5645 -46.7285 C 28.5645 -28.3691 40.2832 -15.2832 55.4199 -15.2832 C 62.0605 -15.2832 68.1641 -18.1152 70.8984 -22.9004 C 73.3398 -19.7266 74.5117 -15.9668 76.4648 -9.96094 C 76.5625 -9.61914 76.9531 -9.47266 77.2461 -9.61914 L 79.4434 -10.5957 C 80.7617 -11.2305 81.25 -12.0605 81.25 -13.4277 C 81.25 -17.2852 76.2695 -23.0469 73.7793 -25.3906 C 63.2812 -35.4004 47.9004 -30.0293 42.7734 -40.2832 C 42.627 -40.5762 42.5781 -40.6738 42.5781 -40.8203 C 42.5781 -41.2598 42.9688 -41.6016 43.2617 -41.6016 C 43.5547 -41.6016 43.8477 -41.3574 44.0918 -41.1133 C 52.3926 -32.8125 63.9648 -40.1367 74.4629 -29.6387 C 74.9023 -29.1992 75.6348 -29.2969 75.6836 -29.9316 C 75.8301 -30.957 75.8789 -32.1777 75.8789 -33.5449 C 75.8789 -45.4102 67.5293 -50.5371 55.5176 -50.5371 C 51.7578 -50.5371 47.9004 -50.0977 44.2871 -50.0977 C 38.7695 -50.0977 33.7891 -51.123 30.7617 -55.2246 C 30.2734 -55.9082 29.2969 -55.8105 29.1504 -54.9805 Z"/>
  </g>
  <g id="Black-S" transform="matrix(1 0 0 1 2884.57 696)">
   <path d="M 48.8281 6.73828 C 71.9727 6.73828 90.8203 -12.1094 90.8203 -35.2539 C 90.8203 -45.2637 86.2305 -57.8125 79.4922 -63.916 C 75.6836 -67.3828 71.5332 -67.5293 68.75 -64.7461 C 65.5762 -61.5723 66.6016 -57.2754 69.4336 -53.9551 C 74.0723 -48.4863 76.6602 -42.4805 76.6602 -35.2539 C 76.6602 -19.873 64.209 -7.42188 48.8281 -7.42188 C 33.4473 -7.42188 20.9961 -19.873 20.9961 -35.2539 C 20.9961 -47.0703 28.2715 -57.0801 38.623 -61.1816 L 38.623 -55.8105 C 38.623 -51.9531 42.2363 -50.6836 45.8496 -53.3691 L 61.9141 -65.2832 C 64.7461 -67.3828 64.6484 -70.8984 61.9141 -72.9492 L 45.8496 -84.9121 C 42.2852 -87.5488 38.623 -86.4258 38.623 -82.4707 L 38.623 -75.9766 C 20.3613 -71.4355 6.83594 -54.8828 6.83594 -35.2539 C 6.83594 -12.1094 25.6836 6.73828 48.8281 6.73828 Z M 30.3711 -46.3379 C 30.2734 -45.1172 30.2246 -43.8965 30.2246 -42.7734 C 30.2246 -29.1992 38.3789 -20.2637 49.0234 -20.2637 C 53.7109 -20.2637 58.0566 -22.7051 59.8633 -26.7578 C 61.377 -24.707 62.1582 -22.3633 63.4277 -18.8965 C 63.6719 -18.2129 64.3066 -17.8711 64.9414 -18.1641 L 65.7227 -18.5547 C 66.6016 -18.9941 66.9922 -19.4336 66.9922 -20.4102 C 66.9922 -22.998 63.5742 -26.8066 61.7676 -28.3691 C 54.1992 -34.9121 42.5293 -31.0547 40.0879 -38.4277 C 40.0391 -38.5742 40.0391 -38.7207 40.0391 -38.8184 C 40.0391 -39.1113 40.2344 -39.3066 40.4297 -39.3066 C 40.7227 -39.3066 40.8691 -39.209 41.0645 -39.0137 C 46.3867 -33.6914 53.8574 -37.5977 60.7422 -32.666 C 62.1094 -31.6895 63.2812 -31.6895 63.2812 -33.4961 L 63.2812 -33.9355 C 63.2812 -42.2363 57.4219 -45.8496 49.0723 -45.8496 C 46.2402 -45.8496 43.3594 -44.9707 40.7227 -44.9707 C 37.9395 -44.9707 35.2051 -45.1172 33.5449 -46.7773 C 31.9824 -48.3398 30.5176 -48.1934 30.3711 -46.3379 Z"/>
  </g>
  <g id="Heavy-S" transform="matrix(1 0 0 1 2588.47 696)">
   <path d="M 48.2422 6.15234 C 70.9961 6.15234 89.5996 -12.5 89.5996 -35.2539 C 89.5996 -45.8984 84.6191 -58.2031 77.1973 -64.5508 C 73.8281 -67.5781 70.1172 -67.5781 67.7246 -65.0391 C 65.0391 -62.1582 65.9668 -58.3984 68.5547 -55.5176 C 73.877 -50 77.002 -43.2617 77.0508 -35.2539 C 77.0508 -19.2871 64.1602 -6.44531 48.2422 -6.44531 C 32.2754 -6.44531 19.4336 -19.2871 19.4336 -35.2539 C 19.4336 -47.8516 27.3926 -58.4961 38.623 -62.4512 L 38.623 -57.1289 C 38.623 -53.4668 41.8945 -52.2949 45.166 -54.7363 L 60.4004 -65.8691 C 62.9883 -67.8223 62.9395 -70.9473 60.4004 -72.8516 L 45.2148 -84.0332 C 41.9434 -86.4746 38.623 -85.4004 38.623 -81.6895 L 38.623 -75.5371 C 20.459 -71.1426 6.83594 -54.7363 6.83594 -35.2539 C 6.83594 -12.5 25.4395 6.15234 48.2422 6.15234 Z M 29.541 -46.9727 C 29.3945 -45.6055 29.3457 -44.2871 29.3457 -43.0664 C 29.3457 -29.6875 37.5977 -20.459 48.3398 -20.459 C 53.0273 -20.459 57.4219 -22.8027 59.2773 -26.709 C 60.8398 -24.6094 61.6699 -22.2168 62.9395 -18.5547 C 63.1348 -17.9199 63.7207 -17.627 64.3066 -17.9199 L 65.2344 -18.3594 C 66.1133 -18.7988 66.5039 -19.2383 66.5039 -20.2637 C 66.5039 -22.9004 63.0371 -26.7578 61.2305 -28.3691 C 53.6133 -35.0586 41.8457 -31.1035 39.3066 -38.623 C 39.2578 -38.7695 39.2578 -38.916 39.2578 -39.0137 C 39.2578 -39.3066 39.4531 -39.502 39.6484 -39.502 C 39.9414 -39.502 40.0879 -39.4043 40.2832 -39.209 C 45.752 -33.7402 53.418 -37.8906 60.4492 -32.5195 C 61.6211 -31.6406 62.6953 -31.6895 62.6953 -33.2031 C 62.7441 -33.4961 62.7441 -33.7402 62.7441 -34.0332 C 62.7441 -42.4316 56.8359 -46.0449 48.3887 -46.0449 C 45.5566 -46.0449 42.6758 -45.3125 40.0879 -45.3125 C 37.0605 -45.3125 34.2285 -45.6055 32.4219 -47.4121 C 31.0547 -48.7793 29.6387 -48.6328 29.541 -46.9727 Z"/>
  </g>
  <g id="Bold-S" transform="matrix(1 0 0 1 2292.44 696)">
   <path d="M 47.5586 5.46875 C 69.873 5.46875 88.2324 -12.9395 88.2324 -35.2539 C 88.2324 -46.6309 82.8125 -58.5938 74.6582 -65.2832 C 71.8262 -67.7734 68.5059 -67.627 66.6016 -65.332 C 64.4531 -62.8418 65.2344 -59.668 67.5293 -57.3242 C 73.6816 -51.709 77.4414 -44.0918 77.4414 -35.2539 C 77.4414 -18.7012 64.1113 -5.37109 47.5586 -5.37109 C 30.957 -5.37109 17.6758 -18.7012 17.6758 -35.2539 C 17.6758 -48.7305 26.4648 -60.0586 38.623 -63.8184 L 38.623 -58.5449 C 38.623 -55.127 41.5039 -54.1016 44.4336 -56.25 L 58.6426 -66.5527 C 61.0352 -68.2617 60.9863 -71.0449 58.6426 -72.7539 L 44.4824 -83.1055 C 41.5039 -85.2539 38.623 -84.2773 38.623 -80.7617 L 38.623 -74.9512 C 20.5078 -70.8496 6.83594 -54.541 6.83594 -35.2539 C 6.83594 -12.9395 25.1953 5.46875 47.5586 5.46875 Z M 28.5645 -47.6562 C 28.4668 -46.1914 28.3691 -44.7266 28.3691 -43.3594 C 28.3691 -30.1758 36.7188 -20.7031 47.5586 -20.7031 C 52.2949 -20.7031 56.6895 -22.9492 58.5938 -26.709 C 60.2051 -24.5605 61.0352 -22.0215 62.4023 -18.1641 C 62.5977 -17.627 63.1348 -17.3828 63.623 -17.627 L 64.6484 -18.1641 C 65.5762 -18.5547 65.918 -19.043 65.918 -20.0684 C 65.918 -22.7539 62.4512 -26.7578 60.5957 -28.418 C 52.9297 -35.2539 41.0156 -31.2012 38.4277 -38.8672 C 38.3789 -39.0137 38.3789 -39.1602 38.3789 -39.2578 C 38.3789 -39.5508 38.5742 -39.7949 38.8184 -39.7949 C 39.1113 -39.7949 39.2578 -39.6484 39.4531 -39.4531 C 45.0684 -33.8379 52.8809 -38.2812 60.1074 -32.3242 C 61.084 -31.543 62.0605 -31.6895 62.1094 -32.9102 C 62.1094 -33.3008 62.1582 -33.7402 62.1582 -34.1797 C 62.1582 -42.6758 56.1523 -46.2891 47.6074 -46.2891 C 44.7754 -46.2891 41.9434 -45.7031 39.3555 -45.7031 C 36.1328 -45.7031 33.1055 -46.0938 31.1523 -48.0957 C 30.0293 -49.2188 28.7109 -49.0723 28.5645 -47.6562 Z"/>
  </g>
  <g id="Semibold-S" transform="matrix(1 0 0 1 1996.2 696)">
   <path d="M 47.0703 4.98047 C 69.0918 4.98047 87.3047 -13.2324 87.3047 -35.2539 C 87.3047 -47.1191 81.5918 -58.8867 72.9004 -65.8203 C 70.4102 -67.9199 67.4316 -67.6758 65.7715 -65.5762 C 64.0137 -63.2812 64.7461 -60.498 66.8457 -58.5449 C 73.5352 -52.8809 77.6855 -44.6777 77.7344 -35.2539 C 77.7344 -18.2617 64.0625 -4.58984 47.0703 -4.58984 C 30.0781 -4.58984 16.4551 -18.2617 16.4551 -35.2539 C 16.4551 -49.3652 25.7812 -61.1328 38.6719 -64.7461 L 38.6719 -59.5703 C 38.6719 -56.25 41.2109 -55.3223 43.9453 -57.3242 L 57.4707 -67.041 C 59.668 -68.6035 59.668 -71.0938 57.4707 -72.7051 L 43.9453 -82.4219 C 41.2109 -84.4238 38.6719 -83.5449 38.6719 -80.1758 L 38.6719 -74.6094 C 20.5566 -70.6543 6.83594 -54.3945 6.83594 -35.2539 C 6.83594 -13.2324 25.0488 4.98047 47.0703 4.98047 Z M 27.9297 -48.1445 C 27.7832 -46.582 27.6855 -45.0684 27.6855 -43.6035 C 27.6855 -30.5664 36.084 -20.8496 46.9727 -20.8496 C 51.7578 -20.8496 56.2012 -23.0469 58.1543 -26.6602 C 59.8145 -24.4629 60.6445 -21.875 62.0117 -17.9199 C 62.207 -17.4316 62.6953 -17.1875 63.1348 -17.4316 L 64.2578 -17.9688 C 65.1855 -18.4082 65.5273 -18.8965 65.5273 -19.9219 C 65.5273 -22.6562 62.0117 -26.7578 60.1562 -28.418 C 52.4414 -35.3516 40.4785 -31.25 37.8418 -39.0625 C 37.793 -39.209 37.7441 -39.3066 37.7441 -39.4043 C 37.7441 -39.6973 37.9883 -39.9414 38.2324 -39.9414 C 38.4766 -39.9414 38.6719 -39.7949 38.8672 -39.5996 C 44.5801 -33.8867 52.5391 -38.5254 59.8633 -32.1777 C 60.6934 -31.543 61.6211 -31.6895 61.6699 -32.7148 C 61.6699 -33.1543 61.7188 -33.6914 61.7188 -34.2285 C 61.7188 -42.8223 55.6641 -46.4844 47.0215 -46.4844 C 44.2871 -46.4844 41.4551 -45.9473 38.8184 -45.9473 C 35.4492 -45.9473 32.373 -46.4844 30.2734 -48.584 C 29.3457 -49.5605 28.0273 -49.4141 27.9297 -48.1445 Z"/>
  </g>
  <g id="Medium-S" transform="matrix(1 0 0 1 1699.83 696)">
   <path d="M 46.7285 4.63867 C 68.5547 4.63867 86.6211 -13.4277 86.6211 -35.2539 C 86.6211 -47.4609 80.6152 -59.1309 71.582 -66.2109 C 69.3359 -68.0176 66.5527 -67.6758 65.1855 -65.7227 C 63.7207 -63.623 64.3555 -61.1816 66.3086 -59.4727 C 73.3887 -53.7598 77.8809 -45.1172 77.9297 -35.2539 C 77.9785 -17.9199 64.0625 -4.05273 46.7285 -4.05273 C 29.3945 -4.05273 15.5273 -17.9199 15.5273 -35.2539 C 15.5273 -49.8047 25.293 -61.9141 38.6719 -65.4297 L 38.6719 -60.3027 C 38.6719 -57.1289 41.0156 -56.2988 43.5547 -58.1055 L 56.5918 -67.3828 C 58.6426 -68.8477 58.6914 -71.1426 56.5918 -72.6562 L 43.5547 -81.9336 C 41.0156 -83.7891 38.6719 -82.959 38.6719 -79.6875 L 38.6719 -74.3164 C 20.6055 -70.5078 6.83594 -54.2969 6.83594 -35.2539 C 6.83594 -13.4277 24.9023 4.63867 46.7285 4.63867 Z M 27.4414 -48.4863 C 27.2949 -46.875 27.1484 -45.3125 27.1484 -43.75 C 27.1484 -30.8105 35.6445 -20.9473 46.582 -20.9473 C 51.3672 -20.9473 55.8594 -23.0957 57.8125 -26.6602 C 59.4727 -24.4141 60.3516 -21.7773 61.7188 -17.7246 C 61.8652 -17.2363 62.3535 -17.0898 62.7441 -17.2852 L 63.9648 -17.8711 C 64.8926 -18.2617 65.2344 -18.7988 65.2344 -19.8242 C 65.2344 -22.5586 61.7188 -26.709 59.8633 -28.418 C 52.0996 -35.4492 40.0879 -31.2988 37.3535 -39.1602 C 37.3047 -39.3066 37.3047 -39.4531 37.3047 -39.5508 C 37.3047 -39.8438 37.5 -40.0879 37.7441 -40.0879 C 38.0371 -40.0879 38.1836 -39.9414 38.3789 -39.7461 C 44.2383 -33.8867 52.2949 -38.6719 59.668 -32.0801 C 60.4004 -31.4941 61.2793 -31.6895 61.3281 -32.5684 C 61.377 -33.0566 61.4258 -33.6914 61.4258 -34.3262 C 61.4258 -42.9199 55.3223 -46.582 46.6309 -46.582 C 43.8477 -46.582 41.0645 -46.1426 38.4766 -46.1426 C 34.9609 -46.1426 31.7871 -46.7285 29.5898 -48.9746 C 28.7598 -49.8047 27.5391 -49.6582 27.4414 -48.4863 Z"/>
  </g>
  <g id="Regular-S" transform="matrix(1 0 0 1 1403.58 696)">
   <path d="M 46.2402 4.15039 C 67.7734 4.15039 85.6934 -13.7207 85.6934 -35.2539 C 85.6934 -47.9492 79.3945 -59.4238 69.8242 -66.6992 C 67.9199 -68.1641 65.4785 -67.7246 64.4043 -65.918 C 63.2812 -64.1113 63.8672 -62.0117 65.625 -60.6934 C 73.291 -54.8828 78.1738 -45.7031 78.2227 -35.2539 C 78.2715 -17.4805 64.0137 -3.27148 46.2402 -3.27148 C 28.5156 -3.27148 14.3555 -17.4805 14.3555 -35.2539 C 14.3555 -50.3906 24.6094 -62.9883 38.6719 -66.3086 L 38.6719 -61.3281 C 38.6719 -58.3008 40.7227 -57.5195 43.0176 -59.1309 L 55.4199 -67.8223 C 57.3242 -69.1406 57.373 -71.1914 55.4199 -72.5586 L 43.0664 -81.25 C 40.7227 -82.959 38.6719 -82.1777 38.6719 -79.1016 L 38.6719 -73.9258 C 20.6543 -70.3125 6.83594 -54.1992 6.83594 -35.2539 C 6.83594 -13.7207 24.7559 4.15039 46.2402 4.15039 Z M 26.8066 -48.9746 C 26.6113 -47.2656 26.4648 -45.6055 26.4648 -43.9453 C 26.4648 -31.2012 35.0098 -21.0938 46.0449 -21.0938 C 50.8789 -21.0938 55.3711 -23.1934 57.373 -26.6602 C 59.082 -24.3652 59.9121 -21.6797 61.3281 -17.4805 C 61.4746 -17.041 61.9141 -16.8945 62.2559 -17.0898 L 63.5742 -17.7246 C 64.5508 -18.1152 64.8926 -18.6523 64.8926 -19.6777 C 64.8926 -22.5098 61.2793 -26.709 59.4238 -28.418 C 51.6602 -35.5957 39.5508 -31.3477 36.7676 -39.3555 C 36.7188 -39.502 36.6699 -39.5996 36.6699 -39.6973 C 36.6699 -39.9902 36.9141 -40.2344 37.1582 -40.2344 C 37.4512 -40.2344 37.5977 -40.0879 37.793 -39.8926 C 43.75 -33.9355 51.9531 -38.916 59.4727 -31.9824 C 60.0098 -31.4453 60.8398 -31.6895 60.8887 -32.373 C 60.9375 -32.959 60.9863 -33.6426 60.9863 -34.375 C 60.9863 -43.0664 54.8828 -46.7773 46.0938 -46.7773 C 43.3594 -46.7773 40.5762 -46.4355 37.9395 -46.4355 C 34.3262 -46.4355 31.0547 -47.1191 28.7598 -49.4629 C 28.0762 -50.0977 26.9043 -50 26.8066 -48.9746 Z"/>
  </g>
  <g id="Light-S" transform="matrix(1 0 0 1 1107.6 696)">
   <path d="M 45.5078 3.4668 C 66.6992 3.4668 84.2285 -14.0625 84.2285 -35.2051 C 84.2285 -48.2422 77.5391 -59.8633 67.4805 -66.8945 C 65.9668 -68.0176 64.1602 -67.627 63.3301 -66.2598 C 62.5 -64.8926 62.8906 -63.2812 64.3066 -62.2559 C 72.8516 -56.3965 78.4668 -46.4844 78.5156 -35.2051 C 78.5156 -16.9434 63.8184 -2.24609 45.5078 -2.24609 C 27.2461 -2.24609 12.5977 -16.9434 12.5977 -35.2051 C 12.5977 -51.0254 23.5352 -64.1602 38.3301 -67.4316 L 38.3301 -61.4746 C 38.3301 -59.0332 40.0391 -58.3496 41.9434 -59.7168 L 54.0039 -68.1641 C 55.6152 -69.2871 55.6641 -70.9473 54.0039 -72.1191 L 41.9922 -80.5664 C 40.0391 -81.9824 38.3301 -81.2988 38.3301 -78.8086 L 38.3301 -73.2422 C 20.5078 -69.8242 6.83594 -53.9551 6.83594 -35.2051 C 6.83594 -14.0625 24.3652 3.4668 45.5078 3.4668 Z M 25.5371 -49.5117 C 25.3418 -47.6562 25.1953 -45.8008 25.1953 -44.043 C 25.1953 -30.7617 33.9355 -20.6543 45.2148 -20.6543 C 50.1465 -20.6543 54.7363 -22.7539 56.7871 -26.3184 C 58.5449 -23.9746 59.4238 -21.1914 60.8887 -16.8457 C 61.0352 -16.4551 61.4258 -16.3086 61.7188 -16.5039 L 63.1348 -17.1875 C 64.1113 -17.5781 64.502 -18.1641 64.502 -19.1895 C 64.502 -22.0703 60.791 -26.3672 58.9355 -28.125 C 50.9766 -35.498 38.916 -31.2988 35.7422 -39.3066 C 35.6934 -39.4531 35.6445 -39.5508 35.6445 -39.6484 C 35.6445 -39.9902 35.8887 -40.2344 36.1328 -40.2344 C 36.4258 -40.2344 36.5723 -40.0879 36.7676 -39.8926 C 42.9199 -33.7402 51.3672 -38.9648 59.1309 -31.6406 C 59.6191 -31.1523 60.3516 -31.3477 60.4004 -31.9336 C 60.4492 -32.6172 60.498 -33.3984 60.498 -34.2285 C 60.498 -43.1152 54.248 -46.9238 45.2637 -46.9238 C 42.4805 -46.9238 39.5996 -46.582 36.9141 -46.582 C 33.0566 -46.582 29.5898 -47.2656 27.2949 -49.9023 C 26.709 -50.5371 25.6348 -50.3906 25.5371 -49.5117 Z"/>
  </g>
  <g id="Thin-S" transform="matrix(1 0 0 1 811.867 696)">
   <path d="M 44.5801 2.53906 C 65.2832 2.53906 82.2754 -14.4531 82.2754 -35.2051 C 82.2754 -48.6328 75.0977 -60.498 64.3555 -67.1387 C 63.4277 -67.8223 62.3535 -67.5293 61.9141 -66.748 C 61.4258 -65.918 61.6699 -64.9414 62.5 -64.3555 C 72.3145 -58.3496 78.8574 -47.5098 78.8574 -35.2051 C 78.8574 -16.2109 63.5254 -0.878906 44.5801 -0.878906 C 25.5859 -0.878906 10.2539 -16.2109 10.2539 -35.2051 C 10.2539 -51.8555 22.1191 -65.7227 37.8906 -68.8477 L 37.8906 -61.7188 C 37.8906 -60.0098 39.0625 -59.4727 40.5273 -60.498 L 52.1484 -68.6035 C 53.3691 -69.4824 53.3691 -70.6543 52.1484 -71.5332 L 40.5762 -79.6387 C 39.0625 -80.7129 37.8906 -80.127 37.8906 -78.418 L 37.8906 -72.3145 C 20.3125 -69.1406 6.83594 -53.6133 6.83594 -35.2051 C 6.83594 -14.4531 23.877 2.53906 44.5801 2.53906 Z M 23.9258 -50.2441 C 23.6328 -48.1445 23.4863 -46.0938 23.4863 -44.1406 C 23.4863 -30.2246 32.5195 -20.0195 44.1406 -20.0195 C 49.2188 -20.0195 53.9551 -22.2168 56.0059 -25.8789 C 57.9102 -23.4375 58.7891 -20.5566 60.3027 -16.0156 C 60.4004 -15.6738 60.7422 -15.5762 60.9863 -15.6738 L 62.5977 -16.4551 C 63.623 -16.8945 64.0137 -17.5293 64.0137 -18.5547 C 64.0137 -21.5332 60.1562 -25.9766 58.252 -27.7832 C 50.1465 -35.4004 38.0859 -31.2012 34.4238 -39.2578 C 34.3262 -39.4531 34.2773 -39.5508 34.2773 -39.6484 C 34.2773 -39.9414 34.5703 -40.2344 34.8145 -40.2344 C 35.0586 -40.2344 35.2539 -40.0391 35.4492 -39.8438 C 41.7969 -33.4961 50.6348 -39.0137 58.6426 -31.1523 C 59.0332 -30.7617 59.7168 -30.9082 59.7656 -31.4453 C 59.8145 -32.1777 59.8633 -33.0566 59.8633 -34.082 C 59.8633 -43.1641 53.4668 -47.0703 44.1895 -47.0703 C 41.3086 -47.0703 38.3301 -46.7285 35.5957 -46.7285 C 31.4453 -46.7285 27.7344 -47.5098 25.3906 -50.4883 C 24.9023 -51.0742 24.0234 -50.9766 23.9258 -50.2441 Z"/>
  </g>
  <g id="Ultralight-S" transform="matrix(1 0 0 1 515.644 696)">
   <path d="M 44.043 2.05078 C 64.502 2.05078 81.2988 -14.6973 81.2988 -35.1562 C 81.2988 -48.8281 73.8281 -60.8398 62.7441 -67.2852 C 62.1094 -67.7246 61.4258 -67.4805 61.1328 -66.9922 C 60.8887 -66.4551 61.0352 -65.7715 61.5723 -65.4297 C 72.0215 -59.3262 79.0527 -48.0469 79.0527 -35.1562 C 79.0527 -15.8691 63.3789 -0.146484 44.043 -0.146484 C 24.7559 -0.146484 9.08203 -15.8691 9.08203 -35.1562 C 9.08203 -52.2949 21.3867 -66.5527 37.6465 -69.5801 L 37.6465 -61.8164 C 37.6465 -60.5469 38.5742 -60.0098 39.7949 -60.8887 L 51.1719 -68.8477 C 52.1973 -69.5801 52.1973 -70.5078 51.1719 -71.1914 L 39.7949 -79.1504 C 38.5742 -80.0293 37.6465 -79.541 37.6465 -78.2227 L 37.6465 -71.8262 C 20.2148 -68.75 6.83594 -53.4668 6.83594 -35.1562 C 6.83594 -14.6973 23.584 2.05078 44.043 2.05078 Z M 23.0957 -50.5859 C 22.7539 -48.3887 22.6074 -46.2402 22.6074 -44.2383 C 22.6074 -29.9316 31.7383 -19.6777 43.6035 -19.6777 C 48.7305 -19.6777 53.5156 -21.9238 55.6152 -25.6348 C 57.5195 -23.1445 58.4473 -20.2148 59.9609 -15.5762 C 60.0586 -15.2832 60.4004 -15.1855 60.6445 -15.2832 L 62.3047 -16.0645 C 63.3301 -16.5527 63.7207 -17.1875 63.7207 -18.2617 C 63.7207 -21.2402 59.8633 -25.7324 57.9102 -27.5879 C 49.707 -35.3516 37.6465 -31.1523 33.6914 -39.209 C 33.5938 -39.4043 33.5449 -39.502 33.5449 -39.5996 C 33.5449 -39.9414 33.8379 -40.2344 34.082 -40.2344 C 34.3262 -40.2344 34.5215 -40.0391 34.7168 -39.8438 C 41.2109 -33.3984 50.2441 -39.0625 58.3984 -30.9082 C 58.7402 -30.5664 59.375 -30.6641 59.4238 -31.1523 C 59.5215 -31.9336 59.5703 -32.9102 59.5703 -33.9355 C 59.5703 -43.2129 53.0273 -47.2168 43.6523 -47.2168 C 40.7227 -47.2168 37.6953 -46.875 34.8633 -46.875 C 30.6152 -46.875 26.7578 -47.6074 24.4141 -50.8301 C 23.9746 -51.3672 23.1934 -51.2695 23.0957 -50.5859 Z"/>
  </g>
 </g>
</svg>
